<?xml version="1.0" encoding="utf-8"?>
<!-- Generator: Adobe Illustrator 21.1.0, SVG Export Plug-In . SVG Version: 6.00 Build 0)  -->
<svg version="1.1" id="Layer_1" xmlns="http://www.w3.org/2000/svg" xmlns:xlink="http://www.w3.org/1999/xlink" x="0px" y="0px"
	 viewBox="0 0 73.5 51.4" style="enable-background:new 0 0 73.5 51.4;" xml:space="preserve">
<style type="text/css">
	.st0{opacity:0.5;fill:#828282;}
</style>
<path class="st0" d="M72.3,1c-0.6-0.4-1.3-0.6-2-0.8c-0.4-0.1-0.8-0.1-1.2-0.1C68.8,0.1,68.3,0,68,0c-0.2,0-0.5,0.2-0.7,0.3
	c-0.2,0.1-0.5,0.1-0.7,0.2c-0.4,0.1-0.8,0.2-1.2,0.4c-0.9,0.3-1.7,0.6-2.6,1c-0.8,0.3-1.6,0.7-2.4,1.2c-0.8,0.5-1.5,1.2-2.2,1.8
	c-1.4,1.2-2.9,2.3-4.3,3.5c-1.3,1.1-2.6,2.3-3.9,3.4c-1.2,1-2.4,2-3.3,3.4c-0.2,0.3-0.4,0.8-0.7,1c-0.2,0.2-0.5,0.3-0.7,0.4
	c-0.4,0.3-0.8,0.7-1.3,1c-0.5,0.3-1.1,0.3-1.7,0.1c-0.3-0.1-0.4-0.3-0.7-0.2c-0.2,0.1-0.4,0.3-0.5,0.4c-0.1,0.1-0.1,0.3-0.2,0.5
	c-0.1,0.1-0.2,0.1-0.4,0.2c-0.2,0-0.4,0-0.7,0c-0.4-0.2-0.6-0.6-0.9-0.9c-0.3-0.4-0.6-0.8-0.8-1.2c-0.4-0.7-0.9-1.3-1.5-1.9
	c-1.1-1.2-2.3-2.2-3.6-3.1c-0.7-0.4-1.3-0.9-2-1.2c-0.7-0.4-1.3-0.9-2-1.2c-1.3-0.7-2.7-1.1-4.1-1.3c-0.7-0.1-1.5-0.2-2.2-0.3
	c-0.7-0.1-1.5-0.2-2.3-0.2c-0.5,0-0.9,0.1-1.4,0.2c-0.5,0.1-0.9,0.1-1.4,0.2c-0.8,0.2-1.5,0.3-2.3,0.4c-1.5,0.1-3.1,0-4.6,0.3
	c-0.4,0.1-0.8,0.2-1.2,0.3C9.1,8.4,8.6,8.4,8.2,8.6C7.4,8.9,6.7,9.4,6,9.9c-0.7,0.5-1.5,0.7-2.3,1c-0.7,0.3-1.8,0.6-2.2,1.3
	c-0.4,0.7-0.9,1.4-1.3,2.1c-0.3,0.5-0.1,1,0.3,1.5c-0.1,0-0.1,0-0.2,0c0.2,0.4,0.5,1.1,0.9,1.3c0.2,0.1,0.4,0,0.7,0
	c0.2,0,0.2-0.1,0.4,0c0.1,0.1,0.3,0.2,0.4,0.2C3,17.6,3.2,17.8,3.4,18c0.1,0.2,0.3,0.3,0.5,0.4c0.5,0.3,0.9,0.2,1.4,0.1
	c0.3-0.1,0.8-0.1,1,0c0.2,0.1,0.4,0.5,0.6,0.7c0.5,0.8,0.9,1.6,1.1,2.5c1.1,1.1,1.1,3.1,1,5.1c0.4,1.4,1,2.8,2.6,2.7
	c1,0,1,1.4,0.2,1.7c-0.1,0.1-0.2,0.1-0.3,0.2c-0.6,0.3-1.2,0.6-1.7,0.9C9.4,33,9,33.8,8.5,34.5c0,0.4,0.1,0.8,0,1.2
	c-0.1,0.3-0.2,0.5-0.3,0.8c0,0.2,0,0.4-0.1,0.5c0,0.1-0.1,0.2-0.2,0.3c-0.2,0.2-0.4,0.4-0.5,0.6c-0.3,0.4-0.6,0.9-0.9,1.4
	c-1,1.8-1.2,3.9-0.5,5.9c0.7,2,2.1,3.9,3.9,5c1.1,0.6,2.1,0.7,3.3,0.9c0.4,0.1,0.7,0.1,1.1,0.2c0.2,0,0.3,0.1,0.5,0
	c0.2,0,0.3-0.1,0.5-0.2c0.3-0.2,0.7-0.3,1-0.5c0.3-0.2,0.6-0.4,0.9-0.5c0.3-0.1,0.7-0.1,1.1-0.2c0.3-0.1,0.6-0.2,0.9-0.3
	c0.6-0.3,1.1-0.6,1.4-1.2c0.1-0.1,0.2-0.4,0.3-0.5c0.1-0.1,0.4-0.2,0.6-0.3c0.2-0.1,0.2-0.1,0.3-0.3c0.1-0.1,0.1-0.2,0.2-0.4
	c0.2-0.5,0.6-0.8,1-1.1c0.4-0.3,0.9-0.6,1.3-1c0.4-0.4,0.7-0.8,1-1.3c0.3-0.6,0.8-1,1.1-1.6c0.4-0.6,0.8-1.1,1.3-1.7
	c0.9-1,1.9-1.9,2.8-2.9c0.3-0.3,2.3-3,2-3.2c0.6-0.3,1.2-0.6,1.6-1.1c0.4-0.4,0.7-1,1.1-1.4c0.9-0.9,2.1-0.6,2.7,0.5
	c0.3,0.5,0.4,1.2,0.5,1.7c0.1,0.3,0.2,0.6,0.3,0.9c0.1,0.3,0,0.7,0.1,1.1c0.1,0.7,0.2,1.5,0.5,2.1c0.2,0.4,0.3,0.7,0.4,1.1
	c0.1,0.4,0.2,0.8,0.3,1.2c0.1,0.2,0.1,0.3,0.1,0.5c0,0.1,0,0.3,0,0.4c0.1,0.3,0.3,0.4,0.3,0.7c0.1,0.4,0.2,0.9,0.4,1.3
	c0.5,0.8,1.3,1,2.1,1c1.3,0,2.5-0.5,3.6-1.1c0.6-0.3,1.2-0.8,1.7-1.2c0.5-0.4,0.9-1.1,1.4-1.5c1-0.8,2-1.4,2.8-2.3
	c0.5-0.5,0.9-1,1.2-1.5c0.3-0.5,0.5-1.1,0.8-1.6c0.2-0.3,0.4-0.4,0.7-0.6c0.3-0.1,0.4-0.4,0.6-0.7c0.3-0.5,0.6-1,0.9-1.5
	c0.6-1.1,1.1-2.4,1.5-3.6c0.4-1.1,1.1-2.3,0.8-3.5c-0.1-0.3-0.2-0.5-0.3-0.8c0-0.2,0-0.2,0.1-0.4c0.1-0.1,0.2-0.3,0.2-0.4
	c0.3-0.5,0.8-0.9,1.2-1.3c1.5-1.4,3.7-2.6,4.3-4.7c0.1-0.5,0.2-1.1,0.1-1.6c0-0.2-0.1-0.2,0.1-0.4c0.1-0.1,0.2-0.2,0.3-0.4
	c0.2-0.2,0.4-0.5,0.6-0.7c0.7-1,1.3-2.1,1.8-3.2c0.3-0.6,0.5-1.3,0.7-1.9c0-0.1,0.1-0.3,0.1-0.4c0.1-0.2,0.1-0.2,0.4-0.3
	c0.3-0.1,0.6-0.3,0.8-0.5c1.1-0.8,1.9-1.9,2.8-2.8c0.4-0.4,0.8-1,1-1.6C73.7,2.7,73.2,1.6,72.3,1z"/>
</svg>
