<?xml version="1.0" encoding="utf-8"?>
<!-- Generator: Adobe Illustrator 21.1.0, SVG Export Plug-In . SVG Version: 6.00 Build 0)  -->
<svg version="1.1" id="Layer_1" xmlns="http://www.w3.org/2000/svg" xmlns:xlink="http://www.w3.org/1999/xlink" x="0px" y="0px"
	 viewBox="0 0 229 77" style="enable-background:new 0 0 229 77;" xml:space="preserve">
<style type="text/css">
	.st0{fill:#2B355B;stroke:#FFFFFF;stroke-width:2;stroke-miterlimit:10;}
</style>
<path class="st0" d="M228,72.1v1.1l-15.9,0.7l-3.9,0.1c0,0-0.5-1.9-0.6-3.3l-0.9-9.4l-1-8c4.9-0.1,20.4-0.2,20.4-0.2l0.1,2.5
	l0.2,2.9c0,0-8.8,0.2-11.7,0.2c-1.6,0-1.6,0-1.6,0l0.2,4.6h12.9l0,1.9l0,1.6c0,0-10.5,0.4-12.8,0.5l0.1,1.4c4.8,0,9.7,0,14.5,0
	C228,70,228,70.8,228,72.1z"/>
<path class="st0" d="M1,50.1c7.7,0,5.3,0.1,13,0.1c1.9,0,13-0.1,13-0.1v5.1l-9.1-0.1c0.1,2.6,0,16.3,0.3,18.8h-2.8h-3.1l-0.4-19.1
	l-6.2-0.1l-4.7,0C1,53.2,1,51.6,1,50.1z"/>
<path class="st0" d="M169.4,31.4c0-7.1,0-16.7,0.2-23.8l4.8-0.8c0,0,0.6,3.5,2,6.4c2.8,5.8,1.1,2.7,4.7,8.5c1,1.5,5.8,7,7.1,8.4
	c0.4-0.1,0.7-0.3,1.1-0.4c-0.3-2.3-0.6-4.6-0.8-6.9c-0.4-4.3-1.2-11.7-1.3-16.1l5.9-0.6l0.3,2.8c0,0,0.3,2.3,0.3,3.6
	c0.6,8.5,1.2,16.5,1.7,25c0.1,1.1,0.1,3.2,0.1,3.2l-5.3-0.2c-3.6-3.5-6.9-7.7-10.3-11.4c-1-1.1-2-2.2-3.8-4.1c0,4.9,0,8.1,0.1,11.9
	c0,0.1,0,3.5,0,3.5l-5.5-0.7l-4.7,2.1l-4.2-9.2l-10.2,0.4c-1.1,4.1-1.7,7.1-1.7,7.1l-5.5-1.5c-3.7,0.2-18.6,1.7-22.3,2.1
	c-0.6,0.1-2.3,0.2-2.3,0.2s-0.3-3.7-0.4-4.8c-0.5-8.8-1.5-24.1-1.5-24.1c-0.1,0-0.3,0.1-0.4-0.2c-0.4-1.5-0.1-6.2-0.1-7.8
	c4.1,0,7.9,0.1,11.8,0.1c3.6,0.1,9,0.1,12.6,0.5v3.9l0,3.5c-3.8,0.1-17,0-17,0l0.1,3.7c0.1,0.6,0.3,6.2,0.3,6.2s0.4,0,4.3-0.1
	c2.8-0.1,13.1-0.6,13.1-0.6s0.1,0.7,0.2,4l0.1,3c-3.5,0.1-17.4,0.9-17.4,0.9l0.2,3.6c0,0,1.8-0.1,2.6-0.2c4.7-0.2,12.1-1,16.8-1.2
	l0.8-2.6c2.3-7.9,5.3-17.8,7.8-25.6l3.2-0.1c0,0,0.5,0.9,0.9,1.8c2.7,6.6,5.3,13.2,8,19.8l1.4,0l0.1,3.2c-0.3-0.6,1.1,2.6,1.7,3.7
	C169,31.6,169.2,31.5,169.4,31.4z M156.6,16.8l-1.3-0.1l-1.1,4.2l-1,4l6.1-0.1l-1.6-4.4L156.6,16.8z"/>
<path class="st0" d="M97.5,2.1c6-0.3,11.8-0.3,16.4,4.4c2.1,2.1,3.2,7.2,1.3,9.5c-2.1,2.6-5.3,5.3-7.9,7.4c-0.8,0.6-1.8,1.5-1.8,1.5
	s2,4.7,4,7.3c2.2,3,1.7,2.5,6.7,1.5l3.1,6.2c-3.1,1.7-2.6,1.4-4.1,2.1c-2.2,0.9-4.4,0.6-6.1-1.8c-2.8-3.9-6.5-7.8-9.4-11.6
	c-0.5-0.7,0.4,0.5-0.9-1.2l-2.2,1.2c0,3.1,0,5.2,0,8.3c0,1.1,0,3.1,0,4.1c-2.1,0-2.1,0-5.2,0c0,0,0-2.1,0-5.9
	c-0.1-7.3-0.5-16.9-1-24.2c-0.1-1.1-1.8,0.1-2.1-1c-0.5-2-0.3-6.6-0.3-6.6s0.3,0,4.4-0.6C94,2.5,94.5,2.5,97.5,2.1z M96.9,20.7
	c4.1-2.2,8-3.8,11.2-5.9c2.6-1.8,2.1-4-1-4.5c-3.2-0.5-10.7,0.2-10.7,0.2l0.3,7.2C96.9,20.7,96.9,20.7,96.9,20.7z"/>
<path class="st0" d="M73.8,62.6c0.9-3.2,0.8-3.2,2.2-6.3c2.4-5,8.8-7,15.5-5.3c3.6,0.9,7.4,6,7.1,10.3c-0.3,4.8-1.4,7.5-5.6,10.5
	c-2.1,1.5-5,2.4-6.5,2.7c-3.8,0.8-7.5,0.5-10.2-2.6c-1.4-1.5-2.4-1.1-4-0.3c-5.8,3-11.6,2.7-17.3-0.2c-4.4-2.2-6-6.5-5-10.6
	c0.8-3,2.9-6.5,5.7-8.1c4.2-2.4,8.6-2.2,14.3-0.5c0,0,3.8,1.7,3.6,2.1l-2.7,3.4c-3.2-0.7-8.2-3.5-11.1-1.8c-2.2,1.3-4.4,3.7-4.4,6.9
	c0,2.7,4.6,5.4,7.2,5.7c1.7,0.2,9.4-1.7,11.1-2.1L73.8,62.6z M79.4,64.4c0.1,4,1.1,4.1,4.3,4.8c4.7,0.9,9.7-4.6,9.5-8.7
	c-0.1-2.9-2.4-4.7-5.9-4.6C83.1,55.9,79.3,60.1,79.4,64.4z"/>
<path class="st0" d="M58.9,23.7c0.2-8,1.9-15,7.8-20.7c2.5-2.4,10.8-2.6,13.6-0.6c6,4.2,7.8,10.4,7.7,17c-0.2,7.9-2.9,14.8-9.9,19.4
	c-6.9,4.5-14.7,2-17.2-5.9C60,30,59.2,27.1,58.9,23.7z M81.5,18.5c-0.2-2.9-0.1-2.5-0.5-4c-0.7-2.4-2.3-5.3-4.3-6.1
	c-2.9-1.2-5.8,0-7.7,3.3c-2.8,4.9-3.8,10.1-3.1,15.5c0.2,1.9,1.6,4.6,3,5c2.1,0.6,5.3,0.3,7-1C80,28.2,81.6,24,81.5,18.5z"/>
<path class="st0" d="M40.9,17.8c2.7-3.6,5.3-7.1,8-10.7c0.9-1.2,4-4.8,5.1-5.9l2.6,1.6c2.4,1.9,3.2,2.3,3.2,2.3
	c-2.9,3.2-8.7,10.4-11,14c-1,1.6-2.7,3.9-2.7,3.9s7,9.4,9.4,9.1c1-0.2,3-0.9,3-0.9l1.2,6.1C59.1,38.4,56.6,39,55,39
	c-4.8-0.1-7.5-3.7-10.3-7.1L43,29.7l-2.2,1.9c0,0,0,4.1,0,5.3c0,2.4,0,2.4,0,2.4l-6.1,0.2c-0.8-10.9-1-27.3-1.5-38.3
	c0,0,0.5-0.1,2.9,0c2.3,0,3.5,0.3,3.5,0.3c-0.1,4.5-0.1,11.6-0.1,16.1C40,17.7,40.4,17.7,40.9,17.8z"/>
<path class="st0" d="M157.1,61.4c0,7.9-4.7,13.4-11.9,13.6c-6.8,0.2-10.4-2.6-10.6-8.2c-0.3-8.6,4-14.8,10.2-15.1
	C151.6,51.3,157.2,53.3,157.1,61.4z M142.5,69.5c5.1,0.6,9.8-3.6,9.8-7.8c0-2.8-1-5.1-3.9-5.2c-5-0.2-9.4,4.8-8.8,10.2
	C139.7,68,140.8,69,142.5,69.5z"/>
<path class="st0" d="M190.8,59.8c3.4,1.1,6.7,2.6,10.2,3.8c3.8,1.3,5.1,2.5,4.7,5.6c-0.5,1.9-1.1,2.6-3.4,3.2
	c-4.7,1.3-12.8,0.8-17.7,0.5l0.5-3.5c5.9,0,10.2,0,10.2,0s3.1-0.1,4.7-0.4c1.7-0.4,1.3-1.5,0-1.9c-4.8-1.7-8.9-3.5-13.7-5.2
	c-2.4-0.9-4.6-2.5-3.7-4.9c0.6-1.7,3.3-3.5,5.1-3.6c4.6-0.2,6.8,0.5,11.3,1.1c1,0.1,5.1,0.9,5.1,0.9l-1.3,3.7c0,0-2.8-0.4-11.6-1.5
	C190.3,57.3,188.6,59.1,190.8,59.8z"/>
<path class="st0" d="M109.8,52.7l5.1-0.1c0.1,6.5-0.1,10-0.1,10s6.2-0.1,6.5-0.1c5.9-0.1,5.8-0.2,5.8-0.2l-0.1-9.9l5.2-0.2l0.1,4
	l0.4,8.7l0.1,7.2h-5.7l-0.1-4.5l-8.2-0.1l-3.8,0.1l-0.1,4.9h-5.1C109.9,66.6,109.8,58.8,109.8,52.7z"/>
<path class="st0" d="M183,72.7c-0.9,0.6-3.6,1.6-3.6,1.6l-1.5-2.2c-2.2,0.8-4.1,1.8-6.1,2.2c-8.4,1.6-12.7-1.9-13-4
	c-0.4-2.4-0.3-15.7-0.4-18.2l5.6-0.2l0,0c0.6,8.6,0.7,10,0.7,13.2c0,4.1,2.6,4.9,5.9,4.6c2.9-0.3,5.3-2.9,5.3-6.1
	c0-2.6-0.4-11.9-0.4-11.9h2.8h2.7c0,0,0.2,13.2,0.6,16.1C181.6,70.4,183,72.7,183,72.7z"/>
<path class="st0" d="M50,73c-0.8-1.3-1.7-2.7-1.7-2.7L47.6,69c-0.4-0.8-1.5-2.9-1.3-2.5l-0.1-2.2l-1.1,0c-2.1-4.5-4.2-9-6.3-13.5
	c-0.3-0.6-0.7-1.2-0.7-1.2l-2.5,0.1c-2,5.3-4.2,11.7-6.1,17.1L28.9,68l-0.4,1.4L28,70.9l-1,2.6l2.7,0.6l2.8,0.5c0,0,0.5-2,1.4-4.8
	l8.1-0.3l3.4,6.3l3.4-0.7l2.3-0.4C50.7,74.1,50.4,73.6,50,73z M35.4,64.5l0.8-2.7l0.8-2.9l1,0l1,2.5l1.2,3L35.4,64.5z"/>
</svg>
