<?xml version="1.0" encoding="utf-8"?>
<!-- Generator: Adobe Illustrator 21.1.0, SVG Export Plug-In . SVG Version: 6.00 Build 0)  -->
<svg version="1.1" id="Layer_1" xmlns="http://www.w3.org/2000/svg" xmlns:xlink="http://www.w3.org/1999/xlink" x="0px" y="0px"
	 viewBox="0 0 413.4 412.7" style="enable-background:new 0 0 413.4 412.7;" xml:space="preserve">
<style type="text/css">
	.st0{fill:#7D80C2;}
	.st1{fill:#7E81C2;}
	.st2{fill:#FED557;}
	.st3{fill:#FED147;}
	.st4{fill:#FAD98C;}
	.st5{fill:#F6DAA5;}
	.st6{fill:#F9D893;}
	.st7{fill:#FDFDFD;}
	.st8{fill:#FEFEFE;}
	.st9{fill:#FEDA60;}
</style>
<g>
	<path class="st0" d="M53,257.9c-2.6,11.2-5.3,22.5-6.1,34c-0.2,2.5-0.6,4.5-3.1,5.6c-5.5,2.6-10.9,5.5-16.5,8
		c-2.4,1.1-3.3-0.4-2.9-2.8c0.9-5.2,2-10.4,2.9-15.6c0.3-1.5,0.4-2.9,0.5-4.4c-0.2-8.6,2.5-16.7,4.4-24.9c6.4-27.9,12-56,16.4-84.2
		c2.4-15.3,5.9-30.4,8.9-45.6c2.9-14.5,4-29.3,5.8-44c1.6-13.2,2.7-26.5,4-39.7c0.1-1,0.2-2-0.7-4.2c-2.4,6.4-6,11.1-7.9,16.7
		c-3.5,10.4-7.3,20.7-11.6,30.8c-0.5,1.1-0.8,2.4-2.2,2.4c-1.6,0.1-2.3-1.2-2.8-2.5c-1-3-1.2-6.2-1.4-9.4
		c-0.4-5.8-0.7-11.6-1.3-17.4C38.5,52.7,40,45,45.1,38.3c1.4-1.9,2.1-4.1,2.7-6.4C51.1,20.2,57.9,10.8,67,3
		c5.8-4.8,9.2-3.9,11.7,3.2c0.3,0.9,0.7,1.8,1.1,2.6c2.5,2.9,2.4,6.6,2.3,10c-0.4,15.1-0.8,30.2-1.7,45.3c-0.5,9-0.8,17.9-2.1,26.8
		c-0.5,3.1-1.7,6.1-1.9,9.3c3.2-15.2,7.9-30,14.2-44.1c2.9-6.4,5.1-12.9,7.5-19.4c5.1-13.3,13.2-24.4,25.6-31.9
		c8.9-4.2,10.5-3.6,15.1,5c4,4.8,4.9,10.8,4.1,16.5c-2.4,16.8-3.1,33.7-5.7,49c2.4-6.2,4.2-14.2,7.5-21.6c2.2-5,4.1-10.1,5.8-15.3
		c3.6-11,10.9-19.6,19.1-27.5c0.6-0.6,1.4-0.9,2.3-0.9c3.6-1.7,7.2-3.3,11.3-3.4c5.1-0.1,8.1,2.2,9.6,6.8c3.4,10.3,2,20.6,0.5,31
		c-2.9,20.9-5.5,41.8-8.1,62.7c-3.3,26.7-2.5,53.9-7.7,80.3c-4.4,22.5-3.5,45.4-7.9,67.7c-1.9,9.6-1.9,19.1-1.9,28.7
		c0,1.3-0.1,2.8,0.3,3.9c0.5,1.4,0.7,3.5,2.9,3.6c1.9,0.1,3-1.3,3.7-2.9c2.7-6.2,5.4-12.5,8.2-18.7c0.5-1.2,1-3,2.5-2.7
		c2,0.4,1.4,2.4,1.3,3.8c-0.5,8.5,0,17.2-2.1,25.3c-2.4,9-7.1,17.6-13.7,24.6c-3.2,3.4-9.1,2.2-12.3-2.7c-3.3-5.1-6-10.2-5.9-16.9
		c0.2-21.2,2.4-42.1,4.9-63c1.8-14.5,4.1-28.9,5.1-43.4c-1.3-2.5-1.2-5.3-0.7-7.8c3.1-14.1,2.9-28.6,5.1-42.9
		c1.4-9.3,1.8-18.9,2.3-28.3c1.1-20.8,3.4-41.5,5.6-62.2c0.8-7.5,0.5-15,0.3-22.5c0-1.8-0.2-4-2.1-4.7c-2.1-0.8-3.4,1-4.6,2.3
		c-5.6,6.3-9.2,13.8-12.7,21.4c-9.7,20.8-12.9,43.3-17.6,65.5c-4.1,19.4-5.8,39.1-9.3,58.5c-0.5,2.6-1,5.2-2,7.7
		c-3.4,8.1-3.6,16.8-4.8,25.2c-2.2,15.4-6,30.4-9.6,45.5c-3.9,16.3-8.3,32.5-11.4,48.9c-0.6,3.1,2.3,8.1-3.3,9.2
		c-3.4,0.7-7,0.5-10.4-0.7c-0.5-0.2-1-0.2-1.5-0.3c-2.2-4.7,0-9.1,1.1-13.5c3.7-14.5,6.7-29.2,10.6-43.6
		c6.5-24.2,11.3-48.7,14.6-73.5c2.9-21.1,6-42.1,7.4-63.4c1.2-18,1.3-35.9,1.8-53.9c0.2-6.8,0.6-13.6,1.5-20.4
		c0.5-3.3,0.5-6.7,0.2-10c-0.3-3.9-2.2-5-5.1-2.4c-4.2,3.6-8.5,7.2-10.9,12.3c-7.7,17-15.5,33.9-19.8,52.2c-5,21-8.9,42.3-14,63.3
		c-0.4,1.6-0.2,3.3-0.4,5c-4.7,26.9-10.4,53.6-15.9,80.3C56.1,247.5,56,253.1,53,257.9z"/>
	<path class="st1" d="M410.3,271.6c-3.8,15.4-8.6,30.4-18.8,42.9c-6.9,8.4-12.2,9.5-22.5,6.1c-11.5-3.9-19.4-12.1-25.9-21.8
		c-7.2-10.7-12-22.6-15.3-35c-1-3.8-0.8-7.5-0.1-11.3c1.4-8,2.4-16.1,4.5-24c0.4-1.6,0.9-3.2,1.7-4.7c0.9-1.7,1.9-3.9,4.4-3.3
		c2.2,0.5,2.1,2.8,2.3,4.5c0.9,9.6,3.8,18.5,9.9,26.2c2.5,3.3,6.1,3.8,8.9,2.2c4.4-2.5,8.1-6,9.6-11.5c7.3-26.9,4.5-52.9-6.4-78.4
		c-4.1-9.5-6.2-19.6-9.3-29.4c-2.4,0.2-2.2,2.2-2.6,3.7c-9.9,32.6-19.5,65.3-29.7,97.8c-8.4,26.9-18.9,52.9-32.7,77.5
		c-5.1,9.2-11,8.7-19.3-0.2c-5.1-5.5-5.7-13-7.3-19.9c-1.5-6.8-2.7-13.6-4.3-21.9c-4,7.5-7.1,14.1-10.8,20.2
		c-4.2,7.1-8.1,14.6-16.1,18.5c-6.6,3.2-9.1,2.7-13.8-3c-10-12.1-14.8-26.3-16.9-41.5c-4.4-31-4.6-62.1-1-93.1
		c1.6-14.1,3.8-28.4,9.5-41.7c1.1-2.6,1.5-5.4,2.1-8.2c2-9.8,8.7-16.9,15.5-23.3c4-3.8,10.6-4.7,16.1-6.9c0.4-0.2,1.1,0,1.4,0.3
		c5.5,5,11.5,9.6,13.4,17.4c5.1,20.7,0.4,40.6-5.2,60.4c-1.3,4.5-3.5,8.6-6.1,12.5c-9.1,13.8-21.3,24.6-33.5,35.4
		c-2.4,2.1-3.3,4.2-3.2,7.3c0.6,17.3,0.3,34.6,4,51.7c1.8,8.6,4.3,17,8.9,24.7c2.4,4.1,6.3,4.3,10.4,1.8
		c10.4-6.4,13.9-17.2,18.9-27.3c6.6-13,6.6-26.8,7.2-40.8c1.3-36.1,4-72,12.5-107.3c4.8-19.9,9.2-39.9,17.2-58.8
		c6.5-15.4,13.4-30.6,26.1-42.1c1.8-1.6,3.4-4.3,6.3-3c2.8,1.3,2.6,4.3,2.6,7c0,15.6-3.4,30.7-6.1,45.9
		c-6.7,37.4-15.7,74.2-28.1,110c-6.2,18-12.5,36.1-18.9,54.1c-2.6,7.2-0.5,14.9-0.6,22.3c-0.1,6,0.8,12,0.6,18
		c-0.2,11.1,3.2,21.2,7.7,31.1c0.8,1.7,1.2,3.5,3.6,3.5c2.5,0,3.8-1.5,4.9-3.6c5.7-11.3,11-22.7,15.5-34.6
		c5.8-15.4,12.1-30.6,16.9-46.3c3.2-10.5,6.2-21.1,9.6-31.4c4.1-12.4,6.7-25.3,11.6-37.5c3-7.4,3.7-15.5,7-22.8
		c6.9-15.3,11.3-31.6,19.6-46.3c1.3-2.3,2.5-4.7,4.2-6.7c2.1-2.5,4.9-4.8,8.2-3.3c3.6,1.6,7.2,4,7,8.8c-0.2,4.5-0.7,9-1.4,13.3
		c-0.6,3.2-2.7,5.1-6.2,5.5c-8.5,1.1-12,5.4-12.4,13.9c-0.8,17.2,4.7,32.6,12.1,47.8c4.8,9.8,11.1,19.2,11.9,30.4
		c0.9,13.1-0.3,26.3-2.5,39.3c-1.4,8.7-2,17.5-7.8,24.9c-4.6,5.8-10.4,10.3-16.5,14.3c-2.2,1.4-2.6,2.9-1.5,4.9
		c4.9,8.9,11.5,14.6,22.6,13.6c6.2-0.5,10-4.6,14.2-8C404.6,287,406.8,278.9,410.3,271.6z"/>
	<path class="st2" d="M95.8,164.9c1.5-8.1,3.4-16.2,4.4-24.3c1.2-10.4,3.9-20.6,3.7-31.1c0-1.5,0.5-3.3-0.6-4.4
		c-1-0.5-2.4-0.3-4.1,0.7c-0.4,0.5-0.7,0.9-1.1,1.3c-2.8,2.9-4.7,6.4-6.8,9.8c-1.2,2.1-2.2,4.4-5,6.2c-0.2-5.8,1.4-10.6,2.8-15.3
		c3.6-12.2,7.8-24.3,11.6-36.4c3.1-9.9,7.8-19,14-27.3c1-1.3,1.9-2.4,3.6-2c2,0.6,1.5,2.4,1.4,3.8c-0.8,19.6-1.1,39.2-2.6,58.8
		c-1,12.7-1.9,25.5-3.3,38.2c-1.3,12.1-3.3,24.1-5.3,36.1c0,0,0,0.1,0,0.1c-0.9,5.1-1.8,10.2-2.7,15.2c0,0.2-0.1,0.3-0.1,0.5
		c-0.8,4.6-1.6,9.3-2.4,13.9c-2.2,13.6-6,26.9-8.7,40.3c-0.3,1.5-0.8,3-1.3,4.5c-0.2,1.4-0.2,2.7-0.2,4.1c-2,9.2-3.5,18.5-7.6,27.1
		c-2.1,6.2-3.7,12.5-4.8,19c-1.2,1.5,0.3,3.6-1,5.1c-3.4,9.6-1.9,11.9,8.2,12.2c6.3,0.2,7.1,1.5,4.1,7.1c-2.7,5-5.3,10-8,14.9
		c-3.4,6.3-13,9.1-19.2,5.7c-3.8-6.5-3.5-13.6-2.6-20.7c2.9-21.4,8.9-42.1,13.8-63L95.8,164.9z"/>
	<path class="st2" d="M86.9,208.6"/>
	<path class="st2" d="M108.5,179c-0.1,0.4-0.1,0.8-0.2,1.2c-0.8,4.7-1.6,9.4-2.5,14C106.7,189.2,107.6,184.1,108.5,179z"/>
	<path class="st2" d="M173.5,338.5c-2.7,5.7-5.4,11.3-9,16.5c-2.3,3.3-5,6.2-8.7,7.9c-7,3.4-11.9-1-16.1-7.5
		c-5-7.7-6.2-16.6-6.6-25.3c-1.2-22.3,0.8-44.5,3.4-66.6c2.1-17.4,4.6-34.8,6.7-52.3c1.7-13.9,3.6-27.9,5.9-41.8
		c1.2-7.4,1.9-14.8,2.5-22.2c0.9-10.4,1.4-20.9,2.1-31.3c0.1-1.2,0-2.3,0-3.5c0.1-2.1-0.4-4.2-2.5-5c-1.9-0.7-2.8,1.4-4,2.5
		c-0.9,0.8-1.7,1.7-1.6,3c-2.7,0.3-3.2-1.1-2.6-3.3c5.4-21,10.3-42.1,19.1-62c1.3-3,3.3-5.7,5-8.5c0.7-1.2,1.5-2.2,3.2-1.9
		c1.9,0.4,1.5,2,1.6,3.2c0.5,7.7-0.6,15.3-1.2,22.9c-0.8,10.2-2.1,20.5-2.7,30.7c-1,15.2-2.5,30.4-4,45.6c-0.1,0.8,0,1.6,0.1,2.5
		c-1.9,20.6-4.4,41.2-6.9,61.8c-3.5,27.8-7.5,55.6-9.5,83.6c-0.6,8,0.1,15.9,0,23.8h0c1.2,6.8,1.9,13.8,6.6,19.5
		c4.5,5.5,9.6,6.9,16.3,4.6c1.2-0.4,2.5-1.8,3.7-0.7C175.4,335.7,174.1,337.2,173.5,338.5z"/>
	<path class="st3" d="M11.7,280.8c4.5,0.4,6.9,3.1,5.7,7.3c-1.1,4-1.3,7.9-0.5,12c0,7.9,7.6,14.8,17.2,14.8c4.3,0,4.7,2,3.6,4.9
		c-3.5,9.1-8.4,17.2-17.3,22.1c-7.4,4-14,1-16-7.1c-1.1-4.3-0.3-9-0.9-13.3c-1.5-11.4,1.7-22.1,3.5-33c0.3-1.9,0.4-4,1.8-5.6
		C9.7,282.1,9.9,280.3,11.7,280.8z"/>
	<path class="st2" d="M224.9,348.9c-0.2,0.2-0.4,0.3-0.6,0.3c-0.2,0-0.5-0.1-0.7-0.3c0,0,0-0.1,0-0.1c0-0.1,0-0.1,0-0.2
		c0.1,0,0.1,0.1,0.2,0.2C224.1,348.8,224.5,348.9,224.9,348.9z"/>
	<path class="st2" d="M379.9,348.9l-0.4-0.1c0-0.1-0.1-0.2-0.1-0.3c0,0,0.1,0.1,0.1,0.1C379.7,348.7,379.8,348.8,379.9,348.9z"/>
	<path class="st1" d="M363,54.9c-1.4,14.4-8.5,26.3-15.7,38.2c-1.9,3.2-4.6,5.6-7.4,8c-2.9,3.8-6.9,6-11.4,7.4
		c3.4-2.9,7-5.5,10.1-8.7c4.8-9.7,6.2-19.4,0.4-29.4c-2.9-5-1.5-10.4-0.4-15.6c1.7-8.2,4.7-16,10.9-21.9c4.9-4.7,7.5-4.1,10.5,1.8
		C363.4,41.1,363.7,47.8,363,54.9z"/>
	<path class="st2" d="M58.7,88c-3.2,26.6-7.3,53.1-13,79.3c-1.6,7.2-1.2,14.8-4.9,21.5c-3.2,15.9-6.2,31.9-9.5,47.8
		c-3,14.8-6.2,29.5-9.4,44.2c-1.7,6.4-3.3,12.8-5,19.2c-2.5-2.6-2.2-5.8-1.4-8.8c1.3-4.6,0.2-8.1-3.8-10.5c-1,0.7-2,1.3-2.9,2
		c4.6-17.9,8.5-35.9,12.3-54c2.5-12.1,5-24.2,7.1-36.5c2.7-15.8,5.8-31.5,8.5-47.3c0.5-2.9,1.4-5.9-3.9-6.6c-4.1-0.5-4.3-5.2-5-8.9
		c-1.3-6.6-0.1-13.2,0-19.8c1.4-8.5,2.7-16.9,4-25.4c0.4-2.6,0.9-5.1,3-7.6c2.9,4.9,1.4,10.3,3,15.1c1.2,3.8,0.9,9.1,6.1,9.7
		c5.5,0.7,6.6-4.4,8.4-8.3c2.2-5,2.9-10.7,6.7-15.5C60.9,81.7,59,84.9,58.7,88z"/>
	<path class="st2" d="M390.9,334.4c-3.3,5.1-5.8,10.8-11,14.5c-0.1-0.1-0.2-0.2-0.3-0.3c0,0-0.1-0.1-0.1-0.1c0,0.1,0.1,0.2,0.1,0.3
		l0.4,0.1c-9.1,10.8-19.6,11.9-30.6,8.4c-6.3-2.1-10.4-8.2-14.4-13.4c-8.7-11.4-14.6-24.4-19.9-37.7c-0.2-0.6-0.2-1.4-0.6-1.9
		c-0.8-1-1.7-2.6-2.6-2.7c-1.5-0.1-1.6,1.8-2.1,3c-5.6,15.5-12.6,30.3-21.4,44.2c-2.7,4.2-6.1,7.4-10.6,9.5
		c-4.6,2.1-11.5,0-15.9-5.2c-5.6-6.5-9.2-14.1-10.9-22.6c-0.4-2.2-0.7-4.7-2.9-5.4c-2.9-1-3.4,2.2-4.5,3.8
		c-4.9,6.7-8.8,14.2-16,18.9c-0.8,0.5-1.8,0.8-2.7,1.2c-0.4,0-0.8-0.1-1.1-0.1c0-0.1-0.1-0.1-0.2-0.2c0,0.1,0,0.1,0,0.2
		c0,0,0,0,0,0.1c0.2,0.3,0.5,0.4,0.7,0.3c-4.7,2.4-12.7,1.4-17.6-1.9c-9.3-6.2-12.8-16.1-16.9-25.7c-3.4-8-2.7-15.9-0.7-24.1
		c2.5-10.1,2.4-20.4,0.7-30.6c-0.6-3.8-2.1-7.4-6.4-8.8c-1.2-0.4-2.1-1-2.6-2.2c-0.7-6.4-0.7-12.8,0-19.2c-0.1-0.3-0.1-0.6,0-0.8
		c-0.6-20.9,3.3-41.2,9.3-61.1c0.6-1.9,1-5.9,3.7-5.3c2.7,0.6,0.2,3.7,0.1,5.7c-1.4,21.9-2.4,43.8-2,65.7c0,1.3,0.1,2.6,0.1,3.9
		c1.1,2.6-0.3,5.5,0.9,8.1c2,10.9,3.3,21.9,6,32.7c3.4,13.1,8.3,25.4,18.7,34.8c5.4,4.9,11,5.6,17.4,2.5c7.8-6.1,13.4-14,17.9-22.7
		c0.5-0.9,0.9-1.9,2.1-1.9c1.5,0,1.8,1.2,2,2.4c1.4,7.8,4.9,14.9,7.9,22.1c0.2,0.8,0.2,1.7,1.1,2.2c0.8,1.1,1.8,2.1,2.9,2.9
		c7,6,17.6,4.1,23.2-4.3c8.9-13.2,14.4-27.9,20-42.6c1.9-5,4.1-9.8,6.2-14.7c0.5-1,1.2-2.2,2.6-2c1.4,0.2,1.4,1.8,1.7,2.8
		c3.3,11.2,6.7,22.3,12.4,32.5c7,12.6,15.5,24,27.9,31.9c1.9,1.2,4.1,2.1,6.1,3.2c6.5,0.4,12.9,0.7,18.6-3.4c0.9-0.7,2.7-1.9,4-0.5
		C392.4,331.9,391.6,333.3,390.9,334.4z"/>
	<path class="st2" d="M224.9,348.9c-0.2,0.1-0.4,0.2-0.6,0.3c-0.2,0-0.5-0.1-0.7-0.3c0,0,0-0.1,0-0.1c0-0.1,0-0.1,0-0.2
		c0.1,0,0.1,0.1,0.2,0.2C224.1,348.8,224.5,348.9,224.9,348.9z"/>
	<path class="st2" d="M367.7,218c0,1.2-0.5,2.3-1.9,2.5c-1.7,0.3-1.7-1.1-1.9-2.2c-2-11.3-8.9-20.2-15.1-29.3c0,0,0,0,0-0.1
		c-0.3-0.7-0.6-1.4-0.9-2.1c0,0,0-0.1,0-0.1c0,0,0,0,0,0.1c-0.5,1,0.4,1.4,0.9,2.1c0,0,0,0.1,0,0.1c-2.3-0.6-2.8,1-3.3,2.6
		c-1.2,4.4-2.5,8.9-3.6,13.3c-0.4,1.6-1,2.9-2.8,2.7c-1.4-0.1-2.1-1.2-1.7-2.5c3.1-10.1,4.7-20.8,9.6-30.3c0,0,0,0,0,0
		c0.2,0.5,0.5,0.9,0.9,1.1c0,0,0.1,0,0.1,0c0,0-0.1-0.1-0.1-0.1c-0.3-0.3-0.6-0.6-0.9-1c0,0,0-0.1,0-0.1c1.2-3,0.4-6.5,2.8-9.1
		c0,0,0,0,0,0c0-0.3,0.1-0.6,0.1-0.9c0.3-2.3,0.5-5.4,3.1-5.4c2.5,0,2.8,3,3.2,5.3c0,0,0,0,0,0c5.8,10.1,10.1,20.7,11.4,32.4
		C368.2,204.1,367.8,211,367.7,218z"/>
	<path class="st4" d="M347.9,176C347.9,176,347.8,176,347.9,176c-0.6-0.2-0.9-0.6-1-1.1c0.3,0.3,0.6,0.7,0.9,1
		C347.9,175.9,347.9,176,347.9,176z"/>
	<path class="st4" d="M348.7,188.9c-0.5-0.6-1.4-1.1-0.9-2.1c0,0,0,0,0-0.1c0,0,0,0.1,0,0.1C348.1,187.5,348.4,188.2,348.7,188.9z"
		/>
	<path class="st2" d="M274.1,252.1c-0.9-4.1,0.6-6.3,1.6-8.4c4.5-9,7.1-18.7,10.9-27.9c0.5-1.2,0.6-3.1,2.4-2.3
		c1.2,0.6,0.1,2-0.2,3.1c-3.1,9.7-5.3,19.8-9,29.3c-0.7,1.9-1.4,3.7-2.1,5.6c-0.6,1.4-1.3,3.1-3,2.7
		C273.1,253.9,274.1,252,274.1,252.1z"/>
	<path class="st5" d="M347.9,176C347.9,176,347.8,176,347.9,176c-0.6-0.2-0.9-0.6-1-1.1c0.3,0.3,0.6,0.7,0.9,1
		C347.9,175.9,347.9,176,347.9,176z"/>
	<path class="st5" d="M348.7,188.9c-0.5-0.6-1.4-1.1-0.9-2.1c0,0,0,0,0-0.1c0,0,0,0.1,0,0.1C348.1,187.5,348.4,188.2,348.7,188.9z"
		/>
	<path class="st2" d="M241.4,208.5c-0.6,1.5-0.3,3.9-2.8,4.3c-4,9.8-11.2,17.2-19,24.1c-1,1.8-2.3,3.6-4.6,2.9
		c-2.4-0.8-1.2-3.1-1.4-4.8c-0.5-4.2,1.7-6.8,4.8-9.6c6.6-6,12.7-12.6,19-18.9c1.6-1.6,3.4-4.9,5.5-3.6
		C244.9,203.9,242.2,206.6,241.4,208.5z"/>
	<path class="st2" d="M327,125.9c-4.2,0.5-7-1.8-9.4-4.8c-1-1.2-1.3-2.8-0.2-4.1c1.1-1.3,2.9-0.6,3.6,0.1c4.1,3.4,8.4,3.4,13.1,2
		c0.9-0.3,2.1-0.3,2.7,0.7c0.7,1.2-0.5,1.7-1.1,2.5C333.5,125,330.5,126.2,327,125.9z"/>
	<path class="st2" d="M379.9,348.9l-0.4-0.1c0-0.1-0.1-0.2-0.1-0.3c0,0,0.1,0.1,0.1,0.1C379.7,348.7,379.8,348.8,379.9,348.9z"/>
	<path class="st2" d="M332.5,73.4c3.3,3.6,4.4,8,5.3,12.4c0.4,1.7-0.2,3.5-2.2,3.9c-2.2,0.5-2.6-1.4-3.1-3
		C331.1,82.3,332.1,78,332.5,73.4z"/>
	<path class="st2" d="M369.8,129c0-2.9,1-5.1,4.1-4.9c1.7,0.1,4.9-0.1,4.6,2.4c-0.3,3.9-4.5,4.5-7.3,5.7
		C369.3,133,370.3,130.1,369.8,129z"/>
	<path class="st2" d="M383.7,283.1c-0.3,2.6-2.4,3.4-4.8,3.7c-1.4,0.2-3.2-0.6-2.7-2c0.9-2.2,3.1-3.8,5.2-4.6
		C382.8,279.6,383.7,281.2,383.7,283.1z"/>
	<path class="st6" d="M180.7,236.7c0,6.4,0,12.8,0,19.2C179.4,249.6,179.3,243.1,180.7,236.7z"/>
	<path class="st2" d="M254.7,197c-0.3,5.4-0.3,10.9-1,16.3c-1,6.9-0.9,13.9-1,20.8c0,1,0,2-0.9,2.7c0,5-0.2,10,0,14.9
		c0.3,5.2-1.3,9.8-4,14c-0.4,1-0.8,2-1.2,2.9c-0.9,1.3-0.7,4-3.2,3.1c-1.8-0.7-1.8-2.4-0.8-4h0c-1.4-1.7-1.4-3.4,0-5.1
		c-1-5,0.5-10,0.1-15c0.2-2.7-0.9-5.5,0.9-8c1.1-14.8,4.5-29.3,8.2-43.6c0.2-0.9,0.6-1.8,1.5-1.6C254.6,194.8,254.8,196,254.7,197z"
		/>
	<path class="st6" d="M192.7,252.8c-1.8-2.5-0.6-5.4-0.9-8.1C193.5,247.3,192.5,250.1,192.7,252.8z"/>
	<path class="st7" d="M272,224.5c-2.1-5.9-0.6-11.6,0-17.3c2.3-20.5,4.5-41,7.9-61.3c2-12.2,5.8-24.2,9.1-36.2
		c3.5-12.6,7.2-25.2,11-37.8c2.2-7.3,7-13.2,10.8-19.6c0.6-1,1.5-2.6,3.1-1.9c1.5,0.7,1,2.3,1,3.6c-0.5,13.3-2.7,26.4-5.2,39.5
		c-4.2,21.9-9.7,43.4-16.4,64.6c-6.5,20.5-11.4,41.6-19.3,61.7C273.2,221.5,272.6,223,272,224.5z"/>
	<path class="st8" d="M246,126.8c-0.2,18.5-4.3,35.3-10.8,51.3c-4.2,10.4-12.3,18.8-21.7,25.5c-0.8,0.6-1.5,1.5-2.6,1
		c-1.5-0.7-0.6-2-0.5-3c0.3-10.5,2.1-20.8,1.7-31.3c-0.4-11.7,4.8-22.3,7.4-33.3c2.1-8.9,5.4-17.4,10.5-25.1
		c0.9-1.4,1.9-2.8,3.1-3.9c3.9-3.7,7.6-3.1,9.9,1.8C245.4,115.5,246.4,121.5,246,126.8z"/>
	<path class="st2" d="M223.7,348.8c0,0-0.1,0-0.1,0c0-0.1,0-0.1,0-0.2C223.6,348.7,223.7,348.7,223.7,348.8z"/>
	<path class="st2" d="M379.6,348.6c0,0,0,0.1,0,0.2c0-0.1-0.1-0.2-0.1-0.3C379.5,348.5,379.6,348.6,379.6,348.6z"/>
	<path class="st9" d="M347.8,186.8C347.8,186.8,347.8,186.8,347.8,186.8C347.8,186.8,347.8,186.8,347.8,186.8
		C347.8,186.8,347.8,186.8,347.8,186.8z"/>
	<path class="st9" d="M347.9,176C347.9,176,347.8,176,347.9,176l-0.1-0.1C347.9,175.9,347.9,176,347.9,176z"/>
	<path class="st2" d="M308,78.3c-1.2,6.1-2.3,12.6-4,19c-0.7,2.4-0.6,5-1.6,7.2c-0.6,1.3,0.4,4.3-2,3.6c-1.8-0.5-4.2-2-3.7-5.1
		c0.7-5.1,2.7-9.9,4.1-14.8c1.1-3.8,2.8-7.4,4.1-11.1c0.4-1.2,0.3-3.1,2-2.8C308.5,74.8,307.5,76.7,308,78.3z"/>
	<path class="st2" d="M240.7,125.7c0.6,4.3-0.7,8.5-0.9,12.8c-0.1,1.8-0.9,3.7-2.6,3.7c-2.1,0-1.2-2.3-1.2-3.6
		c-0.2-4.4-0.2-8.7-5.6-10.3c-1.5-0.4-1.8-2-1-3.3c1.7-2.8,2.6-6.1,5.1-8.4c1.1-1,2.1-2.3,3.8-1.4c1.4,0.7,2.3,1.9,2.4,3.5
		C240.7,121.1,240.7,123.4,240.7,125.7z"/>
</g>
<g>
	<path class="st0" d="M1.3,405.8c2.3,1.4,5.7,2.6,9.3,2.6c5.3,0,8.4-2.8,8.4-6.9c0-3.8-2.1-5.9-7.6-8c-6.6-2.3-10.6-5.7-10.6-11.4
		c0-6.3,5.2-10.9,13-10.9c4.1,0,7.1,1,8.9,2l-1.4,4.2c-1.3-0.7-4-1.9-7.6-1.9c-5.5,0-7.6,3.3-7.6,6c0,3.8,2.4,5.6,8,7.8
		c6.8,2.6,10.3,5.9,10.3,11.8c0,6.2-4.6,11.6-14.1,11.6c-3.9,0-8.1-1.1-10.3-2.6L1.3,405.8z"/>
	<path class="st0" d="M39.1,376.3H26.8v-4.4h29.7v4.4H44.3v35.8h-5.2V376.3z"/>
	<path class="st0" d="M63.1,399.4l-4.2,12.6h-5.4l13.7-40.2h6.3l13.7,40.2h-5.5l-4.3-12.6H63.1z M76.3,395.4l-3.9-11.6
		c-0.9-2.6-1.5-5-2.1-7.3h-0.1c-0.6,2.4-1.3,4.8-2,7.3l-3.9,11.6H76.3z"/>
	<path class="st0" d="M126.7,394.4c-0.3-5.6-0.7-12.3-0.6-17.3h-0.2c-1.4,4.7-3,9.7-5.1,15.3l-7.1,19.5h-3.9l-6.5-19.1
		c-1.9-5.7-3.5-10.9-4.7-15.6h-0.1c-0.1,5-0.4,11.7-0.8,17.8l-1.1,17.2h-4.9l2.8-40.2h6.6l6.9,19.4c1.7,4.9,3,9.4,4.1,13.5h0.2
		c1-4.1,2.4-8.5,4.2-13.5l7.2-19.4h6.6l2.5,40.2h-5.1L126.7,394.4z"/>
	<path class="st0" d="M140.8,372.4c2.5-0.4,5.8-0.8,10-0.8c5.1,0,8.9,1.2,11.3,3.3c2.2,1.9,3.5,4.8,3.5,8.4c0,3.6-1.1,6.5-3.1,8.6
		c-2.7,2.9-7.2,4.4-12.3,4.4c-1.6,0-3-0.1-4.2-0.4v16.1h-5.2V372.4z M146,391.8c1.1,0.3,2.6,0.4,4.3,0.4c6.3,0,10.1-3,10.1-8.6
		c0-5.3-3.8-7.9-9.5-7.9c-2.3,0-4,0.2-4.9,0.4V391.8z"/>
	<path class="st0" d="M171.8,405.8c2.3,1.4,5.7,2.6,9.3,2.6c5.3,0,8.4-2.8,8.4-6.9c0-3.8-2.1-5.9-7.6-8c-6.6-2.3-10.6-5.7-10.6-11.4
		c0-6.3,5.2-10.9,13-10.9c4.1,0,7.1,1,8.9,2l-1.4,4.2c-1.3-0.7-4-1.9-7.6-1.9c-5.5,0-7.6,3.3-7.6,6c0,3.8,2.4,5.6,8,7.8
		c6.8,2.6,10.3,5.9,10.3,11.8c0,6.2-4.6,11.6-14.1,11.6c-3.9,0-8.1-1.1-10.3-2.6L171.8,405.8z"/>
	<path class="st0" d="M239.7,412.1c-1.1-1.1-2.2-2.3-3.8-3.9c-3.5,3.2-7.3,4.6-11.7,4.6c-7.8,0-12.3-5.2-12.3-11.3
		c0-5.5,3.3-9.2,7.9-11.7v-0.2c-2.1-2.6-3.3-5.5-3.3-8.4c0-4.9,3.5-9.9,10.2-9.9c5,0,8.9,3.3,8.9,8.5c0,4.2-2.4,7.6-8.8,10.7v0.2
		c3.4,3.9,7.2,8.3,9.8,11.2c1.8-2.8,3.1-6.7,3.9-11.7h4.8c-1.1,6.3-2.8,11.3-5.8,14.8c2.1,2.3,4.2,4.5,6.6,7.1H239.7z M233.4,405.2
		c-2.4-2.6-6.9-7.5-11.3-12.6c-2.1,1.4-5.2,3.9-5.2,8.2c0,4.6,3.4,8.1,8.2,8.1C228.5,408.8,231.4,407.3,233.4,405.2z M221.1,380.7
		c0,2.9,1.3,5.1,3,7.2c4.1-2.3,6.7-4.5,6.7-7.9c0-2.4-1.4-5.2-4.6-5.2C222.9,374.8,221.1,377.6,221.1,380.7z"/>
	<path class="st0" d="M291.3,410.8c-1.9,1-5.7,1.9-10.6,1.9c-11.3,0-19.9-7.2-19.9-20.3c0-12.6,8.5-21.1,21-21.1
		c5,0,8.2,1.1,9.5,1.8l-1.3,4.2c-2-1-4.8-1.7-8.1-1.7c-9.4,0-15.7,6-15.7,16.6c0,9.8,5.7,16.2,15.4,16.2c3.2,0,6.4-0.7,8.5-1.7
		L291.3,410.8z"/>
	<path class="st0" d="M330.9,391.6c0,13.8-8.4,21.2-18.7,21.2c-10.6,0-18.1-8.2-18.1-20.4c0-12.8,7.9-21.1,18.7-21.1
		C323.8,371.3,330.9,379.7,330.9,391.6z M299.7,392.2c0,8.6,4.7,16.3,12.8,16.3c8.2,0,12.9-7.6,12.9-16.7c0-8-4.2-16.3-12.8-16.3
		C304,375.5,299.7,383.4,299.7,392.2z"/>
	<path class="st0" d="M342.8,371.9v40.2h-5.2v-40.2H342.8z"/>
	<path class="st0" d="M351.9,412.1v-40.2h5.7l12.9,20.3c3,4.7,5.3,8.9,7.2,13.1l0.1-0.1c-0.5-5.4-0.6-10.3-0.6-16.5v-16.8h4.9v40.2
		h-5.2L364,391.7c-2.8-4.5-5.5-9.1-7.5-13.4l-0.2,0.1c0.3,5.1,0.4,9.9,0.4,16.6v17.2H351.9z"/>
	<path class="st0" d="M390.4,405.8c2.3,1.4,5.7,2.6,9.3,2.6c5.3,0,8.4-2.8,8.4-6.9c0-3.8-2.1-5.9-7.6-8c-6.6-2.3-10.6-5.7-10.6-11.4
		c0-6.3,5.2-10.9,13-10.9c4.1,0,7.1,1,8.9,2l-1.4,4.2c-1.3-0.7-4-1.9-7.6-1.9c-5.5,0-7.6,3.3-7.6,6c0,3.8,2.4,5.6,8,7.8
		c6.8,2.6,10.3,5.9,10.3,11.8c0,6.2-4.6,11.6-14.1,11.6c-3.9,0-8.1-1.1-10.3-2.6L390.4,405.8z"/>
</g>
</svg>
