<?xml version="1.0" encoding="utf-8"?>
<!-- Generator: Adobe Illustrator 21.1.0, SVG Export Plug-In . SVG Version: 6.00 Build 0)  -->
<svg version="1.1" id="parking" xmlns="http://www.w3.org/2000/svg" xmlns:xlink="http://www.w3.org/1999/xlink" x="0px" y="0px"
	 viewBox="0 0 6944 6465.8" style="enable-background:new 0 0 6944 6465.8;" xml:space="preserve">
<style type="text/css">
	.st0{fill:#CEC800;}
</style>
<g>
	<g>
		<path class="st0" d="M3517.6,3490.5c-81.5,0-147.8-66.3-147.8-147.8c0-81.5,66.3-147.8,147.8-147.8s147.8,66.3,147.8,147.8
			C3665.4,3424.3,3599.1,3490.5,3517.6,3490.5z M3517.6,3211.5c-72.4,0-131.2,58.9-131.2,131.2c0,72.4,58.9,131.2,131.2,131.2
			c72.4,0,131.2-58.9,131.2-131.2C3648.8,3270.4,3589.9,3211.5,3517.6,3211.5z"/>
	</g>
	<g>
		<path class="st0" d="M3488.7,3366.7v71.8h-22.3v-190h52.2c20.3,0,36.1,4.9,47.2,14.8c11.2,9.9,16.8,23.8,16.8,41.9
			c0,18-6.2,32.8-18.6,44.3c-12.4,11.5-29.2,17.2-50.3,17.2H3488.7z M3488.7,3268.7v77.9h23.3c15.4,0,27.1-3.5,35.2-10.5
			c8.1-7,12.1-16.9,12.1-29.7c0-25.1-14.8-37.6-44.5-37.6H3488.7z"/>
	</g>
</g>
<g>
	<g>
		<path class="st0" d="M3881.4,3843.8c-57.5,0-104.2-46.7-104.2-104.2c0-57.5,46.7-104.2,104.2-104.2s104.2,46.7,104.2,104.2
			C3985.6,3797.1,3938.9,3843.8,3881.4,3843.8z M3881.4,3647.1c-51,0-92.5,41.5-92.5,92.5c0,51,41.5,92.5,92.5,92.5
			c51,0,92.5-41.5,92.5-92.5C3973.9,3688.6,3932.4,3647.1,3881.4,3647.1z"/>
	</g>
	<g>
		<path class="st0" d="M3861.1,3756.5v50.6h-15.7v-134h36.8c14.3,0,25.4,3.5,33.3,10.5c7.9,7,11.8,16.8,11.8,29.5
			c0,12.7-4.4,23.1-13.1,31.2c-8.8,8.1-20.6,12.1-35.5,12.1H3861.1z M3861.1,3687.4v54.9h16.4c10.8,0,19.1-2.5,24.8-7.4
			c5.7-5,8.5-11.9,8.5-21c0-17.7-10.5-26.5-31.4-26.5H3861.1z"/>
	</g>
</g>
<g>
	<g>
		<path class="st0" d="M1944.8,3168.9c-60.2,0-109.3-49-109.3-109.3c0-60.2,49-109.3,109.3-109.3c60.2,0,109.3,49,109.3,109.3
			C2054,3119.8,2005,3168.9,1944.8,3168.9z M1944.8,2962.6c-53.5,0-97,43.5-97,97c0,53.5,43.5,97,97,97c53.5,0,97-43.5,97-97
			C2041.8,3006.1,1998.3,2962.6,1944.8,2962.6z"/>
	</g>
	<g>
		<path class="st0" d="M1923.5,3077.3v53.1H1907V2990h38.6c15,0,26.7,3.7,34.9,11c8.3,7.3,12.4,17.6,12.4,31
			c0,13.3-4.6,24.2-13.8,32.7c-9.2,8.5-21.6,12.7-37.2,12.7H1923.5z M1923.5,3004.8v57.6h17.2c11.4,0,20-2.6,26-7.8
			c6-5.2,9-12.5,9-22c0-18.5-11-27.8-32.9-27.8H1923.5z"/>
	</g>
</g>
<g>
	<g>
		<path class="st0" d="M1716.7,4086.1c-60.1,0-109-48.9-109-109c0-60.1,48.9-109,109-109c60.1,0,109,48.9,109,109
			C1825.7,4037.2,1776.8,4086.1,1716.7,4086.1z M1716.7,3880.3c-53.4,0-96.8,43.4-96.8,96.8c0,53.4,43.4,96.8,96.8,96.8
			c53.4,0,96.8-43.4,96.8-96.8C1813.5,3923.7,1770,3880.3,1716.7,3880.3z"/>
	</g>
	<g>
		<path class="st0" d="M1695.4,3994.7v53H1679v-140.1h38.5c15,0,26.6,3.6,34.8,10.9c8.2,7.3,12.4,17.6,12.4,30.9
			c0,13.3-4.6,24.2-13.7,32.6c-9.2,8.5-21.5,12.7-37.1,12.7H1695.4z M1695.4,3922.4v57.5h17.2c11.3,0,20-2.6,25.9-7.8
			c6-5.2,8.9-12.5,8.9-21.9c0-18.5-10.9-27.8-32.8-27.8H1695.4z"/>
	</g>
</g>
<g>
	<g>
		<path class="st0" d="M1213.4,3048.6c-66.1,0-119.8-53.7-119.8-119.8c0-66.1,53.7-119.8,119.8-119.8c66.1,0,119.8,53.7,119.8,119.8
			C1333.2,2994.9,1279.5,3048.6,1213.4,3048.6z M1213.4,2822.4c-58.7,0-106.4,47.7-106.4,106.4c0,58.7,47.7,106.4,106.4,106.4
			c58.7,0,106.4-47.7,106.4-106.4C1319.8,2870.2,1272.1,2822.4,1213.4,2822.4z"/>
	</g>
	<g>
		<path class="st0" d="M1190,2948.3v58.2h-18v-154h42.3c16.5,0,29.2,4,38.3,12c9.1,8,13.6,19.3,13.6,33.9c0,14.6-5,26.6-15.1,35.9
			c-10.1,9.3-23.6,14-40.8,14H1190z M1190,2868.8v63.1h18.9c12.5,0,22-2.8,28.5-8.5c6.6-5.7,9.8-13.7,9.8-24.1
			c0-20.3-12-30.5-36.1-30.5H1190z"/>
	</g>
</g>
<g>
	<g>
		<path class="st0" d="M-144,5754.4c-74.6,0-135.3-60.7-135.3-135.3c0-74.6,60.7-135.3,135.3-135.3s135.3,60.7,135.3,135.3
			C-8.7,5693.7-69.4,5754.4-144,5754.4z M-144,5499c-66.2,0-120.1,53.9-120.1,120.1s53.9,120.1,120.1,120.1
			c66.2,0,120.1-53.9,120.1-120.1S-77.8,5499-144,5499z"/>
	</g>
	<g>
		<path class="st0" d="M-170.4,5641.1v65.7h-20.4v-173.9h47.8c18.6,0,33,4.5,43.2,13.6c10.2,9.1,15.3,21.8,15.3,38.3
			c0,16.5-5.7,30-17,40.5c-11.4,10.5-26.7,15.8-46,15.8H-170.4z M-170.4,5551.3v71.3h21.3c14.1,0,24.8-3.2,32.2-9.6
			c7.4-6.4,11.1-15.5,11.1-27.2c0-23-13.6-34.4-40.7-34.4H-170.4z"/>
	</g>
</g>
</svg>
