<?xml version="1.0" encoding="utf-8"?>
<!-- Generator: Adobe Illustrator 21.1.0, SVG Export Plug-In . SVG Version: 6.00 Build 0)  -->
<svg version="1.1" xmlns="http://www.w3.org/2000/svg" xmlns:xlink="http://www.w3.org/1999/xlink" x="0px" y="0px"
	 viewBox="0 0 6944 6465.8" style="enable-background:new 0 0 6944 6465.8;" xml:space="preserve">
<style type="text/css">
	.st0{fill:#0D0D0D;stroke:#000000;stroke-miterlimit:10;}
	.st1{fill:none;stroke:#FFFFFF;stroke-width:2;stroke-linecap:round;stroke-miterlimit:10;}
	.st2{fill:#52B345;}
	.st3{fill:#1F211F;}
	.st4{fill:#CCCCCC;}
	.st5{fill:none;stroke:#000000;stroke-miterlimit:10;}
	.st6{fill:#75939E;}
	.st7{fill:#E8E8E8;}
	.st8{fill:#8B8B8E;}
	.st9{fill:#959878;}
</style>
<g id="Energy_Fitness">
	<g>
		
			<rect x="2977" y="3033.5" transform="matrix(0.8693 -0.4943 0.4943 0.8693 -1162.4484 1895.3889)" class="st0" width="51" height="224.2"/>
		<line class="st1" x1="2934.9" y1="3057.2" x2="3042.5" y2="3245.1"/>
		<line class="st1" x1="2959.9" y1="3043.6" x2="3067.3" y2="3231.2"/>
		<g>
			<path class="st2" d="M3023.2,3132.3c2.9,11,1.1,20.7-8,28.1c-10.2,8.3-25.6,6.9-33.9-3c-8.8-10.5-7.9-25.8,2.1-34.6
				c10.3-9,25.4-8.3,34.6,1.6c0.4,0.4,0.8,0.7,1.2,1C3020.6,3127.7,3021.9,3130,3023.2,3132.3z M2989.1,3122.2
				c-11,6.3-14.2,19.3-7.6,30.7c5.5,9.5,19.1,12.9,29.1,7.2c10.4-5.9,14-19.4,8.1-29.8C3013.4,3120.7,2998.5,3116.2,2989.1,3122.2z"
				/>
			<path class="st3" d="M2989.1,3122.2c9.4-6.1,24.3-1.5,29.6,8.1c5.8,10.4,2.3,23.9-8.1,29.8c-10,5.7-23.6,2.3-29.1-7.2
				C2975,3141.5,2978.2,3128.6,2989.1,3122.2z M3015.3,3133.3c-4.1-7.1-11.9-11-18.1-9.4c-8.9,2.3-14.9,9.4-14.8,17.4
				c0.2,8.3,4.9,14.7,12.2,16.6c2.1,0.6,3.4,0,4-1.9c0.6-2-0.4-3-2.3-3.7c-6.6-2.4-9.7-8.4-7.7-14.7c1.8-5.9,7.8-9.4,13.8-8
				c6.7,1.6,9.9,6.8,8.7,14.1c-0.3,1.7,0.2,3.4,2.3,3.7c1.9,0.3,2.9-0.8,3.3-2.5C3017.6,3140.6,3016.9,3136.5,3015.3,3133.3z
				 M2998.9,3145.1C2998.9,3145.1,2998.9,3145.1,2998.9,3145.1c1.1,2,2.2,4,3.4,6c0.9,1.5,2.2,2.3,3.9,1.3c1.8-1,1.7-2.6,0.9-4
				c-2.2-4-4.5-8-6.9-11.9c-0.9-1.4-2.1-2.1-3.7-1.2c-1.8,0.9-1.9,2.4-1.1,4C2996.5,3141.2,2997.8,3143.1,2998.9,3145.1z"/>
			<path class="st2" d="M3015.3,3133.3c1.7,3.2,2.4,7.3,1.4,11.7c-0.4,1.8-1.4,2.8-3.3,2.5c-2.1-0.3-2.6-2.1-2.3-3.7
				c1.2-7.3-2-12.5-8.7-14.1c-6-1.4-12,2.1-13.8,8c-1.9,6.4,1.1,12.3,7.7,14.7c1.8,0.7,2.9,1.7,2.3,3.7c-0.6,1.9-1.9,2.5-4,1.9
				c-7.3-2-12-8.3-12.2-16.6c-0.2-8.1,5.8-15.1,14.8-17.4C3003.4,3122.3,3011.2,3126.1,3015.3,3133.3z"/>
			<path class="st2" d="M2998.9,3145.1c-1.1-2-2.4-3.9-3.4-6c-0.8-1.5-0.7-3.1,1.1-4c1.6-0.8,2.9-0.2,3.7,1.2
				c2.3,4,4.7,7.9,6.9,11.9c0.8,1.5,0.9,3-0.9,4c-1.7,1-3,0.2-3.9-1.3C3001.1,3149.1,3000,3147.1,2998.9,3145.1
				C2998.9,3145.1,2998.9,3145.1,2998.9,3145.1z"/>
		</g>
		<g>
			<path class="st2" d="M2953.8,3049.5l4.4,7.5c-0.1,0-0.1,0.1-0.1,0.1c0,0-0.1,0.1-0.1,0.1c-0.3,0.2-0.7,0.3-1.1,0.5
				c-0.4,0.1-0.8,0.2-1.2,0.3l-2.7-4.7l-3.3,1.2l2.2,3.7c-0.8,0.4-1.6,0.8-2.6,1l-2.2-3.7l-4,1.5l2.8,4.8c-0.1,0-0.1,0.1-0.1,0.1
				c0,0-0.1,0.1-0.1,0.1c-0.3,0.2-0.7,0.4-1.1,0.5c-0.4,0.1-0.8,0.2-1.2,0.3l-4.4-7.6L2953.8,3049.5z"/>
			<path class="st2" d="M2959.7,3059.6c0.2,0.2,0.3,0.4,0.5,0.6c0.1,0.2,0.2,0.4,0.3,0.6c0.2,0.4,0.4,0.8,0.5,1.2l-6.7,8.4l9.5-3.6
				c0.3,0.4,0.6,0.8,0.9,1.3c0.1,0.2,0.2,0.4,0.3,0.6c0.1,0.2,0.2,0.4,0.2,0.6l-15,5.5c-0.3-0.4-0.6-0.8-0.8-1.1
				c-0.2-0.4-0.4-0.7-0.5-1.2l6.7-8.4l-9.5,3.5c-0.2-0.2-0.3-0.4-0.5-0.6c-0.1-0.2-0.3-0.4-0.4-0.6c-0.2-0.4-0.4-0.8-0.6-1.3
				L2959.7,3059.6z"/>
			<path class="st2" d="M2967,3072.2l4.4,7.5c-0.1,0-0.1,0.1-0.1,0.1c0,0-0.1,0.1-0.1,0.1c-0.3,0.2-0.7,0.3-1.1,0.5
				c-0.4,0.1-0.8,0.2-1.2,0.3l-2.7-4.7l-3.3,1.2l2.2,3.7c-0.8,0.4-1.6,0.8-2.6,1l-2.2-3.7l-4,1.5l2.8,4.8c-0.1,0-0.1,0.1-0.1,0.1
				c0,0-0.1,0.1-0.1,0.1c-0.3,0.2-0.7,0.4-1.1,0.5c-0.4,0.1-0.8,0.2-1.2,0.3l-4.4-7.6L2967,3072.2z"/>
			<path class="st2" d="M2972.9,3082.3c0.4,0.5,0.8,0.9,1.1,1.4c0.3,0.4,0.6,0.9,0.8,1.3c0.4,0.6,0.7,1.3,0.9,2
				c0.2,0.7,0.4,1.3,0.4,2c0,0.6-0.1,1.2-0.4,1.8c-0.3,0.6-0.8,1.1-1.5,1.5c-0.6,0.3-1.2,0.6-1.7,0.7c-0.6,0.1-1.1,0.1-1.6,0.1
				c-0.5,0-1-0.1-1.4-0.3c-0.4-0.2-0.8-0.3-1.1-0.5l-0.3-0.1l-4.5,5.3c-0.4-0.5-0.7-1-1-1.5c-0.3-0.5-0.5-1-0.7-1.5l5.1-5.8l0.4,0.2
				c0.2,0.1,0.5,0.3,0.8,0.5c0.3,0.2,0.7,0.4,1.1,0.5c0.4,0.1,0.9,0.2,1.4,0.2s1-0.2,1.5-0.5c0.3-0.2,0.6-0.4,0.7-0.7
				c0.2-0.2,0.2-0.5,0.3-0.8c0-0.3,0-0.6-0.1-0.8c-0.1-0.3-0.2-0.6-0.4-0.8c-0.2-0.3-0.3-0.5-0.4-0.6l-12.7,4.7
				c-0.2-0.2-0.3-0.5-0.5-0.7c-0.1-0.2-0.3-0.4-0.4-0.6c-0.1-0.2-0.2-0.4-0.4-0.7c-0.1-0.2-0.2-0.5-0.3-0.8L2972.9,3082.3z"/>
			<path class="st2" d="M2976.3,3103.2c0.2,0.2,0.4,0.4,0.5,0.7c0.2,0.2,0.3,0.4,0.4,0.6s0.2,0.4,0.4,0.7c0.1,0.2,0.2,0.5,0.3,0.8
				l-7.4,2.7c-0.5-0.4-1-1-1.5-1.6c-0.5-0.6-0.9-1.3-1.3-1.9c-0.5-0.9-0.9-1.8-1-2.7c-0.1-0.9-0.1-1.6,0.1-2.4c0.2-0.7,0.5-1.4,1-2
				c0.5-0.6,1.1-1.1,1.9-1.6c1.2-0.7,2.5-1.2,3.8-1.5c1.3-0.3,2.5-0.3,3.7-0.1c1.2,0.2,2.3,0.6,3.3,1.3c1,0.7,1.8,1.6,2.5,2.7
				c0.3,0.6,0.6,1.1,0.8,1.7c0.2,0.5,0.3,1.1,0.4,1.7c-0.4,0.2-0.9,0.3-1.3,0.3c-0.4,0.1-0.9,0.1-1.4,0.1c-0.1-0.5-0.2-0.9-0.3-1.3
				c-0.1-0.4-0.3-0.7-0.5-1c-0.5-0.8-1.1-1.5-1.8-1.9c-0.7-0.4-1.5-0.6-2.3-0.6c-0.8,0-1.6,0.1-2.5,0.3c-0.9,0.3-1.7,0.6-2.4,1
				c-1.1,0.6-1.7,1.4-1.9,2.2c-0.2,0.8,0,1.7,0.5,2.5c0.1,0.2,0.2,0.4,0.4,0.6c0.1,0.2,0.3,0.4,0.4,0.5L2976.3,3103.2z"/>
			<path class="st2" d="M2977.8,3110.9l7.3-7.6c0.4,0.5,0.7,1,1,1.5c0.1,0.2,0.3,0.5,0.4,0.7c0.1,0.2,0.2,0.5,0.3,0.8l-5.2,5l8.1,0
				c0.2,0.2,0.4,0.5,0.5,0.7c0.2,0.2,0.3,0.5,0.5,0.7c0.1,0.2,0.3,0.5,0.4,0.7c0.1,0.3,0.2,0.5,0.3,0.8l-12-0.4l-5.4,2
				c-0.2-0.2-0.4-0.5-0.5-0.7c-0.1-0.2-0.3-0.5-0.4-0.7c-0.1-0.2-0.2-0.4-0.4-0.7c-0.1-0.2-0.2-0.5-0.3-0.7L2977.8,3110.9z"/>
			<path class="st2" d="M3022.3,3167.1l4.4,7.5c-0.1,0-0.1,0.1-0.1,0.1c0,0-0.1,0.1-0.1,0.1c-0.3,0.2-0.7,0.3-1.1,0.5
				c-0.4,0.1-0.8,0.2-1.2,0.3l-2.7-4.7l-3.5,1.3l2.2,3.7c-0.4,0.2-0.8,0.4-1.2,0.6s-0.9,0.3-1.4,0.4l-2.2-3.7l-6.3,2.3
				c-0.4-0.5-0.7-0.9-0.9-1.3c-0.3-0.5-0.5-0.9-0.7-1.4L3022.3,3167.1z"/>
			<path class="st2" d="M3027.9,3176.8c0.4,0.4,0.7,0.9,1,1.3c0.1,0.2,0.2,0.4,0.4,0.7c0.1,0.2,0.2,0.5,0.3,0.8l-15,5.5
				c-0.4-0.5-0.7-0.9-0.9-1.4c-0.3-0.5-0.5-0.9-0.7-1.4L3027.9,3176.8z"/>
			<path class="st2" d="M3030,3185.7l-1.9-3.2c0.4-0.2,0.8-0.4,1.2-0.6c0.4-0.2,0.9-0.3,1.4-0.4l5.4,9.2c-0.4,0.2-0.8,0.4-1.2,0.6
				c-0.4,0.2-0.9,0.3-1.4,0.4l-1.9-3.2l-12.4,4.6c-0.4-0.5-0.7-0.9-0.9-1.4c-0.3-0.5-0.5-0.9-0.7-1.4L3030,3185.7z"/>
			<path class="st2" d="M3037.4,3192.9c0.2,0.2,0.3,0.4,0.5,0.6c0.1,0.2,0.2,0.4,0.3,0.5c0.2,0.4,0.4,0.8,0.5,1.2l-6.7,8.4l9.5-3.6
				c0.3,0.4,0.6,0.8,0.9,1.3c0.1,0.2,0.2,0.4,0.3,0.6c0.1,0.2,0.2,0.4,0.2,0.6l-15,5.5c-0.3-0.4-0.6-0.8-0.8-1.1
				c-0.2-0.4-0.4-0.7-0.5-1.2l6.7-8.4l-9.5,3.5c-0.2-0.2-0.3-0.4-0.5-0.6c-0.1-0.2-0.3-0.4-0.4-0.6c-0.2-0.4-0.4-0.8-0.6-1.3
				L3037.4,3192.9z"/>
			<path class="st2" d="M3044.7,3205.5l4.4,7.5c-0.1,0-0.1,0.1-0.1,0.1c0,0-0.1,0.1-0.1,0.1c-0.3,0.2-0.7,0.3-1.1,0.5
				c-0.4,0.1-0.8,0.2-1.2,0.3l-2.7-4.7l-3.3,1.2l2.2,3.7c-0.8,0.4-1.6,0.8-2.6,1l-2.2-3.7l-4,1.5l2.8,4.8c-0.1,0-0.1,0.1-0.1,0.1
				c0,0-0.1,0.1-0.1,0.1c-0.3,0.2-0.7,0.4-1.1,0.5s-0.8,0.2-1.2,0.3l-4.4-7.6L3044.7,3205.5z"/>
			<path class="st2" d="M3038.3,3219.5c0.1,0.6,0.2,1.2,0.4,1.7c0.2,0.6,0.4,1.1,0.7,1.6c0.2,0.4,0.5,0.7,0.8,1
				c0.3,0.3,0.6,0.5,0.9,0.6c0.3,0.1,0.6,0.2,1,0.2c0.3,0,0.7-0.1,1-0.3c0.3-0.1,0.4-0.3,0.6-0.6c0.1-0.2,0.2-0.5,0.3-0.7
				c0-0.3,0.1-0.6,0.1-0.9c0-0.3,0-0.6,0-1c0-1.1,0.1-2,0.4-2.8c0.2-0.8,0.7-1.4,1.4-1.8c0.7-0.4,1.4-0.6,2-0.7c0.7-0.1,1.3,0,2,0.2
				c0.6,0.2,1.2,0.6,1.8,1.1c0.6,0.5,1.1,1.2,1.5,1.9c0.4,0.7,0.7,1.3,0.9,1.9c0.2,0.6,0.3,1.2,0.5,1.9c-0.4,0.1-0.8,0.3-1.2,0.4
				c-0.5,0.1-0.9,0.1-1.4,0.1c0-0.5-0.1-0.9-0.2-1.4s-0.3-1-0.7-1.6c-0.1-0.2-0.3-0.5-0.5-0.7s-0.4-0.4-0.6-0.6
				c-0.2-0.1-0.5-0.2-0.8-0.3c-0.3,0-0.6,0-0.9,0.2c-0.4,0.3-0.7,0.6-0.8,1.1c-0.1,0.5-0.1,1-0.1,1.7c0,0.6,0,1.1,0,1.6
				c0,0.5-0.1,1-0.2,1.4s-0.3,0.8-0.6,1.2c-0.3,0.4-0.6,0.7-1.1,0.9c-0.6,0.4-1.3,0.6-2.1,0.7c-0.7,0.1-1.5,0.1-2.2-0.2
				c-0.7-0.2-1.4-0.6-2.1-1.2c-0.7-0.6-1.3-1.4-1.9-2.4c-0.7-1.2-1.2-2.5-1.4-3.9c0.4-0.2,0.8-0.3,1.3-0.4
				C3037.3,3219.6,3037.8,3219.6,3038.3,3219.5z"/>
			<path class="st2" d="M3044.2,3229.6c0.1,0.6,0.2,1.2,0.4,1.7c0.2,0.6,0.4,1.1,0.7,1.6c0.2,0.4,0.5,0.7,0.8,1
				c0.3,0.3,0.6,0.5,0.9,0.6c0.3,0.1,0.6,0.2,1,0.2c0.3,0,0.7-0.1,1-0.3c0.3-0.1,0.4-0.3,0.6-0.6c0.1-0.2,0.2-0.5,0.3-0.7
				c0-0.3,0.1-0.6,0.1-0.9c0-0.3,0-0.6,0-1c0-1.1,0.1-2,0.4-2.8c0.2-0.8,0.7-1.4,1.4-1.8c0.7-0.4,1.4-0.6,2-0.7c0.7-0.1,1.3,0,2,0.2
				c0.6,0.2,1.2,0.6,1.8,1.1c0.6,0.5,1.1,1.2,1.5,1.9c0.4,0.7,0.7,1.3,0.9,1.9c0.2,0.6,0.3,1.2,0.5,1.9c-0.4,0.1-0.8,0.3-1.2,0.4
				c-0.5,0.1-0.9,0.1-1.4,0.1c0-0.5-0.1-0.9-0.2-1.4c-0.1-0.5-0.3-1-0.7-1.6c-0.1-0.2-0.3-0.5-0.5-0.7c-0.2-0.2-0.4-0.4-0.6-0.6
				c-0.2-0.1-0.5-0.2-0.7-0.3c-0.3,0-0.6,0-0.9,0.2c-0.4,0.3-0.7,0.6-0.8,1.1c-0.1,0.5-0.1,1-0.1,1.7c0,0.6,0,1.1,0,1.6
				c0,0.5-0.1,1-0.2,1.4c-0.1,0.4-0.3,0.8-0.6,1.2c-0.3,0.4-0.6,0.7-1.1,0.9c-0.6,0.4-1.3,0.6-2.1,0.7c-0.7,0.1-1.5,0.1-2.2-0.2
				c-0.7-0.2-1.4-0.6-2.1-1.2c-0.7-0.6-1.3-1.4-1.9-2.4c-0.7-1.2-1.2-2.5-1.4-3.9c0.4-0.2,0.8-0.3,1.3-0.4
				C3043.2,3229.7,3043.7,3229.6,3044.2,3229.6z"/>
		</g>
	</g>
</g>
<g id="yoga">
	
		<rect x="2836.5" y="3716.7" transform="matrix(0.7945 -0.6073 0.6073 0.7945 -1712.3173 2525.7249)" class="st4" width="78.1" height="152.1"/>
	<line class="st5" x1="2877.3" y1="3735.1" x2="2888" y2="3748.6"/>
	<g>
		
			<ellipse transform="matrix(0.7848 -0.6198 0.6198 0.7848 -1751.3225 2599.0063)" class="st6" cx="2866.6" cy="3821.2" rx="3.5" ry="3.5"/>
		
			<ellipse transform="matrix(0.7848 -0.6198 0.6198 0.7848 -1742.1229 2604.8787)" class="st7" cx="2879.7" cy="3810.9" rx="3.5" ry="3.5"/>
		
			<ellipse transform="matrix(0.7848 -0.6198 0.6198 0.7848 -1732.8503 2610.7976)" class="st8" cx="2892.8" cy="3800.5" rx="3.5" ry="3.5"/>
		
			<ellipse transform="matrix(0.7848 -0.6198 0.6198 0.7848 -1723.5776 2616.7168)" class="st9" cx="2906" cy="3790.1" rx="3.5" ry="3.5"/>
		<g>
			<path d="M2836.3,3782.3l-0.9,0.7l-0.4-0.6c-0.1,0.4-0.2,0.8-0.4,1.2c-0.2,0.3-0.4,0.6-0.8,0.9c-0.6,0.5-1.3,0.7-2.1,0.5
				s-1.5-0.7-2.2-1.6c-0.4-0.5-0.6-0.9-0.8-1.4c-0.2-0.5-0.2-0.9-0.2-1.3c0-0.4,0.1-0.8,0.3-1.2c0.2-0.4,0.4-0.7,0.7-0.9
				c0.3-0.2,0.6-0.4,0.8-0.5s0.6-0.2,0.9-0.3l-1.8-2.3l0.9-0.7L2836.3,3782.3z M2834.3,3781.7l-2.4-3.1c-0.3,0.1-0.6,0.2-0.8,0.3
				c-0.2,0.1-0.5,0.3-0.7,0.4c-0.5,0.4-0.8,0.9-0.8,1.5c0,0.6,0.2,1.2,0.8,1.8c0.5,0.6,1,1,1.5,1.2c0.5,0.2,1,0,1.4-0.3
				c0.3-0.2,0.5-0.5,0.6-0.8C2834.1,3782.4,2834.3,3782,2834.3,3781.7z"/>
			<path d="M2840.5,3774.6c0.7,0.9,1,1.7,1,2.6c0,0.9-0.4,1.6-1.2,2.2c-0.8,0.6-1.6,0.8-2.4,0.7c-0.8-0.2-1.6-0.7-2.3-1.5
				c-0.7-0.9-1-1.7-1-2.6s0.4-1.6,1.2-2.2c0.7-0.6,1.5-0.8,2.4-0.7C2839,3773.2,2839.8,3773.7,2840.5,3774.6z M2839.6,3775.3
				c-0.5-0.7-1.1-1.1-1.6-1.2c-0.5-0.1-1,0-1.5,0.4c-0.5,0.4-0.7,0.9-0.7,1.4c0,0.5,0.3,1.2,0.8,1.9c0.5,0.7,1.1,1.1,1.6,1.2
				c0.5,0.1,1.1,0,1.5-0.4c0.5-0.4,0.7-0.8,0.7-1.4C2840.4,3776.6,2840.1,3776,2839.6,3775.3z"/>
			<path d="M2846.5,3765.5l2.8,6.4l-0.8,0.7l-4.6-3l1.9,5.2l-0.8,0.7l-5.6-4.2l0.9-0.7l4.3,3.4l-1.9-5.2l0.7-0.6l4.6,3.1l-2.3-4.9
				L2846.5,3765.5z"/>
			<path d="M2856.5,3766.3l-0.9,0.7l-2.4-3c-0.2-0.2-0.4-0.5-0.6-0.7c-0.2-0.2-0.4-0.3-0.6-0.4c-0.2-0.1-0.4-0.1-0.6,0
				c-0.2,0.1-0.4,0.2-0.7,0.4c-0.2,0.2-0.5,0.5-0.6,0.8c-0.2,0.3-0.3,0.7-0.4,1.1l3.2,4l-0.9,0.7l-4.2-5.3l0.9-0.7l0.5,0.6
				c0.1-0.5,0.2-0.9,0.4-1.2c0.2-0.4,0.5-0.7,0.8-0.9c0.6-0.5,1.2-0.6,1.7-0.5c0.6,0.1,1.1,0.5,1.6,1.1L2856.5,3766.3z"/>
			<path d="M2861,3762.7c-0.1,0.2-0.3,0.4-0.5,0.5s-0.3,0.3-0.5,0.5c-0.5,0.4-1.1,0.6-1.6,0.5c-0.5-0.1-1-0.4-1.5-1.1l-2.2-2.8
				l-0.6,0.5l-0.6-0.8l0.6-0.5l-1.2-1.5l0.9-0.7l1.2,1.5l1.9-1.5l0.6,0.8l-1.9,1.5l1.9,2.4c0.2,0.3,0.4,0.5,0.5,0.6
				c0.1,0.1,0.3,0.3,0.5,0.3c0.2,0.1,0.3,0.1,0.5,0.1s0.4-0.2,0.6-0.4c0.1-0.1,0.3-0.3,0.4-0.4c0.1-0.2,0.2-0.3,0.3-0.4l0,0
				L2861,3762.7z"/>
			<path d="M2864.5,3755.6c0.7,0.9,1,1.7,1,2.6c0,0.9-0.4,1.6-1.2,2.2c-0.8,0.6-1.6,0.8-2.4,0.7c-0.8-0.2-1.6-0.7-2.3-1.5
				c-0.7-0.9-1-1.7-1-2.6c0-0.9,0.4-1.6,1.2-2.2c0.8-0.6,1.5-0.8,2.4-0.7S2863.8,3754.8,2864.5,3755.6z M2863.6,3756.4
				c-0.5-0.7-1.1-1.1-1.6-1.2c-0.5-0.1-1,0-1.5,0.4c-0.5,0.4-0.7,0.9-0.7,1.4c0,0.5,0.3,1.2,0.8,1.9c0.5,0.7,1.1,1.1,1.6,1.2
				c0.5,0.1,1.1,0,1.5-0.4c0.5-0.4,0.7-0.8,0.7-1.4C2864.4,3757.7,2864.1,3757,2863.6,3756.4z"/>
			<path d="M2870.5,3746.5l2.8,6.4l-0.8,0.7l-4.6-3l1.9,5.2l-0.8,0.7l-5.6-4.2l0.9-0.7l4.3,3.4l-1.9-5.2l0.7-0.6l4.6,3.1l-2.3-4.9
				L2870.5,3746.5z"/>
			<path d="M2880.5,3747.3l-0.9,0.7l-2.4-3c-0.2-0.2-0.4-0.5-0.6-0.7c-0.2-0.2-0.4-0.3-0.6-0.4c-0.2-0.1-0.4-0.1-0.6,0
				c-0.2,0.1-0.4,0.2-0.7,0.4c-0.2,0.2-0.5,0.5-0.6,0.8c-0.2,0.3-0.3,0.7-0.4,1.1l3.2,4l-0.9,0.7l-4.2-5.3l0.9-0.7l0.5,0.6
				c0.1-0.5,0.2-0.9,0.4-1.2c0.2-0.4,0.5-0.7,0.8-0.9c0.6-0.5,1.2-0.6,1.7-0.5c0.6,0.1,1.1,0.5,1.6,1.1L2880.5,3747.3z"/>
		</g>
		<line class="st5" x1="2819.7" y1="3780.6" x2="2830.4" y2="3794.1"/>
		<g>
			<path d="M2890.5,3832.5c-0.2,0.4-0.4,0.7-0.6,1c-0.2,0.3-0.5,0.6-0.8,0.8c-0.4,0.3-0.8,0.5-1.2,0.7c-0.4,0.1-0.8,0.2-1.2,0.1
				c-0.4,0-0.8-0.2-1.2-0.4c-0.4-0.3-0.8-0.6-1.2-1.1c-0.7-0.9-1-1.8-0.9-2.6c0.1-0.9,0.5-1.6,1.3-2.3c0.3-0.2,0.6-0.4,1-0.6
				c0.4-0.1,0.7-0.3,1.1-0.3l0.8,1l0,0c-0.4,0-0.9,0.1-1.2,0.2c-0.4,0.1-0.7,0.3-1,0.5c-0.5,0.4-0.8,0.9-0.8,1.5s0.2,1.2,0.8,1.9
				c0.5,0.6,1,1,1.6,1.1c0.6,0.1,1.1,0,1.6-0.4c0.2-0.1,0.3-0.3,0.5-0.5c0.2-0.2,0.3-0.4,0.4-0.6c0.1-0.2,0.1-0.3,0.2-0.5
				c0.1-0.2,0.1-0.3,0.1-0.4l0,0L2890.5,3832.5z"/>
			<path d="M2894.4,3825.8l-3.9,3.1c0.3,0.3,0.5,0.6,0.8,0.7c0.3,0.2,0.6,0.3,0.9,0.3c0.3,0,0.6,0,0.9-0.1c0.3-0.1,0.6-0.3,0.8-0.5
				c0.4-0.3,0.7-0.6,0.9-1.1s0.4-0.8,0.4-1.1l0,0l0.8,1c-0.2,0.4-0.4,0.7-0.7,1.1c-0.2,0.3-0.5,0.6-0.9,0.9c-0.9,0.7-1.8,1-2.6,0.9
				c-0.9-0.1-1.7-0.6-2.4-1.5c-0.7-0.9-1-1.8-0.9-2.6c0.1-0.9,0.5-1.6,1.3-2.3c0.7-0.6,1.4-0.8,2.2-0.7c0.7,0.1,1.4,0.6,2,1.3
				L2894.4,3825.8z M2893,3825.8c-0.4-0.5-0.8-0.7-1.2-0.8c-0.4-0.1-0.9,0.1-1.4,0.5c-0.5,0.4-0.8,0.8-0.8,1.3
				c-0.1,0.5,0.1,1,0.3,1.4L2893,3825.8z"/>
			<path d="M2902.3,3823.7l-0.9,0.7l-2.4-3c-0.2-0.2-0.4-0.5-0.6-0.7c-0.2-0.2-0.4-0.3-0.6-0.4c-0.2-0.1-0.4-0.1-0.6,0
				c-0.2,0.1-0.4,0.2-0.7,0.4c-0.2,0.2-0.5,0.5-0.6,0.8c-0.2,0.3-0.3,0.7-0.4,1.1l3.2,4l-0.9,0.7l-4.2-5.3l0.9-0.7l0.5,0.6
				c0.1-0.5,0.2-0.9,0.4-1.2c0.2-0.4,0.5-0.7,0.8-0.9c0.6-0.5,1.2-0.6,1.7-0.5c0.6,0.1,1.1,0.5,1.6,1.1L2902.3,3823.7z"/>
			<path d="M2906.7,3820.1c-0.1,0.2-0.3,0.4-0.5,0.5s-0.3,0.3-0.5,0.5c-0.5,0.4-1.1,0.6-1.6,0.5c-0.5-0.1-1-0.4-1.5-1.1l-2.2-2.8
				l-0.6,0.5l-0.6-0.8l0.6-0.5l-1.2-1.5l0.9-0.7l1.2,1.5l1.9-1.5l0.6,0.8l-1.9,1.5l1.9,2.4c0.2,0.3,0.4,0.5,0.5,0.6
				c0.1,0.1,0.3,0.3,0.5,0.3c0.2,0.1,0.3,0.1,0.5,0c0.2,0,0.4-0.2,0.6-0.4c0.1-0.1,0.3-0.3,0.4-0.4c0.1-0.2,0.2-0.3,0.3-0.4l0,0
				L2906.7,3820.1z"/>
			<path d="M2910.3,3813.2l-3.9,3.1c0.3,0.3,0.5,0.6,0.8,0.7c0.3,0.2,0.6,0.3,0.9,0.3c0.3,0,0.6,0,0.9-0.1c0.3-0.1,0.6-0.3,0.8-0.5
				c0.4-0.3,0.7-0.7,0.9-1.1s0.4-0.8,0.4-1l0,0l0.8,1c-0.2,0.4-0.4,0.7-0.7,1.1c-0.2,0.3-0.5,0.6-0.9,0.9c-0.9,0.7-1.8,1-2.6,0.9
				c-0.9-0.1-1.7-0.6-2.4-1.5c-0.7-0.9-1-1.8-0.9-2.6c0.1-0.9,0.5-1.6,1.3-2.3c0.7-0.6,1.4-0.8,2.2-0.7c0.7,0.1,1.4,0.6,2,1.3
				L2910.3,3813.2z M2908.9,3813.2c-0.4-0.5-0.8-0.7-1.2-0.8c-0.4-0.1-0.9,0.1-1.4,0.5c-0.5,0.4-0.8,0.8-0.8,1.3
				c-0.1,0.5,0.1,1,0.3,1.4L2908.9,3813.2z"/>
			<path d="M2913.6,3807.7L2913.6,3807.7c-0.2,0.1-0.4,0.2-0.5,0.3c-0.1,0.1-0.3,0.2-0.5,0.3c-0.3,0.2-0.5,0.5-0.7,0.8
				c-0.2,0.3-0.3,0.7-0.4,1.1l3,3.8l-0.9,0.7l-4.2-5.3l0.9-0.7l0.6,0.8c0.1-0.6,0.3-1,0.5-1.4c0.2-0.3,0.4-0.6,0.7-0.8
				c0.2-0.1,0.3-0.2,0.3-0.3c0.1,0,0.2-0.1,0.4-0.2L2913.6,3807.7z"/>
		</g>
		<g>
			<path d="M2884.2,3784c-1.3,0.6-2.5,1.4-3.7,2.3c-0.5,0.4-1,0.9-1.8,0.9c-0.5,0-0.9-0.2-1.2-0.7c-0.3-0.5-0.1-0.9,0.4-1.2
				c0.3-0.2,0.7-0.3,1-0.5c2.2-1.4,3.2-3.1,2.9-4.9c-0.2-1.2-0.9-2.4-2.2-3.5c-0.6-0.5-0.7-0.8-0.4-1.1c0.1-0.1,0.2-0.2,0.3-0.3
				c0.4-0.4,0.5-0.8,0.2-1.3c-0.5-0.6-1-0.3-1.5,0c-0.9,0.5-1.5,1.4-2.4,1.8c0,0-0.1,0-0.1,0c-0.3,0.2-0.7,0.3-1,0.6
				c-0.6,0.4-1.2,0.9-1.6,1.4c-0.3,0.3-0.5,0.7-0.7,1c-0.4,0.9-0.6,1.6-0.7,2.2c0,0.1,0,0.2,0,0.2c0,0.1,0,0.2,0,0.3
				c0,0.1,0,0.1,0,0.2c0.1,1.3,0.9,2.3,2.7,3.6c0,0,0.1,0,0.1,0.1c0.6,0.4,0.8,0.9,0.9,1.5c0.1,1.1,0.7,2.2,1.7,2.5
				c1.2,0.3,1.3,1,1.4,2c0.2,2.2,1.5,3.2,3.4,3.1c2.8-0.2,6.7-3.5,7.3-6.2c0.3-1.5-0.1-2.8-1.3-3.9
				C2886.8,3783.4,2885.5,3783.4,2884.2,3784z M2874,3781c-0.1-0.9,0.3-1.9,1.2-2.6c0.3-0.2,0.5-0.4,0.8-0.5c0,0,0,0,0,0
				c1.2-0.5,2.2-0.1,3.1,1.1c1,1.4,0.8,3-0.6,4c-1.4,1-3,0.7-4-0.6C2874.3,3782,2874.1,3781.5,2874,3781
				C2874,3781,2874.1,3781,2874,3781z M2887,3788.5c-0.3,1.1-1.1,1.7-2,2.5c-0.4,0.2-0.8,0.6-1.4,0.8c-0.9,0.4-1.8,0.6-2.6-0.2
				c-0.7-0.8-0.7-2.4,0.1-3.1c1-0.9,2.1-1.6,3.2-2.3c0.7-0.4,1.5-0.4,2.1,0.2C2887.1,3787,2887.3,3787.7,2887,3788.5z"/>
			<path d="M2870.3,3785.9c-2.3-1.7-4.8-1.8-7.2-0.2c-2.8,1.8-3.9,4.7-2.8,7.7c0.3,0.8,0.7,1.6,1.3,2.4l0,0c0.6,0.8,1.2,1.5,2.1,2.1
				c2.3,1.7,4.8,1.8,7.2,0.2c2.8-1.8,3.9-4.7,2.8-7.7c-0.3-0.7-0.6-1.4-1.1-2.2c0,0,0-0.1-0.1-0.1c-0.1-0.1-0.1-0.2-0.2-0.3
				C2871.7,3787.2,2871.1,3786.5,2870.3,3785.9z M2871.5,3791.7c0.6,1.7,0.1,3.2-1.3,4.3c-1.4,1.1-3,1.2-4.5,0.2
				c-0.9-0.6-1.6-1.3-2.2-2.2c-0.2-0.3-0.4-0.6-0.6-1c-1.2-2.3-0.9-4,0.9-5.4c1.8-1.4,3.4-1.3,5.4,0.5c0.1,0.1,0.2,0.2,0.3,0.3
				c0,0,0,0,0.1,0.1c0,0,0.1,0.1,0.1,0.1c0.1,0,0.1,0.1,0.1,0.1c0.2,0.2,0.3,0.3,0.5,0.5c0,0.1,0.1,0.1,0.1,0.2
				C2870.7,3790.1,2871.2,3790.9,2871.5,3791.7z"/>
			<path d="M2893,3769.8c-0.6-0.8-1.3-1.8-2.3-2.3c-0.8-0.4-1.7-0.5-2.5-0.5c-2,0.1-3.9,1.4-5,3c-0.5,0.7-1.1,1.8-0.9,2.7
				c0.2,0.8,1.2,1.1,1.6,0.3c0.5-1,0.9-1.9,1.7-2.6c0.7-0.6,1.7-1.4,2.7-1.3c1,0.1,2.1,0.8,2.4,1.8c0.3,0.7-0.3,1.1-0.9,1.4
				c-1.6,1-3.4,3-3.6,5c-0.2,1.7,1,3.4,2.5,4.1c1.8,0.8,4-0.1,5.2-1.5c0.4-0.5,0.7-1.1,1-1.7c0.1-0.3,0.2-0.8,0.6-1
				c0.7-0.4,2,0.4,2.2-0.7c0.1-0.5-0.2-1-0.5-1.4c-0.4-0.6-0.9-1.2-1.4-1.8C2894.8,3772.1,2893.8,3771,2893,3769.8z M2893.8,3775.2
				c0.3,1.5-0.9,3.5-2.3,3.9c-1.5,0.4-3-0.5-3-2.1c0-1.4,1.2-2.5,2.2-3.3c0.5-0.4,1-1,1.7-0.6
				C2893.2,3773.5,2893.7,3774.4,2893.8,3775.2z"/>
			<path d="M2856.5,3792.3c0.1,0.4,0.4,0.9,0.5,1.4c1.7,5,3.4,10,5,15c0.3,1,0.9,2-0.1,2.9c-0.7,0.7-1.6,0.6-1.7-0.3
				c-0.4-3.5-2.8-5.1-5.6-6.6c-2.5-1.3-4.9-3-7.3-4.5c-0.4-0.3-1.2-0.4-0.8-1.2c0.3-0.6,0.9-1.1,1.6-0.9c0.6,0.2,1.2,0.5,1.8,0.9
				c2.3,1.4,4.5,2.8,6.8,4.2c0.2,0.1,0.5,0.1,0.8,0.2c0-0.3,0.1-0.6,0-0.8c-0.9-2.7-1.9-5.4-2.9-8.1c-0.3-0.8-0.5-1.7,0.4-2.3
				C2855.6,3791.9,2856,3791.7,2856.5,3792.3z"/>
		</g>
	</g>
</g>
</svg>
