<?xml version="1.0" encoding="utf-8"?>
<!-- Generator: Adobe Illustrator 21.1.0, SVG Export Plug-In . SVG Version: 6.00 Build 0)  -->
<svg version="1.1" id="Layer_1" xmlns="http://www.w3.org/2000/svg" xmlns:xlink="http://www.w3.org/1999/xlink" x="0px" y="0px"
	 viewBox="0 0 577 209.3" style="enable-background:new 0 0 577 209.3;" xml:space="preserve">
<style type="text/css">
	.st0{fill:#FFFFFF;}
</style>
<path class="st0" d="M370,183c-4.2-2.9-6.5-6.9-6.9-12c-0.6-7.9-2.1-15.8-1.8-23.6c0.3-8.3,2.5-16.5,3.6-24.7
	c1-7.6,1.6-15.3,2.5-23.1c-11.8-2-22.4-0.8-32.6,5.4c-5.2,3.2-11.3,4.8-17.6,7.4c-0.8,11.2-7.3,20.5-16.3,28.2
	c-10.3,8.8-26.9,9.5-36.9,0.5c-4.6-4.1-7.7-11.4-8.5-17.7c-2-13.8,0.2-27.2,8-39.4c4.1-6.4,10.2-9.5,16.7-12.5
	c10-4.7,19.8-3.1,27.8,3.6c5.3,4.4,8.5,11.2,8.9,18.7c0.1,1.7,0,3.5,0,5.7c6.2-1.8,11.7-3.5,17.1-5.1c2.9-0.8,3.6-2.6,3.4-5.6
	c-0.3-6-0.2-12-0.2-18c0-3.6,1.6-5.5,5.4-5.5c4.2,0,8.3,0.1,12.5-0.1c6.2-0.4,8.4,1.9,9.7,9.1c0.2,1,0.1,2,0.1,3
	c0.1,5.8,2.3,7.7,8.3,7.9c5.9,0.2,12-1.3,17.4,2.5c4.9,3.5,8.9,7.2,8.4,14.1c-0.5,6.3,0.4,12.7-0.2,19c-0.8,8.3-3,16.5-3.5,24.7
	c-0.4,5.7-2.9,12.4,3.8,17.5c8.1-7.7,15.3-15.7,16.1-27.7c0.6-8,0.4-16.3,2.4-24c3.3-12.3,10.7-22,23.6-25.6c5.8-1.6,12-1.6,18-2.5
	c8.6-1.4,16,7.1,15.9,15.6c-0.1,9.6-2.3,17.2-11.4,21c-5,2.1-10.7,2.7-16.8,4.1c0,2-0.2,4.6,0,7.2c0.5,5.3,5.5,7.8,10.2,5.8
	c9.9-4.1,16.3-12.2,23.6-19.3c3.1-3,5.8-6.6,9.3-9.1c5.3-3.9,4.7-8.4,3.1-13.8c-5.2-17.2-0.5-26.1,13.2-34.2
	c2.1-1.2,5.2-1.1,7.8-0.9c0.9,0.1,2.5,2.3,2.4,3.4c-0.4,9.4,3.8,17.3,8,25.1c1.5,2.9,3.5,4.7,8.6,3.8c14.1-2.5,28.4-2.2,41,6.6
	c1.2,0.8,2,2.2,3,3.4c0,0.3,0,0.7,0,1c-1.2,1.1-2.5,2.2-3.7,3.2c-12.4-6.4-24.9-10.2-39.7-4.8c5.8,8.8,11,16.9,16.4,24.9
	c7.2,10.8,12.6,22.1,10.6,35.5c-0.4,2.9-1.7,6.2-3.7,8.2c-9.6,9.9-21.8,10.1-34.2,7.8c-7.8-1.5-14.8-5.8-18.7-12.8
	c-7.2-13-7.1-27.2-1.6-40.6c2.3-5.7,2.6-9.1-2.3-13.1c-4,5.5-7.6,11.2-12.1,16.2c-9.8,10.9-21.4,19.4-35.1,24.9
	c-10.1,4-20.3,4.3-30.1-0.5c-3.5-1.7-4.5-0.5-6.2,2c-4.1,6.1-8,12.5-13,17.8c-4.1,4.4-9.6,7.6-14.5,11.3
	C382.7,183,376.3,183,370,183z M287.5,109.2c-2.1,3.4-3.7,16.1-2.3,19.7c2.6,6.7,9,8.3,13.5,2.8c4.4-5.3,8.9-10.8,9.2-17.8
	C300.9,112.2,294.2,110.7,287.5,109.2z M514,129.3c-0.7,0.1-1.4,0.2-2,0.2c-0.4,4.8-0.5,9.6-1.1,14.3c-1,8.3,3.3,13.8,9.3,18.4
	c1.5,1.2,4.6,2.4,5.5,1.7c1.7-1.2,3.4-4,3.3-6C528.1,146.2,520.8,137.8,514,129.3z M449.3,115c6.7,0.9,11.5-2,14.5-7
	c1.3-2.1,0.6-5.9-0.2-8.6c-0.4-1.1-3.8-2.4-5.2-1.9C452.6,99.8,448.5,108.1,449.3,115z M307.2,99.8c0.3-0.6,0.6-1.1,0.8-1.7
	c-2.5-3.2-4.9-6.5-11.5-4.2C300.8,96.2,304,98,307.2,99.8z"/>
<path class="st0" d="M203,1c7.2,4.1,12.1,9.6,11.9,18.5c-0.1,6.8,0.2,13.7-0.1,20.5c-0.6,13.2-1.3,26.4-2.3,39.6
	c-0.6,9.2-1.7,18.3-2.6,27.4c0.4,0,0.8,0,1.2,0.1c2.8-4.9,5.6-9.8,8.5-14.6c4.6-7.7,10.9-12.1,20.3-11.4c6.2,0.5,10.5,3.9,10.5,10.2
	c-0.1,5.9-1.1,11.8-2.5,17.5c-3.1,13-11.3,23.3-20.2,32.7c-6.9,7.2-16.1,11.9-25.7,14.9c-11.4,3.5-17.8-0.9-20.6-12.8
	c-1.1-4.4-2.1-8.8-3.1-13c-4.5,4.7-9.3,9.9-14.2,14.8c-9.1,9.1-20.2,12.4-32.9,11.3c-6.5-0.5-11.6-9.3-11.9-15.5
	c-0.3-5.6-0.1-11.3-0.1-16.7c-5.2,2.5-10.1,4.9-15.1,7.2c-6.9,3.1-20.3,0.6-24.9-4.7c-0.7-0.8-1.5-1.8-1.8-2.9
	C73,107.6,81.2,91.3,97,85.8c4.9-1.7,10.3-2,15.5-2.6c3.3-0.4,6.6-0.1,9.7-0.1c0.4-0.6,0.7-0.9,0.8-1.1c0.8-10.3,0.9-9.5,11.4-10.8
	c11.7-1.5,21.5,8.3,20.7,20.1c-0.8,12.6-0.3,25.3-0.1,38c0,2,1.2,5.1,2.6,5.7c1.5,0.6,4.6-0.7,5.9-2.2c4.7-5.7,9-11.7,13.4-17.6
	c0.4-0.6,0.4-1.6,0.4-2.4c0.6-16.2,1.1-32.4,1.9-48.6c0.5-10,1.4-20.1,2.1-30.1c0.7-9.5,1.2-19.1,1.9-28.6c0.1-1.5,0.6-2.9,0.8-4.3
	C190.3,1,196.7,1,203,1z M214.4,133.9c8.4-5,13.6-12.3,17.3-20.4c2.6-5.8,3.9-12.1,5.4-18.4c0.3-1.3-1.1-3.5-2.3-4.4
	c-0.6-0.5-3,0.7-4,1.7c-1.7,1.7-3.7,3.6-4.4,5.9C222.2,110.1,218.3,122,214.4,133.9z M120.6,97.4c-10.2-2.5-18,3-20.4,10.1
	c-0.5,1.5-0.6,4.2,0.3,4.9c1.7,1.4,4.2,1.9,6.4,2.3c0.9,0.2,2.1-0.9,3.1-1.4C116.6,110.3,121.4,102.9,120.6,97.4z"/>
<path class="st0" d="M1,145c6.8-9.1,17.1-9.2,26.8-9.7c8.1-0.4,16-0.7,23.5-4c1.4-0.6,2.6-1.7,5-3.3c-7.9-7.5-15-15-22.7-21.5
	C22.8,97.4,10,89.8,5.9,75.4c-1.9-6.5-2-14.8,0.3-21.1c3.9-10.5,9.3-20.9,16.1-29.9C28.5,16.2,35.9,8.3,46,3.9
	c7.8-3.4,21.7,0.4,25.6,7.7c0.8,1.5,1.2,3.4,1.3,5.1c0.4,9.9-0.3,19.5-3.5,29.2c-2.2,6.5-2,13.9-2.3,20.9c-0.1,3.9-2,4.2-5,4.2
	c-2.9,0-5.4,0-5-4.1c0.8-7.8,1.4-15.7,2-23.5c0.1-1.6-0.1-3.2-0.3-6.4c-5.1,5.3-9.7,9.1-13.1,13.8C41.8,56.2,38.2,62,36,68.2
	c-2.4,6.7-2.8,14.2,2.3,20.2c8.2,9.4,17.1,18.1,25.2,27.4c7,8,12.3,16.9,11.3,28.3c-0.8,9.6-9.6,18-17.7,21
	c-10.8,4-21.9,4.1-33.1,4.1c-3.7,0-7.3,1.4-11,1.9c-4.4,0.6-8.5,0-12.1-2.9C1,160.3,1,152.7,1,145z"/>
<g>
	<path class="st0" d="M174.2,198.8c0-1.2,0.2-2.4,0.6-3.6s1.1-2.3,1.9-3.2c0.8-1,1.8-1.7,3-2.3c1.2-0.6,2.5-0.9,4.1-0.9
		c1.8,0,3.3,0.4,4.6,1.2c1.3,0.8,2.2,1.9,2.8,3.2l-1.2,0.7c-0.3-0.7-0.8-1.3-1.2-1.8c-0.5-0.5-1-0.9-1.6-1.2s-1.1-0.5-1.8-0.6
		c-0.6-0.1-1.2-0.2-1.8-0.2c-1.3,0-2.4,0.3-3.4,0.8s-1.8,1.2-2.5,2c-0.7,0.8-1.2,1.8-1.6,2.8c-0.4,1.1-0.5,2.1-0.5,3.2
		c0,1.2,0.2,2.3,0.6,3.4c0.4,1.1,1,2,1.7,2.9c0.7,0.8,1.6,1.5,2.6,2c1,0.5,2.1,0.7,3.2,0.7c0.6,0,1.2-0.1,1.9-0.2
		c0.6-0.2,1.3-0.4,1.9-0.7c0.6-0.3,1.2-0.7,1.7-1.2c0.5-0.5,0.9-1.1,1.3-1.8l1.2,0.6c-0.3,0.8-0.8,1.4-1.4,2c-0.6,0.6-1.2,1.1-2,1.5
		s-1.5,0.7-2.3,0.9c-0.8,0.2-1.6,0.3-2.4,0.3c-1.4,0-2.7-0.3-3.8-0.9c-1.2-0.6-2.1-1.4-3-2.4c-0.8-1-1.5-2.1-2-3.3
		C174.4,201.4,174.2,200.1,174.2,198.8z"/>
	<path class="st0" d="M203.3,209.3c-1.4,0-2.7-0.3-3.9-0.9c-1.2-0.6-2.2-1.4-3-2.3c-0.8-1-1.5-2-1.9-3.3c-0.5-1.2-0.7-2.5-0.7-3.8
		c0-1.4,0.2-2.6,0.7-3.9c0.5-1.2,1.2-2.3,2-3.3c0.8-1,1.9-1.7,3-2.3c1.2-0.6,2.4-0.8,3.8-0.8c1.4,0,2.7,0.3,3.9,0.9
		c1.2,0.6,2.2,1.4,3,2.4c0.8,1,1.5,2.1,1.9,3.3c0.5,1.2,0.7,2.5,0.7,3.7c0,1.4-0.2,2.7-0.7,3.9c-0.5,1.2-1.2,2.3-2,3.3
		c-0.8,0.9-1.8,1.7-3,2.3C205.9,209,204.6,209.3,203.3,209.3z M195.2,199c0,1.2,0.2,2.3,0.6,3.4c0.4,1.1,0.9,2,1.7,2.9
		c0.7,0.8,1.6,1.5,2.5,2c1,0.5,2.1,0.7,3.2,0.7c1.2,0,2.3-0.3,3.3-0.8c1-0.5,1.8-1.2,2.5-2c0.7-0.8,1.2-1.8,1.6-2.9
		c0.4-1.1,0.6-2.1,0.6-3.3c0-1.2-0.2-2.3-0.6-3.4c-0.4-1.1-1-2-1.7-2.9s-1.6-1.5-2.5-2c-1-0.5-2.1-0.7-3.2-0.7
		c-1.2,0-2.3,0.3-3.3,0.8c-1,0.5-1.8,1.2-2.5,2c-0.7,0.8-1.2,1.8-1.6,2.9C195.4,196.8,195.2,197.9,195.2,199z"/>
	<path class="st0" d="M235.1,209.1v-17.5l-8,13.7h-0.9l-8-13.7v17.5h-1.5v-20.3h1.5l8.4,14.5l8.4-14.5h1.5v20.3H235.1z"/>
	<path class="st0" d="M260.3,209.1v-17.5l-8,13.7h-0.9l-8-13.7v17.5H242v-20.3h1.5l8.4,14.5l8.4-14.5h1.5v20.3H260.3z"/>
	<path class="st0" d="M267.1,209.1v-20.2h1.5v20.2H267.1z"/>
	<path class="st0" d="M275.4,191.6v17.5h-1.5v-20.3h1.1l14.2,17.8v-17.8h1.5v20.2h-1.3L275.4,191.6z"/>
	<path class="st0" d="M311.1,206c-2,2.2-4.2,3.3-6.8,3.3c-1.4,0-2.6-0.3-3.8-0.9c-1.2-0.6-2.2-1.4-3-2.3c-0.8-1-1.5-2.1-2-3.3
		c-0.5-1.2-0.7-2.5-0.7-3.8c0-1.3,0.2-2.6,0.7-3.9c0.5-1.2,1.1-2.3,1.9-3.3s1.8-1.7,2.9-2.3s2.4-0.8,3.7-0.8c1,0,1.9,0.1,2.8,0.3
		c0.8,0.2,1.5,0.5,2.2,0.9s1.2,0.9,1.6,1.4c0.5,0.5,0.9,1.1,1.2,1.8l-1.2,0.7c-0.7-1.3-1.6-2.3-2.8-2.9c-1.1-0.6-2.4-0.9-3.8-0.9
		c-1.2,0-2.3,0.3-3.2,0.8c-1,0.5-1.8,1.2-2.5,2c-0.7,0.8-1.2,1.8-1.6,2.9c-0.4,1.1-0.5,2.2-0.5,3.3c0,1.2,0.2,2.3,0.6,3.4
		c0.4,1.1,1,2,1.7,2.8c0.7,0.8,1.6,1.5,2.6,2c1,0.5,2.1,0.7,3.2,0.7c1.2,0,2.4-0.3,3.5-0.9c1.1-0.6,2.2-1.5,3.2-2.7v-3.9h-4.6v-1.2
		h5.9v9.8h-1.3V206z"/>
	<path class="st0" d="M336.1,192.2c-1.3-1.5-3.2-2.2-5.6-2.2c-2,0-3.4,0.4-4.3,1.1c-0.9,0.8-1.4,1.8-1.4,3c0,0.6,0.1,1.2,0.3,1.6
		c0.2,0.4,0.6,0.8,1.1,1.1c0.5,0.3,1.1,0.6,1.9,0.8c0.8,0.2,1.6,0.4,2.7,0.6c1.1,0.2,2.1,0.5,3,0.8c0.9,0.3,1.6,0.6,2.2,1
		c0.6,0.4,1.1,0.9,1.4,1.5c0.3,0.6,0.5,1.4,0.5,2.3c0,0.9-0.2,1.7-0.5,2.3c-0.4,0.7-0.8,1.2-1.5,1.7c-0.6,0.4-1.4,0.8-2.3,1
		c-0.9,0.2-1.9,0.3-3,0.3c-3.2,0-5.8-1-8-3l0.8-1.2c0.9,0.9,1.9,1.6,3.1,2.1s2.6,0.8,4.2,0.8c1.8,0,3.2-0.3,4.2-1s1.5-1.6,1.5-2.9
		c0-0.7-0.1-1.2-0.4-1.7c-0.3-0.5-0.7-0.9-1.2-1.2c-0.5-0.3-1.2-0.6-2-0.9c-0.8-0.2-1.7-0.5-2.8-0.7c-1.1-0.2-2-0.5-2.9-0.7
		s-1.5-0.6-2.1-1s-1-0.9-1.3-1.4c-0.3-0.6-0.4-1.2-0.4-2.1c0-0.9,0.2-1.7,0.5-2.4c0.4-0.7,0.8-1.3,1.5-1.8s1.4-0.9,2.3-1.1
		s1.8-0.4,2.9-0.4c1.3,0,2.5,0.2,3.5,0.6s2,1,2.8,1.8L336.1,192.2z"/>
	<path class="st0" d="M349.8,209.3c-1.4,0-2.7-0.3-3.9-0.9c-1.2-0.6-2.2-1.4-3-2.3c-0.8-1-1.5-2-1.9-3.3c-0.5-1.2-0.7-2.5-0.7-3.8
		c0-1.4,0.2-2.6,0.7-3.9c0.5-1.2,1.2-2.3,2-3.3c0.8-1,1.9-1.7,3-2.3c1.2-0.6,2.4-0.8,3.8-0.8c1.4,0,2.7,0.3,3.9,0.9
		c1.2,0.6,2.2,1.4,3,2.4c0.8,1,1.5,2.1,1.9,3.3c0.5,1.2,0.7,2.5,0.7,3.7c0,1.4-0.2,2.7-0.7,3.9c-0.5,1.2-1.2,2.3-2,3.3
		c-0.8,0.9-1.8,1.7-3,2.3C352.4,209,351.2,209.3,349.8,209.3z M341.8,199c0,1.2,0.2,2.3,0.6,3.4c0.4,1.1,0.9,2,1.7,2.9
		c0.7,0.8,1.6,1.5,2.5,2c1,0.5,2.1,0.7,3.2,0.7c1.2,0,2.3-0.3,3.3-0.8c1-0.5,1.8-1.2,2.5-2c0.7-0.8,1.2-1.8,1.6-2.9
		c0.4-1.1,0.6-2.1,0.6-3.3c0-1.2-0.2-2.3-0.6-3.4c-0.4-1.1-1-2-1.7-2.9s-1.6-1.5-2.5-2c-1-0.5-2-0.7-3.2-0.7c-1.2,0-2.3,0.3-3.3,0.8
		c-1,0.5-1.8,1.2-2.5,2c-0.7,0.8-1.2,1.8-1.6,2.9S341.8,197.9,341.8,199z"/>
	<path class="st0" d="M371.5,209.3c-1.4,0-2.7-0.3-3.9-0.9c-1.2-0.6-2.2-1.4-3-2.3c-0.8-1-1.5-2-1.9-3.3c-0.5-1.2-0.7-2.5-0.7-3.8
		c0-1.4,0.2-2.6,0.7-3.9c0.5-1.2,1.2-2.3,2-3.3c0.8-1,1.8-1.7,3-2.3s2.4-0.8,3.8-0.8c1.4,0,2.7,0.3,3.9,0.9c1.2,0.6,2.2,1.4,3,2.4
		c0.8,1,1.5,2.1,1.9,3.3c0.5,1.2,0.7,2.5,0.7,3.7c0,1.4-0.2,2.7-0.7,3.9c-0.5,1.2-1.2,2.3-2,3.3c-0.8,0.9-1.8,1.7-3,2.3
		C374.1,209,372.9,209.3,371.5,209.3z M363.5,199c0,1.2,0.2,2.3,0.6,3.4c0.4,1.1,0.9,2,1.7,2.9c0.7,0.8,1.6,1.5,2.5,2
		c1,0.5,2.1,0.7,3.2,0.7c1.2,0,2.3-0.3,3.3-0.8c1-0.5,1.8-1.2,2.5-2c0.7-0.8,1.2-1.8,1.6-2.9c0.4-1.1,0.6-2.1,0.6-3.3
		c0-1.2-0.2-2.3-0.6-3.4c-0.4-1.1-1-2-1.7-2.9s-1.6-1.5-2.5-2c-1-0.5-2.1-0.7-3.2-0.7c-1.2,0-2.3,0.3-3.3,0.8s-1.8,1.2-2.5,2
		c-0.7,0.8-1.2,1.8-1.6,2.9C363.7,196.8,363.5,197.9,363.5,199z"/>
	<path class="st0" d="M386.5,191.6v17.5H385v-20.3h1.1l14.2,17.8v-17.8h1.5v20.2h-1.3L386.5,191.6z"/>
</g>
</svg>
