<?xml version="1.0" encoding="utf-8"?>
<!-- Generator: Adobe Illustrator 21.1.0, SVG Export Plug-In . SVG Version: 6.00 Build 0)  -->
<svg version="1.1" xmlns="http://www.w3.org/2000/svg" xmlns:xlink="http://www.w3.org/1999/xlink" x="0px" y="0px"
	 viewBox="0 0 6944 6465.8" style="enable-background:new 0 0 6944 6465.8;" xml:space="preserve">
<style type="text/css">
	.st0{fill:#FFFFFF;}
	.st1{fill:#1E73BE;}
	.st2{fill:#D82206;}
	.st3{fill:none;stroke:#FFFFFF;stroke-width:2;stroke-miterlimit:10;}
</style>
<g id="crown_cutz">
	<g>
		<polygon class="st0" points="3069,3368.5 3051.4,3377.4 3024.3,3391.2 3024.3,3391.2 2997.1,3404.9 2969.9,3418.7 2942.8,3432.5 
			2915.6,3446.3 2888.4,3460 2865.8,3471.5 2829.7,3429.5 2829.5,3429.3 2855.9,3415.2 2882.5,3401.2 2909.1,3387.1 2935.7,3373 
			2962.2,3358.9 2988.8,3344.8 3015.4,3330.8 3045.1,3315 3063.3,3355.7 		"/>
		<polygon class="st1" points="3024.3,3391.2 2997.1,3404.9 2935.7,3373 2962.2,3358.9 		"/>
		<polygon class="st2" points="2969.9,3418.7 2942.8,3432.5 2882.5,3401.2 2909.1,3387.1 		"/>
		<polygon class="st1" points="2915.6,3446.3 2888.4,3460 2829.7,3429.5 2829.5,3429.3 2855.9,3415.2 		"/>
		<polygon class="st2" points="3069,3368.5 3051.4,3377.4 2988.8,3344.8 3015.4,3330.8 3063.3,3355.7 		"/>
		<g>
			<path d="M2889.5,3424.1l-2.4-2.7c-1.2,0.2-2.4,0.6-3.7,1.3c-1.8,1-2.9,2.4-3.1,4.2c-0.3,1.8,0.2,3.9,1.5,6.3
				c1.3,2.4,2.7,3.9,4.4,4.5c1.7,0.6,3.4,0.4,5.1-0.5c0.4-0.2,0.8-0.5,1.2-0.8c0.4-0.3,0.8-0.7,1.1-1.1s0.6-0.8,0.9-1.2
				c0.3-0.4,0.5-0.7,0.6-1l0.4-0.9l2,1.2c-0.2,0.6-0.4,1.2-0.8,1.8c-0.3,0.6-0.7,1.2-1.2,1.8c-0.4,0.6-0.9,1.1-1.5,1.6
				c-0.6,0.5-1.1,0.9-1.8,1.2c-2.7,1.5-5.3,1.8-7.6,1c-2.3-0.8-4.3-2.7-5.9-5.8c-0.8-1.5-1.3-3-1.6-4.5c-0.2-1.5-0.2-2.8,0.1-4.1
				c0.3-1.3,0.9-2.5,1.8-3.5c0.8-1.1,2-2,3.3-2.7c0.4-0.2,0.9-0.4,1.4-0.6c0.5-0.2,1.1-0.4,1.6-0.5c0.5-0.1,1-0.3,1.5-0.4
				c0.5-0.1,0.9-0.2,1.2-0.2l1-0.1l2.3,4.6L2889.5,3424.1z"/>
			<path d="M2897.8,3418.3l1.3,1.8c0.5-2.2,1.5-3.6,2.9-4.4c0.7-0.4,1.5-0.7,2.3-0.8l0.3-0.1l1.9,4l-1.7,0.9l-1.5-1.8
				c-1.5,0.8-2.5,2.2-2.8,4.2l4.2,8l3-0.8l0.8,1.5l-7.7,4.1l-0.8-1.5l1.9-1.9l-5.3-9.9l-2.6,0.7l-0.8-1.5L2897.8,3418.3z"/>
			<path d="M2909.7,3421.4c-0.6-1.1-1-2.3-1.2-3.4c-0.2-1.1-0.1-2.2,0.1-3.2c0.3-1,0.7-1.9,1.3-2.7c0.6-0.8,1.5-1.5,2.5-2
				c2-1.1,3.9-1.3,5.7-0.6c1.8,0.7,3.3,2.1,4.5,4.4c0.6,1.1,1,2.2,1.1,3.3c0.2,1.1,0.1,2.1-0.1,3.1c-0.2,1-0.7,1.9-1.3,2.7
				c-0.6,0.8-1.5,1.5-2.5,2c-2,1.1-3.9,1.3-5.7,0.7C2912.5,3425.2,2911,3423.7,2909.7,3421.4z M2913.6,3412.3
				c-2.6,1.4-3,3.8-1.1,7.3c1.9,3.5,4,4.6,6.5,3.2c1.3-0.7,2-1.6,2.1-2.9c0.1-1.2-0.3-2.7-1.2-4.5
				C2918.1,3412.1,2916,3411.1,2913.6,3412.3z"/>
			<path d="M2926.3,3403.2l0.9,1.6l-1.9,1.3l7.6,8.7l-2.7-13.5l2.3-1.8l9.7,10.3l-3.1-10.9l-2.1,0.6l-0.8-1.5l6-3.3l0.9,1.6
				l-1.4,1.1l3.3,14.1l-3.1,1.6l-7-7l-2-2.2l0.8,2.9l1.9,9.7l-3.1,1.6l-9.8-10.4l-1.6,0.3l-0.8-1.5L2926.3,3403.2z"/>
			<path d="M2947.9,3391.7l1.3,1.8c0.1-0.2,0.2-0.6,0.4-1c0.2-0.4,0.4-0.9,0.8-1.3c0.3-0.5,0.7-0.9,1.1-1.4c0.4-0.4,0.9-0.8,1.5-1.1
				c1.5-0.8,2.8-0.9,3.9-0.4c1.2,0.5,2.1,1.5,2.9,3l4,7.5l2.4-0.4l0.8,1.5l-6.4,3.4l-0.8-1.5l1.4-1.6l-3.8-7.3
				c-0.5-1-1.1-1.6-1.7-1.8c-0.6-0.3-1.3-0.2-2.1,0.2c-0.4,0.2-0.7,0.4-1,0.7c-0.3,0.3-0.6,0.6-0.8,0.9c-0.2,0.3-0.4,0.7-0.6,1
				c-0.1,0.3-0.2,0.6-0.3,0.9l-0.2,0.8l4.2,7.9l2.1-0.3l0.8,1.5l-6.7,3.6l-0.8-1.5l1.9-1.9l-5.3-9.9l-2.6,0.7l-0.8-1.5
				L2947.9,3391.7z"/>
			<path d="M2980.9,3375.5l-2.4-2.7c-1.2,0.2-2.4,0.6-3.7,1.3c-1.8,1-2.9,2.4-3.1,4.2c-0.3,1.8,0.2,3.9,1.5,6.3
				c1.3,2.4,2.7,3.9,4.4,4.5c1.7,0.6,3.4,0.4,5.1-0.5c0.4-0.2,0.8-0.5,1.2-0.8s0.8-0.7,1.1-1.1c0.3-0.4,0.6-0.8,0.9-1.2
				c0.3-0.4,0.5-0.7,0.6-1l0.4-0.9l2,1.2c-0.2,0.6-0.4,1.2-0.8,1.8c-0.3,0.6-0.7,1.2-1.2,1.8c-0.4,0.6-0.9,1.1-1.5,1.6
				c-0.6,0.5-1.1,0.9-1.8,1.2c-2.7,1.5-5.3,1.8-7.6,1c-2.3-0.8-4.3-2.7-5.9-5.8c-0.8-1.5-1.3-3-1.6-4.5c-0.2-1.5-0.2-2.8,0.1-4.1
				c0.3-1.3,0.9-2.5,1.8-3.5c0.8-1.1,2-2,3.3-2.7c0.4-0.2,0.9-0.4,1.4-0.6c0.5-0.2,1.1-0.4,1.6-0.5c0.5-0.1,1-0.3,1.5-0.4
				c0.5-0.1,0.9-0.2,1.2-0.2l1-0.1l2.3,4.6L2980.9,3375.5z"/>
			<path d="M2998.2,3365l6.4,12.1l2.6-0.7l0.8,1.5l-4.4,2.5l-1.3-1.7c-0.4,1.1-1,2-1.7,2.9c-0.7,0.9-1.4,1.5-2.1,1.9
				c-1.4,0.8-2.7,0.9-3.9,0.5c-1.2-0.5-2.1-1.5-3-3l-4-7.5l-2.6,0.7l-0.8-1.5l4.9-2.8l5,9.4c0.5,0.9,1.1,1.6,1.7,1.8
				c0.6,0.3,1.3,0.2,2.1-0.2c0.8-0.4,1.4-1,1.8-1.7c0.5-0.7,0.7-1.3,0.9-1.8l0.2-0.8l-4.2-7.9l-2.6,0.7l-0.8-1.5L2998.2,3365z"/>
			<path d="M3005.1,3356.5l2.1,3.9l3.9-2.1l1.1,2l-3.9,2.1l4.6,8.6c0.6,1.1,1.3,1.4,2.2,0.9c0.6-0.3,1.2-0.9,1.7-1.8l1.5,1
				c-0.7,1.5-1.8,2.7-3,3.3c-0.9,0.5-1.8,0.6-2.7,0.3c-0.9-0.3-1.7-1.1-2.4-2.5l-4.5-8.5l-2.7,1.4l-0.9-1.7l2.5-1.7l-1.8-3.4
				L3005.1,3356.5z"/>
			<path d="M3024.4,3351.1l1.1,2l-2.4,14.4l5.5-2.9l-0.8-2.3l1.9-1l2.2,4.2l-10.7,5.7l-1.1-2l2.4-14.4l-5,2.7l0.7,2.2l-1.9,1l-2.1-4
				L3024.4,3351.1z"/>
		</g>
	</g>
</g>
<g id="urbane">
	<rect x="2775.5" y="3763.5" transform="matrix(0.7945 -0.6073 0.6073 0.7945 -1753.4368 2497.884)" width="76.7" height="152.1"/>
	<g>
		<path class="st0" d="M2757,3803.8c0.1-0.1,0.2-0.1,0.3-0.2c0.1-0.1,0.2-0.1,0.3-0.1c0.1,0,0.2,0.1,0.3,0.2
			c0.1,0.1,0.2,0.2,0.2,0.3l1.1,1.4l1.3,1.8c0.2,0.2,0.3,0.4,0.5,0.6c0.2,0.2,0.3,0.4,0.5,0.5c0.3,0.2,0.5,0.3,0.8,0.3
			c0.3,0,0.6,0,0.9-0.1c0.1,0,0.2-0.1,0.3-0.1c0.1,0,0.2-0.1,0.3-0.1c0,0,0.1,0,0.1-0.1c0,0,0.1-0.1,0.1-0.1l0.1-0.1
			c0,0,0.1-0.1,0.1-0.1c0,0,0.1-0.1,0.1-0.1c0,0,0.1-0.1,0.1-0.1c0,0,0.1-0.1,0.1-0.1c0.1-0.1,0.1-0.1,0.2-0.2
			c0.1-0.1,0.1-0.1,0.2-0.2c0.2-0.3,0.3-0.5,0.3-0.8c0-0.3,0-0.5-0.1-0.9c-0.1-0.2-0.2-0.4-0.3-0.6s-0.3-0.4-0.5-0.6l-1.2-1.6
			l-1.3-1.7c-0.1-0.1-0.2-0.2-0.3-0.4s-0.2-0.3-0.1-0.3c0-0.1,0-0.1,0.1-0.2c0.1-0.1,0.2-0.1,0.3-0.2c0,0,0.1,0,0.1-0.1
			s0.1,0,0.1-0.1c0.1,0,0.2-0.1,0.2,0c0.1,0,0.1,0.1,0.2,0.2c0.1,0.1,0.1,0.2,0.2,0.3l1,1.3l1.5,2c0.2,0.2,0.4,0.5,0.5,0.7
			c0.2,0.2,0.3,0.5,0.4,0.7c0.1,0.4,0.2,0.7,0.3,1.1c0,0.3,0,0.7-0.2,1c-0.1,0.1-0.1,0.3-0.2,0.4c-0.1,0.1-0.2,0.3-0.3,0.4
			c0,0.1-0.1,0.1-0.1,0.2c-0.1,0.1-0.1,0.1-0.2,0.2c-0.1,0.1-0.1,0.1-0.2,0.2c-0.1,0.1-0.1,0.1-0.2,0.2l-0.1,0.1
			c0,0-0.1,0.1-0.1,0.1c-0.1,0.1-0.1,0.1-0.2,0.1l-0.1,0.1c-0.1,0-0.1,0.1-0.2,0.1c0,0-0.1,0.1-0.1,0.1l-0.1,0.1
			c-0.1,0-0.1,0.1-0.2,0.1c-0.1,0-0.1,0.1-0.2,0.1c-0.1,0.1-0.3,0.1-0.4,0.2s-0.3,0.1-0.4,0.1c-0.1,0-0.1,0-0.2,0
			c-0.1,0-0.1,0-0.2,0c-0.3,0-0.6,0-0.8-0.1s-0.5-0.2-0.8-0.3c-0.1-0.1-0.2-0.1-0.3-0.2c-0.1-0.1-0.2-0.2-0.3-0.3
			c0,0-0.1-0.1-0.1-0.1c0,0-0.1-0.1-0.1-0.1l-0.1-0.1c-0.1,0-0.1-0.1-0.1-0.2c0-0.1-0.1-0.1-0.1-0.2l-0.5-0.6l-1.9-2.5l-0.5-0.7
			c0-0.1-0.1-0.1-0.1-0.2s-0.1-0.1-0.1-0.2C2756.9,3804,2756.9,3803.9,2757,3803.8C2757,3803.8,2757,3803.8,2757,3803.8z"/>
		<path class="st0" d="M2774,3801.3c0.1,0.1,0.1,0.1,0.1,0.2c0,0,0,0.1-0.1,0.1c0,0-0.1,0.1-0.1,0.1c-0.1,0.1-0.2,0.2-0.3,0.2
			c-0.1,0.1-0.2,0.1-0.3,0.1c-0.1,0-0.1,0-0.2-0.1c-0.1-0.1-0.1-0.1-0.2-0.2c0,0,0,0-0.1-0.1s0,0,0-0.1c0,0-0.1,0-0.1-0.1
			c0,0,0-0.1-0.1-0.1c0,0-0.1-0.1-0.1-0.1s-0.1-0.1-0.1-0.1l-0.4-0.4c0,0-0.1-0.1-0.1-0.1c0,0-0.1-0.1-0.1-0.1
			c-0.1-0.1-0.2-0.2-0.3-0.3c-0.1-0.1-0.2-0.2-0.3-0.3c-0.3-0.2-0.7-0.2-1-0.1c-0.1,0-0.2,0.1-0.3,0.2c-0.1,0.1-0.2,0.1-0.3,0.2
			l-1.8,1.3c0,0-0.1,0.1-0.1,0.1c0,0,0,0.1,0,0.1c0,0.1,0.1,0.2,0.2,0.4c0.1,0.1,0.2,0.3,0.3,0.4l1,1.4c0.1,0.1,0.2,0.2,0.3,0.3
			c0.1,0.1,0.2,0.2,0.2,0.3c0,0.1,0,0.1,0,0.1c0,0,0,0.1-0.1,0.1c0,0,0,0-0.1,0.1c0,0,0,0-0.1,0.1s-0.1,0-0.1,0.1
			c-0.1,0.1-0.1,0.1-0.2,0.2c-0.1,0-0.1,0.1-0.2,0.1c-0.1,0-0.1,0-0.2-0.1c-0.1-0.1-0.1-0.2-0.2-0.3l-4.4-5.8
			c-0.1-0.1-0.1-0.1-0.2-0.2c-0.1-0.1-0.1-0.1-0.1-0.2c0-0.1,0-0.1,0.1-0.2c0,0,0,0,0,0c0,0,0,0,0,0l2.8-2.1c0,0,0.1-0.1,0.1-0.1
			c0,0,0.1-0.1,0.1-0.1l0.1-0.1c0,0,0.1,0,0.1-0.1c0,0,0.1-0.1,0.1-0.1c0.1,0,0.1-0.1,0.2-0.1c0.1,0,0.1-0.1,0.2-0.1
			c0.1-0.1,0.3-0.1,0.4-0.1c0.1,0,0.3-0.1,0.4-0.1c0.2,0,0.5,0,0.7,0.1s0.4,0.2,0.7,0.4c0.1,0,0.1,0.1,0.1,0.1
			c0,0.1,0.1,0.1,0.1,0.1l0.1,0.1c0,0,0.1,0.1,0.1,0.1c0,0,0.1,0.1,0.1,0.1l0.1,0.1c0,0.1,0.1,0.1,0.1,0.2c0,0,0.1,0.1,0.1,0.2
			c0,0.1,0.1,0.2,0.1,0.3c0,0.1,0.1,0.2,0.1,0.3c0,0,0,0.1,0,0.1c0,0,0,0.1,0,0.1c0,0,0,0,0,0c0,0,0,0,0,0c0,0,0,0,0,0.1
			c0,0,0,0.1,0,0.1c0,0.1,0,0.2-0.1,0.2c0,0.1,0,0.1-0.1,0.2c0,0,0,0.1,0,0.1c0,0,0,0.1,0,0.1c0,0,0.1,0.1,0.1,0.1
			c0.1,0,0.1,0,0.1,0c0.1,0,0.2,0,0.3,0c0.1,0,0.2,0,0.3,0.1c0.1,0,0.3,0.1,0.4,0.2c0.1,0.1,0.2,0.2,0.4,0.3c0,0,0.1,0.1,0.1,0.1
			s0.1,0.1,0.1,0.1c0,0,0.1,0.1,0.1,0.1c0,0.1,0.1,0.1,0.1,0.1l0.1,0.1c0,0,0.1,0.1,0.1,0.1c0,0.1,0.1,0.1,0.1,0.1c0,0,0,0,0.1,0.1
			c0,0,0,0.1,0.1,0.1c0.1,0.1,0.1,0.1,0.2,0.2c0.1,0.1,0.1,0.1,0.2,0.2c0,0,0.1,0.1,0.1,0.1c0,0,0.1,0.1,0.1,0.1L2774,3801.3z
			 M2769.9,3798.2c0-0.1,0-0.2-0.1-0.3c0-0.1-0.1-0.2-0.1-0.3l-0.1-0.1c0-0.1-0.1-0.2-0.2-0.3c-0.1-0.1-0.2-0.2-0.3-0.2
			c-0.3-0.2-0.7-0.3-1.1-0.2c-0.2,0-0.3,0.1-0.5,0.3c-0.2,0.1-0.3,0.3-0.5,0.4l-1.6,1.2c0,0,0,0,0,0s0,0,0,0
			c-0.1,0.1-0.1,0.2-0.1,0.2c0,0.1,0.1,0.2,0.1,0.3c0.1,0.1,0.2,0.2,0.2,0.3l0.8,1.1c0.1,0.1,0.1,0.2,0.2,0.3
			c0.1,0.1,0.2,0.2,0.2,0.2c0.1,0,0.1,0,0.2,0c0.1,0,0.1-0.1,0.2-0.1l0.6-0.4c0.3-0.2,0.5-0.4,0.7-0.5c0.2-0.2,0.4-0.4,0.6-0.5
			c0.2-0.2,0.3-0.4,0.4-0.6C2769.8,3798.6,2769.9,3798.4,2769.9,3798.2z"/>
		<path class="st0" d="M2778.8,3794.1c0.1,0.1,0.3,0.2,0.4,0.4c0.1,0.2,0.2,0.3,0.3,0.5c0,0.1,0.1,0.1,0.1,0.2s0.1,0.1,0.1,0.2
			c0.1,0.5,0.1,1,0,1.5c-0.1,0.1-0.1,0.2-0.2,0.3s-0.1,0.2-0.2,0.3c0,0-0.1,0.1-0.1,0.1c0,0-0.1,0.1-0.1,0.1c0,0-0.1,0.1-0.1,0.1
			s-0.1,0.1-0.1,0.1c0,0-0.1,0.1-0.1,0.1c0,0-0.1,0.1-0.1,0.1l-2.8,2.1c-0.1,0.1-0.2,0.1-0.2,0.2c-0.1,0-0.1,0.1-0.2,0
			c-0.1,0-0.1-0.1-0.2-0.1c0-0.1-0.1-0.1-0.1-0.2l-4.5-6c0-0.1-0.1-0.1-0.1-0.2c0-0.1-0.1-0.1-0.1-0.2c0-0.1,0-0.1,0.1-0.2
			c0,0,0,0,0,0c0,0,0,0,0,0l2.3-1.7l0.4-0.3c0,0,0.1-0.1,0.1-0.1c0,0,0.1-0.1,0.1-0.1l0.1-0.1c0,0,0.1,0,0.1-0.1
			c0,0,0.1-0.1,0.1-0.1l0.1-0.1c0,0,0.1,0,0.1-0.1c0,0,0.1,0,0.1-0.1c0.1,0,0.1-0.1,0.2-0.1c0.1,0,0.1,0,0.2-0.1
			c0.4-0.1,0.8-0.1,1.1,0c0.2,0.1,0.4,0.2,0.6,0.3c0,0,0.1,0.1,0.1,0.1s0.1,0.1,0.1,0.1c0,0,0.1,0.1,0.1,0.1c0,0,0.1,0.1,0.1,0.1
			l0.1,0.1c0,0.1,0.1,0.1,0.1,0.2c0,0.1,0.1,0.1,0.1,0.2c0.2,0.4,0.2,0.7,0.2,1c0,0.1,0,0.2,0,0.2s0,0.2,0,0.2c0,0,0,0,0,0.1
			c0,0,0,0.1,0,0.1c0.1,0.1,0.1,0.1,0.2,0c0.1,0,0.2,0,0.3,0c0.3,0,0.5,0,0.8,0.1c0.1,0,0.2,0.1,0.3,0.1
			C2778.6,3794,2778.7,3794.1,2778.8,3794.1z M2771.8,3794c0,0.1,0.1,0.2,0.1,0.2c0.1,0.1,0.1,0.2,0.2,0.2l0.7,1
			c0.1,0.1,0.1,0.2,0.2,0.3c0.1,0.1,0.2,0.2,0.2,0.2c0,0,0.1,0,0.1,0c0,0,0.1,0,0.1-0.1l0.1-0.1c0,0,0.1,0,0.1-0.1
			c0,0,0.1-0.1,0.1-0.1l0.9-0.7c0,0,0.1-0.1,0.1-0.1c0,0,0.1-0.1,0.1-0.1l0.3-0.2c0,0,0-0.1,0.1-0.1c0,0,0.1,0,0.1-0.1
			c0.1-0.1,0.1-0.1,0.2-0.2c0.1-0.1,0.1-0.1,0.2-0.2c0.1-0.2,0.2-0.3,0.2-0.4c0.1-0.1,0.1-0.3,0.1-0.5c0-0.2-0.1-0.3-0.2-0.5
			c0-0.1-0.1-0.1-0.1-0.2s-0.1-0.1-0.1-0.2c0,0,0,0,0-0.1c0,0,0,0,0-0.1c-0.1-0.1-0.2-0.1-0.2-0.1c-0.1,0-0.1-0.1-0.2-0.1
			c-0.1,0-0.3,0-0.4,0c-0.2,0-0.3,0.1-0.5,0.2s-0.3,0.2-0.5,0.3s-0.3,0.2-0.5,0.4l-1.2,0.9c0,0,0,0,0,0.1c0,0,0,0,0,0
			C2771.8,3793.8,2771.8,3793.9,2771.8,3794z M2778.4,3795.3c0,0,0-0.1-0.1-0.1c0,0-0.1-0.1-0.1-0.1c0,0-0.1-0.1-0.1-0.1
			c0,0,0,0-0.1-0.1c-0.1-0.1-0.3-0.2-0.4-0.2c-0.2,0-0.3-0.1-0.5-0.1c-0.2,0-0.3,0.1-0.5,0.1c-0.1,0-0.1,0.1-0.2,0.1
			c-0.1,0-0.1,0.1-0.2,0.1c0,0-0.1,0-0.1,0.1c0,0-0.1,0.1-0.1,0.1c0,0-0.1,0-0.1,0.1s-0.1,0.1-0.1,0.1l-1.7,1.3c0,0,0,0,0,0.1
			c0,0,0,0,0,0c-0.1,0.1-0.1,0.2-0.1,0.2c0,0.1,0.1,0.2,0.1,0.3c0.1,0.1,0.2,0.2,0.2,0.3l0.8,1.1c0.1,0.1,0.1,0.2,0.2,0.3
			c0.1,0.1,0.2,0.2,0.2,0.2c0.1,0,0.1,0,0.2,0s0.1-0.1,0.2-0.1l1.6-1.2c0.1-0.1,0.2-0.2,0.4-0.3c0.1-0.1,0.2-0.2,0.3-0.3
			c0.1-0.2,0.2-0.3,0.3-0.5s0.1-0.3,0.1-0.5c0-0.1,0-0.2-0.1-0.3c0-0.1-0.1-0.2-0.1-0.3C2778.5,3795.4,2778.5,3795.4,2778.4,3795.3
			C2778.4,3795.4,2778.4,3795.3,2778.4,3795.3z"/>
		<path class="st0" d="M2786.9,3791.1c0,0,0.1,0,0.1,0.1c0.1,0,0.1,0.1,0.1,0.1c0,0,0.1,0.1,0.1,0.1c0,0,0,0.1,0,0.2
			c0,0-0.1,0.1-0.1,0.1s-0.1,0.1-0.1,0.1c-0.1,0.1-0.2,0.1-0.3,0.2c-0.1,0.1-0.2,0.1-0.3,0.1c-0.1,0-0.2,0-0.3-0.1
			c-0.1-0.1-0.2-0.1-0.3-0.2c-0.2-0.1-0.4-0.2-0.6-0.4c-0.2-0.1-0.4-0.3-0.6-0.4c-0.1,0-0.1-0.1-0.2-0.1c-0.1,0-0.1-0.1-0.2-0.1
			c-0.1,0-0.1,0-0.2,0c-0.1,0-0.1,0-0.2,0c0,0-0.1,0-0.1,0.1s-0.1,0.1-0.1,0.1l-1.8,1.4c-0.1,0-0.1,0.1-0.2,0.1s-0.1,0.1-0.2,0.2
			c-0.1,0.1-0.1,0.1-0.2,0.2c0,0.1-0.1,0.1-0.1,0.2c0,0.1,0,0.2,0.1,0.3c0,0.1,0.1,0.2,0.1,0.3c0,0.2,0.1,0.4,0.2,0.6
			c0.1,0.2,0.1,0.4,0.2,0.6c0,0,0,0.1,0.1,0.2s0,0.1,0.1,0.2c0,0.1,0,0.1,0,0.2c0,0.1,0,0.1,0,0.1c0,0.1-0.1,0.2-0.2,0.2
			c-0.1,0.1-0.2,0.1-0.3,0.2c-0.1,0-0.1,0.1-0.2,0.1s-0.1,0-0.2,0c0,0-0.1,0-0.1,0c0,0-0.1-0.1-0.1-0.1s0-0.1-0.1-0.2
			c0-0.1,0-0.1,0-0.1c-0.1-0.3-0.1-0.5-0.2-0.8c-0.1-0.3-0.2-0.5-0.2-0.8c0-0.2-0.1-0.4-0.2-0.5c-0.1-0.2-0.1-0.4-0.2-0.5
			c-0.2-0.6-0.3-1.2-0.5-1.8c-0.2-0.6-0.4-1.2-0.5-1.8c-0.1-0.2-0.1-0.4-0.2-0.7c-0.1-0.2-0.1-0.4-0.2-0.7c0-0.1,0-0.2-0.1-0.3
			c0-0.1,0-0.2,0-0.3c0,0,0-0.1,0.1-0.2c0,0,0,0,0,0c0,0,0,0,0,0c0.1-0.1,0.2-0.2,0.4-0.3c0.1-0.1,0.3-0.2,0.4-0.2
			c0.1,0,0.2,0,0.3,0.1s0.2,0.1,0.3,0.2c0.2,0.1,0.3,0.2,0.5,0.3c0.2,0.1,0.3,0.2,0.5,0.3c0.1,0.1,0.3,0.2,0.4,0.3
			c0.1,0.1,0.3,0.2,0.5,0.3c0.5,0.3,1.1,0.7,1.6,1c0.5,0.3,1.1,0.7,1.6,1c0.1,0,0.1,0.1,0.2,0.1c0.1,0,0.1,0.1,0.2,0.1
			c0.2,0.1,0.4,0.2,0.6,0.4C2786.5,3790.9,2786.7,3791,2786.9,3791.1z M2783.1,3790.3c0-0.1,0.1-0.1,0-0.2c0-0.1-0.1-0.1-0.1-0.2
			c-0.1,0-0.1-0.1-0.2-0.1c-0.1,0-0.1-0.1-0.2-0.1c0,0-0.1,0-0.1-0.1c0,0,0,0-0.1-0.1c-0.1,0-0.1-0.1-0.2-0.1s-0.1-0.1-0.2-0.1
			c-0.3-0.2-0.5-0.3-0.8-0.5c-0.3-0.2-0.5-0.4-0.8-0.5c-0.1,0-0.2-0.1-0.2-0.1c-0.1-0.1-0.2-0.1-0.2-0.1c0,0-0.1,0-0.1-0.1
			c0,0-0.1,0-0.1,0c0,0,0,0,0,0.1s0,0,0,0.1c0,0.1,0,0.1,0,0.1c0,0,0,0.1,0,0.1c0,0.1,0,0.2,0.1,0.3s0.1,0.2,0.1,0.3
			c0.1,0.3,0.2,0.7,0.3,1s0.2,0.6,0.3,1c0,0,0,0.1,0,0.1c0,0,0,0.1,0,0.1c0,0.1,0,0.1,0.1,0.2c0,0.1,0,0.1,0.1,0.2
			c0,0,0,0.1,0.1,0.1c0,0,0.1,0.1,0.1,0.1c0.1,0,0.2,0,0.3-0.1c0.1-0.1,0.2-0.1,0.3-0.2l1-0.8c0.1-0.1,0.2-0.1,0.3-0.2
			C2783,3790.5,2783.1,3790.4,2783.1,3790.3z"/>
		<path class="st0" d="M2783.3,3783.9c0.1-0.1,0.2-0.2,0.4-0.3c0.1-0.1,0.3-0.2,0.4-0.2c0.1,0,0.2,0,0.3,0.1c0.1,0,0.2,0.1,0.3,0.1
			c0.2,0.1,0.4,0.1,0.5,0.2c0.2,0.1,0.4,0.1,0.6,0.2c0.1,0,0.2,0.1,0.3,0.1c0.1,0,0.2,0.1,0.3,0.1c0.4,0.2,0.8,0.3,1.3,0.5
			c0.4,0.2,0.9,0.3,1.3,0.5c0.1,0,0.2,0.1,0.4,0.1s0.2,0.1,0.4,0.1c0.2,0.1,0.5,0.2,0.7,0.3c0.2,0.1,0.5,0.2,0.7,0.3
			c0.1,0,0.2,0.1,0.3,0.1c0.1,0,0.2,0,0.3,0c0,0,0-0.1,0-0.1c0-0.1,0-0.1-0.1-0.2s-0.1-0.1-0.2-0.2l-0.6-0.8l-2.2-2.9l-0.4-0.6
			c0,0-0.1-0.1-0.1-0.1c0,0-0.1-0.1-0.1-0.2l-0.1-0.1c0,0,0-0.1,0-0.1c0,0,0-0.1,0-0.1c0-0.1,0-0.2,0.1-0.2c0.1-0.1,0.2-0.1,0.2-0.2
			c0,0,0.1-0.1,0.1-0.1c0,0,0.1-0.1,0.1-0.1c0.1,0,0.2,0,0.3,0.1c0.1,0.1,0.1,0.2,0.2,0.3l0.8,1.1l3,4l0.6,0.8
			c0.1,0.1,0.1,0.1,0.2,0.2c0.1,0.1,0.1,0.1,0.1,0.2c0,0.1,0,0.1,0,0.1c0,0-0.1,0.1-0.1,0.1l-0.2,0.2c-0.1,0.1-0.2,0.1-0.2,0.2
			c-0.1,0.1-0.2,0.1-0.2,0.1c-0.1,0-0.1,0-0.2,0c-0.1,0-0.1,0-0.2-0.1c-0.1,0-0.2-0.1-0.3-0.1s-0.2-0.1-0.3-0.1
			c-0.5-0.2-1-0.3-1.5-0.5s-1-0.3-1.5-0.5c-0.3-0.1-0.5-0.2-0.8-0.3c-0.3-0.1-0.5-0.2-0.8-0.3c-0.5-0.2-0.9-0.3-1.4-0.5
			c-0.1,0-0.1,0-0.2-0.1c-0.1,0-0.1,0-0.2,0c0,0,0,0-0.1,0c0,0,0,0-0.1,0c0,0,0,0.1,0,0.1c0,0,0,0.1,0.1,0.1l0.1,0.1
			c0,0.1,0.1,0.1,0.1,0.2c0,0,0.1,0.1,0.1,0.2l0.5,0.6l2.3,3l0.3,0.5c0,0,0.1,0.1,0.1,0.1c0,0,0.1,0.1,0.1,0.1l0.1,0.1
			c0,0.1,0.1,0.1,0.1,0.2c0,0,0,0.1,0,0.1c0,0-0.1,0.1-0.1,0.1l-0.2,0.1c-0.1,0.1-0.2,0.1-0.2,0.2c-0.1,0-0.1,0.1-0.2,0
			c-0.1,0-0.1-0.1-0.2-0.1c-0.1-0.1-0.1-0.1-0.2-0.2l-0.6-0.8l-3-4l-0.8-1c-0.1-0.1-0.1-0.2-0.2-0.2c-0.1-0.1-0.1-0.2-0.1-0.2
			C2783.1,3784.1,2783.1,3784.1,2783.3,3783.9C2783.2,3784,2783.2,3784,2783.3,3783.9C2783.2,3784,2783.3,3783.9,2783.3,3783.9z"/>
		<path class="st0" d="M2790.2,3778.7l3.1-2.4l0.8-0.6c0.1-0.1,0.1-0.1,0.2-0.2s0.1-0.1,0.2-0.1c0,0,0.1,0,0.1,0c0,0,0.1,0,0.1,0
			c0,0,0.1,0.1,0.2,0.2c0.1,0.1,0.1,0.2,0.2,0.2c0,0.1,0,0.2-0.1,0.3s-0.2,0.2-0.3,0.2l-1,0.7l-1.6,1.2c-0.1,0.1-0.2,0.2-0.4,0.3
			c-0.1,0.1-0.2,0.2-0.3,0.3c0,0.1,0,0.2,0.1,0.3c0.1,0.1,0.1,0.2,0.2,0.3l0.7,1c0.1,0.1,0.1,0.2,0.2,0.3s0.1,0.2,0.2,0.2
			c0.1,0.1,0.2,0.1,0.2,0.1c0,0,0.1,0,0.2-0.1l0.1-0.1c0,0,0.1,0,0.1-0.1c0,0,0.1,0,0.1-0.1l0.3-0.2l1.9-1.4c0.1,0,0.1-0.1,0.2-0.1
			c0.1-0.1,0.1-0.1,0.2-0.2s0.1-0.1,0.2-0.1s0.1-0.1,0.2-0.1c0,0,0.1,0,0.1,0.1c0,0,0.1,0.1,0.1,0.1c0,0,0.1,0.1,0.1,0.2
			c0,0.1,0.1,0.1,0.1,0.2c0,0.1,0,0.1,0,0.2c0,0,0,0,0,0.1c0,0,0,0-0.1,0.1l-0.1,0c0,0-0.1,0.1-0.1,0.1c0,0-0.1,0-0.1,0.1l-0.4,0.3
			l-2,1.5c-0.1,0.1-0.2,0.1-0.2,0.2c-0.1,0.1-0.1,0.1-0.2,0.2c-0.1,0.1-0.1,0.1-0.1,0.2c0,0.1,0,0.1,0,0.2c0,0,0,0.1,0.1,0.1
			c0,0,0.1,0.1,0.1,0.2l0.4,0.5l0.7,0.9c0.1,0.1,0.1,0.2,0.2,0.2c0.1,0.1,0.1,0.1,0.2,0.1c0.1,0,0.1,0,0.2-0.1
			c0.1,0,0.1-0.1,0.2-0.1l0.6-0.5l1.8-1.3l0.5-0.4c0.1,0,0.1-0.1,0.1-0.1s0.1-0.1,0.1-0.1c0.1,0,0.2,0,0.2,0c0,0,0.1,0,0.1,0.1
			c0,0,0.1,0.1,0.1,0.1s0.1,0.1,0.1,0.1c0,0.1,0.1,0.1,0.1,0.1c0,0.1,0,0.1,0,0.2c0,0.1-0.1,0.1-0.1,0.2c-0.1,0-0.1,0.1-0.2,0.1
			l-0.7,0.5l-2.5,1.9l-0.7,0.5c-0.1,0.1-0.2,0.1-0.2,0.2c-0.1,0-0.1,0-0.2,0c-0.1,0-0.1-0.1-0.2-0.1c0-0.1-0.1-0.1-0.1-0.2l-0.5-0.7
			l-1.9-2.6l-1.6-2.1l-0.4-0.6c0-0.1-0.1-0.1-0.1-0.2c0-0.1-0.1-0.1-0.1-0.2C2790,3778.9,2790,3778.8,2790.2,3778.7
			C2790.1,3778.8,2790.1,3778.8,2790.2,3778.7C2790.1,3778.7,2790.2,3778.7,2790.2,3778.7z"/>
	</g>
	<g>
		<path class="st0" d="M2812.1,3895.2c0.1-0.1,0.2-0.2,0.3-0.2c0.1-0.1,0.2-0.1,0.3-0.1c0.1,0,0.2,0.1,0.3,0.2
			c0.1,0.1,0.2,0.2,0.2,0.3l1.1,1.4l1.4,1.8c0.2,0.2,0.3,0.4,0.5,0.6c0.2,0.2,0.3,0.4,0.5,0.5c0.3,0.2,0.5,0.3,0.8,0.3
			c0.3,0,0.6,0,0.9-0.1c0.1,0,0.2-0.1,0.3-0.1c0.1,0,0.2-0.1,0.3-0.1c0,0,0.1,0,0.1-0.1s0.1-0.1,0.1-0.1l0.1-0.1
			c0,0,0.1-0.1,0.1-0.1c0,0,0.1-0.1,0.1-0.1c0,0,0.1-0.1,0.1-0.1c0,0,0.1-0.1,0.1-0.1c0.1-0.1,0.1-0.1,0.2-0.2
			c0.1-0.1,0.1-0.1,0.2-0.2c0.2-0.3,0.3-0.5,0.3-0.8c0-0.3,0-0.5-0.1-0.9c-0.1-0.2-0.2-0.4-0.3-0.6s-0.3-0.4-0.5-0.6l-1.2-1.6
			l-1.3-1.7c-0.1-0.1-0.2-0.2-0.3-0.4s-0.2-0.3-0.2-0.3c0-0.1,0-0.1,0.1-0.2c0.1-0.1,0.2-0.1,0.3-0.2c0,0,0.1,0,0.1-0.1
			c0,0,0.1,0,0.1-0.1c0.1,0,0.2-0.1,0.2,0c0.1,0,0.1,0.1,0.2,0.2c0.1,0.1,0.1,0.2,0.2,0.3l1,1.3l1.5,2c0.2,0.2,0.4,0.5,0.5,0.7
			c0.2,0.2,0.3,0.5,0.4,0.7c0.1,0.4,0.2,0.7,0.3,1.1c0,0.3,0,0.7-0.2,1c-0.1,0.1-0.1,0.3-0.2,0.4c-0.1,0.1-0.2,0.3-0.2,0.4
			c0,0.1-0.1,0.1-0.1,0.2c-0.1,0.1-0.1,0.1-0.2,0.2s-0.1,0.1-0.2,0.2s-0.1,0.1-0.2,0.2l-0.1,0.1c0,0-0.1,0.1-0.1,0.1
			c-0.1,0.1-0.1,0.1-0.2,0.1l-0.1,0.1c-0.1,0-0.1,0.1-0.1,0.1c0,0-0.1,0.1-0.2,0.1l-0.1,0.1c-0.1,0-0.1,0.1-0.2,0.1
			c-0.1,0-0.1,0.1-0.2,0.1c-0.1,0.1-0.3,0.1-0.4,0.2c-0.1,0.1-0.3,0.1-0.4,0.1c-0.1,0-0.1,0-0.2,0c-0.1,0-0.1,0-0.2,0
			c-0.3,0-0.6,0-0.8-0.1s-0.5-0.2-0.8-0.3c-0.1-0.1-0.2-0.1-0.3-0.2c-0.1-0.1-0.2-0.2-0.3-0.3c0,0-0.1-0.1-0.1-0.1
			c0,0-0.1-0.1-0.1-0.1l-0.1-0.1c-0.1,0-0.1-0.1-0.1-0.1c0-0.1-0.1-0.1-0.1-0.2l-0.5-0.6l-1.9-2.5l-0.5-0.7c0-0.1-0.1-0.1-0.1-0.2
			c0-0.1-0.1-0.1-0.1-0.2C2811.9,3895.4,2811.9,3895.3,2812.1,3895.2C2812,3895.2,2812.1,3895.2,2812.1,3895.2z"/>
		<path class="st0" d="M2819,3889.9c0.1-0.1,0.2-0.2,0.4-0.3c0.1-0.1,0.3-0.2,0.4-0.2c0.1,0,0.2,0,0.3,0.1s0.2,0.1,0.3,0.1
			c0.2,0.1,0.4,0.1,0.5,0.2c0.2,0.1,0.4,0.1,0.6,0.2c0.1,0,0.2,0.1,0.3,0.1c0.1,0,0.2,0.1,0.3,0.1c0.4,0.2,0.8,0.3,1.3,0.5
			s0.9,0.3,1.3,0.5c0.1,0,0.2,0.1,0.4,0.1s0.2,0.1,0.4,0.1c0.2,0.1,0.5,0.2,0.7,0.3c0.2,0.1,0.5,0.2,0.7,0.2c0.1,0,0.2,0.1,0.3,0.1
			c0.1,0,0.2,0,0.3,0c0,0,0-0.1,0-0.1c0-0.1,0-0.1-0.1-0.2c-0.1-0.1-0.1-0.1-0.2-0.2l-0.6-0.8l-2.2-2.9l-0.4-0.6
			c0,0-0.1-0.1-0.1-0.1c0,0-0.1-0.1-0.1-0.2l-0.1-0.1c0,0,0-0.1,0-0.1c0,0,0-0.1,0-0.1c0-0.1,0-0.2,0.1-0.2s0.2-0.1,0.2-0.2
			c0,0,0.1-0.1,0.1-0.1c0,0,0.1-0.1,0.1-0.1c0.1,0,0.2,0,0.3,0.1c0.1,0.1,0.1,0.2,0.2,0.3l0.8,1l3,4l0.6,0.8
			c0.1,0.1,0.1,0.1,0.2,0.2s0.1,0.1,0.1,0.2c0,0.1,0,0.1,0,0.1c0,0-0.1,0.1-0.1,0.1l-0.2,0.2c-0.1,0.1-0.2,0.1-0.2,0.2
			c-0.1,0.1-0.2,0.1-0.2,0.1c-0.1,0-0.1,0-0.2,0c-0.1,0-0.1,0-0.2-0.1c-0.1,0-0.2-0.1-0.3-0.1s-0.2-0.1-0.3-0.1
			c-0.5-0.2-1-0.3-1.5-0.5c-0.5-0.2-1-0.3-1.5-0.5c-0.3-0.1-0.5-0.2-0.8-0.3c-0.3-0.1-0.5-0.2-0.8-0.3c-0.5-0.2-0.9-0.3-1.4-0.5
			c-0.1,0-0.1,0-0.2-0.1c-0.1,0-0.1,0-0.2,0c0,0,0,0-0.1,0c0,0,0,0-0.1,0c0,0,0,0.1,0,0.1c0,0,0,0.1,0.1,0.1l0.1,0.1
			c0,0.1,0.1,0.1,0.1,0.2c0,0,0.1,0.1,0.1,0.2l0.5,0.6l2.3,3l0.3,0.4c0,0,0.1,0.1,0.1,0.1c0,0,0.1,0.1,0.1,0.1l0.1,0.1
			c0,0.1,0.1,0.1,0.1,0.2c0,0,0,0.1,0,0.1c0,0-0.1,0.1-0.1,0.1l-0.2,0.1c-0.1,0.1-0.2,0.1-0.2,0.2c-0.1,0-0.1,0.1-0.2,0
			c-0.1,0-0.1-0.1-0.2-0.1s-0.1-0.1-0.2-0.2l-0.6-0.8l-3-4l-0.8-1c-0.1-0.1-0.1-0.2-0.2-0.2s-0.1-0.2-0.1-0.2
			C2818.8,3890.1,2818.9,3890,2819,3889.9C2818.9,3890,2818.9,3889.9,2819,3889.9C2819,3889.9,2819,3889.9,2819,3889.9z"/>
		<path class="st0" d="M2828.3,3882.6c0.6-0.5,1.2-0.8,1.8-0.9s1.1-0.1,1.7,0.1c0.1,0.1,0.3,0.1,0.4,0.2c0.1,0.1,0.2,0.1,0.4,0.2
			c0,0,0.1,0.1,0.1,0.1s0.1,0.1,0.1,0.2c0,0,0,0.1,0,0.1c0,0-0.1,0.1-0.1,0.1l-0.1,0.1c0,0,0,0-0.1,0.1c0,0-0.1,0-0.1,0.1
			c-0.1,0.1-0.2,0.1-0.3,0.2c-0.1,0-0.2,0.1-0.2,0c-0.1,0-0.2-0.1-0.3-0.1c-0.1-0.1-0.2-0.1-0.3-0.1c-0.2-0.1-0.4-0.1-0.6-0.1
			c-0.2,0-0.4,0-0.6,0c-0.1,0-0.2,0-0.3,0.1c-0.1,0-0.2,0.1-0.3,0.1c-0.1,0-0.2,0.1-0.3,0.1c-0.1,0.1-0.2,0.1-0.3,0.2
			c-0.1,0.1-0.2,0.2-0.3,0.2c-0.1,0.1-0.2,0.2-0.2,0.2c-0.1,0.1-0.1,0.1-0.2,0.2c0,0.1-0.1,0.1-0.1,0.2c-0.4,0.6-0.5,1.3-0.3,2
			c0,0.1,0.1,0.2,0.1,0.4c0,0.1,0.1,0.2,0.1,0.4c0,0,0,0.1,0.1,0.1s0.1,0.1,0.1,0.1c0,0,0,0.1,0,0.1c0,0,0,0,0,0.1
			c0,0.1,0.1,0.2,0.1,0.2c0.1,0.1,0.1,0.2,0.2,0.2c0,0,0.1,0.1,0.1,0.1s0.1,0.1,0.1,0.1l0.1,0.1c0,0,0.1,0.1,0.1,0.1
			c0,0,0.1,0.1,0.1,0.1c0,0,0.1,0.1,0.1,0.1c0,0,0.1,0.1,0.1,0.1c0.1,0.1,0.2,0.1,0.2,0.2c0.1,0.1,0.2,0.1,0.2,0.2
			c0.3,0.2,0.7,0.4,1,0.5s0.7,0.1,1.1,0c0.1,0,0.2-0.1,0.4-0.1s0.2-0.1,0.4-0.1c0.1,0,0.1,0,0.1-0.1c0,0,0.1-0.1,0.1-0.1
			c0,0,0.1-0.1,0.2-0.1c0.1-0.1,0.1-0.1,0.2-0.2l0.1-0.1c0,0,0,0,0.1-0.1c0,0,0,0,0.1-0.1c0.1-0.1,0.1-0.1,0.2-0.2s0.1-0.1,0.1-0.2
			c0.3-0.6,0.4-1.2,0.3-1.8c0-0.2-0.1-0.3-0.2-0.5c0-0.1-0.1-0.1-0.1-0.2c0-0.1-0.1-0.1-0.1-0.2c0-0.1,0-0.1,0.1-0.2
			c0.1-0.1,0.1-0.1,0.2-0.2c0,0,0.1,0,0.1-0.1c0,0,0.1,0,0.1-0.1l0.1-0.1c0,0,0,0,0.1,0c0,0,0,0,0.1,0c0.1,0,0.1,0,0.2,0.1
			c0.1,0.1,0.1,0.1,0.1,0.2c0.1,0.2,0.1,0.3,0.2,0.5c0.1,0.2,0.1,0.3,0.1,0.5c0,0.1,0,0.2,0,0.3c0,0.1,0,0.2,0,0.3
			c0,0.3,0,0.5-0.1,0.8s-0.2,0.5-0.3,0.8c0,0.1-0.1,0.2-0.1,0.2c-0.1,0.1-0.1,0.1-0.2,0.2s-0.1,0.2-0.2,0.2s-0.1,0.1-0.2,0.2
			c0,0,0,0.1-0.1,0.1c0,0-0.1,0-0.1,0.1c0,0-0.1,0.1-0.1,0.1c0,0-0.1,0.1-0.1,0.1c0,0-0.1,0.1-0.1,0.1c-0.1,0-0.1,0.1-0.1,0.1
			c0,0-0.1,0-0.1,0.1c0,0-0.1,0-0.1,0.1l-0.1,0.1c-0.1,0-0.1,0.1-0.2,0.1s-0.1,0.1-0.2,0.1c-0.1,0-0.1,0.1-0.2,0.1
			c-0.1,0-0.1,0.1-0.2,0.1c-0.2,0.1-0.3,0.1-0.5,0.1c-0.5,0.1-1,0.1-1.5,0c-0.5-0.1-1-0.4-1.5-0.7c-0.1-0.1-0.2-0.1-0.2-0.2
			s-0.2-0.1-0.2-0.2c0,0-0.1,0-0.1-0.1c0,0,0-0.1-0.1-0.1c-0.1,0-0.1-0.1-0.2-0.2c-0.1-0.1-0.1-0.1-0.2-0.2l-0.1-0.2
			c0,0-0.1-0.1-0.1-0.1c-0.1-0.1-0.1-0.1-0.1-0.2c0,0,0,0,0-0.1c0,0,0,0,0-0.1l-0.1-0.1c0-0.1-0.1-0.1-0.1-0.2
			c0-0.1-0.1-0.1-0.1-0.2c0,0,0-0.1-0.1-0.1c0,0-0.1-0.1-0.1-0.1c0-0.1-0.1-0.3-0.2-0.4s-0.1-0.2-0.1-0.4c0-0.1-0.1-0.2-0.1-0.3
			c0-0.1,0-0.2-0.1-0.3c0-0.2,0-0.5-0.1-0.7c0,0,0-0.1,0-0.1c0,0,0-0.1,0-0.1c0-0.1,0-0.2,0-0.2c0-0.1,0-0.1,0-0.2
			c0-0.1,0-0.1,0-0.2c0-0.1,0-0.1,0-0.2c0-0.1,0.1-0.3,0.2-0.4c0.1-0.1,0.1-0.3,0.2-0.4c0-0.1,0.1-0.2,0.2-0.2
			c0.1-0.1,0.1-0.2,0.2-0.2c0,0,0.1-0.1,0.1-0.1c0,0,0.1-0.1,0.1-0.1c0,0,0.1-0.1,0.1-0.1S2828.1,3882.7,2828.3,3882.6
			C2828.2,3882.6,2828.2,3882.6,2828.3,3882.6C2828.2,3882.6,2828.3,3882.6,2828.3,3882.6z"/>
		<path class="st0" d="M2841.1,3878.2c0,0,0.1,0.1,0.1,0.1c0,0.1,0.1,0.1,0.1,0.1l0.1,0.1c0,0.1,0.1,0.1,0.1,0.2s0.1,0.1,0.1,0.2
			c0,0.1,0.1,0.1,0.1,0.2c0,0,0.1,0.1,0.1,0.2c0.1,0.1,0.1,0.3,0.2,0.4c0.1,0.1,0.1,0.2,0.1,0.4c0.2,0.6,0.2,1.2,0.1,1.7
			c-0.1,0.5-0.3,1.1-0.7,1.6c-0.1,0.1-0.1,0.1-0.2,0.2c-0.1,0.1-0.1,0.1-0.2,0.2c0,0-0.1,0.1-0.1,0.1s0,0-0.1,0.1l-0.3,0.3
			c0,0-0.1,0.1-0.1,0.1c-0.1,0-0.1,0.1-0.1,0.1c0,0-0.1,0-0.1,0.1c0,0-0.1,0-0.1,0.1l-0.1,0.1c-0.1,0-0.1,0-0.1,0.1
			s-0.1,0.1-0.1,0.1c-0.1,0-0.2,0.1-0.2,0.1c-0.1,0-0.1,0.1-0.2,0.1c-0.1,0-0.2,0-0.2,0.1c-0.1,0-0.2,0-0.3,0.1
			c-0.5,0.1-1,0.1-1.5,0c-0.5-0.1-1-0.3-1.4-0.6c-0.1-0.1-0.2-0.1-0.3-0.2c-0.1-0.1-0.2-0.2-0.3-0.2c0,0-0.1,0-0.1-0.1
			c0,0,0,0-0.1-0.1c0,0-0.1-0.1-0.1-0.1s-0.1-0.1-0.1-0.1c0,0-0.1,0-0.1-0.1c0,0,0,0-0.1-0.1l-0.2-0.2c0,0-0.1-0.1-0.1-0.1
			c0-0.1-0.1-0.1-0.1-0.1l-0.1-0.1l-0.2-0.4c0,0,0-0.1-0.1-0.1c0,0-0.1-0.1-0.1-0.1c-0.1-0.1-0.1-0.2-0.2-0.4
			c-0.1-0.1-0.1-0.2-0.1-0.3c0-0.2-0.1-0.3-0.1-0.5s-0.1-0.3-0.1-0.5c0-0.4,0-0.8,0.1-1.2c0.1-0.4,0.2-0.8,0.5-1.2
			c0-0.1,0.1-0.2,0.2-0.2c0.1-0.1,0.1-0.2,0.2-0.3c0,0,0.1-0.1,0.1-0.1c0,0,0.1-0.1,0.1-0.1c0,0,0.1-0.1,0.1-0.1
			c0,0,0.1-0.1,0.1-0.1c0,0,0,0,0,0c0,0,0,0,0,0c0.4-0.3,0.8-0.6,1.2-0.7c0.4-0.1,0.8-0.2,1.1-0.2c0.1,0,0.3,0,0.4,0
			c0.1,0,0.3,0,0.4,0.1c0,0,0.1,0,0.1,0c0,0,0.1,0,0.1,0c0.1,0,0.2,0,0.2,0.1c0.1,0,0.2,0.1,0.2,0.1c0,0,0.1,0,0.1,0.1
			c0,0,0.1,0,0.1,0c0.1,0,0.1,0,0.2,0.1c0.1,0.1,0.3,0.2,0.4,0.2c0,0,0.1,0.1,0.1,0.1c0,0,0.1,0.1,0.1,0.1c0.1,0,0.1,0.1,0.2,0.2
			s0.1,0.1,0.2,0.2c0,0,0.1,0,0.1,0.1c0,0,0.1,0.1,0.1,0.1c0,0,0.1,0.1,0.1,0.1c0,0,0.1,0.1,0.1,0.1l0,0.1
			C2841,3878,2841,3878,2841.1,3878.2C2841.1,3878.1,2841.1,3878.2,2841.1,3878.2z M2840.5,3879.2c0,0,0-0.1-0.1-0.2
			c-0.1-0.1-0.1-0.1-0.1-0.2l-0.1-0.1c0,0,0-0.1-0.1-0.1c0,0,0,0-0.1-0.1c0,0-0.1,0-0.1-0.1c0,0,0-0.1-0.1-0.1
			c-0.1,0-0.1-0.1-0.2-0.1c-0.1-0.1-0.1-0.1-0.2-0.1c-0.1-0.1-0.2-0.1-0.3-0.2c-0.1-0.1-0.2-0.1-0.3-0.2c-0.3-0.2-0.6-0.3-1-0.4
			c-0.3-0.1-0.7-0.1-1,0c-0.2,0-0.4,0.1-0.6,0.2c-0.1,0-0.2,0.1-0.3,0.2c-0.1,0.1-0.2,0.2-0.3,0.2c0,0-0.1,0.1-0.1,0.1
			c0,0-0.1,0.1-0.1,0.1c-0.1,0.1-0.1,0.2-0.2,0.3c-0.1,0.1-0.1,0.2-0.2,0.3c-0.2,0.4-0.3,0.8-0.3,1.2c0,0.4,0.1,0.9,0.3,1.3
			c0,0.1,0.1,0.2,0.1,0.3c0,0.1,0.1,0.2,0.1,0.3c0,0,0,0.1,0.1,0.1c0,0,0,0.1,0.1,0.1c0,0,0,0.1,0,0.1c0,0,0,0.1,0.1,0.1l0.1,0.1
			c0,0,0.1,0.1,0.1,0.2c0.1,0.1,0.1,0.1,0.1,0.2c0,0,0,0,0.1,0.1c0,0,0,0,0.1,0.1c0.1,0,0.1,0.1,0.2,0.1c0,0.1,0.1,0.1,0.2,0.1
			c0,0,0,0,0.1,0.1s0,0,0.1,0.1c0.1,0.1,0.1,0.1,0.2,0.2c0.1,0.1,0.1,0.1,0.2,0.2c0.1,0,0.2,0.1,0.2,0.1c0.1,0,0.2,0.1,0.2,0.1
			c0.1,0,0.1,0.1,0.2,0.1c0.1,0,0.1,0.1,0.2,0.1c0.4,0.1,0.8,0.2,1.3,0.1c0.1,0,0.2,0,0.4-0.1c0.1,0,0.2-0.1,0.4-0.1
			c0.1,0,0.1,0,0.1-0.1c0,0,0.1-0.1,0.1-0.1c0,0,0.1,0,0.1-0.1c0,0,0.1-0.1,0.1-0.1l0.1-0.1c0,0,0.1-0.1,0.1-0.1
			c0,0,0.1-0.1,0.1-0.1c0.1-0.1,0.1-0.2,0.2-0.2c0.1-0.1,0.1-0.2,0.2-0.2c0.2-0.4,0.4-0.8,0.4-1.1c0-0.4,0-0.8-0.1-1.2
			c0-0.1-0.1-0.2-0.1-0.3c0-0.1-0.1-0.2-0.1-0.3c0,0,0-0.1-0.1-0.1c0,0-0.1-0.1-0.1-0.1L2840.5,3879.2L2840.5,3879.2z"/>
		<path class="st0" d="M2840.1,3873.8l0.6-0.4c0.1,0,0.1-0.1,0.2-0.1c0.1,0,0.1-0.1,0.2-0.1c0.1,0,0.2,0,0.2,0.1
			c0.1,0,0.1,0.1,0.2,0.1c0.1,0.1,0.3,0.2,0.4,0.3c0.1,0.1,0.3,0.2,0.4,0.3c0.1,0.1,0.3,0.2,0.4,0.3c0.1,0.1,0.3,0.2,0.4,0.2
			c0.1,0.1,0.2,0.1,0.3,0.2c0.1,0.1,0.2,0.1,0.3,0.2c0.3,0.2,0.7,0.4,1,0.6c0.3,0.2,0.7,0.4,1,0.6c0,0,0.1,0,0.1,0.1s0.1,0,0.1,0.1
			c0.2,0.1,0.3,0.2,0.5,0.3s0.3,0.2,0.5,0.3c0.1,0,0.1,0.1,0.2,0.1c0.1,0.1,0.2,0.1,0.2,0c0,0,0,0,0.1,0c0,0,0,0,0-0.1
			c0-0.1,0-0.1,0-0.2c0-0.1,0-0.1,0-0.2c-0.1-0.2-0.1-0.3-0.2-0.5c-0.1-0.2-0.1-0.4-0.2-0.5c0,0,0-0.1,0-0.1s0-0.1,0-0.1
			c0-0.2-0.1-0.3-0.1-0.5c-0.1-0.2-0.1-0.3-0.1-0.5c-0.1-0.5-0.3-1-0.4-1.4c-0.2-0.5-0.3-1-0.4-1.4c0-0.2-0.1-0.3-0.2-0.5
			s-0.1-0.3-0.1-0.5c0-0.1,0-0.2-0.1-0.2c0-0.1,0-0.2,0-0.2c0-0.1,0.1-0.1,0.1-0.2c0.1-0.1,0.1-0.1,0.2-0.2c0.1-0.1,0.1-0.1,0.2-0.2
			c0.1-0.1,0.2-0.1,0.2-0.2c0.1,0,0.1-0.1,0.2-0.1c0.1,0,0.1-0.1,0.2-0.1c0.1,0,0.2,0,0.2,0.1c0.1,0.1,0.1,0.2,0.2,0.3l0.8,1.1l3,4
			l0.6,0.8c0.1,0.1,0.1,0.1,0.2,0.2c0.1,0.1,0.1,0.1,0.1,0.2c0,0.1,0,0.1,0,0.1c0,0-0.1,0.1-0.1,0.1l-0.2,0.1
			c-0.1,0.1-0.2,0.1-0.2,0.2c-0.1,0-0.1,0.1-0.2,0c0,0-0.1,0-0.1,0s0,0-0.1-0.1l-0.1-0.1c0,0-0.1-0.1-0.1-0.1c0-0.1-0.1-0.1-0.1-0.1
			l-0.4-0.5l-2.1-2.8c-0.1-0.2-0.2-0.3-0.4-0.5c-0.1-0.2-0.2-0.3-0.4-0.5c0-0.1-0.1-0.1-0.2-0.2c-0.1-0.1-0.1-0.1-0.2,0l0,0
			c0,0,0,0.1,0,0.2c0,0.1,0,0.2,0.1,0.2c0,0.1,0.1,0.3,0.1,0.4c0,0.1,0.1,0.3,0.1,0.4c0,0,0,0.1,0,0.1s0,0.1,0,0.1
			c0,0.2,0.1,0.3,0.1,0.4s0.1,0.3,0.1,0.4c0,0.1,0.1,0.3,0.1,0.4c0,0.1,0.1,0.2,0.1,0.4c0.1,0.4,0.2,0.8,0.3,1.2
			c0.1,0.4,0.2,0.8,0.3,1.1c0,0.2,0.1,0.3,0.1,0.4c0,0.1,0.1,0.3,0.1,0.4c0,0.1,0,0.2,0.1,0.3c0,0.1,0,0.2-0.1,0.3c0,0,0,0,0,0
			c0,0,0,0,0,0c0,0,0,0-0.1,0.1c0,0-0.1,0-0.1,0.1c-0.1,0-0.1,0.1-0.2,0.1c-0.1,0-0.1,0.1-0.2,0.1c-0.1,0-0.1,0-0.2-0.1
			c-0.1,0-0.1-0.1-0.2-0.1c-0.1-0.1-0.3-0.2-0.4-0.3c-0.2-0.1-0.3-0.2-0.5-0.3c-0.1-0.1-0.3-0.2-0.4-0.3c-0.1-0.1-0.3-0.2-0.4-0.2
			c-0.4-0.2-0.8-0.5-1.2-0.8s-0.8-0.5-1.2-0.8c-0.2-0.1-0.3-0.2-0.5-0.3c-0.2-0.1-0.3-0.2-0.5-0.3c-0.1,0-0.2-0.1-0.2-0.1
			c-0.1-0.1-0.2-0.1-0.2-0.1c0,0,0,0,0,0c0,0,0,0,0,0l0,0c0,0,0,0,0,0c0,0,0,0,0,0c0,0,0,0.1,0.1,0.1c0,0,0.1,0.1,0.1,0.1l0.1,0.1
			c0,0,0,0.1,0.1,0.1c0,0,0.1,0.1,0.1,0.1l0.4,0.5l2.2,2.9l0.6,0.8c0.1,0.1,0.1,0.1,0.2,0.2c0,0.1,0.1,0.1,0.1,0.2
			c0,0.1,0,0.1-0.1,0.2c-0.1,0.1-0.2,0.1-0.2,0.2c0,0-0.1,0.1-0.1,0.1c0,0-0.1,0-0.1,0.1c-0.1,0-0.2,0-0.3-0.1s-0.2-0.2-0.2-0.3
			l-0.8-1.1l-2.9-3.8l-0.7-0.9c-0.1-0.1-0.1-0.1-0.2-0.2c-0.1-0.1-0.1-0.1-0.1-0.2C2839.9,3874,2839.9,3874,2840.1,3873.8
			C2840,3873.9,2840,3873.9,2840.1,3873.8C2840,3873.9,2840,3873.8,2840.1,3873.8z"/>
		<path class="st0" d="M2848.4,3867.5l0.6-0.4c0.1,0,0.1-0.1,0.2-0.1c0.1,0,0.1-0.1,0.2-0.1c0.1,0,0.2,0,0.2,0.1
			c0.1,0,0.1,0.1,0.2,0.1c0.1,0.1,0.3,0.2,0.4,0.3c0.1,0.1,0.3,0.2,0.4,0.3c0.1,0.1,0.3,0.2,0.4,0.3c0.1,0.1,0.3,0.2,0.4,0.2
			c0.1,0.1,0.2,0.1,0.3,0.2c0.1,0.1,0.2,0.1,0.3,0.2c0.3,0.2,0.7,0.4,1,0.6c0.3,0.2,0.7,0.4,1,0.6c0,0,0.1,0,0.1,0.1
			c0,0,0.1,0,0.1,0.1c0.2,0.1,0.3,0.2,0.5,0.3c0.2,0.1,0.3,0.2,0.5,0.3c0.1,0,0.1,0.1,0.2,0.1c0.1,0.1,0.2,0.1,0.2,0c0,0,0,0,0.1,0
			c0,0,0,0,0-0.1c0-0.1,0-0.1,0-0.2c0-0.1,0-0.1,0-0.2c-0.1-0.2-0.1-0.3-0.2-0.5c-0.1-0.2-0.1-0.4-0.2-0.5c0,0,0-0.1,0-0.1
			s0-0.1,0-0.1c0-0.2-0.1-0.3-0.1-0.5c-0.1-0.2-0.1-0.3-0.1-0.5c-0.1-0.5-0.3-1-0.4-1.4s-0.3-1-0.4-1.4c0-0.2-0.1-0.3-0.2-0.5
			c-0.1-0.2-0.1-0.3-0.2-0.5c0-0.1,0-0.2-0.1-0.2c0-0.1,0-0.2,0-0.2c0-0.1,0.1-0.1,0.1-0.2s0.1-0.1,0.2-0.2c0.1-0.1,0.2-0.1,0.2-0.2
			c0.1-0.1,0.2-0.1,0.2-0.2c0.1,0,0.1-0.1,0.2-0.1c0.1,0,0.1-0.1,0.2-0.1c0.1,0,0.2,0,0.2,0.1c0.1,0.1,0.1,0.2,0.2,0.3l0.8,1l3,4
			l0.6,0.8c0.1,0.1,0.1,0.1,0.2,0.2c0.1,0.1,0.1,0.1,0.1,0.2c0,0.1,0,0.1,0,0.1c0,0-0.1,0.1-0.1,0.1l-0.2,0.1
			c-0.1,0.1-0.2,0.1-0.2,0.2s-0.1,0.1-0.2,0c0,0-0.1,0-0.1,0c0,0,0,0-0.1-0.1l-0.1-0.1c0,0-0.1-0.1-0.1-0.1c0-0.1-0.1-0.1-0.1-0.1
			l-0.4-0.5l-2.1-2.8c-0.1-0.2-0.2-0.3-0.4-0.5c-0.1-0.2-0.2-0.3-0.4-0.5c0-0.1-0.1-0.1-0.2-0.2s-0.1-0.1-0.2,0l0,0c0,0,0,0.1,0,0.2
			c0,0.1,0,0.2,0.1,0.2c0,0.1,0.1,0.3,0.1,0.4c0,0.1,0.1,0.3,0.1,0.4c0,0,0,0.1,0,0.1c0,0,0,0.1,0,0.1c0,0.2,0.1,0.3,0.1,0.4
			s0.1,0.3,0.1,0.4c0,0.1,0.1,0.3,0.1,0.4c0,0.1,0.1,0.2,0.1,0.4c0.1,0.4,0.2,0.8,0.3,1.2c0.1,0.4,0.2,0.8,0.3,1.1
			c0,0.2,0.1,0.3,0.1,0.4c0,0.1,0.1,0.3,0.1,0.4c0,0.1,0,0.2,0.1,0.3c0,0.1,0,0.2-0.1,0.3c0,0,0,0,0,0c0,0,0,0,0,0c0,0,0,0-0.1,0.1
			c0,0-0.1,0-0.1,0.1c-0.1,0-0.1,0.1-0.2,0.1c-0.1,0-0.1,0.1-0.2,0.1c-0.1,0-0.1,0-0.2-0.1s-0.1-0.1-0.2-0.1
			c-0.1-0.1-0.3-0.2-0.4-0.3c-0.2-0.1-0.3-0.2-0.5-0.3c-0.1-0.1-0.3-0.2-0.4-0.3c-0.1-0.1-0.3-0.2-0.4-0.2c-0.4-0.2-0.8-0.5-1.2-0.8
			c-0.4-0.3-0.8-0.5-1.2-0.8c-0.2-0.1-0.3-0.2-0.5-0.3c-0.2-0.1-0.3-0.2-0.4-0.3c-0.1,0-0.2-0.1-0.2-0.1s-0.2-0.1-0.2-0.1
			c0,0,0,0,0,0c0,0,0,0,0,0l0,0c0,0,0,0,0,0s0,0,0,0c0,0,0,0.1,0.1,0.1c0,0,0.1,0.1,0.1,0.1l0.1,0.1c0,0,0,0.1,0.1,0.1
			c0,0,0.1,0.1,0.1,0.1l0.4,0.5l2.2,2.9l0.6,0.8c0.1,0.1,0.1,0.1,0.2,0.2s0.1,0.1,0.1,0.2c0,0.1,0,0.1-0.1,0.2
			c-0.1,0.1-0.2,0.1-0.3,0.2c0,0-0.1,0.1-0.1,0.1c0,0-0.1,0-0.1,0.1c-0.1,0-0.2,0-0.3-0.1c-0.1-0.1-0.2-0.2-0.2-0.3l-0.8-1.1
			l-2.9-3.8l-0.7-0.9c-0.1-0.1-0.1-0.1-0.2-0.2c-0.1-0.1-0.1-0.1-0.1-0.2C2848.2,3867.7,2848.2,3867.6,2848.4,3867.5
			C2848.3,3867.5,2848.3,3867.5,2848.4,3867.5C2848.3,3867.5,2848.4,3867.5,2848.4,3867.5z"/>
		<path class="st0" d="M2865,3860c0,0,0.1,0.1,0.1,0.1c0,0.1,0.1,0.1,0.1,0.1l0.1,0.1c0,0.1,0.1,0.1,0.1,0.2s0.1,0.1,0.1,0.2
			c0,0.1,0.1,0.1,0.1,0.2c0,0,0.1,0.1,0.1,0.2c0.1,0.1,0.1,0.3,0.2,0.4c0.1,0.1,0.1,0.2,0.1,0.4c0.2,0.6,0.2,1.2,0.1,1.7
			s-0.3,1.1-0.7,1.6c-0.1,0.1-0.1,0.1-0.2,0.2c-0.1,0.1-0.1,0.1-0.2,0.2c0,0-0.1,0.1-0.1,0.1s0,0-0.1,0.1l-0.3,0.3
			c0,0-0.1,0.1-0.1,0.1c-0.1,0-0.1,0.1-0.1,0.1c0,0-0.1,0-0.1,0.1c0,0-0.1,0-0.1,0.1l-0.1,0.1c-0.1,0-0.1,0-0.1,0.1
			c0,0-0.1,0.1-0.1,0.1c-0.1,0-0.2,0.1-0.2,0.1c-0.1,0-0.1,0.1-0.2,0.1c-0.1,0-0.2,0-0.2,0.1c-0.1,0-0.2,0-0.3,0.1
			c-0.5,0.1-1,0.1-1.5,0c-0.5-0.1-1-0.3-1.4-0.6c-0.1-0.1-0.2-0.1-0.3-0.2c-0.1-0.1-0.2-0.2-0.3-0.2c0,0-0.1,0-0.1-0.1
			c0,0,0,0-0.1-0.1c0,0-0.1-0.1-0.1-0.1c0-0.1-0.1-0.1-0.1-0.1c0,0-0.1,0-0.1-0.1c0,0,0,0-0.1-0.1l-0.2-0.2c0,0-0.1-0.1-0.1-0.1
			c0-0.1-0.1-0.1-0.1-0.1l-0.1-0.1l-0.2-0.4c0,0,0-0.1-0.1-0.1s-0.1-0.1-0.1-0.1c-0.1-0.1-0.1-0.2-0.2-0.4s-0.1-0.2-0.1-0.3
			c0-0.2-0.1-0.3-0.1-0.5s-0.1-0.3-0.1-0.5c0-0.4,0-0.8,0.1-1.2c0.1-0.4,0.2-0.8,0.5-1.2c0-0.1,0.1-0.2,0.2-0.2
			c0.1-0.1,0.1-0.2,0.2-0.3c0,0,0.1-0.1,0.1-0.1c0,0,0.1-0.1,0.1-0.1c0,0,0.1-0.1,0.1-0.1c0,0,0.1-0.1,0.1-0.1c0,0,0,0,0,0
			c0,0,0,0,0,0c0.4-0.3,0.8-0.6,1.2-0.7c0.4-0.1,0.8-0.2,1.1-0.2c0.1,0,0.3,0,0.4,0c0.1,0,0.3,0,0.4,0.1c0,0,0.1,0,0.1,0
			c0,0,0.1,0,0.1,0c0.1,0,0.2,0,0.2,0.1s0.2,0.1,0.2,0.1c0,0,0.1,0,0.1,0.1s0.1,0,0.1,0c0.1,0,0.1,0,0.2,0.1
			c0.1,0.1,0.3,0.2,0.4,0.2c0,0,0.1,0.1,0.1,0.1c0,0,0.1,0.1,0.1,0.1c0.1,0,0.1,0.1,0.2,0.2c0.1,0.1,0.1,0.1,0.2,0.2
			c0,0,0.1,0,0.1,0.1c0,0,0.1,0.1,0.1,0.1c0,0,0.1,0.1,0.1,0.1c0,0,0.1,0.1,0.1,0.1l0,0.1C2864.9,3859.8,2864.9,3859.8,2865,3860
			C2864.9,3859.9,2865,3859.9,2865,3860z M2864.3,3861c0,0,0-0.1-0.1-0.2c-0.1-0.1-0.1-0.1-0.1-0.2l-0.1-0.1c0,0,0-0.1-0.1-0.1
			c0,0,0,0-0.1-0.1c0,0-0.1,0-0.1-0.1c0,0,0-0.1-0.1-0.1c-0.1,0-0.1-0.1-0.2-0.1s-0.1-0.1-0.2-0.1c-0.1-0.1-0.2-0.1-0.3-0.2
			c-0.1-0.1-0.2-0.1-0.3-0.2c-0.3-0.2-0.6-0.3-1-0.4s-0.7-0.1-1,0c-0.2,0-0.4,0.1-0.6,0.2c-0.1,0-0.2,0.1-0.3,0.2
			c-0.1,0.1-0.2,0.2-0.3,0.2c0,0-0.1,0.1-0.1,0.1c0,0-0.1,0.1-0.1,0.1c-0.1,0.1-0.1,0.2-0.2,0.3c-0.1,0.1-0.1,0.2-0.2,0.3
			c-0.2,0.4-0.3,0.8-0.3,1.2c0,0.4,0.1,0.9,0.3,1.3c0,0.1,0.1,0.2,0.1,0.3c0,0.1,0.1,0.2,0.1,0.3c0,0,0,0.1,0.1,0.1
			c0,0,0,0.1,0.1,0.1c0,0,0,0.1,0,0.1s0,0.1,0.1,0.1l0.1,0.1c0,0,0.1,0.1,0.1,0.2c0.1,0.1,0.1,0.1,0.1,0.2c0,0,0,0,0.1,0.1
			c0,0,0,0,0.1,0.1c0.1,0,0.1,0.1,0.2,0.1c0,0.1,0.1,0.1,0.2,0.1c0,0,0,0,0.1,0.1s0,0,0.1,0.1c0.1,0.1,0.1,0.1,0.2,0.2
			s0.1,0.1,0.2,0.2c0.1,0,0.2,0.1,0.2,0.1c0.1,0,0.2,0.1,0.2,0.1c0.1,0,0.1,0.1,0.2,0.1c0.1,0,0.1,0.1,0.2,0.1
			c0.4,0.1,0.8,0.2,1.3,0.1c0.1,0,0.2,0,0.4-0.1c0.1,0,0.2-0.1,0.4-0.1c0.1,0,0.1,0,0.1-0.1c0,0,0.1-0.1,0.1-0.1c0,0,0.1,0,0.1-0.1
			c0,0,0.1-0.1,0.1-0.1l0.1-0.1c0,0,0.1-0.1,0.1-0.1c0,0,0.1-0.1,0.1-0.1c0.1-0.1,0.1-0.2,0.2-0.2c0.1-0.1,0.1-0.2,0.2-0.2
			c0.2-0.4,0.4-0.8,0.4-1.1c0-0.4,0-0.8-0.1-1.2c0-0.1-0.1-0.2-0.1-0.3c0-0.1-0.1-0.2-0.1-0.3c0,0,0-0.1-0.1-0.1
			c0,0-0.1-0.1-0.1-0.1L2864.3,3861L2864.3,3861z"/>
		<path class="st0" d="M2863.9,3855.6c0.1-0.1,0.2-0.2,0.4-0.3c0.1-0.1,0.3-0.2,0.4-0.2c0.1,0,0.2,0,0.3,0.1c0.1,0,0.2,0.1,0.3,0.1
			c0.2,0.1,0.4,0.1,0.5,0.2s0.4,0.1,0.6,0.2c0.1,0,0.2,0.1,0.3,0.1c0.1,0,0.2,0.1,0.3,0.1c0.4,0.2,0.8,0.3,1.3,0.5s0.9,0.3,1.3,0.5
			c0.1,0.1,0.2,0.1,0.4,0.1c0.1,0,0.2,0.1,0.4,0.1c0.2,0.1,0.5,0.2,0.7,0.3c0.2,0.1,0.5,0.2,0.7,0.2c0.1,0,0.2,0.1,0.3,0.1
			s0.2,0,0.3,0c0,0,0-0.1,0-0.1c0-0.1,0-0.1-0.1-0.2s-0.1-0.1-0.2-0.2l-0.6-0.8l-2.2-2.9l-0.4-0.6c0,0-0.1-0.1-0.1-0.1
			c0,0-0.1-0.1-0.1-0.2l-0.1-0.1c0,0,0-0.1,0-0.1c0,0,0-0.1,0-0.1c0-0.1,0-0.1,0.1-0.2c0.1-0.1,0.2-0.1,0.2-0.2c0,0,0.1-0.1,0.1-0.1
			c0,0,0.1-0.1,0.1-0.1c0.1,0,0.2,0,0.3,0.1c0.1,0.1,0.1,0.2,0.2,0.3l0.8,1l3,4l0.6,0.8c0.1,0.1,0.1,0.1,0.2,0.2
			c0.1,0.1,0.1,0.1,0.1,0.2c0,0.1,0,0.1,0,0.1c0,0-0.1,0.1-0.1,0.1l-0.2,0.2c-0.1,0.1-0.2,0.1-0.2,0.2c-0.1,0.1-0.2,0.1-0.2,0.1
			c-0.1,0-0.1,0-0.2,0s-0.1,0-0.2-0.1c-0.1,0-0.2-0.1-0.3-0.1c-0.1,0-0.2-0.1-0.3-0.1c-0.5-0.2-1-0.3-1.5-0.5
			c-0.5-0.2-1-0.3-1.5-0.5c-0.3-0.1-0.5-0.2-0.8-0.3c-0.3-0.1-0.5-0.2-0.8-0.3c-0.5-0.2-0.9-0.3-1.4-0.5c-0.1,0-0.1,0-0.2-0.1
			c-0.1,0-0.1,0-0.2,0c0,0,0,0-0.1,0c0,0,0,0-0.1,0c0,0,0,0.1,0,0.1c0,0,0,0.1,0.1,0.1l0.1,0.1c0,0.1,0.1,0.1,0.1,0.2
			c0,0,0.1,0.1,0.1,0.1l0.5,0.6l2.3,3l0.3,0.4c0,0,0.1,0.1,0.1,0.1c0,0,0.1,0.1,0.1,0.1l0.1,0.1c0,0.1,0.1,0.1,0.1,0.2
			c0,0,0,0.1,0,0.1c0,0-0.1,0.1-0.1,0.1l-0.2,0.1c-0.1,0.1-0.2,0.1-0.2,0.2s-0.1,0.1-0.2,0c-0.1,0-0.1-0.1-0.2-0.1s-0.1-0.1-0.2-0.2
			l-0.6-0.8l-3-4l-0.8-1c-0.1-0.1-0.1-0.2-0.2-0.2s-0.1-0.2-0.1-0.2C2863.7,3855.9,2863.8,3855.8,2863.9,3855.6
			C2863.8,3855.7,2863.8,3855.7,2863.9,3855.6C2863.9,3855.7,2863.9,3855.7,2863.9,3855.6z"/>
	</g>
	<path class="st3" d="M2846.4,3857.7l-20.7-26.6c-4.1-5.2-11.6-6.1-16.8-2.1l-4,3.1c-5.2,4.1-6.1,11.6-2.1,16.8l20.7,26.6"/>
	<path class="st3" d="M2774.4,3812.5l20.7,26.6c4.1,5.2,11.6,6.1,16.8,2.1l4-3.1c5.2-4.1,6.1-11.6,2.1-16.8l-20.7-26.6"/>
</g>
<g id="csmcculloughs">
	<g>
		
			<rect x="2619.4" y="2824.3" transform="matrix(0.866 -0.5 0.5 0.866 -1115.1036 1722.2903)" class="st0" width="73.7" height="235.3"/>
		<g>
			<path d="M2654.8,2940.9c11,19.2,19.1,39.5,23.8,61.1c1.7,7.9,2.9,15.9,3.2,24.1c0,0.2,0,0.5,0,0.7c0,0.4-0.2,0.8-0.7,0.8
				c-0.5,0-0.8-0.3-0.8-0.8c-0.1-0.8-0.1-1.7-0.1-2.5c-0.6-10.1-2.4-20-5-29.8c-3-11.7-7.1-23-12.1-33.9
				c-4.4-9.6-9.4-18.9-15.3-27.7c-7.7-11.7-16.6-22.6-26.5-32.6c-9.1-9.2-18.8-17.7-29.4-25.1c-0.3-0.2-0.6-0.4-0.9-0.6
				c-0.4-0.3-0.6-0.7-0.3-1.1c0.3-0.5,0.7-0.4,1.1-0.1c1.6,1.1,3.2,2.2,4.8,3.4c11.8,8.8,22.5,18.7,32.4,29.6
				c6.3,6.9,12.2,14.2,17.5,22C2649.4,2932.4,2652,2936.7,2654.8,2940.9z"/>
			<path d="M2685,3005c-0.8-1.3-1.5-2.5-2.3-3.9c0.5-0.3,0.9-0.5,1.3-0.8c0.1-0.1,0.4,0,0.5,0.1c0.5,0.3,1,0.3,1.6,0.1
				c0.4-0.2,0.8-0.3,1.1-0.5c6.6-3.9,13.2-7.7,19.8-11.6c0.2-0.1,0.3-0.2,0.6-0.4c-1-1.6-1.9-3.3-2.9-5c-0.3,0.1-0.5,0.3-0.7,0.4
				c-6.5,3.8-13,7.6-19.4,11.4c-1.1,0.6-1.1,0.8-0.8,2c-0.5,0.3-1,0.6-1.5,0.9c-0.7-1.3-1.5-2.5-2.3-3.8c0.5-0.3,0.9-0.5,1.3-0.8
				c0.1-0.1,0.4,0.1,0.6,0.2c0.5,0.5,1,0.5,1.6,0.2c0.2-0.1,0.4-0.2,0.5-0.3c7.9-4.6,15.7-9.2,23.6-13.8c1.3-0.7,1.3-0.8,1-2.2
				c0.5-0.3,1-0.6,1.5-0.9c0.8,1.3,1.5,2.5,2.2,3.8c-0.5,0.3-1,0.6-1.5,0.9c-1.1-0.9-1.1-0.9-2.3-0.2c-0.5,0.3-1,0.6-1.6,0.9
				c-0.1,0-0.1,0.1-0.2,0.2c0.9,1.6,1.9,3.2,2.9,4.9c0.9-0.5,1.7-1,2.6-1.5c0.6-0.4,0.3-1,0.2-1.6c0.5-0.3,1-0.6,1.5-0.9
				c0.7,1.3,1.5,2.5,2.2,3.8c-0.5,0.3-1,0.6-1.5,0.9c-1.1-0.9-1.1-0.9-2.5-0.2c-7.9,4.6-15.7,9.2-23.6,13.8c-0.5,0.3-1,0.6-1.4,1
				c-0.3,0.3-0.6,0.7-0.6,1C2686.7,3004.4,2685.8,3004.5,2685,3005z"/>
			<path d="M2633.7,2906c-0.4,0.3-0.9,0.5-1.4,0.8c-0.7-1.3-1.5-2.5-2.2-3.7c-0.1-0.1,0.1-0.4,0.2-0.5c0.3-0.2,0.7-0.4,1-0.6
				c0.1,0.1,0.2,0.2,0.3,0.3c0.7,0.6,0.9,0.7,1.7,0.2c0.1-0.1,0.3-0.2,0.4-0.2c7.1-4.1,14.2-8.3,21.2-12.4c0.3-0.2,0.6-0.4,0.9-0.5
				c0-0.1,0-0.1,0-0.2c-2.1-0.4-4.2-0.8-6.4-1.2c0.7-2.1,1.4-4.1,2-6.1c0,0-0.1-0.1-0.1-0.1c-0.2,0.1-0.4,0.2-0.6,0.4
				c-7.3,4.3-14.6,8.6-21.9,12.8c-0.5,0.3-1,0.7-1.5,1.1c-0.2,0.2-0.5,0.6-0.4,0.8c0.1,1.1-0.7,1.2-1.4,1.6c-0.8-1.3-1.5-2.6-2.4-4
				c0.4-0.2,0.8-0.5,1.2-0.7c0.1-0.1,0.4,0,0.5,0.1c0.6,0.5,1.3,0.4,1.9,0.2c0.5-0.2,0.9-0.4,1.4-0.7c7.2-4.2,14.3-8.4,21.5-12.6
				c1.4-0.8,1.4-0.8,1-2.3c0.4-0.2,0.9-0.5,1.4-0.8c0.6,1,1.1,1.9,1.7,2.9c0.1,0.1,0,0.4-0.1,0.6c-0.6,1.8-1.1,3.6-1.7,5.5
				c1.7,0.3,3.3,0.7,4.9,1c0.9,0.1,1.6,0.5,2,1.4c0.3,0.6,0.7,1.2,1,1.8c-0.5,0.3-0.9,0.6-1.4,0.8c0,0-0.1,0-0.1,0c-1-1-1-1-2.2-0.3
				c-7.1,4.2-14.3,8.4-21.4,12.6C2633.3,2904.5,2633.3,2904.5,2633.7,2906z"/>
			<path d="M2652.5,2942.3c10.3,17.8,18.1,36.7,22.7,56.8c2.1,9,3.6,18.2,4,27.5c0,0.5,0.1,0.9,0,1.4c0,0.2-0.2,0.4-0.3,0.6
				c-0.1-0.2-0.3-0.4-0.3-0.5c-0.1-1.7-0.1-3.5-0.3-5.2c-0.9-11.2-3.1-22.2-6.2-33.1c-3.3-11.5-7.6-22.6-12.9-33.3
				c-2.4-4.8-4.9-9.5-7.6-14.2c-6.9-11.9-15.2-22.9-24.4-33.1c-10.5-11.6-22.1-22.2-34.9-31.4c-1-0.7-2-1.3-2.9-2
				c-0.2-0.1-0.3-0.4-0.4-0.6c0.3,0,0.6,0,0.8,0.1c5,3.3,9.8,7,14.4,10.9c10.9,9.1,20.8,19,29.9,29.9
				C2640.9,2924.2,2647.1,2933,2652.5,2942.3z"/>
			<path d="M2695.4,2954.3c0.4-0.2,0.8-0.5,1.2-0.7c0.7,1.2,1.4,2.5,2.2,3.7c-0.4,0.2-0.8,0.5-1.2,0.7c-1.1-0.9-1.1-0.9-2.3-0.2
				c-5.5,3.2-11,6.4-16.4,9.6c-0.9,0.5-1.8,1.2-2.5,1.9c-1.1,1.1-1.2,2.2-0.4,3.5c0.8,1.3,1.8,1.8,3.3,1.3c1-0.3,2-0.8,2.9-1.3
				c5.5-3.2,11-6.5,16.6-9.7c1.2-0.7,1.2-0.7,0.8-2c0.4-0.2,0.8-0.5,1.3-0.7c0.7,1.2,1.4,2.5,2.2,3.7c-0.4,0.3-0.8,0.5-1.2,0.7
				c-1-0.9-1-0.9-2.1-0.2c-5.4,3.2-10.7,6.3-16.1,9.4c-1.4,0.8-2.8,1.5-4.3,1.9c-3,0.8-6.1-2-5.7-5.1c0.1-1.2,0.9-2.2,1.8-3
				c1-0.8,2-1.5,3.1-2.2c5.4-3.2,10.8-6.3,16.2-9.5C2695.7,2955.6,2695.7,2955.6,2695.4,2954.3z"/>
			<path d="M2677.3,2950c3.1-1.5,6.1-3.2,9.4-4c1.1-0.3,2.3-0.5,3.5-0.5c3,0,4.5,2.5,3.3,5.3c-0.7,1.6-1.9,3-3.2,4.2
				c-4.3,3.8-9,6.9-14.5,8.7c-1.2,0.4-2.6,0.6-3.9,0.6c-3.3,0-5.1-2.8-3.8-5.9c0.8-1.9,2.2-3.4,3.8-4.7
				C2673.7,2952.4,2675.5,2951.3,2677.3,2950z M2678,2952c-1,0.6-2.1,1.2-3.1,1.8c-0.6,0.4-1.2,0.9-1.8,1.3c-1.4,1.1-2.7,2.3-3.3,4
				c-0.7,1.9,0.3,3.3,2.2,3.3c1,0,2-0.1,2.9-0.4c5.8-2,10.7-5.2,15-9.5c0.7-0.7,1.3-1.6,1.7-2.5c0.7-1.6-0.1-2.8-1.8-2.8
				c-0.9,0-1.8,0.2-2.7,0.4C2684,2948.6,2681,2950.2,2678,2952z"/>
			<path d="M2608.6,2873.6c-0.2,0.6-0.4,1.1-0.7,1.5c-0.1,0.2-0.3,0.4-0.4,0.4c-1.2,0.1-2.4,0.4-3.6,0.3c-2.9-0.2-4.2-2.7-3-5.3
				c0.8-1.8,2.2-3.2,3.6-4.6c3-2.7,6.3-4.9,9.7-7c4.1-2.5,8.2-4.8,12.7-6.3c2.1-0.7,4.3-1.3,6.5-1.1c1.5,0.1,2.7,0.7,3.5,2.1
				c0.2,0.4,0.5,0.6,1,0.5c0.3-0.1,0.8,0.2,1.3,0.4c-1.4,1.4-2.7,2.7-4,3.9c-0.2,0.2-0.9-0.1-1.4-0.2c0.3-0.6,0.5-1.1,0.7-1.6
				c0.5-1.5-0.2-2.6-1.8-2.9c-1.7-0.2-3.4,0.2-5.1,0.7c-4.3,1.4-8.2,3.5-12,5.8c-3.3,2-6.6,4.1-9.5,6.7c-0.8,0.8-1.6,1.7-2.3,2.6
				c-0.3,0.4-0.6,0.9-0.7,1.4c-0.5,1.4,0.1,2.6,1.5,2.9c0.9,0.2,1.8,0.1,2.7,0.1C2607.8,2873.8,2608.2,2873.7,2608.6,2873.6z"/>
			<path d="M2708.1,2970.8c-1.2,1.4-2.3,2.6-3.4,3.9c-0.4-0.2-0.7-0.4-1-0.7c0.2-0.5,0.4-0.9,0.6-1.3c0.5-1.2,0-2.2-1.3-2.3
				c-1-0.1-2.1-0.1-3.2,0.2c-3.5,0.7-6.6,2.4-9.5,4.4c-2.3,1.5-4.3,3.3-5.9,5.6c-1.4,2-2.3,4.3-2.6,6.9c0.3-0.2,0.5-0.3,0.7-0.4
				c2.9-1.7,5.9-3.4,8.8-5.2c1.3-0.8,1.3-0.8,1-2.2c0.4-0.2,0.9-0.5,1.3-0.8c0.8,1.3,1.5,2.6,2.3,3.9c-0.5,0.3-0.9,0.5-1.4,0.8
				c-0.1-0.1-0.2-0.2-0.3-0.3c-0.4-0.6-0.9-0.6-1.5-0.2c-1.5,0.9-3,1.8-4.6,2.7c-2.4,1.4-4.8,2.8-7.2,4.2c-0.2,0.1-0.4,0.3-0.7,0.4
				c-0.6-1.6-0.6-3.1-0.3-4.6c0.5-2.8,1.9-5.2,3.7-7.3c4.4-5,9.8-8.4,16.4-9.8c1.1-0.2,2.3-0.2,3.4-0.1c1.1,0.1,2,0.5,2.7,1.5
				c0.1,0.2,0.3,0.3,0.5,0.3C2707.1,2970.6,2707.5,2970.7,2708.1,2970.8z"/>
			<path d="M2717,2999.5c0.3-0.7,0.6-1.3,0.8-2c0.1-0.4,0.1-1-0.1-1.2c-0.2-0.2-0.9-0.3-1.3-0.1c-0.8,0.5-1.6,1.1-2.2,1.8
				c-1.8,2.1-3.6,4.4-5.4,6.5c-2.9,3.5-5.9,6.9-9.4,9.7c-2.3,1.9-4.8,3.5-7.8,4c-1,0.2-2.2,0.1-3.2-0.2c-1.7-0.5-2.6-1.9-2.5-3.7
				c0-0.3,0.1-0.5,0.1-0.6c-0.5-0.4-0.9-0.7-1.3-1.1c1.3-0.9,2.4-1.7,3.6-2.5c0.2-0.1,0.4-0.3,0.6-0.4c1.1-0.7,0.7-0.8,2,0
				c-0.2,0.3-0.5,0.5-0.7,0.8c-0.5,0.7-1.1,1.4-1.5,2.1c-0.9,1.8,0.1,3.6,2.1,3.7c1.5,0.1,2.8-0.3,4.1-1.1c2.1-1.2,4-2.7,5.7-4.4
				c3.8-3.7,7-7.9,10.5-11.9c1.2-1.3,2.4-2.7,3.7-3.8c0.8-0.6,1.8-1,2.8-1.3c1.2-0.3,2,0.2,2.6,1.3c0.1,0.2,0.4,0.3,0.6,0.5
				c0.3,0.3,0.7,0.5,0.8,0.8c0.1,0.1-0.2,0.5-0.4,0.7c-0.7,0.8-1.5,1.5-2.3,2.3C2718,3000.2,2718,3000.2,2717,2999.5z"/>
			<path d="M2674.4,2918.3c0.4-0.2,0.7-0.4,1.1-0.7c0.7,1.2,1.5,2.5,2.2,3.7c-0.4,0.2-0.7,0.4-1.2,0.7c-0.1-0.1-0.3-0.4-0.5-0.4
				c-0.3-0.1-0.6-0.2-0.9-0.2c-0.3,0-0.5,0.2-0.7,0.4c-5.1,3-10.1,5.9-15.2,8.9c-1.1,0.6-2.2,1.1-3.3,1.5c-2.1,0.7-3.6,0.1-4.9-1.7
				c-0.4-0.5-0.7-1.1-0.9-1.7c-0.6-1.5-0.3-3,0.9-4.1c1.1-1,2.4-1.9,3.7-2.7c4.9-2.9,9.8-5.8,14.7-8.7c1.2-0.7,1.2-0.7,0.9-2.1
				c0.3-0.2,0.7-0.4,1.1-0.7c0.7,1.2,1.5,2.5,2.2,3.8c-0.4,0.2-0.7,0.4-1.2,0.7c-0.1-0.1-0.3-0.2-0.4-0.4c-0.4-0.5-0.8-0.5-1.3-0.2
				c-1,0.6-2,1.2-3.1,1.8c-4.3,2.5-8.6,5-12.8,7.5c-0.9,0.5-1.7,1.1-2.4,1.9c-1,1-1,2.1-0.3,3.3c0.8,1.3,1.7,1.9,3.1,1.5
				c1-0.3,1.9-0.7,2.8-1.2c5.2-3,10.3-6,15.5-9.1C2674.8,2919.7,2674.8,2919.7,2674.4,2918.3z"/>
			<path d="M2643.2,2869.8c-0.4-0.2-0.7-0.4-1.1-0.7c0.3-0.7,0.6-1.4,0.7-2.1c0.1-0.4,0.1-1-0.2-1.2c-0.3-0.2-1-0.3-1.3-0.1
				c-0.7,0.4-1.4,1-1.9,1.6c-1.7,2-3.2,4.1-4.8,6.2c-2.6,3.3-5.3,6.5-8.5,9.2c-2.1,1.7-4.2,3.3-6.9,3.8c-1,0.2-2,0.2-3,0.1
				c-2.1-0.3-3.2-2-3.1-4c0-0.2,0-0.4,0-0.5c-0.4-0.4-0.8-0.7-1.3-1.1c0.5-0.4,0.8-0.6,1.1-0.8c0.9-0.7,1.8-1.3,2.8-2
				c0.9-0.6,0.9-0.6,1.8,0.1c-0.4,0.5-0.9,1.1-1.3,1.6c-0.8,1.1-1.4,2.4-0.5,3.7c0.9,1.3,2.2,1.3,3.6,1.1c1.7-0.3,3.1-1.3,4.5-2.3
				c3.3-2.5,5.9-5.7,8.5-8.8c2-2.4,4-4.9,6-7.3c0.8-1,1.8-1.8,3-2.3c0.5-0.2,1.1-0.4,1.6-0.4c0.4,0,0.8,0,1.1,0.2
				c0.9,0.6,1.4,1.7,2.4,2.3c0.1,0.1,0.1,0.5,0,0.7C2645.3,2867.8,2644.2,2868.8,2643.2,2869.8z"/>
			<path d="M2649.6,2921.2c0,0.1,0,0.1,0,0.2c-0.4,1.6,0,1.5-1.8,1.4c-3.6-0.1-5.7-3.4-4.1-6.7c0.9-1.9,2.3-3.3,3.9-4.6
				c3.7-3,7.7-5.4,12.3-6.9c1.6-0.5,3.2-0.9,4.8-0.7c1.8,0.1,3.2,0.9,4.1,2.5c0.2,0.4,0.4,0.7,1,0.6c0.3,0,0.6,0.3,0.9,0.5
				c-0.9,1.1-1.8,2.2-2.6,3.2c-1-0.4-1-0.4-0.8-1.4c0.4-1.8-0.4-3.1-2.2-3.4c-1.6-0.3-3.2,0-4.8,0.5c-4.9,1.7-9.2,4.3-13,7.8
				c-0.8,0.7-1.4,1.6-1.9,2.5c-1.2,2.1-0.1,4.1,2.3,4.5C2648.4,2921.2,2649,2921.2,2649.6,2921.2z"/>
			<path d="M2683.4,2933.6c0.4-0.2,0.7-0.4,1.1-0.7c0.8,1.3,1.5,2.6,2.3,4c-0.4,0.2-0.7,0.4-1.1,0.7c-0.2-0.2-0.3-0.3-0.4-0.5
				c-0.3-0.4-0.7-0.4-1.2-0.2c-0.1,0.1-0.3,0.2-0.4,0.2c-6.1,3.6-12.3,7.2-18.4,10.8c-0.2,0.1-0.4,0.2-0.6,0.3
				c0.8,1.3,1.4,2.6,2.3,3.7c0.4,0.5,1.3,0.6,2,0.9c0.1-0.1,0.1-0.1,0.2-0.2c0,0.4,0,0.8-0.1,1.3c-1.1,0.1-2.1,0.3-3,0.4
				c-1.5-2.8-2.9-5.4-4.4-8.1c0.4-0.2,0.7-0.4,1.1-0.6c1.1,1.1,1.1,1.1,2.5,0.3c5.8-3.4,11.6-6.8,17.3-10.2
				C2683.8,2935,2683.8,2935,2683.4,2933.6z"/>
			<path d="M2659.7,2938.4c0.7,1.2,1.3,2.3,2,3.4c0.5,0.9,1.4,1,2.4,1c0,0.5-0.1,0.9-0.1,1.3c-1,0.1-1.9,0.2-2.8,0.3
				c-0.1,0-0.3-0.1-0.4-0.2c-1.2-2.2-2.4-4.5-3.6-6.7c-0.2-0.3-0.4-0.7-0.6-1.1c0.3-0.2,0.5-0.3,0.7-0.4c0.3-0.2,0.6-0.2,0.8,0.1
				c0.4,0.6,0.9,0.6,1.5,0.3c5.9-3.5,11.8-6.9,17.8-10.4c0.4-0.2,0.8-0.5,0.6-1.1c-0.2-1-0.2-1,0.8-1.5c0.8,1.3,1.5,2.6,2.3,4
				c-0.2,0.1-0.5,0.3-0.7,0.4c-0.3,0.2-0.5,0.2-0.7-0.1c-0.4-0.5-0.8-0.6-1.4-0.3c-6.1,3.6-12.2,7.2-18.4,10.8
				C2660,2938.2,2659.9,2938.3,2659.7,2938.4z"/>
			<path d="M2637.5,2951.6c-1.5-3-3.1-5.9-4.5-8.9c-0.3-0.7-0.5-1.5-0.7-2.2c-0.1-0.5-0.2-1.1,0.4-1.4c0.7-0.3,1,0.2,1.3,0.7
				c1.3,2.3,2.5,4.7,3.9,6.9c1.9,3,4,6,6,8.9c0.6,0.9,0.6,1.8-0.3,2.4c-0.9,0.6-1.8,0.4-2.4-0.6c-1.2-2-2.3-4-3.5-5.9
				C2637.6,2951.5,2637.5,2951.6,2637.5,2951.6z"/>
			<path d="M2655.3,2902.8c-0.7,0.9-1.3,1.7-1.9,2.6c-0.6-0.3-1-0.6-0.8-1.4c0.3-1.3-0.4-2.2-1.8-2.4c-1.4-0.2-2.7,0.1-4,0.6
				c-2.8,1.1-5.3,2.6-7.4,4.7c-0.5,0.4-0.9,1-1.2,1.5c-0.9,1.6-0.1,3.1,1.7,3.4c0.4,0.1,0.8,0.1,1.2,0.1c-0.1,0.5-0.1,0.9-0.2,1.5
				c-1.4,0.1-2.7-0.1-3.7-1.2c-1.1-1.2-1.4-2.6-0.8-4.1c0.2-0.6,0.6-1.2,1-1.7c3-3.3,6.7-5.6,11.1-6.6c2.2-0.5,4.1,0,5.4,2.1
				C2654.2,2902.3,2654.8,2902.5,2655.3,2902.8z"/>
			<path d="M2697.5,3017.8c-2,1.1-4.1,2.1-6.3,2.3c-1,0.1-2,0.1-3-0.1c-2.5-0.6-3.6-2.8-3.9-4.9c0-0.2,0.2-0.3,0.3-0.5
				c0.2,0.1,0.4,0.2,0.4,0.4c0.2,0.5,0.2,1,0.4,1.5c0.7,1.9,2.1,2.9,4.1,3c2.5,0.1,4.7-0.8,6.8-1.9c2.6-1.3,4.7-3.3,6.6-5.4
				c4.2-4.7,8.3-9.4,12.4-14c0.2-0.3,0.5-0.9,0.9-0.6c0.5,0.4-0.1,0.7-0.4,1c-4.6,5.4-9.2,10.9-14.2,15.9c-1.3,1.3-2.8,2.3-4.1,3.5
				C2697.6,3017.9,2697.5,3017.9,2697.5,3017.8z"/>
			<path d="M2623.9,2885.6c2.5-1.4,4.4-3.5,6.3-5.6c3.7-4.2,7.2-8.5,10.8-12.8c0,0,0.1-0.1,0.1-0.1c0.2-0.2,0.4-0.6,0.8-0.3
				c0.1,0.1,0,0.6-0.2,0.7c-1.6,2-3.2,4.1-4.9,6c-3,3.4-6,6.9-9.2,10.2c-2.5,2.6-5.6,4.1-9.1,4.7c-2,0.3-3.9,0-5.4-1.7
				c-0.8-1-1.3-2.1-1.5-3.4c0-0.2,0.2-0.4,0.3-0.5c0.1,0.1,0.4,0.3,0.4,0.4c0.4,0.9,0.6,2,1.2,2.8c0.7,1.2,2,1.6,3.3,1.7
				c2.4,0.1,4.6-0.7,6.7-1.9C2623.6,2885.7,2623.7,2885.7,2623.9,2885.6z"/>
			<path d="M2642.5,2944.5c0,0.1,0,0.2,0,0.4c-0.1-0.1-0.2-0.2-0.2-0.2c-0.1-1.4-1.1-1.8-2.4-2.1c-1.5-0.3-3-0.7-4.4-1.2
				c-0.4-0.1-0.7-0.8-1-1.2c0.1-0.1,0.1-0.1,0.2-0.2c1.1,0.3,2.2,0.4,3.2,0.8c4,1.4,8,2.9,12.1,4.4c0.3,0.1,0.7,0.2,1,0.3
				c0.6,0.2,0.8,0.7,0.6,1.2c-0.1,0.4-1.2,0.9-1.6,0.7C2647.5,2946.5,2645,2945.5,2642.5,2944.5
				C2642.5,2944.5,2642.5,2944.5,2642.5,2944.5z"/>
			<path d="M2633.7,2854.8c0,0.2,0,0.4-0.1,0.4c-0.1,0.1-0.3,0.1-0.4,0.1c-1-0.6-2-0.4-3-0.2c-2.9,0.6-5.6,1.9-8.2,3.3
				c-4.9,2.6-9.6,5.5-14,8.9c-1,0.8-1.8,1.6-2.6,2.6c-0.3,0.4-0.4,1-0.6,1.5c-0.1,0.2-0.2,0.3-0.3,0.4c-0.1-0.1-0.4-0.3-0.4-0.4
				c0.2-0.6,0.2-1.3,0.6-1.8c0.7-0.9,1.5-1.8,2.5-2.5c6.1-4.7,12.5-8.8,19.6-11.7c1.5-0.6,3.2-0.9,4.8-1.2c0.5-0.1,1,0.1,1.6,0.2
				C2633.3,2854.5,2633.5,2854.7,2633.7,2854.8z"/>
			<path d="M2687.7,2964.1c-2.9,1.7-5.8,3.4-8.6,5.1c-0.4,0.2-0.7,0.5-1,0.8c-0.9,0.8-1,1.3-0.5,2.4c0.1,0.2,0,0.5,0,0.7
				c-0.2-0.1-0.5-0.2-0.6-0.4c-0.7-1.1-0.6-2.2,0.4-3.1c1.2-1,2.6-1.9,3.9-2.7c4.9-2.9,9.8-5.7,14.7-8.6c0.1-0.1,0.2-0.2,0.3-0.2
				c0.2,0,0.4,0,0.6,0.1c-0.1,0.2-0.1,0.5-0.3,0.6c-2.2,1.3-4.5,2.6-6.7,3.9c-0.8,0.4-1.5,0.9-2.3,1.3
				C2687.7,2964,2687.7,2964.1,2687.7,2964.1z"/>
			<path d="M2703.6,2971.5c0,0.2,0,0.4-0.1,0.5c-0.1,0.1-0.3,0.1-0.4,0.1c-0.7,0-1.3-0.2-2-0.1c-3.3,0.5-6.2,1.9-8.9,3.7
				c-3.2,2.1-5.9,4.7-7.7,8.2c-0.3,0.6-0.5,1.2-0.8,1.7c-0.1,0.2-0.4,0.3-0.5,0.5c0-0.3-0.2-0.6-0.1-0.8c1.2-3.1,3.1-5.7,5.5-7.8
				c3.6-3,7.5-5.4,12.2-6.2c0.7-0.1,1.3-0.1,2-0.1C2703.1,2971.1,2703.3,2971.4,2703.6,2971.5z"/>
			<path d="M2694.5,2990.2c3.2-1.9,6.4-3.7,9.6-5.6c0.2-0.1,0.3-0.2,0.5-0.3c0.1,0,0.3,0,0.4,0.1c0.1,0.1,0,0.3-0.1,0.4
				c-0.1,0.2-0.3,0.3-0.5,0.4c-6.4,3.7-12.7,7.4-19.1,11.2c-0.1,0.1-0.2,0.2-0.4,0.2c-0.2,0-0.4-0.1-0.6-0.1
				c0.1-0.2,0.1-0.4,0.2-0.5c0.1-0.1,0.3-0.2,0.4-0.3C2688.2,2993.9,2691.3,2992.1,2694.5,2990.2z"/>
			<path d="M2662.7,2920.2c2.7-1.6,5.3-3.1,8-4.7c0.3-0.2,0.7-0.6,0.9-0.1c0.3,0.5-0.3,0.6-0.6,0.8c-4.9,2.9-9.9,5.8-14.8,8.7
				c-0.8,0.5-1.5,1-2.3,1.6c-0.9,0.7-0.9,1.3-0.5,2.3c0.1,0.2,0,0.5,0,0.8c-0.2-0.2-0.6-0.3-0.7-0.5c-0.7-1.2-0.5-2.2,0.5-3
				c1.3-1,2.7-1.9,4.1-2.8C2659.1,2922.1,2660.9,2921.1,2662.7,2920.2C2662.7,2920.1,2662.7,2920.1,2662.7,2920.2z"/>
			<path d="M2654,2910.3c2.2-1.3,4.4-2.6,6.8-3.2c1.2-0.3,2.4-0.4,3.6-0.4c0.5,0,1,0.3,1.5,0.5c0.1,0,0.1,0.4,0.1,0.5
				c-0.2,0-0.4,0.1-0.5,0c-0.9-0.6-1.9-0.6-2.8-0.3c-1.6,0.5-3.3,0.9-4.8,1.7c-3.4,1.6-6.5,3.7-9.3,6.1c-0.5,0.4-0.9,0.9-1.2,1.4
				c-0.3,0.5-0.3,1.1-0.4,1.6c-0.1,0.2-0.1,0.4-0.2,0.6c-0.2-0.2-0.4-0.3-0.5-0.5c-0.2-0.8,0-1.6,0.5-2.2c0.7-0.8,1.4-1.6,2.3-2.3
				C2650.6,2912.6,2652.3,2911.5,2654,2910.3z"/>
			<path d="M2639.1,2890.5c-3.5,2-7,4.1-10.4,6.1c-0.2,0.1-0.3,0.2-0.5,0.3c-0.1,0-0.3,0-0.5-0.1c0-0.2,0.1-0.4,0.2-0.5
				c0.1-0.1,0.2-0.2,0.3-0.2c7-4.1,13.9-8.2,20.9-12.2c0.3-0.2,0.7-0.7,1-0.2c0.3,0.5-0.4,0.6-0.7,0.8
				C2646,2886.5,2642.5,2888.5,2639.1,2890.5z"/>
			<path d="M2666.4,2949c0.4,0.7,0.8,1.4,1.2,2c0.1,0.2,0,0.5,0,0.8c-0.2-0.1-0.5-0.2-0.6-0.4c-0.4-0.7-0.8-1.4-1.3-2.1
				c-0.3-0.4-0.2-0.7,0.2-0.9c0.2-0.1,0.3-0.2,0.5-0.3c5.9-3.4,11.8-6.9,17.6-10.3c0,0,0.1-0.1,0.1-0.1c0.3,0,0.6,0,0.8-0.1
				c-0.2,0.2-0.3,0.6-0.5,0.7c-5.7,3.4-11.5,6.8-17.3,10.1C2667,2948.6,2666.8,2948.8,2666.4,2949z"/>
			<path d="M2661.4,2938.9c0.5,0.8,0.9,1.6,1.3,2.3c0.1,0.2,0,0.5,0,0.7c-0.2-0.1-0.5-0.2-0.6-0.3c-0.6-0.9-1.1-1.9-1.7-2.9
				c0.3-0.2,0.6-0.5,0.9-0.6c5.7-3.3,11.4-6.7,17-10c0.1-0.1,0.3-0.2,0.4-0.2c0.2,0,0.3,0.1,0.5,0.1c0,0.2,0,0.4-0.1,0.5
				c-0.2,0.2-0.4,0.3-0.6,0.4c-5.4,3.2-10.9,6.4-16.3,9.6C2661.9,2938.6,2661.7,2938.7,2661.4,2938.9z"/>
			<path d="M2643.6,2904.6c1.8-1.1,3.5-2.1,5.5-2.4c0.7-0.1,1.5,0,2.2,0.1c0.2,0,0.3,0.4,0.4,0.7c-0.2,0-0.5,0-0.7,0
				c-0.5,0-1-0.2-1.5-0.1c-0.9,0.2-1.7,0.4-2.5,0.7c-2.5,1.1-4.8,2.6-6.9,4.4c-0.6,0.5-1.1,1.1-0.9,1.9c0,0.1-0.2,0.3-0.2,0.4
				c-0.2-0.1-0.4-0.2-0.5-0.3c-0.2-0.7-0.1-1.3,0.4-1.8c0.8-0.8,1.7-1.5,2.5-2.3C2642.2,2905.5,2642.9,2905.1,2643.6,2904.6z"/>
			<path d="M2715.5,2991.2c0.2-0.5,0.4-1,0.6-1.3c0.3-0.5,0.9-0.8,1.5-0.6c0.4,0.1,0.7,0.6,0.9,0.9c0.2,0.6-0.1,1.1-0.6,1.5
				c-1.1,0.8-2.3,0.9-3.7,0.5c0-0.3,0-0.7,0-1C2714.7,2991.2,2715.1,2991.2,2715.5,2991.2z"/>
			<path d="M2621.7,2889.8c0.9-0.5,1.7-0.5,2,0.1c0.3,0.6-0.1,1.4-0.9,1.9c-0.8,0.5-1.7,0.4-2-0.2
				C2620.5,2891,2620.9,2890.2,2621.7,2889.8z"/>
			<path d="M2608.1,2877.7c0.9-0.5,1.7-0.5,2.1,0.1c0.3,0.6-0.1,1.4-0.9,1.9c-0.8,0.5-1.6,0.4-2-0.2
				C2606.9,2878.9,2607.2,2878.2,2608.1,2877.7z"/>
			<path d="M2641.6,2972c0.6,1.1,0.3,2.3-0.6,2.9c-0.9,0.5-2,0.2-2.6-0.8c-0.6-1.1-0.3-2.4,0.6-2.9
				C2639.9,2970.6,2641,2971,2641.6,2972z M2638.6,2973.8c0.5,0.8,1.4,1.1,2.1,0.7c0.8-0.4,1-1.5,0.5-2.3c-0.5-0.8-1.4-1.1-2.1-0.7
				C2638.4,2971.9,2638.2,2973,2638.6,2973.8z"/>
			<path d="M2612.4,2932c0.9-0.8,1.7-1.6,2.6-2.5c0.5,0.5,1.2,0.9,1,1.6c-0.1,0.3-0.6,0.6-0.8,0.8c-0.2,0.4-0.3,0.9-0.6,1.2
				c-0.5,0.4-1,0.1-1.4-0.3C2612.9,2932.6,2612.7,2932.3,2612.4,2932z M2613.9,2931.1c-0.2,0.2-0.3,0.3-0.5,0.4
				c-0.2,0.2-0.3,0.3-0.5,0.5c0.6,0.8,1.2,1.1,1.5,0.7C2614.9,2932.4,2614.7,2931.9,2613.9,2931.1z M2615.1,2929.9
				c-0.4,0.4-0.6,0.7-1,1c0.5,0.2,0.8,0.4,1.2,0.5c0.1,0,0.4-0.3,0.4-0.3C2615.5,2930.8,2615.3,2930.4,2615.1,2929.9z"/>
			<path d="M2626.1,2943.2c0.4,0.6,1,1.1,0.7,1.8c-0.1,0.3-0.6,0.5-1.1,0.7c0,0.4-0.1,1-0.8,1c-1,0.1-1.2-0.9-1.8-1.5
				C2624.2,2944.5,2625.1,2943.8,2626.1,2943.2z M2623.5,2945.4c0.6,0.4,1,0.7,1.4,0.9c0.1,0,0.5-0.3,0.4-0.4
				c-0.1-0.5-0.2-0.9-0.4-1.5C2624.4,2944.8,2624.1,2945,2623.5,2945.4z M2626.2,2943.6c-0.5,0.3-0.7,0.5-1.2,0.8
				c0.5,0.3,0.8,0.5,1.1,0.7c0.1,0,0.4-0.2,0.4-0.3C2626.4,2944.4,2626.3,2944.1,2626.2,2943.6z"/>
			<path d="M2622.8,2938.6c0.3,0.4,0.6,0.8,0.9,1.1c0.3,0.5,0.4,1-0.1,1.4c-0.5,0.4-0.9,0.2-1.4-0.1c-0.1-0.1-0.1-0.1-0.3-0.3
				c-0.1,0.4-0.2,0.7-0.2,1c-0.1,0.3-0.1,0.6-0.2,1c-0.3-0.4-0.3-0.4-0.1-1.2c0.1-0.4,0.2-0.8,0.1-1.4c-0.4,0.3-0.9,0.6-1.3,0.9
				c-0.1-0.1-0.1-0.2-0.2-0.2C2620.8,2940,2621.8,2939.4,2622.8,2938.6z M2621.6,2939.9c0.5,0.4,0.9,0.7,1.4,1
				c0.1,0,0.5-0.3,0.5-0.4c-0.1-0.5-0.4-0.9-0.6-1.5C2622.4,2939.4,2622.1,2939.6,2621.6,2939.9z"/>
			<path d="M2630.8,2954.1c-0.3,0.7-0.5,1.3-0.7,1.9c-0.1,0-0.1,0-0.2,0c-0.1-0.8,0.5-1.6,0.6-2.5c-0.6,0.3-1,0.5-1.6,0.8
				c0.2-0.5,2.1-1.7,3-2c0.2,0.4,0.5,0.8,0.7,1.2c0.2,0.5,0.2,1-0.3,1.3c-0.5,0.3-0.9,0.1-1.3-0.3
				C2631,2954.4,2630.9,2954.3,2630.8,2954.1z M2630.7,2953.3c0.2,0.4,0.4,0.7,0.6,0.9c0.2,0.2,0.6,0.3,0.8,0.1
				c0.2-0.1,0.2-0.5,0.2-0.8c-0.1-0.3-0.3-0.6-0.5-0.9C2631.4,2952.9,2631.1,2953.1,2630.7,2953.3z"/>
			<path d="M2637,2966c-0.6,0.2-1.1,0.4-1.6,0.7c0-0.2,0-0.4,0-0.4c1-0.5,2.1-0.9,3.1-1.4c0,0.1,0.1,0.2,0.1,0.2
				c-0.3,0.1-0.5,0.3-0.8,0.4c-0.5,0.2-0.6,0.4-0.3,0.9c0.2,0.4,0.4,0.8,0.6,1.2c0.5-0.2,1-0.3,1.4-0.5c0,0.1,0.1,0.2,0.1,0.3
				c-1.1,0.5-2.2,0.9-3.2,1.4c0-0.1-0.1-0.2-0.1-0.3c0.5-0.2,1-0.5,1.5-0.8C2637.6,2967.3,2637.3,2966.7,2637,2966z"/>
			<path d="M2618.1,2938.5c-0.1-0.7,0.6-1.3-0.1-2.2c-0.7-0.9-1.5-0.1-2.1-0.6c1.3-0.3,2.5-0.6,3.9-0.9c-0.6,1.3-1.1,2.5-1.6,3.7
				C2618.2,2938.5,2618.1,2938.5,2618.1,2938.5z M2618.6,2936.7c0.2-0.5,0.4-0.9,0.6-1.4c-0.5,0.1-0.9,0.2-1.4,0.3
				C2618,2936,2618.3,2936.3,2618.6,2936.7z"/>
			<path d="M2626.6,2949.7c0.3,0.6,0.6,1.1,0.9,1.6c-0.1,0-0.1,0.1-0.2,0.1c-0.4-0.6-0.8-1.2-1.2-1.9c1.1-0.6,2.1-1.2,3.1-1.8
				c0.3,0.6,0.7,1.2,1.1,1.8c-0.1,0-0.1,0.1-0.2,0.1c-0.3-0.5-0.7-1-1-1.5c-0.3,0.2-0.6,0.3-1,0.6c0.3,0.5,0.6,1,0.9,1.6
				c-0.1,0-0.1,0.1-0.2,0.1c-0.3-0.5-0.6-1-1-1.5C2627.4,2949.3,2627.1,2949.5,2626.6,2949.7z"/>
			<path d="M2641.6,2978.3c-0.6,0.1-1.1,0.3-1.6,0.4c0-0.1,0-0.2-0.1-0.3c1.1-0.3,2.2-0.7,3.4-1c0.1,0.6,0.3,1.1,0.4,1.6
				c0.1,0.5-0.1,0.9-0.7,1.1c-0.5,0.1-0.9-0.1-1.1-0.5C2641.9,2979.1,2641.8,2978.7,2641.6,2978.3z M2641.8,2978.2
				c0.4,0.6,0.7,1,1,1.4c0,0.1,0.5-0.1,0.5-0.2c0-0.5,0-1,0-1.7C2642.7,2977.9,2642.4,2978,2641.8,2978.2z"/>
			<path d="M2636.6,2962.2c0-0.2,0-0.3,0-0.4c-0.1-0.3-0.3-0.6-0.4-0.8c-0.2,0.2-0.5,0.4-0.6,0.7c-0.2,0.4-0.1,0.9-0.3,1.3
				c-0.2,0.3-0.6,0.5-0.9,0.5c-0.6,0-0.9-0.5-1-1c0-0.3,0.1-0.7,0.2-1c0.1,0,0.2,0,0.3,0.1c0,0.2-0.1,0.4-0.1,0.6
				c-0.1,0.5,0.1,0.8,0.6,0.9c0.5,0.1,0.6-0.2,0.7-0.6c0.1-0.3,0.1-0.6,0.2-1c0.1-0.5,0.3-1,1-0.9c0.5,0.1,0.9,0.6,0.8,1.3
				c0,0.1-0.1,0.3-0.1,0.4C2636.7,2962.2,2636.6,2962.2,2636.6,2962.2z"/>
			<path d="M2708.7,2981.9c0.3-0.2,0.5-0.4,0.8-0.5c0.1-0.1,0.4,0.1,0.5,0.1c0,0.2,0,0.4-0.1,0.5c-0.6,0.4-1.2,0.7-1.8,1.1
				c-0.1,0.1-0.3-0.1-0.5-0.1c0.1-0.2,0.1-0.4,0.2-0.5C2708,2982.2,2708.4,2982.1,2708.7,2981.9
				C2708.7,2981.9,2708.7,2981.9,2708.7,2981.9z"/>
			<path d="M2630.7,2937.2c0.5,0.6,0.9,1.1,1.4,1.8c0.1,0.1-0.1,0.4-0.3,0.7c-0.6-0.8-1.2-1.4-1.3-2.3
				C2630.5,2937.3,2630.6,2937.3,2630.7,2937.2z"/>
			<path class="st0" d="M2638.6,2973.8c-0.5-0.8-0.2-1.9,0.5-2.3c0.7-0.4,1.7-0.1,2.1,0.7c0.5,0.8,0.2,1.9-0.5,2.3
				C2640,2974.9,2639.1,2974.6,2638.6,2973.8z"/>
			<path class="st0" d="M2613.9,2931.1c0.8,0.7,1,1.3,0.6,1.6c-0.4,0.3-0.9,0.1-1.5-0.7c0.1-0.2,0.3-0.3,0.5-0.5
				C2613.6,2931.4,2613.7,2931.3,2613.9,2931.1z"/>
			<path class="st0" d="M2615.1,2929.9c0.2,0.5,0.4,0.8,0.5,1.2c0,0.1-0.3,0.3-0.4,0.3c-0.4-0.1-0.7-0.3-1.2-0.5
				C2614.5,2930.6,2614.7,2930.3,2615.1,2929.9z"/>
			<path class="st0" d="M2623.5,2945.4c0.6-0.4,0.9-0.6,1.4-1c0.2,0.6,0.3,1,0.4,1.5c0,0.1-0.4,0.4-0.4,0.4
				C2624.4,2946.1,2624,2945.8,2623.5,2945.4z"/>
			<path class="st0" d="M2626.2,2943.6c0.1,0.5,0.3,0.8,0.3,1.2c0,0.1-0.3,0.3-0.4,0.3c-0.3-0.2-0.7-0.4-1.1-0.7
				C2625.4,2944.1,2625.7,2943.9,2626.2,2943.6z"/>
			<path class="st0" d="M2621.6,2939.9c0.5-0.4,0.8-0.6,1.2-0.9c0.2,0.5,0.5,1,0.6,1.5c0,0.1-0.4,0.4-0.5,0.4
				C2622.6,2940.7,2622.2,2940.3,2621.6,2939.9z"/>
			<path class="st0" d="M2630.7,2953.3c0.4-0.2,0.7-0.4,1.1-0.6c0.2,0.3,0.4,0.6,0.5,0.9c0.1,0.2,0,0.7-0.2,0.8
				c-0.2,0.1-0.6,0-0.8-0.1C2631.1,2954,2631,2953.7,2630.7,2953.3z"/>
			<path class="st0" d="M2618.6,2936.7c-0.3-0.4-0.6-0.7-0.9-1.1c0.5-0.1,0.9-0.2,1.4-0.3C2619,2935.8,2618.8,2936.1,2618.6,2936.7z
				"/>
			<path class="st0" d="M2641.8,2978.2c0.6-0.2,1-0.3,1.5-0.4c0,0.6,0,1.1,0,1.7c0,0.1-0.5,0.2-0.5,0.2
				C2642.4,2979.2,2642.2,2978.8,2641.8,2978.2z"/>
			<path d="M2679.6,2951.6c2.2-1,4.6-2.2,7.1-3.3c0.8-0.4,1.8-0.4,2.8-0.5c0.6-0.1,1.2,0.2,1.4,0.8c0.1,0.2-0.1,0.4-0.2,0.7
				c-0.2-0.1-0.3-0.2-0.5-0.3c-0.4-0.2-0.8-0.5-1.1-0.4c-1.2,0.3-2.4,0.5-3.5,1c-4.3,1.9-8.3,4.2-11.9,7.2c-0.6,0.5-1.2,1.1-1.7,1.8
				c-0.3,0.5-0.4,1.1-0.7,1.6c-0.1,0.2-0.3,0.4-0.4,0.5c-0.1-0.2-0.4-0.4-0.3-0.6c0.1-0.6,0.2-1.2,0.6-1.7c0.7-0.9,1.5-1.9,2.4-2.6
				C2675.5,2954.4,2677.5,2953.1,2679.6,2951.6z"/>
		</g>
	</g>
</g>
</svg>
