<?xml version="1.0" encoding="utf-8"?>
<!-- Generator: Adobe Illustrator 21.1.0, SVG Export Plug-In . SVG Version: 6.00 Build 0)  -->
<svg version="1.1" id="Layer_1" xmlns="http://www.w3.org/2000/svg" xmlns:xlink="http://www.w3.org/1999/xlink" x="0px" y="0px"
	 viewBox="0 0 43.6 28.9" style="enable-background:new 0 0 43.6 28.9;" xml:space="preserve">
<style type="text/css">
	.st0{fill:#FFFFFF;}
</style>
<g>
	<path class="st0" d="M42.2,9c-1.3-2.2-3.1-3.8-5.3-5.2c-3.1-2-6.5-3.2-10.2-3.6C24.5,0,22.3,0,20.1,0c-0.9,0-1.7,0-2.5,0.1
		c-3.8,0.5-7.4,1.6-10.7,3.6C4.4,5.3,2.3,7.3,1,10c-0.3,0.6-0.5,1.1-0.7,1.7c-0.3,1.4-0.4,2.9-0.2,4.3l0,0c0,0.1,0.1,0.2,0.1,0.3
		c0.5,2.4,1.7,4.4,3.4,6.1c1.4,1.4,3,2.5,4.8,3.4c4.9,2.3,10.1,3.5,15.5,3c3-0.3,5.9-0.8,8.8-1.9c3.2-1.1,5.9-2.8,8.1-5.3
		C43.8,18.1,44.5,13,42.2,9z M32.8,26c-2.8,1-5.7,1.6-8.6,1.9c-5.4,0.5-10.5-0.6-15.3-2.8c-2.2-1-4.1-2.6-5.7-4.5
		c-3.2-4.1-2.9-9.1,0.6-12.9c3.5-3.8,8-5.6,13-6.4c1.8-0.3,3.6-0.4,5.2-0.6c4.7,0.3,9,0.9,13,3.1c2.4,1.3,4.6,3,6.1,5.2
		c2.3,3.3,2.5,7.3,0.1,10.8C39,22.7,36.2,24.7,32.8,26z"/>
	<path class="st0" d="M21.8,27.2c-3.1,0.3-6.2-0.5-9.1-1.4c-3.3-1.1-6.4-2.7-8.6-5.4c-3.2-3.9-3.3-8.3,0.2-12.3
		c2.4-2.8,5.6-4.3,9.1-5.3c3-0.9,6-1.5,9.1-1.4c4.7,0.2,9.2,1.3,13.3,3.6c2.6,1.5,4.6,3.5,5.8,6.4c0.8,2,0.7,4.1-0.1,6.1
		c-0.7,1.8-1.9,3.3-3.4,4.6c-2.3,2-5,3.2-8,4C27.3,26.8,24.6,27.5,21.8,27.2z M6.4,14c-0.1,0.1-0.3,0.2-0.3,0.3
		c-0.7,2.2,0.5,4.3,2.7,4.8c0.6,0.1,1.4,0.1,2,0c2.2-0.3,3.6-2.2,3.3-4.4c-0.2-1.2-0.9-2.1-1.9-2.7c-0.8-0.5-1.7-1-2.6-1.5
		c-1.1-0.7-1.3-2-0.4-2.9c0.5-0.5,1.1-0.8,1.7-0.9c1,0.1,1.6,0.6,1.9,1.5C12.9,8.5,13,9,13.6,9c0.5-0.2,0.5-0.5,0.5-0.9
		c-0.1-1.1-0.5-1.9-1.5-2.4C11,5,9.4,5.4,8.1,6.6c-1.2,1-1.3,3.7,0.4,4.7c0.6,0.4,1.2,0.7,1.8,1.2c0.7,0.5,1.4,1,1.9,1.6
		c0.6,0.6,0.7,1.4,0.3,2.2c-0.5,1.1-2.2,1.9-3.3,1.6c-0.9-0.2-1.4-0.7-1.6-1.6c-0.1-0.4-0.1-0.9-0.2-1.3C7.3,14.4,7.1,14,6.4,14z
		 M17.8,5.1c-0.8-0.6-1.2-0.6-1.7,0c-0.7,0.9-1.1,2-1.2,3.2c-0.1,1.9-0.2,3.7-0.2,5.6c0,1.5,0,2.9,0,4.4c0,0.3,0.1,0.5,0.2,0.9
		c0.4,0,0.7,0,1.1-0.1c0.4-1.7,0-3.3,0.3-5c1.1,0.4,1.4,1.2,1.5,2.1c0.1,0.9,0,1.8,0,2.8c0,0.6,0.1,1.3,0.3,1.9
		c0.1,0.5,0.3,0.9,1.1,0.9c0-0.4,0.1-0.7,0.1-1.1c-0.2-1.1-0.1-2.1,0-3.2c0.2-2-0.3-3.7-2.2-4.8c-0.2-0.1-0.3-0.2-0.5-0.4
		C16.2,9.8,16.1,7.3,17.8,5.1z M30.3,25.5c0-0.3-0.1-0.6-0.1-0.8c-0.1-0.7-0.2-1.5-0.2-2.2c0-1,0.2-2,0.2-3c0-1.4,0.4-2.5,1.8-3.2
		c1.4-0.7,2.3-2,2.3-3.7c0-0.6-0.2-1.1-0.7-1.5c-1.5-1.3-3.6-0.5-4,1.5c-0.2,0.9-0.2,1.9-0.3,2.8c-0.2,1.7-0.3,3.5-0.4,5.2
		c-0.1,1.2-0.1,2.3,0,3.5C28.9,25.1,29.3,25.4,30.3,25.5z M25.9,16c0.2,0.4,0.4,0.6,0.4,0.9c0.1,1,0.2,2.1,0.3,3.1
		c0.1,0.6,0.2,1.2,0.4,1.7c0.3,0.6,0.7,0.6,1.4,0.3c-0.4-0.8-0.7-1.7-0.7-2.7c0-1.3-0.1-2.5-0.2-4c0.3-0.4,0.7-1.1,1.1-1.7
		c0.4-0.7,0.3-1.4-0.1-2c-0.5-0.7-1.2-0.9-2-0.8c-1.3,0.2-1.9,0.9-2.1,2.4c-0.2,1.7-0.2,3.5-0.3,5.3c0,0.2,0,0.5,0.1,0.7
		c0.1,0.4,0.3,0.6,0.8,0.5C26,18.6,25,17.2,25.9,16z M24,20.6c0-0.3,0.1-0.6,0.1-0.8c-0.4-1.2-0.3-2.5-0.3-3.8
		c-0.1-1.6-0.1-3.3-0.3-4.9c0-0.6-0.2-1.2-0.4-1.7c-0.1-0.3-0.3-0.5-0.5-0.7c-0.8,0.2-1,0.9-1.1,1.4c-0.2,0.7-0.4,1.5-0.6,2.2
		c-0.4,1.7-0.9,3.4-1.3,5.1c-0.1,0.6-0.3,1.3,0.2,1.9c0.7-0.3,0.7-0.3,0.9-0.8c0.1-0.4,0.2-0.8,0.3-1.2c0.2-0.8,0.5-0.9,1.4-1
		c0.1,0.2,0.1,0.4,0.2,0.7c0.1,0.7,0.2,1.5,0.3,2.3C22.9,19.8,23.1,20.3,24,20.6z M38.1,13.3c0.6-0.6,0.6-1.1-0.1-1.7
		c-0.7-0.7-1.9-0.7-2.7,0.1c-0.9,0.8-1,1.8-0.2,2.7c0.5,0.5,1.1,0.9,1.6,1.4c0.4,0.3,0.8,0.7,0.6,1.3c-0.1,0.5-0.6,0.7-1.1,0.9
		c-0.2,0-0.3,0-0.6,0.1c-0.4-0.6-0.7-1.2-1.2-2c-0.3,0.4-0.5,0.6-0.6,0.9c-0.1,0.8,0.2,1.4,0.8,1.9c1.2,0.8,3,0.3,3.7-1
		c0.4-0.7,0.4-1.4-0.1-2c-0.5-0.5-1-1-1.6-1.5c-0.4-0.4-1-0.7-1.2-1.4c0.3-0.1,0.6-0.5,0.8-0.4C37,12.6,37.5,12.9,38.1,13.3z"/>
	<path class="st0" d="M30.6,15.7c-0.3-1.2,0-2.2,0.3-3.1c0.2-0.6,0.9-0.8,1.4-0.7c0.5,0.2,0.8,0.9,0.6,1.5
		C32.6,14.5,31.8,15.1,30.6,15.7z"/>
	<path class="st0" d="M27.8,12.8c-0.5,0.9-0.9,1.5-1.8,1.7c-0.4-1.1,0-2,1.1-2.6C27.3,12.1,27.5,12.4,27.8,12.8z"/>
	<path class="st0" d="M21.7,14.6c0.1-0.7,0.3-1.3,0.4-2c0.2,0.7,0.6,1.4,0,2.1C22,14.7,21.8,14.7,21.7,14.6z"/>
</g>
</svg>
