<?xml version="1.0" encoding="utf-8"?>
<!-- Generator: Adobe Illustrator 21.1.0, SVG Export Plug-In . SVG Version: 6.00 Build 0)  -->
<svg version="1.1" xmlns="http://www.w3.org/2000/svg" xmlns:xlink="http://www.w3.org/1999/xlink" x="0px" y="0px"
	 viewBox="0 0 6944 6465.8" style="enable-background:new 0 0 6944 6465.8;" xml:space="preserve">
<style type="text/css">
	.st0{fill:#1E1E1E;}
	.st1{fill:#E55E5E;stroke:#E54141;stroke-miterlimit:10;}
	.st2{fill:none;stroke:#00BDFF;stroke-width:2;stroke-linecap:round;stroke-miterlimit:10;}
	.st3{fill:#FDFDFD;}
	.st4{fill:#252223;}
	.st5{fill:#FFFFFF;}
	.st6{fill:#7D80C2;}
	.st7{fill:#7E81C2;}
	.st8{fill:#FED557;}
	.st9{fill:#FED147;}
	.st10{fill:#FAD98C;}
	.st11{fill:#F6DAA5;}
	.st12{fill:#F9D893;}
	.st13{fill:#FEFEFE;}
	.st14{fill:#FEDA60;}
</style>
<g id="Atomik_Comik">
	
		<rect x="2698.7" y="2663.7" transform="matrix(0.863 -0.5052 0.5052 0.863 -1060.2308 1764.9495)" class="st0" width="51.6" height="347.7"/>
	<g>
		<path class="st1" d="M2649.2,2734.4c-0.5,0.3-0.9,0.4-1.2,0.5c-0.4,0-0.7,0-1-0.1s-0.5-0.3-0.8-0.5c-0.2-0.2-0.4-0.5-0.6-0.7
			l-6-9.9c-0.1-0.2-0.3-0.5-0.3-0.7c-0.1-0.3-0.1-0.5-0.1-0.8c0-0.3,0.1-0.5,0.3-0.8c0.2-0.3,0.5-0.5,0.9-0.7l7.5-4.6l-5.8-9.6
			c-1.3,0.4-2.6,0.9-3.9,1.5c-1.3,0.6-2.7,1.3-4.2,2.2c-0.8,0.5-1.4,0.6-1.9,0.4c-0.4-0.2-0.8-0.5-1.1-1l-0.7-1.1l1.9-1.1
			c2.7-1.7,5.3-2.9,7.7-3.7c2.4-0.8,4.6-1.3,6.6-1.4c2-0.1,3.9,0,5.6,0.5s3.2,1.1,4.5,1.9c1.4,0.8,2.5,1.8,3.6,2.8
			c1,1.1,1.9,2.2,2.6,3.4c0.4,0.7,0.5,1.3,0.3,1.7c-0.2,0.4-0.6,0.8-1,1l-0.8,0.5l-1-1.7l-17.9,10.9L2649.2,2734.4z M2658.4,2709.8
			c-1.5-1.6-3.4-2.8-5.7-3.5c-2.2-0.7-4.8-0.9-7.7-0.4l5.3,8.8L2658.4,2709.8z"/>
		<path class="st1" d="M2663.2,2729.9l-12.3,7.4l6.7,11c-0.5,0.3-0.9,0.4-1.2,0.5c-0.4,0-0.7,0-1-0.1c-0.3-0.1-0.5-0.3-0.8-0.5
			c-0.2-0.2-0.4-0.5-0.6-0.7l-5.9-9.8c-0.1-0.2-0.3-0.5-0.3-0.7c-0.1-0.3-0.1-0.5-0.1-0.8c0-0.3,0.1-0.5,0.3-0.8
			c0.2-0.3,0.5-0.5,0.9-0.8l12.6-7.6l-2.5-4.1c0.9-0.6,1.7-0.7,2.4-0.5c0.7,0.2,1.2,0.6,1.5,1.2l1.1,1.9l4.4-2.7
			c0.2-0.1,0.4-0.1,0.6-0.1c0.2,0,0.4,0.2,0.5,0.3l1,1.6c0.1,0.2,0.1,0.4,0.1,0.6c0,0.2-0.2,0.4-0.3,0.5l-4.4,2.7l3.2,5.4
			c-0.9,0.6-1.7,0.7-2.4,0.5c-0.7-0.2-1.2-0.6-1.5-1.2L2663.2,2729.9z"/>
		<path class="st1" d="M2656.4,2751.3c-1-1.6-0.5-2.9,1.4-4.1c0.6-0.3,1.1-0.6,1.7-0.8c0.6-0.2,1.2-0.3,1.8-0.4l10.4-6.3
			c0.2-0.1,0.4-0.1,0.6-0.1c0.2,0,0.4,0.2,0.5,0.3l1,1.6c0.1,0.2,0.1,0.4,0.1,0.6c0,0.2-0.2,0.4-0.3,0.5l-5.4,3.3
			c1.3-0.1,2.6,0,3.9,0.2c1.2,0.2,2.4,0.5,3.4,0.8c1,0.4,1.9,0.9,2.7,1.4c0.8,0.6,1.4,1.2,1.8,1.9c0.3,0.5,0.5,1,0.6,1.5
			c0.1,0.5,0.1,0.9-0.1,1.2c-0.1,0.4-0.3,0.7-0.6,1s-0.6,0.6-1,0.8l-3.9,2.3c1.3-0.1,2.6,0,3.9,0.2c1.2,0.2,2.4,0.5,3.4,0.8
			c1,0.4,1.9,0.9,2.7,1.4c0.8,0.6,1.4,1.2,1.8,1.9c0.3,0.5,0.5,1,0.6,1.5c0.1,0.5,0.1,0.9-0.1,1.2c-0.1,0.4-0.3,0.7-0.6,1
			c-0.3,0.3-0.6,0.6-1,0.8l-12.6,7.6l6.1,10.1c-0.5,0.3-0.9,0.4-1.2,0.5c-0.4,0-0.7,0-1-0.1c-0.3-0.1-0.5-0.3-0.8-0.5
			s-0.4-0.5-0.6-0.7l-5.3-8.8c-0.1-0.2-0.3-0.5-0.3-0.7c-0.1-0.3-0.1-0.5-0.1-0.8c0-0.3,0.1-0.5,0.3-0.8c0.2-0.3,0.5-0.5,0.9-0.7
			l13.2-8c-0.4-0.7-1.2-1.4-2.3-2c-1.1-0.6-2.5-1.1-4.1-1.3c-1.6-0.2-3.4-0.1-5.4,0.2c-2,0.4-4.1,1.2-6.3,2.6l-2,1.2l-0.6-0.9
			c-0.5-0.9-0.7-1.7-0.5-2.3c0.2-0.7,0.8-1.3,1.8-1.9c0.6-0.3,1.1-0.6,1.7-0.8c0.6-0.2,1.2-0.3,1.8-0.4l9.1-5.5
			c-0.4-0.7-1.2-1.4-2.3-2c-1.1-0.6-2.5-1.1-4.1-1.3c-1.6-0.2-3.4-0.1-5.4,0.2c-2,0.4-4.1,1.2-6.3,2.6l-2,1.2L2656.4,2751.3z"/>
		<path class="st1" d="M2699.4,2784.5c0.6-0.4,1.3-0.5,2-0.4c0.7,0.1,1.2,0.5,1.7,1.3c0.4,0.7,0.6,1.4,0.4,2
			c-0.2,0.6-0.5,1.1-1.1,1.5l6.8,11.3c-0.9,0.6-1.7,0.7-2.4,0.5c-0.7-0.2-1.2-0.6-1.5-1.2l-5.2-8.5l-3.1,1.9
			c-3.8,2.3-7.2,3.1-10.3,2.3c-3-0.8-5.8-3.2-8.2-7.3c-0.4-0.6-0.6-1.1-0.6-1.6c-0.1-0.5-0.1-0.9,0.1-1.2c0.1-0.4,0.3-0.7,0.6-1
			c0.3-0.3,0.7-0.5,1.1-0.8l7.6-4.6c1.2-0.7,2.3-1.2,3.3-1.5c1-0.3,2-0.3,2.9-0.1s1.8,0.7,2.6,1.5c0.8,0.7,1.6,1.8,2.4,3.1
			c0.4,0.6,0.5,1.1,0.3,1.7c-0.1,0.5-0.6,1-1.4,1.5l-0.3,0.2l-1.1-1.9c-0.5-0.8-0.9-1.4-1.3-1.8c-0.4-0.5-0.9-0.8-1.5-0.9
			c-0.5-0.2-1.1-0.2-1.8,0c-0.7,0.2-1.5,0.5-2.4,1.1l-7.9,4.8c1,1.6,1.9,2.8,2.9,3.8c1,1,2,1.6,3.2,1.9c1.1,0.3,2.4,0.3,3.7,0
			c1.3-0.3,2.8-1,4.5-2l3.1-1.9c-0.5-0.8-0.6-1.5-0.4-2.1C2698.3,2785.4,2698.8,2784.9,2699.4,2784.5z"/>
		<path class="st1" d="M2700.9,2819.9c-0.5,0.3-0.9,0.4-1.2,0.5c-0.4,0-0.7,0-1-0.1c-0.3-0.1-0.5-0.3-0.8-0.5s-0.4-0.5-0.6-0.7
			l-5.3-8.8c-0.1-0.2-0.3-0.5-0.3-0.7c-0.1-0.3-0.1-0.5-0.1-0.8c0-0.3,0.1-0.5,0.3-0.8c0.2-0.3,0.5-0.5,0.9-0.8l14.5-8.8
			c0.2-0.1,0.4-0.1,0.6-0.1c0.2,0,0.4,0.2,0.5,0.3l0.9,1.5c0.1,0.2,0.1,0.4,0.1,0.6c-0.1,0.2-0.2,0.4-0.3,0.5l-14.2,8.6
			L2700.9,2819.9z M2712.7,2794.4c0.5-0.3,1.1-0.5,1.6-0.5c0.5,0,1,0.4,1.5,1.2c0.5,0.8,0.6,1.4,0.4,1.9c-0.2,0.5-0.6,0.9-1.1,1.2
			c-0.5,0.3-1.1,0.5-1.6,0.4c-0.5-0.1-1-0.5-1.5-1.2c-0.5-0.8-0.6-1.4-0.4-1.9C2711.8,2795.1,2712.2,2794.7,2712.7,2794.4z"/>
		<path class="st1" d="M2699.9,2823.1c-0.5-0.9-0.7-1.7-0.5-2.3c0.2-0.7,0.8-1.3,1.8-1.9c0.6-0.3,1.1-0.6,1.7-0.8
			c0.6-0.2,1.2-0.3,1.8-0.4l17.3-10.5c0.2-0.1,0.4-0.1,0.6-0.1c0.2,0,0.4,0.2,0.5,0.3l1,1.6c0.1,0.2,0.1,0.4,0.1,0.6
			s-0.2,0.4-0.3,0.5l-11.9,7.2c1.3,0,2.5,0,3.7,0.2c1.2,0.2,2.3,0.5,3.2,0.9c1,0.4,1.8,0.9,2.6,1.5c0.8,0.6,1.4,1.2,1.8,2
			c0.3,0.5,0.5,1,0.6,1.5c0.1,0.5,0.1,0.9-0.1,1.2c-0.1,0.4-0.3,0.7-0.6,1c-0.3,0.3-0.6,0.6-1,0.8l-0.6,0.4
			c-2.5,1.5-4.7,2.4-6.3,2.5c-1.7,0.1-3.2-0.5-4.5-1.9l-2.3,4.7l5.5,9c-0.5,0.3-0.9,0.4-1.2,0.5c-0.4,0-0.7,0-1-0.1
			c-0.3-0.1-0.5-0.3-0.8-0.5c-0.2-0.2-0.4-0.5-0.6-0.7l-4.5-7.4c-0.2-0.3-0.3-0.6-0.4-0.9c-0.1-0.3-0.1-0.7,0.1-1l3.2-6.1
			c-0.5-0.9-0.8-1.6-0.8-2.1c0-0.5,0.4-1,1.2-1.5l0.3-0.2l1.5,2.5c0.5,0.8,0.9,1.4,1.4,1.8c0.5,0.4,1.1,0.7,1.8,0.8
			c0.7,0.1,1.5,0,2.4-0.4s2-0.9,3.3-1.7l0.9-0.6c-0.5-0.8-1.2-1.5-2.3-2.1c-1.1-0.7-2.4-1.1-4-1.3c-1.6-0.2-3.3-0.2-5.2,0.2
			c-1.9,0.4-4,1.2-6.2,2.6l-2.5,1.5L2699.9,2823.1z"/>
		<path class="st1" d="M2731.9,2871c-0.5,0.3-0.9,0.4-1.2,0.5c-0.4,0-0.7,0-1-0.1c-0.3-0.1-0.5-0.3-0.8-0.5
			c-0.2-0.2-0.4-0.5-0.6-0.7l-9.5-15.7c-0.2-0.4-0.4-0.8-0.6-1.2c-0.2-0.4-0.2-0.7-0.2-1.1c0-0.4,0.2-0.7,0.4-1.1
			c0.2-0.4,0.6-0.7,1.2-1c3.7-2.2,7.1-3.7,10.2-4.5s5.8-0.9,8.2-0.6c2.4,0.4,4.4,1.2,6.2,2.4c1.7,1.3,3.1,2.8,4.2,4.5
			c0.4,0.7,0.5,1.3,0.3,1.7c-0.2,0.4-0.6,0.8-1,1l-0.8,0.5l-1-1.7c-1.1-1.8-2.5-3.2-4.1-4.1c-1.7-0.9-3.5-1.4-5.6-1.4
			c-2.1,0-4.4,0.4-6.9,1.2c-2.5,0.9-5.2,2.1-8,3.9L2731.9,2871z"/>
		<path class="st1" d="M2752.3,2871.9c0.6-0.4,1.3-0.5,2-0.4c0.7,0.1,1.2,0.5,1.7,1.3c0.4,0.7,0.6,1.4,0.4,2
			c-0.2,0.6-0.5,1.1-1.1,1.5l6.8,11.3c-0.9,0.6-1.7,0.7-2.4,0.5c-0.7-0.2-1.2-0.6-1.5-1.2l-5.2-8.5l-3.1,1.9
			c-3.8,2.3-7.2,3.1-10.3,2.3c-3-0.8-5.8-3.2-8.2-7.3c-0.4-0.6-0.6-1.1-0.6-1.6c-0.1-0.5-0.1-0.9,0.1-1.2s0.3-0.7,0.6-1
			c0.3-0.3,0.7-0.5,1.1-0.8l7.6-4.6c1.2-0.7,2.3-1.2,3.3-1.5c1-0.3,2-0.3,2.9-0.1s1.8,0.7,2.6,1.5c0.8,0.7,1.6,1.8,2.4,3.1
			c0.4,0.6,0.5,1.1,0.3,1.7c-0.1,0.5-0.6,1-1.4,1.5l-0.3,0.2l-1.1-1.9c-0.5-0.8-0.9-1.4-1.3-1.8c-0.4-0.5-0.9-0.8-1.5-0.9
			c-0.5-0.2-1.1-0.2-1.8,0c-0.7,0.2-1.5,0.5-2.4,1.1l-7.9,4.8c1,1.6,1.9,2.8,2.9,3.8c1,1,2,1.6,3.2,1.9c1.1,0.3,2.4,0.3,3.7,0
			c1.3-0.3,2.8-1,4.5-2l3.1-1.9c-0.5-0.8-0.6-1.5-0.4-2.1C2751.2,2872.7,2751.6,2872.2,2752.3,2871.9z"/>
		<path class="st1" d="M2744.8,2897.3c-1-1.6-0.5-2.9,1.4-4.1c0.6-0.3,1.1-0.6,1.7-0.8c0.6-0.2,1.2-0.3,1.8-0.4l10.4-6.3
			c0.2-0.1,0.4-0.1,0.6-0.1s0.4,0.2,0.5,0.3l1,1.6c0.1,0.2,0.1,0.4,0.1,0.6c0,0.2-0.2,0.4-0.3,0.5l-5.4,3.3c1.3-0.1,2.6,0,3.9,0.2
			c1.2,0.2,2.4,0.5,3.4,0.8c1,0.4,1.9,0.9,2.7,1.4c0.8,0.6,1.4,1.2,1.8,1.9c0.3,0.5,0.5,1,0.6,1.5c0.1,0.5,0.1,0.9-0.1,1.2
			s-0.3,0.7-0.6,1c-0.3,0.3-0.6,0.6-1,0.8l-3.9,2.3c1.3-0.1,2.6,0,3.9,0.2c1.2,0.2,2.4,0.5,3.4,0.8c1,0.4,1.9,0.9,2.7,1.4
			c0.8,0.6,1.4,1.2,1.8,1.9c0.3,0.5,0.5,1,0.6,1.5c0.1,0.5,0.1,0.9-0.1,1.2c-0.1,0.4-0.3,0.7-0.6,1c-0.3,0.3-0.6,0.6-1,0.8
			l-12.6,7.6l6.1,10.1c-0.5,0.3-0.9,0.4-1.2,0.5c-0.4,0-0.7,0-1-0.1c-0.3-0.1-0.5-0.3-0.8-0.5c-0.2-0.2-0.4-0.5-0.6-0.7l-5.3-8.8
			c-0.1-0.2-0.3-0.5-0.3-0.7c-0.1-0.3-0.1-0.5-0.1-0.8c0-0.3,0.1-0.5,0.3-0.8c0.2-0.3,0.5-0.5,0.9-0.7l13.2-8
			c-0.4-0.7-1.2-1.4-2.3-2c-1.1-0.6-2.5-1.1-4.1-1.3c-1.6-0.2-3.4-0.1-5.4,0.2c-2,0.4-4.1,1.2-6.3,2.6l-2,1.2l-0.6-0.9
			c-0.5-0.9-0.7-1.7-0.5-2.3c0.2-0.7,0.8-1.3,1.8-1.9c0.6-0.3,1.1-0.6,1.7-0.8c0.6-0.2,1.2-0.3,1.8-0.4l9.1-5.5
			c-0.4-0.7-1.2-1.4-2.3-2c-1.1-0.6-2.5-1.1-4.1-1.3c-1.6-0.2-3.4-0.1-5.4,0.2c-2,0.4-4.1,1.2-6.3,2.6l-2,1.2L2744.8,2897.3z"/>
		<path class="st1" d="M2775.2,2942.6c-0.5,0.3-0.9,0.4-1.2,0.5c-0.4,0-0.7,0-1-0.1c-0.3-0.1-0.5-0.3-0.8-0.5
			c-0.2-0.2-0.4-0.5-0.6-0.7l-5.3-8.8c-0.1-0.2-0.3-0.5-0.3-0.7c-0.1-0.3-0.1-0.5-0.1-0.8c0-0.3,0.1-0.5,0.3-0.8
			c0.2-0.3,0.5-0.5,0.9-0.8l14.5-8.8c0.2-0.1,0.4-0.1,0.6-0.1c0.2,0.1,0.4,0.2,0.5,0.3l0.9,1.5c0.1,0.2,0.1,0.4,0.1,0.6
			c0,0.2-0.2,0.4-0.3,0.5l-14.2,8.6L2775.2,2942.6z M2787,2917.1c0.5-0.3,1.1-0.5,1.6-0.5c0.5,0,1,0.4,1.5,1.2
			c0.5,0.8,0.6,1.4,0.4,1.9c-0.2,0.5-0.6,0.9-1.1,1.2c-0.5,0.3-1.1,0.5-1.6,0.4c-0.5-0.1-1-0.5-1.5-1.2c-0.5-0.8-0.6-1.4-0.4-1.9
			C2786.1,2917.8,2786.5,2917.4,2787,2917.1z"/>
		<path class="st1" d="M2794.4,2947.8c-0.5,0.3-1.1,0.6-1.6,0.8c-0.5,0.2-1,0.3-1.4,0.3c-0.5,0-0.9-0.1-1.3-0.4
			c-0.4-0.3-0.8-0.7-1.2-1.4l4.9-3c-0.9-1.4-1.7-2.5-2.6-3.4c-0.9-0.8-1.9-1.4-3-1.6c-1.1-0.2-2.3-0.2-3.6,0.2
			c-1.3,0.4-2.8,1.1-4.5,2.1c-0.9,0.6-1.6,1-2.1,1.4c-0.5,0.4-0.8,0.8-0.9,1.3c-0.1,0.5,0,1,0.3,1.7c0.3,0.6,0.8,1.5,1.4,2.5
			l8.3,13.7c-0.5,0.3-0.9,0.4-1.2,0.5c-0.4,0-0.7,0-1-0.1c-0.3-0.1-0.5-0.3-0.8-0.5c-0.2-0.2-0.4-0.5-0.6-0.7l-7-11.5
			c-1-1.7-1.8-3.1-2.2-4.2c-0.4-1.1-0.5-2-0.4-2.8c0.2-0.8,0.6-1.5,1.4-2.1c0.7-0.6,1.7-1.3,3-2.1c3.8-2.3,7.2-3.2,10.1-2.5
			c2.9,0.6,5.4,2.6,7.4,6c0.5,0.8,0.7,1.4,0.8,2c0.1,0.6,0.1,1.1-0.1,1.6c-0.2,0.5-0.5,0.9-0.8,1.3
			C2795.4,2947.2,2794.9,2947.5,2794.4,2947.8z"/>
		<path class="st1" d="M2801.5,2953.3c0.6-0.4,1.3-0.5,2-0.4c0.7,0.1,1.2,0.5,1.7,1.3c0.5,0.8,0.6,1.5,0.4,2.1
			c-0.2,0.7-0.6,1.2-1.3,1.6c-0.3,0.2-0.5,0.3-0.8,0.4c-0.2,0.1-0.4,0.1-0.6,0.2l-0.3,2.9c-0.1,0.8-0.2,1.6-0.3,2.5
			c-0.1,0.9-0.3,1.7-0.6,2.5c-0.3,0.8-0.7,1.6-1.2,2.3c-0.5,0.7-1.2,1.3-2,1.8c-0.9,0.5-1.8,0.9-2.9,1.1c-1,0.2-2.1,0-3.3-0.6
			l5.6,9.3c-0.5,0.3-0.9,0.4-1.2,0.5c-0.4,0-0.7,0-1-0.1c-0.3-0.1-0.5-0.3-0.8-0.5c-0.2-0.2-0.4-0.5-0.6-0.7l-7.1-11.8
			c-0.1-0.2-0.3-0.5-0.3-0.7c-0.1-0.3-0.1-0.5-0.1-0.8c0-0.3,0.1-0.5,0.3-0.8c0.2-0.3,0.5-0.5,0.9-0.7l0.3-0.2l0.6,1
			c0.6,1,1.2,1.7,1.9,2.1c0.7,0.5,1.4,0.8,2.1,0.9c0.7,0.1,1.4,0.1,2-0.1c0.6-0.2,1.2-0.4,1.7-0.7c0.5-0.3,0.9-0.6,1.2-1
			c0.3-0.4,0.5-0.8,0.7-1.3c0.2-0.5,0.3-0.9,0.4-1.4s0.1-1,0.2-1.6l0.4-3.3l-15.5,2.4c-0.3,0-0.5-0.1-0.7-0.3l-1.1-1.8
			c-0.2-0.3-0.1-0.5,0.1-0.7c0.1-0.1,0.3-0.1,0.6-0.2l17-2.7l0.1-0.8C2800.3,2954.3,2800.8,2953.7,2801.5,2953.3z"/>
	</g>
	<line class="st2" x1="2657.8" y1="2677.8" x2="2830.6" y2="2973"/>
	<line class="st2" x1="2618.4" y1="2700.9" x2="2791.2" y2="2996"/>
	<line class="st2" x1="2828.2" y1="2974.5" x2="2793.8" y2="2994.5"/>
	<line class="st2" x1="2655.9" y1="2679.5" x2="2621.5" y2="2699.5"/>
</g>
<g id="littlechicago">
	<g>
		<polygon class="st3" points="2444.5,3497.6 2331.5,3573.8 2316.9,3502.9 2405.9,3442.9 		"/>
		<g>
			<path class="st4" d="M2369.5,3532.9c-0.4,0-0.6-0.2-0.6-0.6c-0.2-3.9-0.4-7.8-0.6-11.7c0-0.7,0.3-0.9,0.9-0.8
				c0.4,0.1,0.6,0.3,0.6,0.7c0,0.3,0,0.7,0,1c0,0.1,0,0.2,0,0.3c0,0,0.1,0,0.1,0c0-0.1,0.1-0.2,0.1-0.3c0.3-1,0.5-1.2,1.2-1.2
				c0.4,0,0.6,0.1,0.6,0.5c0,0.4-0.1,0.8-0.1,1.3c0,0.2,0,0.4,0,0.6c0.6-1,1.3-2,1.3-3.2c0-0.8,0-1.5,0-2.3c0-0.6,0.3-0.7,0.8-0.7
				c0.5,0,0.8,0.2,0.7,0.8c0,0.4,0,0.8,0,1.2c0,0,0.1,0,0.1,0c0.1-0.2,0.1-0.5,0.2-0.7c0.1-0.5,1-1,1.5-0.8c0.1,0.1,0.2,0.3,0.2,0.4
				c0,0.4-0.1,0.9-0.1,1.3c0,0.2,0,0.4,0.1,0.6c0.1-0.2,0.2-0.3,0.3-0.5c0.5-1.1,1-2.2,1.2-3.4c0.1-1,0.5-1.2,1.5-1.2
				c0.1,0,0.2-0.1,0.4-0.2c0.3-0.1,0.7-0.3,1.1-0.3c0.1,0,0.3,0.4,0.3,0.7c0.1,0.4,0.1,0.8,0.1,1.1c0.1,0,0.1,0,0.2,0
				c0.2-0.7,0.5-1.4,0.7-2.1c-0.7-0.4-0.9-0.8-0.6-1.3c0.1-0.2,0.5-0.5,0.6-0.5c0.3,0.2,0.4,0.5,0.7,0.8c0.1-0.1,0.2-0.4,0.4-0.6
				c0.2-0.2,0.5-0.4,0.8-0.4c0.4,0,0.4,0.3,0.4,0.6c0,0.2,0,0.4,0,0.6c0,0.2,0,0.4,0.2,0.6c0.1-0.2,0.2-0.4,0.3-0.5
				c0.2-0.8,0.3-1.5,0.5-2.3c0.1-0.4,0.2-0.8,0.3-1.1c0.3-0.6,0.9-0.8,1.5-0.5c0.2,0.1,0.4,0.5,0.4,0.8c0,0.3-0.1,0.6-0.1,0.8
				c-0.1,0.3-0.1,0.5-0.1,0.8c0.9-0.9,1.7-1.9,1.6-3.3c-0.2-2.4-0.3-4.9,0.1-7.3c0.1-0.6,0.2-1.2,0.4-1.8c0.3-0.8,1-1.3,1.8-1.3
				c0.4,0,0.7,0.2,0.7,0.6c0,0.7,0.1,1.4,0,2c-0.3,2.5-0.9,4.9-1.6,7.3c-0.2,0.5-0.2,1,0.2,1.7c0.6-1.2,1.2-2.2,1.9-3.4
				c0.1,0.2,0.1,0.3,0.1,0.4c-0.3,0.9-0.5,1.8-0.8,2.7c-0.4,1-1.4,1.2-2.3,0.8c-0.5,2.2-0.9,3-3.4,2.1c-0.1,0.5-0.2,1-0.3,1.4
				c-0.2,0.7-1.1,1.2-1.8,0.9c-0.4-0.2-0.5-0.7-0.8-1.2c-0.3,0.1-0.5,0.3-0.5,0.8c0,0.4-0.1,0.9-0.1,1.3c-0.1,1-0.4,1.2-1.3,1.4
				c-0.2,0-0.4,0.2-0.5,0.3c-0.5,1-0.9,1.2-1.9,1c-0.2,0-0.4-0.1-0.6-0.2c-0.2,0.6-0.4,1.2-0.6,1.8c-0.3,0.6-0.9,0.8-1.5,0.8
				c-0.4,0-0.8-0.1-0.9-0.6c0-0.1-0.1-0.1-0.1-0.2c-0.1,0.7-0.4,1.5-0.4,2.2c0,2.2,0.2,4.4,0.3,6.6c0,0.3-0.1,0.6-0.1,0.8
				c-0.2,0.1-0.3,0.2-0.5,0.3c-0.4-0.1-0.5-0.4-0.6-0.8c-0.2-2.2-0.3-4.4-0.5-6.6c0-0.1,0-0.1-0.1-0.2c0,0.1-0.1,0.1-0.1,0.2
				c-0.1,0.1-0.2,0.2-0.2,0.3c-0.3,0.8-0.7,1.1-1.6,1.1c-0.7,0-0.8-0.5-0.9-1c-0.1,0-0.2,0-0.3,0c-0.1,0.7-0.1,1.3-0.1,2
				c0,1.3,0,2.5,0.1,3.8c0.1,1.4,0.1,2.7,0.2,4.1C2369.9,3532.7,2369.7,3532.8,2369.5,3532.9z M2374.4,3518.7c0,0.1,0,0.2,0,0.3
				c0,0,0.1,0,0.1,0c0-0.1,0.1-0.2,0.1-0.3c0,0-0.1-0.1-0.1-0.1C2374.5,3518.6,2374.5,3518.7,2374.4,3518.7z M2390.3,3505.4
				c0.6-0.9,1.2-6,0.8-6.7C2390.7,3499.2,2390.1,3504.4,2390.3,3505.4z M2379.2,3517.5c0.7-0.4,0.8-2,0.3-2.7
				C2379,3515.7,2379.1,3516.6,2379.2,3517.5z M2386.8,3511.5c0.1-0.6,0.2-1.2,0.3-1.9C2386.7,3510.2,2386.5,3510.8,2386.8,3511.5z
				 M2390.3,3505.5C2390.3,3505.5,2390.3,3505.6,2390.3,3505.5C2390.3,3505.6,2390.3,3505.6,2390.3,3505.5
				C2390.4,3505.6,2390.4,3505.5,2390.3,3505.5C2390.4,3505.5,2390.4,3505.5,2390.3,3505.5z M2390.2,3505.8
				C2390.2,3505.8,2390.2,3505.9,2390.2,3505.8C2390.3,3505.9,2390.3,3505.9,2390.2,3505.8
				C2390.3,3505.9,2390.3,3505.9,2390.2,3505.8C2390.3,3505.8,2390.3,3505.8,2390.2,3505.8z"/>
			<path class="st4" d="M2340.8,3497.7c1.4-0.3,1.6-0.1,1.5,1.4c-0.1,1.6-0.4,3.3-0.6,4.9c0.9-0.7,1.8-1.4,2.8-2.2
				c1-0.7,1.9-1.5,2.9-2.1c0.4-0.2,0.9-0.2,1.3-0.3c0,0.1,0.1,0.1,0.1,0.2c-0.2,0.2-0.4,0.3-0.6,0.5c-2.2,1.5-4.4,3-6.5,4.5
				c-0.3,0.2-0.4,0.4-0.5,0.8c-0.1,0.7-0.5,1.4-0.6,2.2c-0.1,0.5,0,1,0,1.4c0.1,0,0.1,0,0.2,0c0.1-0.1,0.2-0.2,0.3-0.4
				c0.4-0.7,0.8-1.5,1.2-2.2c0.2-0.4,0.1-0.8,0.3-1.2c0.2-0.8,0.6-1.1,1.3-1c0.6,0,0.9,0.4,0.8,1c-0.1,0.5-0.2,1-0.4,1.6
				c1.1-0.9,1.4-2.1,2-3.2c0,0.2,0.1,0.4,0.1,0.6c-0.1,0.6-0.1,1.3-0.3,1.9c-0.4,1.5-1.9,2-3.2,1.1c0,0-0.1-0.1-0.1-0.1
				c-0.2,0.6-0.4,1.2-0.6,1.8c-0.4,1-1.4,1.3-2.3,0.9c-0.2,0.5-0.4,1.1-0.6,1.5c-0.5,1-1.4,1.1-2.1,0.3c-0.2,0.5-0.4,1.1-0.6,1.6
				c-0.1,0.3-0.4,0.6-0.6,0.7c-0.6,0.4-0.9,0.3-1.6-0.4c-0.1,0.4-0.3,0.8-0.4,1.2c-0.2,0.6-0.6,0.7-1.1,0.8c-0.6,0-1.1-0.1-1.3-0.7
				c-0.2-0.6-0.2-1.2-0.3-1.7c-0.1-0.4,0.2-0.6,0.6-0.6c0.4,0,0.6,0.1,0.7,0.5c0.1,0.5,0.2,1.1,0.2,1.6c0.1,0,0.2,0,0.2,0
				c0.3-0.6,0.6-1.3,0.8-1.9c0.1-0.7,0-1.4,0-2.1c-0.3,0-0.5,0.1-0.8,0.1c0.2-0.2,0.2-0.3,0.3-0.4c0.4-0.3,0.7-0.7,0.9-1.2
				c0.1-0.4,0.5-0.6,0.9-0.5c0.7,0.1,1.5-0.5,1.7-1.1c0.3-0.8,0.4-0.9,1.3-0.8c0.5,0,1.2-0.6,1.2-1.1c0.1-1.8,0.2-3.6,0.4-5.4
				c0.1-0.6,0.4-1.2,0.6-1.8C2340.3,3498,2340.5,3497.8,2340.8,3497.7z M2335.1,3513.5c1-1.1,1.5-3.5,1.1-5.2
				c-0.3,0.4-0.8,0.7-0.9,1.1c-0.2,1.1-0.3,2.2-0.4,3.2C2334.9,3512.8,2335,3513.1,2335.1,3513.5z M2339.1,3506.4
				c-0.3,0.2-0.7,0.4-0.8,0.7c-0.4,1.3-0.6,2.5-0.4,3.9c0,0.1,0.1,0.2,0.2,0.3c0.1-0.1,0.2-0.1,0.3-0.2
				C2339,3509.7,2339.6,3508.2,2339.1,3506.4z M2341.4,3498.4c-0.4,0.7-0.9,5.4-0.8,6.3C2341.2,3504.1,2341.8,3499.1,2341.4,3498.4z
				 M2344.1,3504.8c-0.1,0-0.1,0-0.2,0c-0.4,0.6-0.5,1.2-0.4,1.8c0.1,0,0.1,0,0.2,0C2343.9,3506,2344,3505.4,2344.1,3504.8z"/>
			<path class="st4" d="M2324,3523.4c0.3-1.7,0.6-3.5,0.9-5.2c0.3-2.2,0.5-4.3,1.2-6.4c0.5-1.5,1.2-2.9,2.4-4c0.6-0.5,1.3-0.8,2-0.8
				c-0.3,0.3-0.6,0.5-0.9,0.7c-1.3,1.3-2,2.9-2.3,4.7c-0.3,1.8-0.5,3.7-0.8,5.6c-0.1,0.6-0.2,1.2-0.2,1.8c0,0,0,0.1,0,0.1
				c0,0,0.1-0.1,0.1-0.1c1-0.8,1.9-1.6,2.9-2.2c1.4-0.8,2.8-1.5,4.4-1.7c0.9-0.1,1.7,0,2.6,0.1c0.2,0,0.4,0.2,0.6,0.4
				c-0.1,0-0.2,0-0.3,0c-2.3-0.5-4.4,0.1-6.3,1.3c-2.1,1.2-3.7,3-4.7,5.2c-0.3,0.8-0.7,0.9-1.5,0.8
				C2324.1,3523.6,2324,3523.5,2324,3523.4z"/>
			<path class="st3" d="M2370,3532.5c-0.1-1.4-0.2-2.7-0.2-4.1c0-1.3-0.1-2.5-0.1-3.8c0-0.7,0.1-1.3,0.1-2c0.1,0,0.2,0,0.3,0
				c0,0.6,0.2,1,0.9,1c0.9,0,1.3-0.3,1.6-1.1c0-0.1,0.1-0.2,0.2-0.3c0.1,0,0.1,0,0.2,0c0.2,2.2,0.3,4.4,0.5,6.6
				c0,0.4,0.1,0.7,0.6,0.8C2372.8,3530.6,2371.4,3531.6,2370,3532.5z"/>
			<path class="st4" d="M2420.2,3467c-0.7,0.5-1.3,1-2,1.4c-2.2,1.5-4.3,3-6.5,4.5c-0.4,0.3-0.6,0.2-0.9-0.2c-0.2-0.3-0.4-0.6-0.7-1
				c3-2.1,6.1-4.2,9.1-6.3C2419.6,3466,2419.9,3466.5,2420.2,3467z"/>
			<path class="st4" d="M2362.2,3514.1c-1.2-1.7-2.3-3.3-3.4-5c-0.8,0.6-1.6,1.1-2.5,1.7c1.1,1.6,2.3,3.3,3.4,5
				c-0.9,0.6-1.7,1.2-2.5,1.8c-2.6-3.8-5.2-7.5-7.8-11.3c0.8-0.6,1.6-1.1,2.5-1.7c1.1,1.6,2.3,3.3,3.4,5c0.8-0.6,1.6-1.1,2.5-1.7
				c-1.1-1.6-2.3-3.3-3.4-5c0.9-0.6,1.7-1.2,2.5-1.7c2.6,3.7,5.2,7.5,7.8,11.3C2363.9,3512.9,2363,3513.5,2362.2,3514.1z"/>
			<path class="st4" d="M2384.9,3498.3c-0.1-0.1-0.2-0.3-0.3-0.4c-1.9-2.7-3.8-5.4-5.6-8.1c-1-1.5-0.7-3.6,0.8-4.6
				c0.7-0.5,1.4-0.9,2.1-1.5c1.3-1,3.7-0.6,4.6,0.8c1.9,2.8,3.8,5.6,5.8,8.3c0.1,0.1,0.1,0.2,0.2,0.3c-0.8,0.6-1.6,1.1-2.5,1.7
				c-1.1-1.6-2.3-3.3-3.5-5c-0.8,0.6-1.6,1.1-2.5,1.7c1.1,1.6,2.3,3.3,3.4,5C2386.6,3497.2,2385.8,3497.7,2384.9,3498.3z
				 M2380.5,3486.5c0.9,1.3,1.7,2.5,2.6,3.7c0.8-0.6,1.6-1.1,2.4-1.7c-0.9-1.3-1.7-2.5-2.6-3.7
				C2382.1,3485.4,2381.3,3486,2380.5,3486.5z"/>
			<path class="st4" d="M2401.1,3478.7c-0.7-1-1.4-2-2-3c-1-1.5-0.7-3.5,0.8-4.5c0.8-0.5,1.5-1.1,2.3-1.6c1.4-1,3.4-0.7,4.4,0.7
				c1.4,2,2.8,4,4.2,6.1c1.1,1.7,0.7,3.5-1,4.6c-0.7,0.5-1.4,0.9-2,1.4c-1.5,1.1-3.5,0.7-4.5-0.8c-0.4-0.5-0.7-1-1.1-1.5
				C2401.8,3479.7,2401.4,3479.2,2401.1,3478.7z M2409.1,3479.7c-2-2.9-4-5.8-6.1-8.7c-0.8,0.6-1.6,1.1-2.5,1.7c2,2.9,4,5.8,6.1,8.7
				C2407.5,3480.8,2408.3,3480.3,2409.1,3479.7z"/>
			<path class="st4" d="M2396.4,3477.4c-0.4,0.3-0.8,0.6-1.2,0.8c-0.1-0.1-0.3-0.3-0.4-0.4c-0.5-0.4-1-0.5-1.5-0.2
				c-0.9,0.6-1.8,1.2-2.7,1.9c2,2.9,4,5.8,6.1,8.8c0.8-0.6,1.6-1.1,2.4-1.7c-0.9-1.2-1.7-2.5-2.6-3.7c-0.4,0.3-0.8,0.5-1.2,0.8
				c-0.3-0.4-0.6-0.8-0.9-1.3c1.2-0.8,2.5-1.7,3.7-2.6c0.1,0.1,0.2,0.2,0.3,0.3c0.8,1.1,1.5,2.2,2.3,3.3c1,1.5,0.7,3.4-0.8,4.4
				c-0.8,0.6-1.6,1.1-2.4,1.7c-1.4,1-3.2,0.7-4.2-0.7c-1.5-2.1-3-4.3-4.5-6.5c-0.9-1.3-0.5-3.2,0.8-4.1c0.8-0.6,1.6-1.2,2.5-1.7
				C2393.5,3475.9,2395.2,3475.9,2396.4,3477.4z"/>
			<path class="st4" d="M2407.5,3496.9c-0.2,0.3-0.5,0.7-0.7,1c-0.1,0.1-0.2,0.3-0.2,0.5c-0.3,1.7-1,2.2-2.6,1.7
				c0.1,2.4-0.8,4.5-2.5,6.1c-2.2,2.1-5,0.5-5.5-1.6c-0.4-1.5-0.3-3,0.1-4.4c1.2-4.4,3.4-8.3,6.7-11.5c0.9-0.9,1.9-1.6,3.2-1.9
				c1.3-0.3,2.2,0.4,2,1.7c-0.2,0.8-0.4,1.6-0.7,2.3c-0.9,2-2.2,3.8-3.6,5.5c-0.3,0.3-0.6,0.4-0.9,0.2c-0.5-0.2-0.5-0.4-0.2-0.9
				c1-1.4,2.1-2.7,3-4.1c0.6-0.8,1-1.8,1.5-2.7c0.2-0.4,0.4-0.9,0-1.3c-0.5-0.4-1-0.2-1.5,0.1c-0.8,0.7-1.7,1.4-2.3,2.2
				c-2.9,3.8-5,7.9-5.8,12.7c-0.1,0.8-0.1,1.7,0,2.6c0.3,1.5,1.5,1.9,2.6,0.9c0.5-0.5,1-1.1,1.4-1.7c0.8-1.3,1.4-2.7,2.1-4.1
				c0.1-0.2,0.1-0.6,0-0.8c-0.2-0.8-0.3-1.5,0.1-2.2c0.3-0.5,0.6-0.7,1.2-0.6c0.6,0.1,1.1,0,1.5,0.6c0.8-0.4,0.8-1.2,1.1-1.9
				c0.1,0,0.1,0,0.2,0c0,0.3,0.1,0.6,0.1,0.9c0,0,0.1,0,0.1-0.1c0.4-0.2,1-0.4,1.2,0c0.2,0.3,0,0.9-0.1,1.3
				c-0.1,0.2-0.5,0.2-0.8,0.2c-0.2,0-0.3-0.3-0.4-0.5c-0.1-0.1-0.1-0.3-0.1-0.4c0,0,0-0.1,0-0.1c0,0-0.1-0.1-0.1-0.1
				c0,0,0,0.1,0,0.1C2407.6,3496.8,2407.5,3496.9,2407.5,3496.9z M2405.3,3499.7c0.1-0.3,0.2-0.6,0.4-0.9c-0.4-0.2-0.7-0.3-1.1-0.5
				C2404.8,3498.8,2404.6,3499.4,2405.3,3499.7z"/>
			<path class="st4" d="M2376.4,3491.2c-0.4,0.3-0.8,0.5-1.1,0.8c-1.3-0.9-1.5-0.9-2.8,0.1c-0.6,0.4-1.2,0.9-1.9,1.3c0,0,0,0,0,0.1
				c2,2.9,4,5.8,6.1,8.7c0.9-0.6,1.8-1.2,2.6-1.9c0.6-0.5,0.7-1.3,0.3-2c0.4-0.3,0.8-0.5,1.2-0.8c1,1.1,0.8,3.1-0.5,4.1
				c-0.9,0.7-1.9,1.4-2.9,2c-1.3,0.8-2.9,0.5-3.9-0.7c-1.6-2.2-3.1-4.4-4.6-6.6c-0.9-1.3-0.5-3.1,0.8-4.1c0.9-0.6,1.7-1.2,2.6-1.8
				C2373.7,3489.4,2375.6,3489.8,2376.4,3491.2z"/>
			<path class="st4" d="M2348.8,3510.4c-0.4,0.3-0.8,0.5-1.2,0.8c-0.9-0.9-1.4-0.9-2.5-0.1c-0.7,0.5-1.4,1-2.2,1.5
				c2,2.9,4.1,5.8,6.1,8.8c0.9-0.6,1.8-1.2,2.7-1.9c0.6-0.5,0.6-1.1,0.2-2c0.4-0.3,0.8-0.5,1.2-0.8c1,1.1,0.8,3.1-0.6,4.1
				c-0.9,0.7-1.8,1.3-2.8,1.9c-1.4,0.9-3.1,0.6-4.1-0.7c-1.5-2.1-3-4.3-4.5-6.5c-0.9-1.3-0.5-3.1,0.7-4.1c0.9-0.7,1.8-1.3,2.8-1.9
				C2346.1,3508.6,2347.9,3509,2348.8,3510.4z"/>
			<path class="st4" d="M2366,3525.6c-1.1,1.3-2.3,2.5-3.3,3.9c-0.9,1.2-1.7,2.4-2.6,3.6c-0.4,0.5-0.5,1.1-0.3,1.7
				c0.1,0.3,0.3,0.6-0.2,0.8c-0.4,0.1-0.8,0.3-1.1-0.2c-0.2-0.4-0.5-0.9-0.5-1.4c0-1.6,0-3.1,0.2-4.7c0.4-3,1.5-5.7,3.3-8.1
				c0.9-1.2,2-2.1,3.2-2.9c0.9-0.6,1.9-0.3,2.2,0.8c0.2,0.5,0.3,1.1,0.3,1.6c0.2,2.7,0.3,5.3,0.4,8c0,0.3-0.2,0.7-0.4,0.9
				c-0.2,0.2-0.6,0.3-0.9,0.4c0-0.3-0.1-0.5-0.1-0.8c0-1.1,0-2.3-0.1-3.4C2366.1,3525.6,2366,3525.6,2366,3525.6z M2359.5,3532.7
				c1.5-2.6,3.3-5.1,5.3-7.2c0.9-0.9,1.2-1.8,1-2.9c-0.1-1-0.2-2-0.4-2.9c-0.2-0.9-0.7-1-1.4-0.5c-1,0.7-1.7,1.8-2.2,2.9
				C2360.2,3525.4,2359.7,3529,2359.5,3532.7z"/>
			<path class="st4" d="M2360.7,3498.4c0.8-0.6,1.6-1.1,2.5-1.7c2.6,3.8,5.2,7.5,7.8,11.3c-0.8,0.6-1.6,1.1-2.5,1.7
				C2365.9,3506,2363.3,3502.2,2360.7,3498.4z"/>
			<path class="st4" d="M2331.8,3526.1c2.9-2,5.8-4,8.7-6c0.1-0.1,0.2-0.2,0.4-0.2c0.3,0.5,0.7,1,1,1.5c-0.3,0.2-0.6,0.4-0.9,0.6
				c-2.6,1.8-5.1,3.5-7.7,5.3c-0.4,0.3-0.6,0.3-0.9-0.2C2332.3,3526.8,2332.1,3526.5,2331.8,3526.1z"/>
			<path class="st4" d="M2332.3,3509.6c0.2,0.4,0.1,1.5-0.2,1.6c-0.3,0.1-0.7,0.1-1-0.1c-0.3-0.2-0.2-1.3,0.1-1.4
				C2331.5,3509.6,2331.9,3509.7,2332.3,3509.6z"/>
			<path class="st3" d="M2390.3,3505.4c-0.2-1,0.4-6.2,0.8-6.7C2391.5,3499.4,2390.9,3504.5,2390.3,3505.4z"/>
			<path class="st3" d="M2379.2,3517.5c-0.1-1-0.2-1.8,0.3-2.7C2380,3515.5,2379.9,3517.1,2379.2,3517.5z"/>
			<path class="st3" d="M2386.8,3511.5c-0.3-0.7-0.1-1.2,0.3-1.9C2386.9,3510.3,2386.9,3510.9,2386.8,3511.5z"/>
			<path class="st3" d="M2370,3521.5c0,0.1-0.1,0.2-0.1,0.3c0,0-0.1,0-0.1,0c0-0.1,0-0.2,0-0.3
				C2369.8,3521.5,2369.9,3521.5,2370,3521.5z"/>
			<path class="st3" d="M2374.6,3518.7c0,0.1-0.1,0.2-0.1,0.3c0,0-0.1,0-0.1,0c0-0.1,0-0.2,0-0.3
				C2374.5,3518.7,2374.5,3518.7,2374.6,3518.7z"/>
			<path class="st3" d="M2390.3,3505.5C2390.4,3505.5,2390.4,3505.5,2390.3,3505.5C2390.4,3505.5,2390.4,3505.6,2390.3,3505.5
				C2390.3,3505.6,2390.3,3505.6,2390.3,3505.5C2390.3,3505.6,2390.3,3505.5,2390.3,3505.5z"/>
			<path class="st3" d="M2390.2,3505.8C2390.3,3505.8,2390.3,3505.8,2390.2,3505.8C2390.3,3505.9,2390.3,3505.9,2390.2,3505.8
				C2390.3,3505.9,2390.3,3505.9,2390.2,3505.8C2390.2,3505.9,2390.2,3505.8,2390.2,3505.8z"/>
			<path class="st3" d="M2374.4,3518.7c0-0.1,0-0.1,0-0.2c0,0,0.1,0.1,0.1,0.1C2374.5,3518.7,2374.5,3518.7,2374.4,3518.7z"/>
			<path class="st3" d="M2374.9,3519.7c0,0.1,0.1,0.1,0.1,0.2C2374.9,3519.8,2374.9,3519.7,2374.9,3519.7z"/>
			<path class="st3" d="M2372.9,3522.3c0-0.1,0.1-0.1,0.1-0.2c0,0.1,0,0.1,0.1,0.2C2373,3522.3,2373,3522.3,2372.9,3522.3z"/>
			<path class="st3" d="M2335.1,3513.5c-0.1-0.4-0.2-0.6-0.2-0.9c0.1-1.1,0.2-2.2,0.4-3.2c0.1-0.4,0.5-0.7,0.9-1.1
				C2336.6,3510,2336.1,3512.4,2335.1,3513.5z"/>
			<path class="st3" d="M2339.1,3506.4c0.5,1.7-0.1,3.2-0.8,4.7c0,0.1-0.2,0.2-0.3,0.2c-0.1-0.1-0.2-0.2-0.2-0.3
				c-0.2-1.3,0-2.6,0.4-3.9C2338.3,3506.9,2338.8,3506.7,2339.1,3506.4z"/>
			<path class="st3" d="M2341.4,3498.4c0.5,0.8-0.2,5.8-0.8,6.3C2340.5,3503.7,2341,3499.1,2341.4,3498.4z"/>
			<path class="st3" d="M2344.1,3504.8c-0.1,0.6-0.3,1.2-0.4,1.8c-0.1,0-0.1,0-0.2,0c-0.2-0.6,0-1.2,0.4-1.8
				C2344,3504.8,2344.1,3504.8,2344.1,3504.8z"/>
			<path class="st3" d="M2326.4,3519.9c0,0-0.1,0.1-0.1,0.1c0,0,0-0.1,0-0.1C2326.3,3519.8,2326.3,3519.9,2326.4,3519.9z"/>
			<path class="st3" d="M2380.5,3486.5c0.8-0.6,1.6-1.1,2.4-1.7c0.9,1.2,1.7,2.5,2.6,3.7c-0.8,0.6-1.6,1.1-2.4,1.7
				C2382.2,3489,2381.4,3487.8,2380.5,3486.5z"/>
			<path class="st3" d="M2409.1,3479.7c-0.8,0.6-1.6,1.1-2.5,1.7c-2-2.9-4-5.8-6.1-8.7c0.8-0.6,1.6-1.1,2.5-1.7
				C2405.1,3473.8,2407.1,3476.7,2409.1,3479.7z"/>
			<path class="st3" d="M2405.3,3499.7c-0.7-0.2-0.6-0.8-0.7-1.3c0.4,0.2,0.7,0.3,1.1,0.5C2405.6,3499,2405.5,3499.3,2405.3,3499.7z
				"/>
			<path class="st3" d="M2407.6,3496.8c0,0,0-0.1,0-0.1c0,0,0.1,0.1,0.1,0.1C2407.7,3496.8,2407.6,3496.8,2407.6,3496.8z"/>
			<path class="st3" d="M2407.7,3496.8C2407.7,3496.8,2407.7,3496.9,2407.7,3496.8c-0.1,0.1-0.1,0.1-0.2,0.1c0-0.1,0-0.1,0.1-0.2
				C2407.6,3496.8,2407.7,3496.8,2407.7,3496.8z"/>
			<path class="st3" d="M2359.5,3532.7c0.2-3.7,0.7-7.3,2.3-10.7c0.5-1.1,1.2-2.1,2.2-2.9c0.7-0.5,1.3-0.4,1.4,0.5
				c0.2,1,0.2,1.9,0.4,2.9c0.2,1.2-0.2,2.1-1,2.9C2362.8,3527.7,2361.1,3530.1,2359.5,3532.7z"/>
		</g>
	</g>
</g>
<g id="mels">
	<g>
		
			<rect x="2393.8" y="2924.5" transform="matrix(0.866 -0.5 0.5 0.866 -1169.2876 1638.2345)" class="st5" width="157.2" height="153.1"/>
		<g>
			<g>
				<path class="st6" d="M2433.1,3042.6c1.2,3.8,2.4,7.6,4.2,11.2c0.4,0.8,0.6,1.4,0.1,2.2c-1.2,1.7-2.3,3.5-3.5,5.3
					c-0.5,0.8-1.1,0.5-1.4-0.3c-0.6-1.7-1.2-3.4-1.9-5.1c-0.2-0.5-0.4-0.9-0.6-1.4c-1.6-2.5-2.2-5.4-3.1-8.2c-3-9.4-6.2-18.8-9.9-28
					c-2-5-3.6-10.1-5.3-15.1c-1.7-4.8-4-9.4-6-14.1c-1.8-4.2-3.8-8.4-5.8-12.5c-0.1-0.3-0.3-0.6-0.9-1.1c0.4,2.3,0.2,4.4,0.6,6.4
					c0.8,3.7,1.5,7.4,1.9,11.2c0.1,0.4,0.2,0.8-0.2,1.1c-0.5,0.3-0.9,0.1-1.3-0.3c-0.8-0.7-1.4-1.6-2.1-2.5c-1.1-1.7-2.2-3.3-3.4-5
					c-1.7-2.3-2.6-4.8-2.3-7.7c0.1-0.8-0.1-1.6-0.3-2.4c-1.1-4.1-0.7-8.1,0.7-12c0.9-2.4,2.1-2.8,4.1-1.1c0.3,0.2,0.5,0.4,0.8,0.6
					c1.3,0.4,1.9,1.5,2.4,2.6c2.5,4.6,5.1,9.1,7.4,13.8c1.4,2.8,2.9,5.5,4.1,8.3c0.4,1,0.6,2.1,1,3.1c-1.7-5.1-2.9-10.3-3.5-15.6
					c-0.3-2.4-0.8-4.7-1.2-7.1c-0.8-4.8-0.3-9.6,2-14c1.9-2.8,2.5-2.9,5.4-1.2c2,0.7,3.4,2.3,4.1,4.2c2.2,5.4,5,10.6,6.9,15.6
					c-0.4-2.3-1.2-4.9-1.5-7.7c-0.2-1.9-0.5-3.7-1-5.6c-0.9-3.9-0.2-7.7,0.9-11.5c0.1-0.3,0.3-0.5,0.5-0.7c0.8-1.1,1.6-2.2,2.8-3
					c1.5-0.9,2.8-0.8,4.1,0.3c2.8,2.5,4.2,5.8,5.6,9.2c2.8,6.7,5.7,13.4,8.6,20.1c3.7,8.5,8.7,16.5,11.8,25.2
					c2.6,7.4,6.9,14.1,9.5,21.5c1.1,3.2,2.8,6,4.5,8.9c0.2,0.4,0.4,0.8,0.8,1.1c0.4,0.3,0.8,0.9,1.5,0.6c0.6-0.3,0.7-0.9,0.6-1.5
					c-0.3-2.3-0.6-4.7-0.8-7c0-0.4-0.2-1.1,0.3-1.3c0.6-0.2,0.8,0.5,1,0.9c1.3,2.6,3,5.1,3.8,7.9c0.9,3.1,1,6.5,0.2,9.7
					c-0.4,1.6-2.3,2.2-4.2,1.3c-1.9-0.9-3.6-2-4.7-4c-3.6-6.3-6.7-12.9-9.6-19.6c-2-4.6-3.8-9.3-6.1-13.8c-0.8-0.5-1.3-1.4-1.6-2.2
					c-1.6-4.7-4.2-9-6-13.6c-1.2-3-2.8-5.9-4.3-8.8c-3.3-6.4-6.3-12.9-9.2-19.5c-1.1-2.4-2.5-4.5-3.8-6.7c-0.3-0.5-0.8-1.2-1.5-1
					c-0.8,0.1-0.8,0.9-0.9,1.5c-0.6,2.9-0.3,5.7,0,8.6c0.8,7.9,3.7,15.2,6.2,22.6c2.2,6.5,5.1,12.6,7.5,19c0.3,0.9,0.6,1.7,0.8,2.6
					c0.4,3,1.9,5.6,3,8.4c2,5,3.5,10.1,5.1,15.2c1.7,5.5,3.2,11.1,5.2,16.6c0.4,1,2.1,2,0.6,3.3c-0.9,0.8-2,1.4-3.2,1.6
					c-0.2,0-0.3,0.1-0.5,0.2c-1.5-1-1.6-2.7-2-4.2c-1.4-5-3.1-9.9-4.5-14.8c-2.3-8.3-5.2-16.5-8.5-24.4c-2.8-6.8-5.6-13.6-8.9-20.2
					c-2.8-5.6-5.9-10.9-8.9-16.4c-1.1-2.1-2.2-4.2-3.1-6.3c-0.4-1.1-1-2.1-1.7-3c-0.8-1.1-1.5-1.1-2,0.2c-0.6,1.8-1.3,3.6-1.1,5.6
					c0.7,6.4,1.3,12.8,3.2,19c2.2,7.1,4.8,14.2,6.9,21.3c0.2,0.6,0.5,1,0.8,1.5c3.3,8.8,6.3,17.8,9.3,26.7
					C2432.2,3038.9,2433.2,3040.6,2433.1,3042.6z"/>
				<path class="st7" d="M2541.9,2984c1.6,5.3,2.8,10.6,1.9,16c-0.6,3.7-2,5-5.6,5.8c-4.1,0.9-7.9-0.2-11.5-1.9
					c-4-1.9-7.5-4.6-10.7-7.8c-1-1-1.5-2.1-2-3.3c-1-2.6-2.1-5.2-2.9-7.9c-0.2-0.5-0.3-1.1-0.3-1.7c0-0.7-0.1-1.5,0.7-1.8
					c0.8-0.2,1.1,0.5,1.5,1c2,2.7,4.4,4.8,7.5,6.1c1.3,0.5,2.5,0,3-0.9c0.9-1.5,1.4-3.2,0.8-5.1c-2.6-9.3-7.9-16.6-15.7-22.2
					c-2.9-2.1-5.3-4.7-7.9-7.1c-0.7,0.5-0.3,1-0.1,1.6c2.8,11.4,5.6,22.9,8.3,34.3c2.2,9.5,3.6,19.1,3.9,28.8
					c0.1,3.6-1.8,4.5-5.8,3.3c-2.5-0.7-4-2.9-5.6-4.7c-1.6-1.8-3.2-3.6-5.1-5.8c0.1,2.9,0.4,5.4,0.3,7.9c0,2.9,0.1,5.8-1.6,8.3
					c-1.4,2.1-2.2,2.4-4.6,1.5c-5.1-1.8-9-5.2-12.3-9.4c-6.8-8.4-12.3-17.7-16.6-27.5c-2-4.5-3.8-9.1-4.5-14.1
					c-0.1-1-0.5-1.9-0.8-2.8c-1.1-3.3-0.4-6.6,0.5-9.6c0.5-1.8,2.3-3.3,3.6-4.9c0.1-0.1,0.3-0.2,0.5-0.2c2.5,0.5,5.1,0.9,7,2.8
					c5.1,5.3,7.2,12,9,18.9c0.4,1.6,0.5,3.2,0.4,4.8c-0.3,5.7-2,11.1-3.8,16.4c-0.3,1-0.3,1.8,0.3,2.7c3.2,5,6.2,10.3,10.2,14.7
					c2.1,2.3,4.3,4.3,7,5.8c1.5,0.8,2.6,0.2,3.4-1.3c2-3.7,1.1-7.6,0.9-11.4c-0.3-5-2.7-9.1-5-13.4c-5.9-11-11.4-22.1-15.1-34.1
					c-2.1-6.8-4.2-13.5-5.2-20.5c-0.8-5.7-1.4-11.4,0.4-17.1c0.2-0.8,0.3-1.9,1.4-2c1.1-0.1,1.5,0.8,2,1.6c2.7,4.6,4.4,9.7,6.2,14.7
					c4.6,12.3,8.3,24.8,10.9,37.7c1.3,6.5,2.6,12.9,3.8,19.4c0.5,2.6,2.4,4.5,3.7,6.8c1,1.8,2.3,3.4,3.3,5.2
					c1.9,3.3,4.7,5.7,7.7,7.9c0.5,0.4,1,0.8,1.7,0.4c0.8-0.4,0.9-1.1,0.8-1.9c-0.3-4.4-0.7-8.7-1.5-13c-1-5.6-1.8-11.2-3.1-16.8
					c-0.9-3.7-1.8-7.4-2.6-11c-0.9-4.4-2.4-8.7-3.1-13.2c-0.4-2.7-1.6-5.3-1.9-8c-0.6-5.8-2.2-11.4-2.3-17.2c0-0.9-0.1-1.9,0.1-2.7
					c0.2-1.1,0.6-2.3,1.9-2.4c1.4-0.2,2.9-0.1,3.6,1.4c0.7,1.4,1.4,2.8,1.9,4.2c0.4,1.1,0.1,2-0.9,2.7c-2.3,1.8-2.6,3.7-1.2,6.3
					c2.8,5.3,7.1,8.9,12,12.1c3.1,2.1,6.7,3.8,8.9,7c2.6,3.8,4.5,7.9,6.2,12.1c1.1,2.8,2.5,5.6,2,8.8c-0.4,2.5-1.3,4.9-2.4,7.2
					c-0.4,0.8-0.3,1.3,0.4,1.7c3,1.8,6,2.3,9.1,0.1c1.8-1.2,2.2-3.1,2.8-4.9C2542.9,2989.6,2542.1,2986.8,2541.9,2984z"/>
				<path class="st8" d="M2429.5,3007.4c-1-2.7-1.8-5.4-2.9-8c-1.5-3.3-2.4-6.8-4.4-9.9c-0.3-0.4-0.4-1.1-0.9-1.2
					c-0.4,0-0.8,0.3-1.1,0.9c0,0.2-0.1,0.4-0.1,0.6c-0.3,1.3-0.3,2.7-0.3,4.1c0,0.8,0.1,1.7-0.4,2.7c-1.1-1.7-1.4-3.4-1.9-5
					c-1.1-4.3-1.9-8.6-2.9-12.9c-0.8-3.5-1-7-0.6-10.6c0.1-0.6,0.1-1.1,0.7-1.2c0.7-0.2,0.9,0.5,1.1,0.9c3.2,6,6.5,11.9,9.5,18
					c1.9,4,3.9,7.9,5.7,11.9c1.7,3.8,3.3,7.8,4.7,11.7c0,0,0,0,0,0c0.6,1.7,1.3,3.3,1.9,5c0,0.1,0,0.1,0.1,0.2
					c0.6,1.5,1.1,3,1.7,4.5c1.7,4.4,2.9,9,4.5,13.5c0.2,0.5,0.3,1,0.4,1.6c0.2,0.4,0.4,0.9,0.7,1.3c1,3.1,2.2,6.1,2.5,9.4
					c0.5,2.2,1.1,4.4,1.9,6.5c-0.1,0.7,0.7,1,0.6,1.7c0.7,3.5,1.5,3.9,4.6,2.2c1.9-1,2.4-0.8,2.5,1.4c0.1,1.9,0.2,3.9,0.2,5.8
					c0.1,2.5-2.3,5-4.7,5.1c-2.3-1.3-3.4-3.4-4.4-5.7c-2.9-6.9-4.7-14.1-6.9-21.2L2429.5,3007.4z"/>
				<path class="st8" d="M2434.6,3022"/>
				<path class="st8" d="M2435.8,3009.4c0.1,0.1,0.1,0.3,0.2,0.4c0.6,1.5,1.2,3.1,1.7,4.6C2437.1,3012.7,2436.4,3011,2435.8,3009.4z
					"/>
				<path class="st8" d="M2483.1,3045.4c0.2,2.2,0.4,4.3,0.2,6.5c-0.1,1.4-0.4,2.7-1.2,3.9c-1.5,2.2-3.7,1.8-6.1,0.6
					c-2.8-1.4-4.8-3.9-6.4-6.4c-4.3-6.4-7.5-13.4-10.7-20.4c-2.4-5.6-4.7-11.2-7.2-16.7c-1.9-4.4-3.8-8.9-5.6-13.5
					c-0.9-2.4-2-4.7-3.1-7.1c-1.6-3.3-3.2-6.5-4.9-9.7c-0.2-0.4-0.4-0.7-0.6-1c-0.3-0.7-0.9-1.2-1.6-1.1c-0.7,0.1-0.6,0.9-0.7,1.4
					c-0.1,0.4-0.2,0.8,0,1.2c-0.8,0.6-1.1,0.2-1.4-0.5c-2.1-7.2-4.3-14.3-5.2-21.8c-0.1-1.1,0-2.3,0-3.4c0-0.5,0.1-0.9,0.6-1.1
					c0.6-0.2,0.8,0.3,1,0.7c1.5,2.2,2.5,4.7,3.6,7c1.6,3.2,3,6.5,4.6,9.6c2.4,4.7,4.6,9.5,6.8,14.3c0.1,0.3,0.3,0.5,0.5,0.7
					c3,6.5,5.9,13,8.8,19.6c3.8,8.9,7.5,17.9,11.8,26.6c1.2,2.5,2.8,4.7,4.2,7.1l0,0c1.5,1.8,3,3.8,5.4,4.6c2.3,0.9,4.1,0.4,5.7-1.5
					c0.3-0.3,0.4-1,1-0.8C2483.2,3044.3,2483.1,3045,2483.1,3045.4z"/>
				<path class="st9" d="M2424.8,3056.6c1.4-0.7,2.6-0.3,3,1.2c0.4,1.4,1,2.6,1.9,3.7c1.4,2.4,4.8,3.1,7.7,1.4
					c1.3-0.7,1.7-0.2,1.9,0.8c0.6,3.3,0.5,6.6-1.3,9.6c-1.5,2.5-4,2.8-6,0.7c-1.1-1.1-1.7-2.6-2.6-3.8c-2.4-3.1-3.4-6.9-4.8-10.4
					c-0.2-0.6-0.6-1.3-0.5-2C2424.5,3057.4,2424.2,3056.8,2424.8,3056.6z"/>
				<path class="st8" d="M2500.2,3039.5c0,0.1-0.1,0.2-0.1,0.2c-0.1,0-0.2,0.1-0.3,0c0,0,0,0,0,0c0,0,0,0,0,0c0,0,0.1,0,0.1,0
					C2500,3039.7,2500.1,3039.6,2500.2,3039.5z"/>
				<path class="st8" d="M2546.4,3012.4l-0.1,0c0,0-0.1,0-0.1-0.1c0,0,0,0,0.1,0C2546.3,3012.4,2546.3,3012.4,2546.4,3012.4z"/>
				<path class="st7" d="M2489.8,2927.8c2.1,4.5,2.1,9.3,2,14.1c0,1.3-0.4,2.5-0.8,3.7c-0.2,1.6-1,3-2.1,4.2
					c0.5-1.5,1.1-2.9,1.5-4.4c-0.3-3.7-1.6-6.9-5-8.8c-1.7-1-2.3-2.9-2.8-4.6c-0.9-2.7-1.4-5.6-0.6-8.4c0.6-2.3,1.5-2.6,3.5-1.3
					C2487.5,2923.6,2488.8,2925.6,2489.8,2927.8z"/>
				<path class="st8" d="M2405,2991c3.7,8.5,7.1,17.1,10,25.9c0.8,2.4,2.3,4.6,2.3,7.3c1.9,5.3,3.7,10.6,5.5,15.9
					c1.7,4.9,3.3,9.9,5,14.8c0.6,2.2,1.3,4.4,1.9,6.6c-1.2-0.3-1.7-1.3-2-2.4c-0.4-1.6-1.3-2.5-3-2.4c-0.2,0.4-0.4,0.7-0.5,1.1
					c-1.8-6.1-3.7-12.2-5.8-18.2c-1.4-4-2.7-8.1-4.3-12.1c-2-5.2-3.8-10.4-5.8-15.6c-0.4-0.9-0.6-2-2.3-1.3c-1.3,0.6-2.2-0.8-3-1.8
					c-1.5-1.7-2.3-3.9-3.5-5.9c-1.1-2.8-2.2-5.5-3.2-8.3c-0.3-0.8-0.6-1.7-0.5-2.8c1.7,1,2.2,2.8,3.5,4c1,0.9,1.8,2.6,3.5,1.8
					c1.8-0.8,1.2-2.5,1-3.9c-0.2-1.9-1-3.7-0.7-5.8C2404.6,2988.8,2404.6,2990,2405,2991z"/>
				<path class="st8" d="M2547.1,3006.1c-0.1,2.1,0.2,4.2-0.7,6.2c0,0-0.1,0-0.1,0c0,0,0,0-0.1,0c0,0,0.1,0,0.1,0.1l0.1,0
					c-0.8,4.8-3.8,7-7.6,7.8c-2.2,0.5-4.5-0.6-6.7-1.5c-4.6-1.9-8.6-4.7-12.5-7.7c-0.2-0.1-0.3-0.4-0.5-0.5c-0.4-0.2-1-0.5-1.3-0.3
					c-0.5,0.2-0.2,0.8-0.1,1.2c1,5.6,1.6,11.2,1.4,16.9c-0.1,1.7-0.5,3.3-1.5,4.7c-1,1.4-3.4,2-5.7,1.2c-2.8-1-5.2-2.6-7.2-4.8
					c-0.5-0.6-1-1.3-1.8-1.1c-1,0.2-0.6,1.2-0.7,1.9c-0.3,2.8-0.1,5.8-1.4,8.4c-0.1,0.3-0.4,0.5-0.6,0.8c-0.1,0.1-0.2,0.1-0.4,0.2
					c0,0,0,0-0.1,0c0,0,0,0,0,0c0,0,0,0,0,0c0.1,0,0.2,0,0.3,0c-1,1.6-3.5,2.6-5.6,2.5c-3.9-0.2-6.6-2.5-9.5-4.7
					c-2.4-1.8-3.6-4.3-4.4-7c-1-3.4-2.9-6.5-5.2-9.2c-0.9-1-1.9-1.8-3.4-1.5c-0.4,0.1-0.8,0.1-1.1-0.2c-1.3-1.8-2.5-3.7-3.4-5.7
					c-0.1-0.1-0.1-0.2-0.1-0.3c-3.9-6.1-6.3-12.8-8-19.8c-0.2-0.7-0.7-1.9,0.2-2.2c0.9-0.3,0.7,1.1,1,1.7c3.4,6.8,7,13.4,10.9,19.9
					c0.2,0.4,0.5,0.8,0.7,1.1c0.8,0.6,0.9,1.7,1.7,2.3c2.5,2.9,4.8,6,7.5,8.7c3.3,3.3,6.9,6.1,11.7,7.1c2.5,0.5,4.3-0.3,5.6-2.3
					c1.3-3.2,1.5-6.5,1.4-9.9c0-0.3-0.1-0.7,0.3-0.9c0.4-0.2,0.8,0.1,1,0.4c1.8,2.1,4.1,3.6,6.2,5.2c0.2,0.2,0.4,0.5,0.7,0.5
					c0.4,0.2,0.9,0.3,1.4,0.3c3.1,0.6,5.9-1.9,6.2-5.3c0.4-5.5-0.6-10.8-1.5-16.2c-0.3-1.8-0.5-3.6-0.7-5.4c0-0.4,0-0.9,0.4-1
					c0.5-0.2,0.7,0.3,1,0.5c2.9,2.8,5.9,5.5,9.4,7.5c4.3,2.5,8.8,4.4,13.9,4.6c0.8,0,1.6-0.1,2.4-0.1c2-1,3.9-2.1,4.9-4.3
					c0.2-0.4,0.5-1,1.1-0.8C2547.1,3005.1,2547.1,3005.7,2547.1,3006.1z"/>
				<path class="st8" d="M2500.2,3039.5c0,0.1-0.1,0.1-0.1,0.2c-0.1,0-0.2,0.1-0.3,0c0,0,0,0,0,0c0,0,0,0,0,0c0,0,0.1,0,0.1,0
					C2500,3039.7,2500.1,3039.6,2500.2,3039.5z"/>
				<path class="st8" d="M2519.8,2975.6c0.2,0.4,0.2,0.8-0.1,1.1c-0.5,0.4-0.7,0-1-0.3c-2.6-3-6.2-4.4-9.6-6.1c0,0,0,0,0,0
					c-0.2-0.2-0.4-0.3-0.6-0.5c0,0,0,0,0,0c0,0,0,0,0,0c0,0.4,0.4,0.4,0.6,0.5c0,0,0,0,0,0c-0.8,0.2-0.7,0.8-0.5,1.4
					c0.4,1.5,0.8,3.1,1.3,4.6c0.2,0.6,0.2,1-0.4,1.3c-0.4,0.2-0.8,0-0.9-0.4c-0.9-3.6-2.2-7-2.5-10.7c0,0,0,0,0,0
					c0.1,0.1,0.3,0.2,0.5,0.2c0,0,0,0,0,0c0,0,0,0-0.1,0c-0.1,0-0.3-0.1-0.4-0.1c0,0,0,0,0,0c-0.2-1.1-1-2-0.8-3.2c0,0,0,0,0,0
					c0-0.1-0.1-0.2-0.1-0.3c-0.3-0.7-0.8-1.7,0-2.1c0.8-0.5,1.4,0.4,1.9,1c0,0,0,0,0,0c3.5,2,6.6,4.4,9.1,7.6
					C2517.5,2971.3,2518.6,2973.5,2519.8,2975.6z"/>
				<path class="st10" d="M2506.5,2966.5C2506.5,2966.5,2506.5,2966.5,2506.5,2966.5c-0.2,0.1-0.4,0-0.5-0.1
					C2506.2,2966.4,2506.3,2966.5,2506.5,2966.5C2506.5,2966.5,2506.5,2966.5,2506.5,2966.5z"/>
				<path class="st10" d="M2509,2970.2c-0.3-0.1-0.6-0.1-0.6-0.5c0,0,0,0,0,0c0,0,0,0,0,0C2508.6,2969.9,2508.8,2970.1,2509,2970.2z
					"/>
				<path class="st8" d="M2497.9,3002.1c-1-1.1-0.9-2-1-2.8c-0.2-3.5-1.2-6.8-1.6-10.2c-0.1-0.4-0.4-1,0.3-1.1c0.5,0,0.4,0.6,0.5,1
					c0.8,3.4,1.9,6.8,2.5,10.3c0.1,0.7,0.2,1.4,0.3,2c0.1,0.5,0.2,1.2-0.4,1.3C2497.9,3002.8,2497.9,3002.1,2497.9,3002.1z"/>
				<path class="st11" d="M2506.5,2966.5C2506.5,2966.5,2506.5,2966.5,2506.5,2966.5c-0.2,0.1-0.4,0-0.5-0.1
					C2506.2,2966.4,2506.3,2966.5,2506.5,2966.5C2506.5,2966.5,2506.5,2966.5,2506.5,2966.5z"/>
				<path class="st11" d="M2509,2970.2c-0.3-0.1-0.6-0.1-0.6-0.5c0,0,0,0,0,0c0,0,0,0,0,0C2508.6,2969.9,2508.8,2970.1,2509,2970.2z
					"/>
				<path class="st8" d="M2480.5,2994.8c0.1,0.6,0.6,1.2-0.1,1.8c0.5,3.6-0.3,7.1-1.4,10.5c0,0.7-0.1,1.5-0.9,1.7
					c-0.8,0.2-0.9-0.7-1.2-1.2c-0.9-1.2-0.7-2.3-0.3-3.7c0.9-2.9,1.6-6,2.4-9c0.2-0.8,0.1-2,1-2
					C2480.8,2992.9,2480.4,2994.1,2480.5,2994.8z"/>
				<path class="st8" d="M2491.5,2955.3c-1.2,0.9-2.4,0.7-3.6,0.2c-0.5-0.2-0.9-0.6-0.8-1.2c0.1-0.6,0.8-0.7,1.1-0.6
					c1.8,0.3,3.1-0.5,4.3-1.7c0.2-0.2,0.6-0.5,0.9-0.3c0.4,0.2,0.1,0.6,0.1,0.9C2493.3,2953.9,2492.6,2954.7,2491.5,2955.3z"/>
				<path class="st8" d="M2546.4,3012.4l-0.1,0c0,0-0.1,0-0.1-0.1c0,0,0,0,0.1,0C2546.3,3012.4,2546.3,3012.4,2546.4,3012.4z"/>
				<path class="st8" d="M2484,2938.7c1.6,0.5,2.7,1.6,3.8,2.7c0.4,0.4,0.6,1.1,0,1.5c-0.6,0.5-1,0-1.5-0.3
					C2485.1,2941.6,2484.6,2940.1,2484,2938.7z"/>
				<path class="st8" d="M2504.8,2948.7c-0.5-0.9-0.6-1.7,0.4-2.2c0.5-0.3,1.4-0.9,1.8-0.1c0.6,1.2-0.6,2.1-1.2,3
					C2505.4,2950,2505.2,2948.9,2504.8,2948.7z"/>
				<path class="st8" d="M2536,2992.1c0.4,0.8-0.1,1.4-0.8,1.9c-0.4,0.3-1.1,0.4-1.1-0.1c-0.1-0.8,0.2-1.7,0.7-2.3
					C2535.1,2991.2,2535.6,2991.6,2536,2992.1z"/>
				<path class="st12" d="M2467.4,3013.9c1.1,1.9,2.3,3.8,3.4,5.7C2469.3,3017.9,2468.1,3016,2467.4,3013.9z"/>
				<path class="st8" d="M2482.5,2989.1c0.9,1.7,1.8,3.3,2.5,5c0.9,2.2,2.2,4.3,3.4,6.4c0.2,0.3,0.3,0.6,0.2,1
					c0.9,1.5,1.7,3,2.6,4.4c1,1.5,1.3,3.1,1.3,4.9c0.1,0.4,0.1,0.7,0.2,1.1c0,0.5,0.5,1.3-0.4,1.5c-0.7,0.1-1-0.4-0.9-1.1l0,0
					c-0.7-0.3-1-0.8-0.9-1.5c-1.2-1.3-1.6-3.1-2.6-4.5c-0.4-0.8-1.2-1.5-1.1-2.6c-2.3-4.6-3.8-9.5-5.2-14.4
					c-0.1-0.3-0.1-0.6,0.2-0.7C2482.1,2988.5,2482.3,2988.8,2482.5,2989.1z"/>
				<path class="st12" d="M2473.8,3016.6c-1-0.4-1.1-1.5-1.7-2.3C2473.1,3014.8,2473.3,3015.8,2473.8,3016.6z"/>
				<path class="st3" d="M2492.5,2994.2c-1.7-1.4-2.2-3.4-3-5.1c-2.9-6.5-5.8-13-8.4-19.6c-1.5-4-2.5-8.2-3.6-12.4
					c-1.2-4.4-2.3-8.8-3.4-13.2c-0.6-2.5-0.2-5.1-0.2-7.7c0-0.4,0-1,0.6-1.1c0.6-0.1,0.7,0.5,0.9,0.9c2.2,4.1,3.8,8.3,5.4,12.7
					c2.6,7.2,4.7,14.6,6.4,22.1c1.7,7.3,3.9,14.4,5.1,21.8C2492.3,2993.1,2492.4,2993.7,2492.5,2994.2z"/>
				<path class="st13" d="M2467.6,2969.7c3.2,5.5,4.9,11.3,5.8,17.2c0.6,3.9-0.4,7.8-2,11.4c-0.1,0.3-0.2,0.7-0.6,0.8
					c-0.6,0.1-0.5-0.5-0.7-0.8c-1.7-3.2-3-6.6-5-9.6c-2.2-3.4-2.5-7.5-3.6-11.2c-0.9-3-1.5-6.1-1.3-9.3c0-0.6,0.1-1.2,0.2-1.7
					c0.5-1.8,1.7-2.3,3.3-1.2C2465.4,2966.5,2466.8,2968.1,2467.6,2969.7z"/>
				<path class="st8" d="M2499.9,3039.7C2499.8,3039.7,2499.8,3039.7,2499.9,3039.7C2499.8,3039.7,2499.8,3039.7,2499.9,3039.7
					C2499.8,3039.7,2499.8,3039.7,2499.9,3039.7z"/>
				<path class="st8" d="M2546.2,3012.3C2546.2,3012.4,2546.2,3012.4,2546.2,3012.3C2546.2,3012.4,2546.2,3012.3,2546.2,3012.3
					C2546.2,3012.3,2546.2,3012.3,2546.2,3012.3z"/>
				<path class="st14" d="M2508.4,2969.8C2508.4,2969.8,2508.4,2969.8,2508.4,2969.8C2508.4,2969.8,2508.4,2969.7,2508.4,2969.8
					C2508.4,2969.7,2508.4,2969.7,2508.4,2969.8z"/>
				<path class="st14" d="M2506.5,2966.5C2506.5,2966.5,2506.5,2966.5,2506.5,2966.5L2506.5,2966.5
					C2506.5,2966.5,2506.5,2966.5,2506.5,2966.5z"/>
				<path class="st8" d="M2477.5,2944.4c0.7,2,1.5,4.2,2.1,6.4c0.2,0.8,0.7,1.6,0.8,2.4c0,0.5,0.9,1.2,0,1.4c-0.6,0.2-1.6,0.1-2-0.8
					c-0.7-1.6-0.9-3.4-1.4-5.1c-0.3-1.3-0.5-2.7-0.7-4c-0.1-0.4-0.5-1,0.1-1.2C2477.1,2943.3,2477.1,2944,2477.5,2944.4z"/>
				<path class="st8" d="M2465.8,2970.3c0.9,1.2,1.3,2.7,2,4c0.3,0.6,0.4,1.3-0.1,1.6c-0.6,0.4-0.8-0.5-1-0.9
					c-0.8-1.3-1.6-2.6-3.5-2.1c-0.5,0.1-0.9-0.3-0.9-0.8c0-1.1-0.3-2.3,0.1-3.4c0.2-0.5,0.2-1.1,0.9-1.1c0.5,0,1,0.1,1.3,0.6
					C2465,2969,2465.4,2969.7,2465.8,2970.3z"/>
			</g>
			<g>
				<path class="st6" d="M2443.6,3095.7c0.9,0,2.2-0.2,3.2-0.8c1.6-0.9,2-2.3,1.3-3.5c-0.7-1.1-1.7-1.4-3.7-1.1
					c-2.4,0.5-4.2,0.2-5.2-1.5c-1.1-1.9-0.4-4.2,2-5.5c1.2-0.7,2.3-1,3-1l0.3,1.5c-0.5,0-1.5,0.1-2.6,0.8c-1.6,1-1.7,2.3-1.2,3.1
					c0.7,1.1,1.7,1.2,3.7,0.9c2.5-0.4,4.1,0,5.1,1.7c1.1,1.8,0.7,4.2-2.2,5.9c-1.2,0.7-2.6,1.1-3.5,1L2443.6,3095.7z"/>
				<path class="st6" d="M2449.7,3080.3l-3.6,2.1l-0.8-1.3l8.9-5.2l0.8,1.3l-3.7,2.2l6.3,10.6l-1.6,0.9L2449.7,3080.3z"/>
				<path class="st6" d="M2460.9,3083l1,4.5l-1.6,0.9l-3-14.4l1.9-1.1l11.1,9.6l-1.7,1l-3.5-3L2460.9,3083z M2464.1,3079.4l-3.2-2.8
					c-0.7-0.6-1.3-1.2-1.9-1.8l0,0c0.2,0.8,0.5,1.7,0.7,2.5l0.9,4.2L2464.1,3079.4z"/>
				<path class="st6" d="M2479,3070.3c-1.1-1.6-2.4-3.6-3.2-5.1l-0.1,0c0.4,1.6,0.8,3.4,1.2,5.4l1.3,7l-1.2,0.7l-5.3-4.6
					c-1.6-1.4-2.9-2.6-4.1-3.8l0,0c0.8,1.5,1.9,3.6,2.9,5.4l2.7,5.3l-1.5,0.9l-6.2-12.5l2-1.2l5.4,4.6c1.4,1.2,2.5,2.3,3.6,3.3
					l0.1,0c-0.4-1.4-0.8-2.9-1.1-4.8l-1.3-7l2-1.2l7.8,11.5l-1.5,0.9L2479,3070.3z"/>
				<path class="st6" d="M2479.3,3061.3c0.7-0.6,1.6-1.2,2.8-2c1.5-0.9,2.9-1.2,3.9-1c1,0.2,1.9,0.8,2.5,1.9
					c0.6,1.1,0.8,2.1,0.6,3.1c-0.3,1.4-1.4,2.6-2.9,3.5c-0.5,0.3-0.9,0.5-1.3,0.6l2.8,4.8l-1.5,0.9L2479.3,3061.3z M2484.2,3066.1
					c0.4-0.1,0.8-0.3,1.4-0.6c1.9-1.1,2.5-2.7,1.5-4.3c-0.9-1.6-2.5-1.7-4.2-0.7c-0.7,0.4-1.2,0.8-1.4,1L2484.2,3066.1z"/>
				<path class="st6" d="M2494.4,3065.8c0.9,0,2.2-0.2,3.2-0.8c1.6-0.9,2-2.3,1.3-3.5c-0.7-1.1-1.7-1.4-3.7-1.1
					c-2.4,0.5-4.2,0.2-5.2-1.5c-1.1-1.9-0.4-4.2,2-5.5c1.2-0.7,2.3-1,3-1l0.3,1.5c-0.5,0-1.5,0.1-2.6,0.8c-1.6,1-1.7,2.3-1.2,3.1
					c0.7,1.1,1.7,1.2,3.7,0.9c2.5-0.4,4.1,0,5.1,1.7c1.1,1.8,0.7,4.2-2.2,5.9c-1.2,0.7-2.6,1.1-3.5,1L2494.4,3065.8z"/>
				<path class="st6" d="M2515.7,3055.8c-0.5-0.1-1.1-0.3-1.8-0.5c-0.5,1.6-1.4,2.7-2.7,3.4c-2.3,1.4-4.6,0.6-5.6-1.2
					c-1-1.6-0.6-3.3,0.3-4.9l0-0.1c-1.1-0.4-2-1.1-2.5-1.9c-0.9-1.5-0.7-3.6,1.3-4.7c1.5-0.9,3.2-0.6,4.1,1c0.7,1.3,0.6,2.7-0.7,4.7
					l0,0.1c1.7,0.6,3.6,1.2,4.9,1.6c0.1-1.2-0.2-2.5-0.9-4.2l1.4-0.8c0.8,2.1,1.2,3.9,0.9,5.4c1,0.3,2.1,0.6,3.2,1L2515.7,3055.8z
					 M2512.6,3054.8c-1.2-0.4-3.4-1-5.6-1.8c-0.4,0.8-0.9,2.1-0.1,3.3c0.8,1.4,2.4,1.8,3.9,1
					C2511.8,3056.7,2512.4,3055.8,2512.6,3054.8z M2504.7,3049.7c0.5,0.9,1.3,1.3,2.2,1.6c0.8-1.4,1.2-2.5,0.6-3.5
					c-0.4-0.7-1.3-1.3-2.3-0.7C2504.2,3047.6,2504.1,3048.7,2504.7,3049.7z"/>
				<path class="st6" d="M2530.8,3046.3c-0.4,0.6-1.4,1.6-2.8,2.4c-3.4,2-7.2,1.3-9.5-2.6c-2.2-3.7-1.2-7.8,2.5-10
					c1.5-0.9,2.6-1.1,3.2-1.1l0.4,1.5c-0.8,0.1-1.7,0.3-2.7,0.9c-2.8,1.7-3.6,4.5-1.8,7.7c1.7,2.9,4.5,3.8,7.4,2.1
					c0.9-0.6,1.8-1.3,2.2-2L2530.8,3046.3z"/>
				<path class="st6" d="M2539.3,3033.7c2.4,4.1,1.2,7.8-1.8,9.6c-3.2,1.9-6.8,0.7-9-2.9c-2.2-3.8-1.3-7.7,1.9-9.6
					C2533.6,3028.9,2537.2,3030.1,2539.3,3033.7z M2530.1,3039.3c1.5,2.6,4.2,4,6.7,2.6c2.4-1.4,2.5-4.5,0.9-7.2
					c-1.4-2.4-4.1-4.1-6.7-2.6C2528.4,3033.6,2528.5,3036.7,2530.1,3039.3z"/>
				<path class="st6" d="M2539.4,3025.7l7,12l-1.5,0.9l-7-12L2539.4,3025.7z"/>
				<path class="st6" d="M2549.1,3036.1l-7-12l1.7-1l7.4,3.8c1.7,0.9,3.1,1.7,4.4,2.6l0,0c-1.1-1.5-2-2.9-3.1-4.8l-2.9-5l1.5-0.9
					l7,12l-1.6,0.9l-7.4-3.8c-1.6-0.8-3.2-1.7-4.6-2.7l0,0c1,1.5,1.9,2.9,3,4.9l3,5.1L2549.1,3036.1z"/>
				<path class="st6" d="M2559.5,3027.5c0.9,0,2.2-0.2,3.2-0.8c1.6-0.9,2-2.3,1.3-3.5c-0.7-1.1-1.7-1.4-3.7-1.1
					c-2.4,0.5-4.2,0.2-5.2-1.5c-1.1-1.9-0.4-4.2,2-5.5c1.2-0.7,2.3-1,3-1l0.3,1.5c-0.5,0-1.5,0.1-2.6,0.8c-1.6,1-1.7,2.3-1.2,3.1
					c0.7,1.1,1.7,1.2,3.7,0.9c2.5-0.4,4.1,0,5.1,1.7c1.1,1.8,0.7,4.2-2.2,5.9c-1.2,0.7-2.6,1.1-3.5,1L2559.5,3027.5z"/>
			</g>
		</g>
	</g>
</g>
<g id="fouled_anchor">
	<g>
		<rect x="2554.9" y="2861.3" transform="matrix(0.866 -0.5 0.5 0.866 -1142.2389 1695.1989)" width="74.5" height="235.4"/>
		<g>
			<path class="st5" d="M2543.4,2892.8l9.9-5.6l-1.5-2.6l-3.7,1.3l-0.6-1.1l4.5-2.2l5.6,9.9l-4.2,2.7l-0.6-1.1l3-2.5l-1.4-2.5
				l-9.9,5.6l1.1,2.3l-0.9,0.5l-3.5-6.2l0.9-0.5L2543.4,2892.8z"/>
			<path class="st5" d="M2548.3,2901.4l9.8-5.6l-0.5-1.4l0.9-0.5l2.5,4.4l-0.9,0.5l-1-1.2l-4.2,2.4l3.1,5.5l4.2-2.4l-0.5-1.4
				l0.9-0.5l2.5,4.4l-0.9,0.5l-0.9-1.1l-9.8,5.6l0.5,1.4l-0.9,0.5l-2.5-4.4l0.9-0.5l0.9,1.2l4.6-2.6l-3.1-5.5l-4.6,2.6l0.6,1.5
				l-0.9,0.5l-2.5-4.5l0.9-0.5L2548.3,2901.4z"/>
			<path class="st5" d="M2555.9,2914.7l9.8-5.6l-0.5-1.4l0.9-0.5l4.6,8.2l-2.4,1.6l-0.6-1l1.3-1.4l-2.1-3.8l-4.4,2.5l1.4,2.6
				l1.5-0.5l0.6,1l-3.7,2.1l-0.6-1l1.3-1l-1.5-2.6l-4.6,2.6l2.5,4.3l2.6-0.3l0.3,1.2l-3.1,1.1l-5.1-8.9l0.9-0.5L2555.9,2914.7z"/>
			<path class="st5" d="M2564.6,2930.1l9.8-5.6l-0.6-1.4l0.9-0.5l4.9,8.6l-2.7,1.7l-0.6-1.1l1.5-1.5l-2.2-3.9l-4.5,2.6l1.6,2.7
				l1.5-0.4l0.5,1l-3.7,2.1l-0.5-1l1.2-1.1l-1.6-2.7l-4.4,2.5l1.2,2.5l-0.9,0.5l-3.1-5.5l0.9-0.5L2564.6,2930.1z"/>
			<path class="st5" d="M2577.8,2934.6c1.2,0,2.3,0.2,3.2,0.7c1,0.5,1.7,1.3,2.3,2.4c0.6,1.1,0.9,2.2,0.9,3.2c0,1-0.4,2-1,2.9
				c-0.7,0.9-1.6,1.7-2.8,2.3c-1.2,0.7-2.4,1.1-3.6,1.1c-1.2,0.1-2.3-0.2-3.3-0.7c-1-0.5-1.8-1.3-2.4-2.4c-0.6-1.1-0.9-2.2-0.8-3.2
				c0.1-1,0.4-2,1.1-2.9c0.7-0.9,1.6-1.7,2.8-2.3C2575.4,2935,2576.6,2934.7,2577.8,2934.6z M2573,2939.6c-0.6,0.7-1,1.4-1.1,2.1
				c-0.1,0.7,0,1.4,0.4,2.1c0.4,0.7,0.9,1.1,1.6,1.4c0.7,0.3,1.5,0.3,2.4,0.1c0.9-0.2,2-0.6,3.1-1.2c1-0.6,1.8-1.2,2.4-1.9
				c0.6-0.7,1-1.4,1.1-2.1c0.1-0.7,0-1.4-0.4-2.1c-0.4-0.7-0.9-1.1-1.5-1.4c-0.7-0.3-1.4-0.3-2.3-0.2c-0.9,0.2-1.9,0.6-3.1,1.2
				C2574.4,2938.3,2573.6,2939,2573,2939.6z"/>
			<path class="st5" d="M2586.3,2945.5l-0.4-1.2l0.9-0.5l2.5,4.4l-0.9,0.5l-1-1.2l-5.9,3.4c-1.4,0.8-2.3,1.6-2.6,2.5
				c-0.3,0.9-0.2,1.8,0.3,2.7c0.5,0.9,1.3,1.4,2.2,1.5c0.9,0.1,2-0.2,3.3-0.9l6-3.4l-0.5-1.4l0.9-0.5l2.1,3.8l-0.9,0.5l-0.9-1
				l-5.9,3.4c-1.1,0.6-2.1,1-3.1,1c-0.9,0-1.8-0.2-2.5-0.6s-1.3-1.1-1.8-1.9c-0.6-1.1-0.9-2.1-1-3c0-0.9,0.2-1.7,0.8-2.5
				c0.6-0.8,1.4-1.5,2.6-2.1L2586.3,2945.5z"/>
			<path class="st5" d="M2583.6,2963.5l9.8-5.6l-0.5-1.4l0.9-0.5l2.7,4.7l-0.9,0.5l-1.1-1.4l-9.8,5.5l2.3,4l3.2-0.6l0.4,1.2
				l-3.9,1.5l-4.9-8.6l0.9-0.5L2583.6,2963.5z"/>
			<path class="st5" d="M2589.4,2973.7l9.8-5.6l-0.5-1.4l0.9-0.5l4.6,8.2l-2.4,1.6l-0.6-1l1.3-1.4l-2.1-3.8l-4.4,2.5l1.4,2.6
				l1.5-0.5l0.6,1l-3.7,2.1l-0.6-1l1.3-1l-1.5-2.6l-4.6,2.6l2.5,4.3l2.6-0.3l0.3,1.2l-3.1,1.1l-5.1-8.9l0.9-0.5L2589.4,2973.7z"/>
			<path class="st5" d="M2595.4,2984.2l9.7-5.5l-0.5-1.4l1-0.6l1.2,2.1c0.1,0.3,0.3,0.5,0.5,0.8c0.2,0.3,0.3,0.5,0.3,0.6
				c0.4,0.6,0.6,1.1,0.8,1.4c1.1,2,1.5,3.8,1.1,5.3c-0.4,1.5-1.5,2.8-3.3,3.8c-1.2,0.7-2.5,1.1-3.7,1.1c-1.2,0-2.4-0.2-3.4-0.8
				c-1-0.6-1.9-1.5-2.6-2.6c-0.2-0.3-0.4-0.7-0.8-1.3c-0.4-0.6-0.6-1.1-0.8-1.4l-1.3-2.3l0.9-0.5L2595.4,2984.2z M2596.6,2986.8
				c0.1,0.2,0.3,0.5,0.4,0.8l0.2,0.4c0.4,0.8,1,1.3,1.7,1.7c0.7,0.4,1.6,0.5,2.5,0.4c1-0.1,2-0.5,3.1-1.1c1.7-0.9,2.7-2,3.2-3.2
				c0.4-1.2,0.3-2.5-0.6-4c-0.2-0.3-0.4-0.7-0.8-1.1l-0.2-0.2l-9.9,5.6C2596.4,2986.3,2596.5,2986.6,2596.6,2986.8z"/>
			<path class="st5" d="M2604.3,3000l13.1-2.3l1.1,1.9l-8.7,10.1l0.4,1.1l-0.9,0.5l-2.4-4.3l0.9-0.5l0.9,1.2l1.9-2l-2.6-4.6
				l-2.7,0.6l0.6,1.5l-0.9,0.5l-2.2-3.9l0.9-0.5L2604.3,3000z M2611.3,3004.7l4.1-4.6l1.1-1.1l-1.5,0.4l-6,1.3L2611.3,3004.7z"/>
			<path class="st5" d="M2611.3,3012.5l9.8-5.6l-0.5-1.4l0.9-0.5l1.8,3.1l-4.7,9.7l-1.1,1.7l8.2-4.7l-0.6-1.5l0.9-0.5l2.2,3.9
				l-0.9,0.5l-0.9-1.2l-10.9,6.2l-0.7-1.3l4.8-9.9l1.4-2.4l-9,5.1l0.7,1.6l-0.9,0.5l-2.3-4l0.9-0.5L2611.3,3012.5z"/>
			<path class="st5" d="M2626.3,3019.9c1.2,0,2.3,0.3,3.3,0.9c1,0.6,1.8,1.5,2.4,2.6c0.3,0.5,0.5,1,0.7,1.5c0.2,0.5,0.4,1.1,0.6,1.8
				l0.2,0.5l-3,1.5l-0.7-1.2l1.7-1.5c0.1-0.2,0.1-0.5,0-0.9c-0.1-0.4-0.3-0.8-0.6-1.4c-0.4-0.7-0.9-1.2-1.6-1.5
				c-0.7-0.3-1.4-0.4-2.3-0.3c-0.9,0.1-1.8,0.5-2.9,1.1c-0.9,0.5-1.7,1.2-2.4,1.9c-0.6,0.7-1.1,1.5-1.2,2.3c-0.2,0.8,0,1.6,0.4,2.4
				c0.5,0.8,1,1.3,1.6,1.5l2-0.2l0.5,1.2l-2.5,1c-0.1-0.1-0.2-0.3-0.3-0.4c-0.1-0.1-0.3-0.3-0.4-0.4c-0.3-0.3-0.6-0.6-0.9-0.9
				c-0.3-0.3-0.5-0.7-0.8-1.1c-0.7-1.2-1.1-2.4-1.1-3.6c0-1.2,0.3-2.2,0.9-3.2c0.6-1,1.6-1.8,2.8-2.5
				C2623.9,3020.3,2625.1,3019.9,2626.3,3019.9z"/>
			<path class="st5" d="M2624.6,3035.8l9.8-5.6l-0.5-1.4l0.9-0.5l2.5,4.4l-0.9,0.5l-1-1.2l-4.2,2.4l3.1,5.5l4.2-2.4l-0.5-1.4
				l0.9-0.5l2.5,4.4l-0.9,0.5l-0.9-1.1l-9.8,5.6l0.5,1.4l-0.9,0.5l-2.5-4.4l0.9-0.5l0.9,1.2l4.6-2.6l-3.1-5.5l-4.6,2.6l0.6,1.5
				l-0.9,0.5l-2.5-4.5l0.9-0.5L2624.6,3035.8z"/>
			<path class="st5" d="M2639.7,3043.8c1.2,0,2.3,0.2,3.2,0.7c1,0.5,1.7,1.3,2.3,2.4c0.6,1.1,0.9,2.2,0.9,3.2c0,1-0.4,2-1,2.9
				c-0.7,0.9-1.6,1.7-2.8,2.3c-1.2,0.7-2.4,1.1-3.6,1.1c-1.2,0.1-2.3-0.2-3.3-0.7c-1-0.5-1.8-1.3-2.4-2.4c-0.6-1.1-0.9-2.2-0.8-3.2
				c0.1-1,0.4-2,1.1-2.9c0.7-0.9,1.6-1.7,2.8-2.3C2637.4,3044.2,2638.6,3043.8,2639.7,3043.8z M2634.9,3048.8
				c-0.6,0.7-1,1.4-1.1,2.1c-0.1,0.7,0,1.4,0.4,2.1c0.4,0.7,0.9,1.1,1.6,1.4c0.7,0.3,1.5,0.3,2.4,0.1c0.9-0.2,2-0.6,3.1-1.2
				c1-0.6,1.8-1.2,2.4-1.9c0.6-0.7,1-1.4,1.1-2.1c0.1-0.7,0-1.4-0.4-2.1c-0.4-0.7-0.9-1.1-1.5-1.4c-0.7-0.3-1.4-0.3-2.3-0.2
				c-0.9,0.2-1.9,0.6-3.1,1.2C2636.3,3047.5,2635.5,3048.1,2634.9,3048.8z"/>
			<path class="st5" d="M2638.8,3060.8l9.8-5.6l-0.5-1.4l0.9-0.5l1.2,2.2c0.1,0.2,0.3,0.5,0.4,0.7c0.1,0.3,0.2,0.4,0.3,0.5
				c0.3,0.5,0.5,1,0.7,1.3c0.6,1.1,1,2,1.1,2.7c0.1,0.8,0.1,1.4-0.2,2c-0.3,0.5-0.8,1-1.5,1.4c-0.5,0.3-1,0.4-1.5,0.5
				c-0.6,0.1-1.1,0-1.6-0.1c-0.5-0.2-1-0.4-1.4-0.8c0,0.3-0.1,0.6-0.2,1c-0.2,0.4-0.3,0.7-0.5,1.1c-0.2,0.4-0.5,0.8-0.8,1.4
				c-0.4,0.7-0.7,1.2-0.9,1.5c-0.2,0.4-0.2,0.6-0.2,0.8l0.2,0.7l-0.8,0.5l-1.3-2.3c-0.1-0.2,0-0.5,0.2-0.9s0.7-1,1.3-1.8
				c0.6-0.8,1.1-1.5,1.4-2.1c0.3-0.5,0.5-1,0.5-1.4c-0.6-1-1-1.7-1.1-1.9l-4.2,2.4l0.7,1.6l-0.9,0.5l-2.7-4.7l0.9-0.5L2638.8,3060.8
				z M2647.5,3062.7c0.6,0.1,1.4-0.1,2.3-0.6c0.7-0.4,1.2-0.9,1.4-1.6c0.2-0.6,0-1.4-0.5-2.3c-0.2-0.4-0.5-0.7-0.7-1l-0.2-0.2
				l-4.8,2.7c0.1,0.2,0.2,0.4,0.4,0.8l0.6,1C2646.3,3062.2,2646.8,3062.6,2647.5,3062.7z"/>
		</g>
		<g>
			<path class="st5" d="M2558.4,2947.5c-0.4-0.6-0.4-1.3-0.2-1.9c0.2-0.6,0.7-1.1,1.4-1.5c0.7-0.4,1.4-0.5,2-0.4
				c0.6,0.1,1.1,0.5,1.5,1.2c0.3,0.5,0.4,1,0.3,1.5c-0.1,0.5-0.3,0.9-0.7,1.2l-0.3-0.6c0.3-0.2,0.4-0.4,0.5-0.8c0-0.3,0-0.6-0.2-1
				c-0.3-0.5-0.6-0.7-1.1-0.8s-1,0-1.6,0.4c-0.6,0.3-1,0.7-1.1,1.2c-0.2,0.4-0.1,0.9,0.1,1.3c0.2,0.4,0.4,0.6,0.7,0.7
				c0.3,0.1,0.6,0.1,0.9,0l0.3,0.6c-0.5,0.2-1,0.3-1.4,0.1C2559.1,2948.3,2558.7,2948,2558.4,2947.5z"/>
			<path class="st5" d="M2562.2,2953.8l-0.4-0.6l1-1.1c0.2-0.2,0.3-0.4,0.3-0.7s0-0.5-0.1-0.7l-0.6-1.1l-1.9,1.1l-0.3-0.6l4.5-2.6
				l1.1,2c0.2,0.3,0.3,0.7,0.4,0.9c0.1,0.3,0,0.5-0.1,0.8s-0.3,0.5-0.6,0.6c-0.3,0.2-0.6,0.2-0.9,0.2c-0.3-0.1-0.6-0.2-0.8-0.5l0,0
				c0.1,0.4-0.1,0.8-0.4,1.2L2562.2,2953.8z M2562.8,2949.3l0.8,1.3c0.2,0.4,0.4,0.6,0.6,0.7c0.2,0.1,0.5,0.1,0.7-0.1
				c0.5-0.3,0.6-0.8,0.2-1.4l-0.8-1.4L2562.8,2949.3z"/>
			<path class="st5" d="M2564.5,2958l-1.9-3.4l4.5-2.6l1.8,3.3l-0.5,0.3l-1.5-2.7l-1.4,0.8l1.4,2.5l-0.5,0.3l-1.4-2.5l-1.5,0.9
				l1.6,2.8L2564.5,2958z"/>
			<path class="st5" d="M2567.1,2962.5l-0.4-0.7l1.1-1.3l-1.1-1.9l-1.7,0.3l-0.4-0.6l5.5-0.8l0.4,0.6L2567.1,2962.5z M2568.1,2960.1
				l1.6-2l-2.5,0.4L2568.1,2960.1z"/>
			<path class="st5" d="M2573.1,2963.9l-0.8-1.5l-4,2.2l-0.3-0.6l4-2.2l-0.8-1.5l0.5-0.3l2,3.6L2573.1,2963.9z"/>
			<path class="st5" d="M2571.4,2970.2l-1.9-3.4l4.5-2.6l1.8,3.3l-0.5,0.3l-1.5-2.7l-1.4,0.8l1.4,2.5l-0.5,0.3l-1.4-2.5l-1.5,0.9
				l1.6,2.8L2571.4,2970.2z"/>
			<path class="st5" d="M2572.3,2971.7l-0.4-0.6l0.6-0.4l0.4,0.6L2572.3,2971.7z"/>
			<path class="st5" d="M2577.1,2977.1c-0.4,0.2-0.8,0.3-1.2,0.1c-0.4-0.2-0.7-0.5-1-1.1l-1-1.7l4.5-2.6l0.9,1.6
				c0.3,0.5,0.4,0.9,0.3,1.3c0,0.4-0.3,0.7-0.6,0.9c-0.4,0.2-0.9,0.2-1.3-0.1c0.1,0.3,0.1,0.6,0,0.9
				C2577.5,2976.7,2577.3,2976.9,2577.1,2977.1z M2574.7,2974.7l0.6,1.1c0.4,0.7,0.9,0.9,1.4,0.6c0.3-0.2,0.4-0.3,0.4-0.6
				c0-0.2-0.1-0.6-0.3-1l-0.6-1L2574.7,2974.7z M2576.8,2973.6l0.6,1c0.2,0.3,0.4,0.5,0.6,0.6s0.4,0.1,0.7-0.1
				c0.2-0.1,0.3-0.3,0.4-0.5c0-0.2-0.1-0.5-0.3-0.9l-0.5-0.9L2576.8,2973.6z"/>
			<path class="st5" d="M2577.1,2980.4c-0.3-0.5-0.4-1-0.4-1.3c0.1-0.4,0.2-0.7,0.4-0.9c0.2-0.2,0.5-0.4,0.9-0.6l2.6-1.5l0.3,0.6
				l-2.6,1.5c-0.6,0.3-0.9,0.7-1,1c-0.1,0.3,0,0.6,0.2,1c0.2,0.4,0.5,0.6,0.8,0.7c0.3,0.1,0.7,0,1.3-0.4l2.6-1.5l0.3,0.6l-2.6,1.5
				c-0.5,0.3-1,0.5-1.3,0.5s-0.6-0.1-0.9-0.3C2577.6,2981.1,2577.4,2980.8,2577.1,2980.4z"/>
			<path class="st5" d="M2579.2,2983.8l-0.3-0.6l4.5-2.6l0.3,0.6L2579.2,2983.8z"/>
			<path class="st5" d="M2581.4,2987.7l-1.6-2.8l4.5-2.6l0.3,0.6l-4,2.2l1.2,2.2L2581.4,2987.7z"/>
			<path class="st5" d="M2586.3,2985.9l0.8,1.4c0.9,1.5,0.6,2.7-0.9,3.6c-1.5,0.9-2.7,0.5-3.6-1l-0.8-1.4L2586.3,2985.9z
				 M2582.6,2988.7l0.5,0.8c0.4,0.7,0.8,1,1.2,1.1c0.4,0.1,0.9-0.1,1.5-0.4c0.5-0.3,0.9-0.7,1-1.1c0.2-0.4,0.1-0.9-0.3-1.6l-0.5-0.8
				L2582.6,2988.7z"/>
			<path class="st5" d="M2584.7,2993.6l-0.4-0.6l0.6-0.4l0.4,0.6L2584.7,2993.6z"/>
			<path class="st5" d="M2586.7,2997.1l-0.3-0.6l4.5-2.6l0.3,0.6L2586.7,2997.1z"/>
			<path class="st5" d="M2589.3,3001.7l-0.3-0.6l2.2-4.4l-3.6,2l-0.3-0.6l4.5-2.6l0.3,0.6l-2.2,4.4l3.6-2l0.3,0.6L2589.3,3001.7z"/>
			<path class="st5" d="M2590.7,3004.4c-0.4-0.6-0.5-1.2-0.4-1.7c0.1-0.5,0.4-0.8,0.8-1.1l0.3,0.6c-0.3,0.2-0.5,0.5-0.5,0.8
				c0,0.3,0.1,0.7,0.3,1c0.2,0.3,0.4,0.6,0.7,0.7c0.3,0.1,0.5,0.1,0.7,0c0.2-0.1,0.4-0.3,0.4-0.6c0-0.3-0.1-0.7-0.3-1.3
				c-0.2-0.6-0.2-1-0.2-1.4c0.1-0.3,0.3-0.6,0.6-0.8c0.4-0.2,0.7-0.2,1.1-0.1c0.4,0.2,0.7,0.5,1,1c0.3,0.5,0.4,1,0.3,1.4
				c-0.1,0.4-0.3,0.8-0.7,1.1l-0.3-0.6c0.5-0.4,0.6-0.9,0.2-1.6c-0.2-0.3-0.4-0.6-0.6-0.7c-0.2-0.1-0.4-0.1-0.7,0
				c-0.2,0.1-0.3,0.3-0.3,0.5c0,0.2,0.1,0.5,0.2,1c0.1,0.5,0.2,0.8,0.3,1.1s0,0.6-0.1,0.8c-0.1,0.3-0.3,0.5-0.6,0.7
				c-0.4,0.2-0.8,0.2-1.2,0.1C2591.4,3005.2,2591,3004.9,2590.7,3004.4z"/>
			<path class="st5" d="M2596.7,3004.3l1,1.7c0.2,0.4,0.3,0.7,0.4,1c0.1,0.3,0,0.6-0.1,0.8c-0.1,0.3-0.4,0.5-0.6,0.7
				c-0.5,0.3-0.9,0.3-1.3,0.2c-0.4-0.2-0.8-0.5-1.1-1.1l-0.6-1.1l-1.8,1l-0.3-0.6L2596.7,3004.3z M2594.9,3006.1l0.6,1.1
				c0.2,0.4,0.4,0.6,0.7,0.7c0.2,0.1,0.5,0,0.8-0.1c0.2-0.1,0.3-0.2,0.4-0.4c0.1-0.2,0.1-0.3,0.1-0.5c0-0.2-0.1-0.4-0.3-0.6
				l-0.6-1.1L2594.9,3006.1z"/>
			<path class="st5" d="M2595,3011.7l-0.3-0.6l4.5-2.6l0.3,0.6L2595,3011.7z"/>
			<path class="st5" d="M2597.7,3016.6l-0.4-0.6l1-1.1c0.2-0.2,0.3-0.4,0.3-0.7c0-0.3,0-0.5-0.1-0.7l-0.6-1.1l-1.9,1.1l-0.3-0.6
				l4.5-2.6l1.1,2c0.2,0.3,0.3,0.7,0.4,0.9c0.1,0.3,0,0.5-0.1,0.8s-0.3,0.5-0.6,0.6c-0.3,0.2-0.6,0.2-0.9,0.2
				c-0.3-0.1-0.6-0.2-0.8-0.5l0,0c0.1,0.4-0.1,0.8-0.4,1.2L2597.7,3016.6z M2598.4,3012l0.8,1.3c0.2,0.4,0.4,0.6,0.6,0.7
				c0.2,0.1,0.5,0.1,0.7-0.1c0.5-0.3,0.6-0.8,0.2-1.4l-0.8-1.4L2598.4,3012z"/>
			<path class="st5" d="M2600.1,3020.7l-1.9-3.4l4.5-2.6l1.8,3.3l-0.5,0.3l-1.5-2.7l-1.4,0.8l1.4,2.5l-0.5,0.3l-1.4-2.5l-1.5,0.9
				l1.6,2.8L2600.1,3020.7z"/>
			<path class="st5" d="M2600.9,3022.2l-0.4-0.6l0.6-0.4l0.4,0.6L2600.9,3022.2z"/>
		</g>
	</g>
</g>
</svg>
