<?xml version="1.0" encoding="utf-8"?>
<!-- Generator: Adobe Illustrator 21.1.0, SVG Export Plug-In . SVG Version: 6.00 Build 0)  -->
<svg version="1.1" id="Layer_1" xmlns="http://www.w3.org/2000/svg" xmlns:xlink="http://www.w3.org/1999/xlink" x="0px" y="0px"
	 viewBox="0 0 128.2 152" style="enable-background:new 0 0 128.2 152;" xml:space="preserve">
<style type="text/css">
	.st0{fill:#75939E;}
	.st1{fill:#E8E8E8;}
	.st2{fill:#8B8B8E;}
	.st3{fill:#959878;}
	.st4{enable-background:new    ;}
	.st5{fill:none;stroke:#000000;stroke-miterlimit:10;}
</style>
<circle class="st0" cx="20.6" cy="105.7" r="6.1"/>
<circle class="st1" cx="49.5" cy="105.7" r="6.1"/>
<circle class="st2" cx="78.5" cy="105.7" r="6.1"/>
<circle class="st3" cx="107.6" cy="105.7" r="6.1"/>
<g class="st4">
	<path d="M21.2,20.1h-2v-1.2c-0.6,0.5-1.2,0.9-1.8,1.2c-0.6,0.3-1.3,0.4-2,0.4c-1.4,0-2.5-0.5-3.4-1.6c-0.8-1.1-1.2-2.6-1.2-4.5
		c0-1,0.1-1.9,0.4-2.7c0.3-0.8,0.7-1.4,1.2-2c0.5-0.5,1-0.9,1.7-1.2c0.6-0.3,1.3-0.4,2-0.4c0.6,0,1.2,0.1,1.7,0.2
		c0.5,0.1,1,0.3,1.5,0.6V3.6h2V20.1z M19.2,17.2v-6.8c-0.5-0.2-1-0.4-1.4-0.5c-0.4-0.1-0.9-0.1-1.4-0.1c-1.1,0-2,0.4-2.6,1.2
		c-0.6,0.8-0.9,1.9-0.9,3.3c0,1.4,0.2,2.5,0.7,3.2c0.5,0.7,1.2,1.1,2.3,1.1c0.6,0,1.1-0.1,1.7-0.4C18.1,17.9,18.7,17.6,19.2,17.2z"
		/>
	<path d="M35.2,14.2c0,1.9-0.5,3.4-1.5,4.6c-1,1.1-2.3,1.7-4,1.7c-1.7,0-3-0.6-4-1.7s-1.5-2.6-1.5-4.6c0-1.9,0.5-3.4,1.5-4.6
		s2.3-1.7,4-1.7c1.7,0,3,0.6,4,1.7C34.7,10.7,35.2,12.3,35.2,14.2z M33.1,14.2c0-1.5-0.3-2.7-0.9-3.4c-0.6-0.7-1.4-1.1-2.5-1.1
		c-1.1,0-1.9,0.4-2.5,1.1c-0.6,0.7-0.9,1.9-0.9,3.4c0,1.5,0.3,2.6,0.9,3.4c0.6,0.8,1.4,1.1,2.5,1.1c1.1,0,1.9-0.4,2.5-1.1
		C32.8,16.8,33.1,15.7,33.1,14.2z"/>
	<path d="M53.1,8.3L50,20.1h-1.8l-3-9.1l-3,9.1h-1.8L37.2,8.3h2.1l2.2,9.2l3-9.2H46l3,9.2l2.1-9.2H53.1z"/>
	<path d="M65.8,20.1h-2v-6.7c0-0.5,0-1.1-0.1-1.5c-0.1-0.5-0.2-0.8-0.3-1.1c-0.2-0.3-0.4-0.5-0.8-0.7c-0.3-0.1-0.8-0.2-1.3-0.2
		c-0.5,0-1.1,0.1-1.7,0.4c-0.6,0.3-1.2,0.6-1.7,1v8.8h-2V8.3h2v1.3c0.6-0.5,1.3-0.9,1.9-1.2c0.7-0.3,1.3-0.4,2-0.4
		c1.3,0,2.2,0.4,2.9,1.2s1,1.9,1,3.3V20.1z"/>
	<path d="M75.8,20c-0.4,0.1-0.8,0.2-1.2,0.2s-0.8,0.1-1.2,0.1c-1.2,0-2.1-0.3-2.8-1c-0.6-0.6-0.9-1.7-0.9-3.1V9.9h-1.3V8.3h1.3V4.9
		h2v3.4h4.1v1.7h-4.1v5.4c0,0.6,0,1.1,0,1.5c0,0.3,0.1,0.7,0.3,1c0.2,0.3,0.4,0.5,0.6,0.6c0.3,0.1,0.7,0.2,1.2,0.2
		c0.3,0,0.7,0,1-0.1c0.4-0.1,0.6-0.2,0.8-0.2h0.1V20z"/>
	<path d="M88.3,14.2c0,1.9-0.5,3.4-1.5,4.6c-1,1.1-2.3,1.7-4,1.7c-1.7,0-3-0.6-4-1.7c-1-1.1-1.5-2.6-1.5-4.6c0-1.9,0.5-3.4,1.5-4.6
		c1-1.1,2.3-1.7,4-1.7c1.7,0,3,0.6,4,1.7C87.8,10.7,88.3,12.3,88.3,14.2z M86.2,14.2c0-1.5-0.3-2.7-0.9-3.4
		c-0.6-0.7-1.4-1.1-2.5-1.1c-1.1,0-1.9,0.4-2.5,1.1c-0.6,0.7-0.9,1.9-0.9,3.4c0,1.5,0.3,2.6,0.9,3.4c0.6,0.8,1.4,1.1,2.5,1.1
		c1.1,0,1.9-0.4,2.5-1.1C85.9,16.8,86.2,15.7,86.2,14.2z"/>
	<path d="M106.2,8.3l-3.1,11.8h-1.8l-3-9.1l-3,9.1h-1.8L90.3,8.3h2.1l2.2,9.2l3-9.2h1.6l3,9.2l2.1-9.2H106.2z"/>
	<path d="M119,20.1h-2v-6.7c0-0.5,0-1.1-0.1-1.5c-0.1-0.5-0.2-0.8-0.3-1.1c-0.2-0.3-0.4-0.5-0.8-0.7c-0.3-0.1-0.8-0.2-1.3-0.2
		c-0.5,0-1.1,0.1-1.7,0.4c-0.6,0.3-1.2,0.6-1.7,1v8.8h-2V8.3h2v1.3c0.6-0.5,1.3-0.9,1.9-1.2c0.7-0.3,1.3-0.4,2-0.4
		c1.3,0,2.3,0.4,2.9,1.2s1,1.9,1,3.3V20.1z"/>
</g>
<line class="st5" x1="0.5" y1="0" x2="0.5" y2="29.9"/>
<line class="st5" x1="127.7" y1="0" x2="127.7" y2="29.9"/>
<g class="st4">
	<path d="M41.1,146.7c-0.7,0.3-1.3,0.6-1.9,0.7c-0.6,0.2-1.2,0.3-1.9,0.3c-0.9,0-1.6-0.1-2.3-0.4s-1.3-0.6-1.8-1.1
		c-0.5-0.5-0.9-1.2-1.2-1.9c-0.3-0.8-0.4-1.7-0.4-2.7c0-1.9,0.5-3.4,1.6-4.5c1.1-1.1,2.5-1.7,4.2-1.7c0.7,0,1.3,0.1,2,0.3
		c0.7,0.2,1.2,0.4,1.8,0.7v2.2H41c-0.6-0.5-1.2-0.8-1.9-1.1c-0.6-0.3-1.3-0.4-1.9-0.4c-1.1,0-2,0.4-2.7,1.1s-1,1.9-1,3.3
		c0,1.4,0.3,2.5,1,3.3c0.6,0.8,1.5,1.1,2.7,1.1c0.4,0,0.8-0.1,1.2-0.2c0.4-0.1,0.8-0.2,1.1-0.4c0.3-0.1,0.6-0.3,0.8-0.5
		s0.5-0.3,0.6-0.4h0.1V146.7z"/>
	<path d="M53.5,141.8h-8.7c0,0.7,0.1,1.4,0.3,1.9c0.2,0.5,0.5,1,0.9,1.3c0.4,0.3,0.8,0.6,1.3,0.8c0.5,0.2,1.1,0.3,1.7,0.3
		c0.8,0,1.6-0.2,2.4-0.5s1.4-0.6,1.7-0.9h0.1v2.2c-0.7,0.3-1.4,0.5-2.1,0.7c-0.7,0.2-1.4,0.3-2.2,0.3c-2,0-3.5-0.5-4.6-1.6
		c-1.1-1.1-1.6-2.6-1.6-4.5c0-1.9,0.5-3.5,1.6-4.6c1.1-1.1,2.4-1.7,4.2-1.7c1.6,0,2.8,0.5,3.7,1.4c0.9,0.9,1.3,2.3,1.3,4V141.8z
		 M51.6,140.2c0-1-0.3-1.8-0.8-2.4c-0.5-0.6-1.3-0.9-2.4-0.9c-1.1,0-1.9,0.3-2.5,0.9c-0.6,0.6-1,1.4-1.1,2.3H51.6z"/>
	<path d="M66.4,147.5h-2v-6.7c0-0.5,0-1.1-0.1-1.5c-0.1-0.5-0.2-0.8-0.3-1.1c-0.2-0.3-0.4-0.5-0.8-0.7c-0.3-0.1-0.8-0.2-1.3-0.2
		c-0.5,0-1.1,0.1-1.7,0.4c-0.6,0.3-1.2,0.6-1.7,1v8.8h-2v-11.8h2v1.3c0.6-0.5,1.3-0.9,1.9-1.2c0.7-0.3,1.3-0.4,2-0.4
		c1.3,0,2.2,0.4,2.9,1.2c0.7,0.8,1,1.9,1,3.3V147.5z"/>
	<path d="M76.4,147.4c-0.4,0.1-0.8,0.2-1.2,0.2c-0.4,0.1-0.8,0.1-1.2,0.1c-1.2,0-2.1-0.3-2.8-1c-0.6-0.7-0.9-1.7-0.9-3.1v-6.3h-1.3
		v-1.7h1.3v-3.4h2v3.4h4.1v1.7h-4.1v5.4c0,0.6,0,1.1,0,1.5c0,0.3,0.1,0.7,0.3,1c0.2,0.3,0.4,0.5,0.6,0.6s0.7,0.2,1.2,0.2
		c0.3,0,0.7,0,1-0.1s0.6-0.2,0.8-0.2h0.1V147.4z"/>
	<path d="M88.7,141.8H80c0,0.7,0.1,1.4,0.3,1.9c0.2,0.5,0.5,1,0.9,1.3c0.4,0.3,0.8,0.6,1.3,0.8c0.5,0.2,1.1,0.3,1.7,0.3
		c0.8,0,1.6-0.2,2.4-0.5s1.4-0.6,1.7-0.9h0.1v2.2c-0.7,0.3-1.4,0.5-2.1,0.7c-0.7,0.2-1.4,0.3-2.2,0.3c-2,0-3.5-0.5-4.6-1.6
		c-1.1-1.1-1.6-2.6-1.6-4.5c0-1.9,0.5-3.5,1.6-4.6c1.1-1.1,2.4-1.7,4.2-1.7c1.6,0,2.8,0.5,3.7,1.4c0.9,0.9,1.3,2.3,1.3,4V141.8z
		 M86.7,140.2c0-1-0.3-1.8-0.8-2.4c-0.5-0.6-1.3-0.9-2.4-0.9c-1.1,0-1.9,0.3-2.5,0.9c-0.6,0.6-1,1.4-1.1,2.3H86.7z"/>
	<path d="M99.1,137.8h-0.1c-0.3-0.1-0.6-0.1-0.9-0.2c-0.3,0-0.6,0-1,0c-0.6,0-1.2,0.1-1.8,0.4s-1.1,0.6-1.7,1.1v8.4h-2v-11.8h2v1.7
		c0.8-0.6,1.5-1.1,2.1-1.3c0.6-0.3,1.2-0.4,1.8-0.4c0.3,0,0.6,0,0.8,0s0.4,0.1,0.7,0.1V137.8z"/>
</g>
<g>
	<path d="M84.5,74c-2.5-0.6-4.9-0.8-7.4-0.8c-1.2,0-2.4,0.1-3.4-0.6c-0.8-0.5-1.1-1.2-0.8-2.2c0.2-1,0.8-1.4,1.8-1.1
		c0.6,0.1,1.3,0.4,1.9,0.5c4.5,0.5,7.7-0.8,9.3-3.5c1.1-1.8,1.4-4.2,0.8-7.2c-0.3-1.3-0.1-1.8,0.7-2c0.2-0.1,0.5-0.1,0.8-0.1
		c1,0,1.6-0.6,1.6-1.5c-0.1-1.3-1.1-1.4-2.1-1.6c-1.7-0.3-3.5,0.4-5.2-0.1c-0.1,0-0.1,0-0.2-0.1c-0.6-0.2-1.3-0.3-2-0.3
		c-1.3-0.1-2.5-0.1-3.7,0.2c-0.7,0.1-1.4,0.3-2,0.6c-1.4,0.8-2.5,1.5-3.3,2.3c-0.1,0.1-0.2,0.2-0.3,0.3c-0.1,0.1-0.3,0.3-0.4,0.5
		c-0.1,0.1-0.1,0.2-0.2,0.2c-1.3,1.9-1.2,4.2-0.2,7.8c0,0.1,0,0.1,0,0.2c0.3,1.2,0.2,2.1-0.4,3.1c-1,1.7-1.5,3.7-0.3,5.2
		c1.3,1.8,0.6,2.8-0.3,4.3c-2,3.2-1.4,6,1.3,7.9c4.1,2.8,12.9,2.5,16.6-0.7c2.1-1.8,2.9-4,2.4-6.7C88.7,75.9,87,74.6,84.5,74z
		 M73.9,59c0.8-1.4,2.4-2.3,4.4-2.2c0.6,0,1.1,0.1,1.6,0.2l0,0c2.1,0.6,3.2,2.2,3.1,4.9c-0.1,3-2.1,4.9-5,4.8s-4.9-2.2-4.8-5.2
		C73.3,60.5,73.5,59.7,73.9,59L73.9,59z M83.6,83.1c-1.6,1.1-3.4,1.2-5.5,1.3c-0.8-0.1-1.8-0.1-2.7-0.3C73.7,83.7,72.2,83,72,81
		c-0.2-1.8,1.6-4,3.5-4.1c2.3-0.1,4.6,0,6.9,0.3c1.4,0.1,2.4,1,2.6,2.6C85.2,81.1,84.7,82.3,83.6,83.1z"/>
	<path d="M63.6,61.5c-1.2-4.8-4.6-7.6-9.6-8C48.3,53,43.6,55.7,41.9,61c-0.5,1.4-0.8,3-0.9,4.7v0.1c-0.1,1.7,0.1,3.4,0.5,5.1
		c1.2,4.8,4.6,7.6,9.6,8c5.7,0.5,10.4-2.2,12.1-7.5c0.4-1.2,0.7-2.6,0.8-4.1c0-0.1,0-0.1,0-0.2c0-0.2,0-0.3,0-0.5
		C64.2,64.8,64,63.2,63.6,61.5z M58.9,70.7c-1,3-3.3,4.5-6.5,4.5S47,73.7,46,70.6c-0.6-1.8-0.8-3.6-0.7-5.4c0-0.7,0.1-1.3,0.3-2
		c0.9-4.3,3.1-6.3,7-6.3c4,0,6,2,6.8,6.4c0,0.3,0.1,0.5,0.1,0.8v0.1c0,0.1,0,0.2,0,0.3c0,0.1,0,0.2,0,0.4c0,0.4,0.1,0.8,0.1,1.2
		c0,0.1,0,0.2-0.1,0.3C59.5,67.8,59.4,69.3,58.9,70.7z"/>
	<path d="M111.8,64c0.1-1.8,0.1-3.9-0.7-5.5c-0.6-1.3-1.7-2.5-2.9-3.4c-2.8-2-6.8-2.3-10-1.3c-1.4,0.4-3.4,1.2-4.1,2.6
		c-0.6,1.3,0.5,2.8,1.8,2.1c1.7-0.8,3.2-1.6,5.1-1.7c1.7-0.1,3.7-0.1,5,1.2c1.2,1.2,2,3.3,1.4,5c-0.4,1.3-1.6,1.1-2.7,1
		c-3.3-0.3-7.8,0.5-10.2,2.9c-2,2.1-2.3,5.7-0.9,8.2c1.6,3,5.5,4.2,8.6,3.5c1.1-0.2,2.2-0.7,3.1-1.3c0.6-0.3,1.1-0.8,1.8-0.7
		c1.3,0.2,2.3,2.7,3.8,1.3c0.7-0.6,0.7-1.6,0.8-2.5c0-1.3,0-2.6,0-3.9C111.7,69.1,111.7,66.6,111.8,64z M107,72.4
		c-1.2,2.3-5,3.8-7.4,2.8c-2.5-1-3.5-3.9-1.8-6.1c1.5-2,4.3-2.1,6.5-2.1c1.2,0,2.4-0.3,3,1C108.1,69.4,107.8,71,107,72.4z"/>
	<path d="M37.9,55.5c-0.2,0.7-0.5,1.6-0.8,2.5c-3.1,8.6-6.2,17.2-9.3,25.7c-0.6,1.7-0.9,3.6-3.3,3.9c-1.6,0.2-2.8-0.9-1.9-2.2
		c3.2-5.2,1.7-10-0.5-15c-2-4.5-3.5-9.3-5.2-14c-0.3-0.8-1.2-1.9,0.3-2.5c1.1-0.5,2.4-0.5,3.2,0.5c0.7,0.9,1.1,2,1.5,3.1
		c1.6,4.4,3.1,8.7,4.8,13.1c0.1,0.4,0.6,0.7,0.8,1c0.3-0.4,0.7-0.7,0.9-1.1c1.6-4.7,3.2-9.4,4.8-14.1c0.5-1.5,1.1-2.9,3-2.7
		C37.1,53.9,37.9,54.1,37.9,55.5z"/>
</g>
</svg>
