<?xml version="1.0" encoding="utf-8"?>
<!-- Generator: Adobe Illustrator 21.0.2, SVG Export Plug-In . SVG Version: 6.00 Build 0)  -->
<svg version="1.1" id="Layer_1" xmlns="http://www.w3.org/2000/svg" xmlns:xlink="http://www.w3.org/1999/xlink" x="0px" y="0px"
	 viewBox="0 0 537 498" style="enable-background:new 0 0 537 498;" xml:space="preserve">
<style type="text/css">
	.st0{fill:#0D9BF5;}
</style>
<g>
	<path class="st0" d="M507,499c-146.3,0-292.7,0-439,0c-0.1-1.2-1.2-1-1.9-1.2c-16.6-4.7-28.2-20-28.2-40.9
		c0.1-83.1,0.1-166.3,0-249.4c0-55.7,0-111.3,0-167c0-11.4,4.1-21.2,12.2-29.4C55.3,6.1,62,4.2,68,1c146.7,0,293.3,0,440,0
		c0.3,0.3,0.6,0.8,0.9,0.9c14.4,4.4,24.2,13.2,27.4,28.4c0.2,0.8,0.7,1.5,1.6,1.7c0,145.3,0,290.7,0,436c-1.7,0.3-1.7,1.7-2,3
		c-2.3,9.3-7.6,16.6-15.6,22C516.3,495.7,511.4,496.8,507,499z M233.5,188.2c0,79.1,0,157.8,0,236.4c24.5,0,48.6,0,73.2,0
		c0-2.1,0-3.9,0-5.7c0-30.3-0.1-60.7,0.1-91c0.1-14.3-1-28.6,1.2-42.9c1.5-9.9,4.4-19.2,11.3-26.8c9.7-10.6,22.5-12.1,35.9-11.5
		c15.9,0.7,25.3,9.3,30.3,23.8c3.1,9.1,3.7,18.5,3.7,27.9c0.1,40.2,0,80.3,0.1,120.5c0,1.8-0.5,3.7,0.6,5.6c24.1,0,48.4,0,73.1,0
		c0-2,0-3.8,0-5.6c0-45.7,0.1-91.3-0.1-137c-0.1-17-2.5-33.7-7.9-50c-7-20.7-19.9-35.8-40.5-43.6c-15.6-5.9-32-7.5-48.4-6
		c-20.7,1.9-38.8,10.2-52.8,26c-3.1,3.5-5.7,7.4-9.4,12.4c0-11.8,0-22.1,0-32.6C280.1,188.2,256.9,188.2,233.5,188.2z M113.2,424.6
		c24.7,0,48.9,0,73.2,0c0-79,0-157.7,0-236.2c-24.6,0-48.9,0-73.2,0C113.2,267.2,113.2,345.6,113.2,424.6z M149,155
		c24.6,1.7,44.1-21,44-42.5c-0.1-23.6-22-42.8-42.6-42.7c-21.9,0.2-42.9,17.6-43.2,43.1C107,134.9,127.2,156.3,149,155z"/>
</g>
</svg>
