<?xml version="1.0" encoding="utf-8"?>
<!-- Generator: Adobe Illustrator 21.1.0, SVG Export Plug-In . SVG Version: 6.00 Build 0)  -->
<svg version="1.1" id="Layer_1" xmlns="http://www.w3.org/2000/svg" xmlns:xlink="http://www.w3.org/1999/xlink" x="0px" y="0px"
	 viewBox="0 0 536.3 368.8" style="enable-background:new 0 0 536.3 368.8;" xml:space="preserve">
<style type="text/css">
	.st0{fill:#0D9CF6;}
</style>
<path class="st0" d="M306,336.5l-21.7,16.2l-4.5-6.1l-14.9,11.1c-0.7,0.5-1.3,1-2,1.4c-20.4,13.6-54.3,14-69.2-6L7.3,102.8
	C-7.6,82.9,2,50,21,34.3c0.6-0.5,1.3-1,1.9-1.5l14.9-11.1l-4.1-5.5L55.4,0l57.5,77.2L91.1,93.3l-4.9-6.6c-8.9,6.7-13,16.3-9.1,21.6
	c-0.2,0.2-0.4,0.3-0.6,0.5l0,0l0.6-0.5l25.7,34.5l-6.2,15.3l70.6,94.8l15.8-2.3l24.9,33.4l-0.6,0.5l0,0c0.2-0.2,0.4-0.3,0.6-0.5
	c3.9,5.2,14.4,4.1,23.3-2.6l-4.4-5.9l21.7-16.2L306,336.5z"/>
<g>
	<path class="st0" d="M480.2,246.8l-7.8,78.2h-45.1l8-78.2H382l-7.8,78.2h-45.1l8-78.2h-40.5v-42.1h44.6l6.7-66h-39.1V96.6H352
		l7.4-72.2h45.1l-7.4,72.2h53.1l7.4-72.2h45.1l-7.4,72.2h40.9v42.1h-45.1l-6.7,66H524v42.1L480.2,246.8L480.2,246.8z M446.2,138.7
		h-53.1l-6.7,66h53.1L446.2,138.7z"/>
</g>
</svg>
