<?xml version="1.0" encoding="utf-8"?>
<!-- Generator: Adobe Illustrator 21.1.0, SVG Export Plug-In . SVG Version: 6.00 Build 0)  -->
<svg version="1.1" id="Layer_1" xmlns="http://www.w3.org/2000/svg" xmlns:xlink="http://www.w3.org/1999/xlink" x="0px" y="0px"
	 viewBox="0 0 256 256" style="enable-background:new 0 0 256 256;" xml:space="preserve">
<style type="text/css">
	.st0{fill:#0E9CF5;}
</style>
<g>
	<g>
		<polygon class="st0" points="73.7,221.6 44.2,210.9 44.2,167.5 73.7,177.6 		"/>
		<polygon class="st0" points="79.2,221.6 108.8,210.9 108.8,167.5 79.2,177.6 		"/>
		<polygon class="st0" points="47.2,164.2 77.2,155.8 104.9,164.8 77.2,174.1 		"/>
	</g>
	<g>
		<polygon class="st0" points="38.5,160.9 8.8,150.2 8.8,106.8 38.5,116.8 		"/>
		<polygon class="st0" points="43.9,160.9 73.6,150.2 73.6,106.8 43.9,116.8 		"/>
		<polygon class="st0" points="11.9,103.6 41.8,95.1 69.7,104.1 41.8,113.5 		"/>
	</g>
	<g>
		<polygon class="st0" points="107.6,160.9 77.9,150.2 77.9,106.8 107.6,116.8 		"/>
		<polygon class="st0" points="113,160.9 142.7,150.2 142.7,106.8 113,116.8 		"/>
		<polygon class="st0" points="81,103.6 111.1,95.1 138.9,104.1 111.1,113.5 		"/>
	</g>
	<g>
		<polygon class="st0" points="143,100.1 113.3,89.6 113.3,46.1 143,56.2 		"/>
		<polygon class="st0" points="148.4,100.1 178.1,89.6 178.1,46.1 148.4,56.2 		"/>
		<polygon class="st0" points="116.4,42.8 146.3,34.4 174.2,43.3 146.3,52.8 		"/>
	</g>
	<g>
		<polygon class="st0" points="212.1,100.1 182.4,89.6 182.4,46.1 212.1,56.2 		"/>
		<polygon class="st0" points="217.5,100.1 247.2,89.6 247.2,46.1 217.5,56.2 		"/>
		<polygon class="st0" points="185.5,42.8 215.4,34.4 243.3,43.3 215.4,52.8 		"/>
	</g>
</g>
</svg>
