<?xml version="1.0" encoding="utf-8"?>
<!-- Generator: Adobe Illustrator 21.0.2, SVG Export Plug-In . SVG Version: 6.00 Build 0)  -->
<svg version="1.1" id="Layer_1" xmlns="http://www.w3.org/2000/svg" xmlns:xlink="http://www.w3.org/1999/xlink" x="0px" y="0px"
	 viewBox="0 0 279 279" style="enable-background:new 0 0 279 279;" xml:space="preserve">
<style type="text/css">
	.st0{fill:#0E9CF5;}
</style>
<g>
	<path class="st0" d="M196,1c0,3.6,0,7.3,0,10.9c-4.8,1.4-9.5-0.1-14.8,1.3c5.5,6.1,10.6,11.7,15.5,17.2c0.1,3,0.4,5.8-0.3,9
		c-11.5,0-23.1,0-35,0c-0.8-3.2-0.3-6.5-0.3-10.4c5.1,0,10.1,0,16.7,0c-6.3-6.9-11.5-12.7-16.9-18.7c0-3.1,0-6.3,0-9.4
		C172.7,1,184.3,1,196,1z"/>
	<path class="st0" d="M155,1c-1.8,3.4-0.3,7.2-1.2,11.3c-4.3,0-8.7,0-14.5,0c6,6.7,11.1,12.4,16.2,17.9c0.3,3.2,0.4,6.1-0.2,9.3
		c-11.7,0-23.1,0-34.7,0c-1-3.4-0.3-6.8-0.4-10.6c5.3,0,10.2,0,16.5,0c-6-6.6-11.1-12.3-16.6-18.4c0-2.9,0-6.2,0-9.5
		C131.7,1,143.3,1,155,1z"/>
	<path class="st0" d="M114,1c0,3.8,0,7.6,0,11.8c-5.6,0-11,0-16.6,0c-1,5.2-0.2,9.9-0.6,15.1c5.8,0,11.2,0,16.7,0
		c1.3,4,0.7,7.5,0.6,11.5c-10,0-19.9,0-30.1,0c0-12.9,0-25.7,0-38.4C94,1,104,1,114,1z"/>
	<path class="st0" d="M59.8,256.8c-5.9-66.5-11.9-133.3-17.8-200.4c65.5,0,130.6,0,196.5,0c-6,66.9-11.9,133.6-17.9,200.7
		c-10.3,2.9-20.5,5.8-30.7,8.7c-15.4,4.3-30.7,8.5-46.1,12.8c-2.1,0.6-4.2,0.9-6.4,0.3c-25.1-7-50.2-14-75.4-21
		C61.4,257.7,60.9,257.3,59.8,256.8z M190.7,220.7c3.7-41.8,7.4-83.1,11.1-124.5c-40.9,0-81.8,0-123.2,0c1.7,8.2,0.5,16.1,3,24.1
		c31.3,0,62.2,0,93.2,0c-0.7,8.4-1.4,16.4-2.1,24.7c-20.6,0-40.9,0-62,0c1.9,8.4,0.8,16.7,3.1,25.2c18.7,0,37.4,0,56.3,0
		c0.5,10.8-2.5,20.9-2.1,31.2c-3.8,1.2-7.1,2.4-10.6,3.3c-5.9,1.5-11.9,4.5-17.6,3.9c-8.9-0.9-17.6-4.3-25.6-6.4
		c-3.2-6.7-1.3-13.3-2.6-19.9c-8.3,0-16.2,0-24.4,0c-0.1,1-0.1,1.8-0.1,2.6c0,10.3,2.3,20.4,2.1,30.6c-0.1,4,2.3,6.2,6.3,7.3
		c10.9,2.8,21.8,5.6,32.5,9c6.4,2,12.8,4.2,20,1.4c7.7-3.1,15.9-4.9,24-7C178.3,224.6,184.8,223.1,190.7,220.7z"/>
</g>
</svg>
