<?xml version="1.0" encoding="utf-8"?>
<!-- Generator: Adobe Illustrator 21.0.2, SVG Export Plug-In . SVG Version: 6.00 Build 0)  -->
<svg version="1.1" id="Layer_1" xmlns="http://www.w3.org/2000/svg" xmlns:xlink="http://www.w3.org/1999/xlink" x="0px" y="0px"
	 viewBox="0 0 350.8 350.8" style="enable-background:new 0 0 350.8 350.8;" xml:space="preserve">
<style type="text/css">
	.st0{fill:#0E9BF4;}
</style>
<g>
	<path class="st0" d="M0.4,165.7c1.4-4.1,1.3-8.4,1.9-12.6c4-27.4,14.4-52.3,30.4-74.7C57.2,44.3,90,21.8,130.4,10.5
		c8.8-2.5,17.9-3.9,27.1-4.7c8.8-0.8,17.5-1.4,26.2-0.9c50,2.7,91.7,22.8,124.8,60.3c20.7,23.4,33.8,50.8,39.8,81.5
		c1.5,7.9,2.2,16,2.4,24.1c0.3,8.6,0.6,17.2-0.1,25.9c-2,23.1-8.3,44.8-19.2,65.2c-12.4,23.2-29.1,43-50.1,59
		c-15.1,11.4-31.7,20-49.7,25.9c-6.4,2.1-11.1-0.9-12.2-7.5c-0.2-1.3-0.2-2.7-0.3-4.1c0-15.9,0-31.7-0.1-47.6
		c-0.1-11.2-2.9-21.4-11.6-29.7c7.1-1.4,13.8-2,20.3-3.6c18-4.6,34-12.4,45.2-27.8c6.6-9.2,10.1-19.8,12.3-30.8
		c1.7-8.5,2.3-17.1,2.2-25.8c-0.3-16-5.2-30.4-15.6-42.7c-0.8-1-1.5-2-2.4-3c6-15.8,4.1-31.2-1.9-46.4c-5.2-0.8-10-0.2-14.7,1.4
		c-11.8,4-22.8,9.7-33.2,16.8c-29.2-7.9-58.5-7.9-87.6-0.1c-15.1-9-29.8-18.2-48.2-18.6c-6.2,15.6-7.9,31-1.9,47
		c-3.1,3.9-6.4,7.8-9,12.2c-5.8,10.1-8.7,20.9-8.9,32.5c-0.4,18.6,2.5,36.5,11.6,53c8,14.6,21.2,22.9,36.1,28.8
		c8.8,3.5,18.1,5.2,27.5,6.3c1.4,0.2,2.7,0.5,4.6,0.9c-6.6,6.6-9.9,14.6-11,23.2c-19.2,8.6-38.7,7.1-50.2-12.6
		c-5.2-8.9-12.4-15.4-22.3-18.5c-3.4-1.1-6.8-1.7-10.4-0.7c-1.3,0.4-2.3,0.9-3,2.1c1.1,3.3,3.4,5.8,6.2,7.4
		c9.1,5.2,14.3,13.6,18.5,22.7c2.5,5.5,4.6,11.1,9.2,15.4c6.1,5.6,13.3,8.4,21.5,9.5c9.9,1.2,19.7,1.3,29.5-0.6
		c1.1,1,0.7,2.3,0.7,3.3c0.1,9.2,0.1,18.5,0.2,27.7c0,8.6-5.7,12.5-13.9,9.7c-33.8-11.7-61.4-31.9-83-60.4
		c-14.8-19.6-25.2-41.2-30.9-65.1c-1.9-8-3.2-16-3.7-24.2c0-0.6,0-1.1-0.7-1.4C0.4,185.3,0.4,175.5,0.4,165.7z"/>
</g>
</svg>
