<?xml version="1.0" encoding="utf-8"?>
<!-- Generator: Adobe Illustrator 21.0.2, SVG Export Plug-In . SVG Version: 6.00 Build 0)  -->
<svg version="1.1" id="Layer_1" xmlns="http://www.w3.org/2000/svg" xmlns:xlink="http://www.w3.org/1999/xlink" x="0px" y="0px"
	 viewBox="0 0 512 512" style="enable-background:new 0 0 512 512;" xml:space="preserve">
<style type="text/css">
	.st0{fill:#0E9BF5;}
	.st1{fill:#0E9BF3;}
	.st2{fill:#0E9BF4;}
	.st3{fill:#0F9BF3;}
	.st4{fill:#1984C8;}
	.st5{fill:#1B85C8;}
</style>
<g>
	<path class="st0" d="M254,513c-12.3-4.6-25.1-7.4-37.6-11c-35-9.9-70.1-19.5-105.2-29.2c-0.8-0.2-1.5-0.6-2.7-1
		c-11-123.2-22-246.4-33-370.1c121,0,241.7,0,363.1,0c-11,123.2-22,246.4-33,369.8c-4.3,2.3-9.1,3-13.7,4.3
		c-43.7,12.2-87.4,24.2-131.1,36.3c-0.6,0.2-1.2,0.6-1.7,0.9C257.3,513,255.7,513,254,513z M366.6,222.9c1.4-15.4,2.8-30.4,4.2-45.6
		c-76,0-151.7,0-227.9,0c4.1,46,8.2,91.7,12.4,137.9c52.3,0,104.4,0,157,0c-1.6,19.7-3.2,38.9-4.8,58.2c-17.4,4.7-34.5,9.3-51,13.7
		c-17.1-4.7-33.6-9.2-50.3-13.7c-1.1-12.2-2.1-24.1-3.1-36c-15.7,0-30.8,0-45.9,0c2.1,23.7,4.1,47.1,6.1,70.6
		c1.2,1.1,2.7,1.7,4.3,2.1c25.7,7.1,51.5,14.3,77.2,21.4c4.7,1.3,9.3,3.7,14.4,2.4c6.2-1.5,12.4-3.2,18.5-4.9
		c23.9-6.7,47.9-13.5,72.3-20.3c4.1-46.3,8.3-92.7,12.5-139.6c-55.7,0-110.4,0-165.1,0c-2.2-15.5-3.2-30.6-4.3-46.2
		C251.4,222.9,309,222.9,366.6,222.9z"/>
	<path class="st1" d="M314,38.1c-4.8,7.5-9.5,15.1-14.7,23.3c-5.2-7.8-9.9-15-14.6-22.3c-0.3,0.1-0.7,0.2-1,0.3
		c0,10.2,0,20.3,0,30.8c-8.1,0-15.7,0-23.6,0c0-23.3,0-46.3,0-69.2c8.3,0,16.7,0,25,0c4.7,7.7,9.4,15.4,14.5,23.6
		C303.9,16.2,309.7,9.3,313,1c8.7,0,17.3,0,26,0c-0.9,11.8-0.3,23.6-0.4,35.4c-0.1,11.1,0,22.2,0,34.1c-7.8,0.1-15.2,0.6-22.6-0.3
		c0-11.1,0-22.3,0-34.7C314.7,37.1,314.4,37.6,314,38.1z"/>
	<path class="st2" d="M175.8,70.1c-7.3,0-14.6,0-22.6,0c0-7.6,0-15.1,0-22.9c-7.1,0-13.5,0-20.4,0c0,7.6,0,15.1,0,22.9
		c-7.9,0-15.3,0-22.7,0c-0.1-23-0.1-46.1-0.2-69.1c7.7,0,15.3,0,23,0c0,7.4,0,14.8,0,22.3c7,0,13.4,0,20,0c0-7.7,0-15,0-22.3
		c7.7,0,15.3,0,23,0C175.9,24,175.9,47.1,175.8,70.1z"/>
	<path class="st2" d="M251,1c0,7.5,0,14.9,0,22.8c-6.9,0-13.3,0-20.5,0c0,15.6,0,30.8,0,46.3c-8.1,0-15.6,0-23.7,0
		c0-15.1,0-30.3,0-45.9c-7.1,0-13.6,0-20.8,0c0-8,0-15.6,0-23.2C207.7,1,229.3,1,251,1z"/>
	<path class="st3" d="M373,1c0,15.1,0,30.2,0,45.9c11,0,21.7,0,32.7,0c0,8,0,15.4,0,23.3c-18.8,0-37.5,0-56.7,0
		c0-23.3,0-46.2,0-69.2C357,1,365,1,373,1z"/>
	<path class="st4" d="M110,1c0.1,23,0.1,46.1,0.2,69.1c-2.2-1.2-1.1-3.3-1.1-4.9C109,43.8,109,22.4,109,1C109.3,1,109.7,1,110,1z"/>
	<path class="st4" d="M175.8,70.1c0.1-23,0.1-46.1,0.2-69.1c0.3,0,0.7,0,1,0c0,21.4,0,42.8-0.1,64.2
		C176.9,66.8,178.1,68.9,175.8,70.1z"/>
	<path class="st5" d="M314,38.1c0.4-0.5,0.8-1,2-2.7c0,12.5,0,23.6,0,34.7c-1.9-1.1-1-3-1-4.5c-0.1-7.7,0-15.5-0.1-23.2
		C314.9,41,315.9,39.2,314,38.1z"/>
</g>
</svg>
