<?xml version="1.0" encoding="utf-8"?>
<!-- Generator: Adobe Illustrator 21.0.2, SVG Export Plug-In . SVG Version: 6.00 Build 0)  -->
<svg version="1.1" id="Layer_1" xmlns="http://www.w3.org/2000/svg" xmlns:xlink="http://www.w3.org/1999/xlink" x="0px" y="0px"
	 viewBox="0 0 451 451" style="enable-background:new 0 0 451 451;" xml:space="preserve">
<style type="text/css">
	.st0{fill:#149CF4;}
	.st1{fill:#149BF1;}
	.st2{fill:#139BF2;}
	.st3{fill:#129CF4;}
	.st4{fill:#119CF4;}
	.st5{fill:#159CF3;}
</style>
<g>
	<path class="st0" d="M368,388.2c3.8,3,4.2,6.4,0.7,10c-4,4.2-9.2,6.5-14.5,8.6c-14.5,5.7-29.6,9.2-44.8,11.9
		c-48.9,8.6-98.1,12.6-147.7,9c-28.6-2-57.1-5-85-11.9c-4-1-8-2.4-11.7-4.2c-7.7-3.8-8.1-8.7-1.5-14c0.6-0.5,1.3-1.1,2-1.5
		c14.3-9,29.6-15.9,46.2-19.4c4.2-0.9,4.6-0.7,8.6,1.6c-3.4,10-15.5,12.1-20.1,21c2.2,4.5,6.6,4.7,10.3,5.5
		c20.1,4.2,40.4,6.9,60.9,7.4c50.2,1.3,100.2-1.3,150-8.4c8.2-1.2,16.3-3.1,24.4-5c5.4-1.2,10.4-3.3,14.7-7
		C362.8,390,365.1,388.5,368,388.2z"/>
	<path class="st1" d="M283.9,3.9c6.3,36.4-8.6,65.4-31.4,91.7c-9.4,10.9-20.3,20.2-31.5,29.2c-5.3,4.3-10.1,9.2-14.4,14.5
		c-11.9,14.5-14.6,30.5-8.2,48.2c3.3,9.1,8.1,17.5,13.2,25.8c4.3,7,8.5,14,12,21.4c1.1,2.3,2.6,4.6,2,7.7c-2.7,0.2-4.2-1.4-5.7-2.8
		c-15.9-15.2-30.9-31.2-43.4-49.5c-9.8-14.5-9.5-28.9,0-43.4c10.5-16.2,24.2-29.7,37.2-43.7c14.8-15.9,29.1-32.1,42.4-49.2
		c10.3-13.2,19.4-27.1,24.7-43.1c0.7-2.2,1.8-4.3,2.7-6.4C283.6,4,283.8,3.9,283.9,3.9z"/>
	<path class="st2" d="M316.1,95.6c-0.5,2.9-2.6,4.2-4.4,5.5c-9.6,7.2-19.3,14.2-28.8,21.5c-7,5.4-13.5,11.3-18.4,18.8
		c-5.3,8.1-6.7,16.9-4.9,26.3c1.9,10.1,6.5,19.2,11.3,28.2c6.4,12.1,8.4,24.8,5.1,38.2c-1.4,5.6-3.9,10.6-8.2,14.6
		c-3.2,2.9-6.9,4.6-11.3,4.5c-4.7-0.1-7-3.1-5-7.3c2.8-6,1.7-11.7,0.1-17.5c-2.4-8.4-6.4-16-10.6-23.6c-9.5-17.1-13.6-35-6.8-54.2
		c4.9-13.8,14.3-24.3,26.1-32.7c15.3-11,32.6-17.8,50.8-22.5C312.5,95,314.2,94.6,316.1,95.6z"/>
	<path class="st3" d="M99.1,270.2c5.3-12.6,50.4-31.4,58.4-24.2c-0.5,5-4.5,7.7-7.8,10.9c-3.2,3.2-7.8,5.2-9.3,10.2
		c2,2.5,4.8,2.7,7.6,3c19.7,1.8,39.3,0.1,58.9-0.6c30.6-1.1,61.3-2.6,91.9-0.4c3.7,0.3,6.2,1.1,9.1,2.9c-2.4,2.8-5.8,3.3-8.8,4
		c-18.8,4.4-38.1,6.2-57.3,7.9c-21.6,2-43.2,2.8-64.8,3.6c-23.6,1-46.5-2.5-68.6-10.7C104.8,275.5,100.7,274.4,99.1,270.2z"/>
	<path class="st4" d="M295.1,366c0.2,4.6-2.9,6.7-6,8.6c-5.3,3.2-11.3,4.9-17.4,6.1c-33.2,6.3-66.2,6.2-99.1-1.8
		c-7.8-1.9-15.3-4.7-21.5-10.1c-2.2-2-4.8-4.2-3.8-7.6c0.9-3.2,4-3.7,6.8-4.2c15.5-2.8,31.2-2.8,46.8-2.5c23,0.5,45.9,1.5,68.7,4.5
		c6.4,0.8,12.9,1.8,19.1,3.6C291,363.2,293.3,363.7,295.1,366z"/>
	<path class="st3" d="M135.6,303.8c3.3-2.8,7.1-1.3,10.4-0.3c31.8,9.9,64.5,8.5,97.1,8c17-0.3,34-1.3,50.8,1.5
		c2.6,0.4,5.3,0.9,6.9,3.6c-1.3,4-5,5.1-8.3,6.4c-10.6,4.2-21.8,6-33,7.5c-26,3.5-52,5.3-78.2,3.4c-14.6-1-28.2-4.7-39.5-14.7
		c-3.1-2.8-6-5.8-6.8-10.2C134.6,307.5,134.2,305.9,135.6,303.8z"/>
	<path class="st5" d="M149.1,443.3c6.4-3.6,13.3-3.5,20-4.2c27.4-2.7,54.9-1.7,82.4-3.1c30.6-1.6,61.2-3.3,91.2-10
		c11-2.4,21.8-6.1,33.1-7.4c4.1-0.5,8.5-1.7,12.4,1.1c0.1,3.7-2.7,4.7-4.9,6c-12.9,7.7-27,11.9-41.8,14.2
		c-50.2,7.6-100.7,10.3-151.3,9.8c-11.3-0.1-22.6-0.7-33.8-2.9C153.9,446.4,151.1,446.1,149.1,443.3z"/>
	<path class="st0" d="M345,246.8c26-8.8,47,8.2,49.6,29.2c0.6,4.8-1.4,9.3-4.4,13c-12.3,15.4-26.9,28.2-44.1,37.7
		c-2.6,1.4-5.6,3.3-8.8,1c-1.2-3.2,0.7-5.6,2.1-7.9c3.4-5.4,7.8-9.9,12-14.6c8.1-9.2,15.5-18.8,17.8-31.3c2.2-11.5-2.7-19.4-13.9-23
		C352.2,249.9,348.7,249.5,345,246.8z"/>
</g>
</svg>
