<?xml version="1.0" encoding="utf-8"?>
<!-- Generator: Adobe Illustrator 21.0.2, SVG Export Plug-In . SVG Version: 6.00 Build 0)  -->
<svg version="1.1" id="Layer_1" xmlns="http://www.w3.org/2000/svg" xmlns:xlink="http://www.w3.org/1999/xlink" x="0px" y="0px"
	 viewBox="0 0 280.2 280.2" style="enable-background:new 0 0 280.2 280.2;" xml:space="preserve">
<style type="text/css">
	.st0{fill:#109DF5;}
</style>
<g>
	<path class="st0" d="M127.8,0.5c1,20.6,2,41.2,3,61.8c0.8,17.2,1.7,34.4,2.5,51.6c0.2,4.7,0.5,9.3,0.8,14.2c-7.2,0-14.1,0-21.4,0
		c-1.1-32.6-2.2-65.1-3.2-97.7c-0.2-0.1-0.5-0.1-0.7-0.2c-6.5,20-13,39.9-19.4,59.9c-5.2,0-10.1,0-15.3,0C68.2,70.1,62.4,50,56.5,30
		c-0.1,0-0.2,0-0.4,0c-0.9,32.7-1.9,65.3-2.8,98.1c-7.1,0-13.8,0-20.6,0c0.5-10.4,1-20.5,1.5-30.6c0.9-18.8,1.9-37.6,2.7-56.4
		c0.6-13.5,1.2-27.1,1.8-40.7c9.4,0,18.7,0,28.1,0c0.2,1.2,0.3,2.4,0.6,3.6c4.2,14.3,8.5,28.5,12.8,42.8c0.9,2.9,1.6,5.9,2.6,9.7
		c2.1-7.3,3.8-13.7,5.7-20C92.2,24.6,96,12.6,99.7,0.5C109.1,0.5,118.4,0.5,127.8,0.5z"/>
	<path class="st0" d="M210.7,0.5c2.1,7.7,4.2,15.4,6.4,23c9.9,33.3,19.8,66.6,29.7,99.9c0.4,1.4,0.7,2.8,1.2,4.6c-9,0-17.6,0-26.6,0
		c-2.3-8.1-4.6-16.3-6.9-24.7c-14.8,0-29.5,0-44.5,0c-2.4,8.2-4.8,16.4-7.2,24.8c-8,0-15.8,0-24,0C151.4,85.5,163.9,43,176.5,0.5
		C187.9,0.5,199.3,0.5,210.7,0.5z M175.9,83.1c11.1,0,21.8,0,33,0c-5.4-19.4-10.8-38.6-16.4-58.8C186.8,44.5,181.3,63.7,175.9,83.1z
		"/>
	<path class="st0" d="M192.9,205.6c5.6-18.4,11.2-36.6,16.8-54.9c9.5,0,18.6,0,28,0c2.1,42.4,4.3,84.7,6.4,127.4c-7.1,0-14,0-21.4,0
		c-1.1-32.4-2.1-64.8-3.2-97.2c-0.3-0.1-0.6-0.1-0.8-0.2c-6.4,19.8-12.8,39.6-19.2,59.4c-5.1,0-10.1,0-15.4,0
		c-5.8-20-11.7-40.1-17.5-60.2c-0.1,0-0.2,0-0.3,0c-0.9,32.6-1.9,65.3-2.9,98.2c-6.9,0-13.5,0-20.6,0c2.1-42.5,4.2-84.9,6.2-127.5
		c9.2,0,18.2,0,27.6,0C181.9,168.9,187.4,187.2,192.9,205.6z"/>
	<path class="st0" d="M38.2,276.1c0-8.4,0-16.2,0-24.3c4.8,1.3,9.4,2.8,14.1,3.9c11.4,2.8,22.9,4.6,34.5,2.3
		c3.1-0.6,6.2-1.8,8.8-3.4c7-4.4,8.2-14.6,1.8-20c-4-3.4-9-5.8-13.8-8c-7.7-3.4-15.8-6-23.4-9.5c-11.2-5.1-19.2-13.3-20.7-26.1
		c-2.4-19.7,7.1-34,26.1-39.8c12.6-3.9,25.5-3.3,38.3-1.7c4.7,0.6,9.4,1.6,14.4,2.5c0,7.4,0,14.5,0,22.1c-1.2-0.3-2.4-0.6-3.5-0.9
		c-11.5-3.2-23.2-5.3-35.1-3.3c-6.1,1-12,2.8-13.8,9.9c-1.1,4.1-0.7,8.3,3,10.8c4.5,3.1,9.2,5.8,14.2,8c8.2,3.7,16.8,6.5,24.9,10.4
		c10.3,5,18.2,12.8,19.7,24.7c2.7,21.5-6.7,37.2-27.9,43.8c-13.2,4.1-26.8,3.9-40.4,2.4C52.3,278.9,45.4,277.4,38.2,276.1z"/>
</g>
</svg>
