<?xml version="1.0" encoding="utf-8"?>
<!-- Generator: Adobe Illustrator 21.0.2, SVG Export Plug-In . SVG Version: 6.00 Build 0)  -->
<svg version="1.1" id="Layer_1" xmlns="http://www.w3.org/2000/svg" xmlns:xlink="http://www.w3.org/1999/xlink" x="0px" y="0px"
	 viewBox="0 0 350.9 351" style="enable-background:new 0 0 350.9 351;" xml:space="preserve">
<style type="text/css">
	.st0{fill:#0D9BF5;}
</style>
<g>
	<path class="st0" d="M0,328.9C0,227,0,125.2,0,23.3C4.4,12.2,12.1,4.4,23.3,0c102.3,0,204.6,0,307,0c2.1,2.6,5.5,2.9,8,4.9
		c7.1,5.7,12.7,11.8,12.7,22c-0.2,99.5-0.1,198.9-0.1,298.4c0,4.8-0.6,9.2-3.7,13.1c-5.8,7.2-12,12.5-22.4,12.5
		c-99.1-0.2-198.2-0.1-297.4-0.2c-1.6,0-3.2,0-4.8-0.1c-2.2-0.1-4.2-0.7-6.2-1.9C8.5,344.2,3.5,337.2,0,328.9z M64.5,48.9
		c0,86,0,171.9,0,257.3c1.7,1.8,3.1,3.4,4.4,4.8c2.3,0,4.2,0,5.6,0c15.3-15.3,30.3-30.3,45.5-45.5c0-0.9,0-2.2,0-3.4
		c0-30.1,0-60.3,0-90.4c0-1.9-0.1-3.7,2.3-4.6c17.3,17.2,34.4,34.7,52.3,51.4c1.2,0.1,2.4,0.3,3.5-0.8c8.4-8.5,17.3-16.7,25.3-25.5
		c8.5-9.4,17.9-17.8,26.4-27c1.1,0.2,1.9,0.6,2.5,1.3c0,33.2,0,66.5,0,99.1c15.3,15.3,30.3,30.3,45.4,45.5c1.7,0,3.6,0,5.3,0
		c1.7-1.6,3.3-3.1,4.7-4.4c0-86,0-171.8,0-257.6c-1.5-1.5-3-3-4.4-4.4c-1.9,0-3.6,0-5.4,0c-1.5,1.3-3.2,2.5-4.7,3.8
		c-6.3,5.9-12.2,12.2-18.6,18.1c-8.8,8.2-17.5,16.6-26.2,24.8c-16.2,15.4-31.9,31.3-47.8,47c-1,1-1.8,2.1-2.3,2.8
		c-1.8,0-2.9,0-3.9,0c-11.2-10.5-21.5-21.6-32.6-31.9C130,98,118.6,86.4,106.6,75.4C98,67.4,89.8,59.1,81.4,50.9
		c-2.3-2.3-4.7-4.6-7.4-6.3c-1.8,0-3.5,0-5.1,0C67.3,46.1,65.9,47.5,64.5,48.9z"/>
</g>
</svg>
