<?xml version="1.0" encoding="utf-8"?>
<!-- Generator: Adobe Illustrator 21.0.2, SVG Export Plug-In . SVG Version: 6.00 Build 0)  -->
<svg version="1.1" id="Layer_1" xmlns="http://www.w3.org/2000/svg" xmlns:xlink="http://www.w3.org/1999/xlink" x="0px" y="0px"
	 viewBox="0 0 256 256" style="enable-background:new 0 0 256 256;" xml:space="preserve">
<style type="text/css">
	.st0{fill:#0D9BF5;}
</style>
<g>
	<path class="st0" d="M136,1c2.8,2.2,6,0.7,9,1c11.3,1.1,22.5,2,32,9.1c8.1,6,12.8,14,12.9,24.2c0.1,19.3-0.4,38.7,0.2,58
		c0.5,15-13.2,30.4-26.6,31c-3.7,0.2-7.5,0.7-11.3,0.7c-18,0.1-36,0.4-54-0.1C80,124.4,61.4,142.4,62,161.2c0.3,9.3,0,18.6,0,28.8
		c-11.4-0.4-23,1.9-33.8-2.5c-11.9-4.9-17-15.6-20.2-27.3c-3.9-14.1-5.1-28.6-3.8-43.1c1-10.6,2.5-21.3,7.7-31.1
		c7-13.2,18.3-19.7,32.6-19.9C70.7,65.6,96.8,66,123,66c1.8,0,3.6,0,5.6,0c0.7-2.4,0.5-4.4,0.2-6.8c-20.1,0-40,0-60.4,0
		c0-10.2-0.3-20.1,0.1-30c0.2-3.9,0.9-8,3.3-11.6C78,8.2,88,6.1,97.9,4.1c7.4-1.5,14.9-2.5,22.6-2.1c0.7,0,1.3-0.2,1.5-1
		C126.7,1,131.3,1,136,1z M88,23.5c-4.7,7.3-4.8,12.4-0.2,16.4c4.6,4.1,10.2,4.1,14.6,0.1c4.2-3.8,4.8-9.6,1.3-14.7
		C100.7,20.9,94.8,20.2,88,23.5z"/>
	<path class="st0" d="M190,196.8c0,9.6,0.9,18.7-0.2,27.5c-1.7,13.2-11.4,20.2-22.9,24.5c-13.8,5.2-28.1,8.2-42.9,7
		c-15-1.2-29.8-3.8-42.6-12.7C72.6,237,68,229,68,218.3c0-18,0-36,0-54c0-19.8,13.5-33.3,33.3-33.3c19.5,0,39-0.1,58.5,0
		c17.4,0.1,32.9-13.7,36.3-31.3c0.9-4.6,0.9-9.2,0.9-13.8c0-6.5,0-12.9,0-19.8c10.8,0.2,21.3-1.2,31.5,1.1
		c7.1,1.6,11.9,6.7,15.5,12.8c6,10.5,8.1,22.3,10.1,34c1.3,7.7,1.5,15.6,0.9,23.3c-1.3,16.2-5.7,31.5-15.6,44.6
		c-4.7,6.2-12.2,8-19.8,8c-27.8,0.1-55.7,0-83.5,0c-1.8,0-3.6,0-5.6,0c-0.7,2.3-0.5,4.4-0.2,6.8C150,196.8,169.6,196.8,190,196.8z
		 M163.4,213c-5.6,0-11.5,5.6-11.3,10.6c0.1,5.5,6,11.3,11.4,11.4c5.2,0,10.5-5.5,10.5-10.9C174.1,218,169.3,213,163.4,213z"/>
</g>
</svg>
