<?xml version="1.0" encoding="utf-8"?>
<!-- Generator: Adobe Illustrator 21.1.0, SVG Export Plug-In . SVG Version: 6.00 Build 0)  -->
<svg version="1.1" id="Layer_1" xmlns="http://www.w3.org/2000/svg" xmlns:xlink="http://www.w3.org/1999/xlink" x="0px" y="0px"
	 viewBox="0 0 256 256" style="enable-background:new 0 0 256 256;" xml:space="preserve">
<style type="text/css">
	.st0{fill:#0E9CF5;}
</style>
<g>
	<path class="st0" d="M102.7,170.9c5.6,16.4-6.5,36.7-23.2,39.5c-6,1-9.5-2-8-7.9c1-4.3,3.1-8.7,5.6-12.3
		C82.2,182.7,93.8,174.4,102.7,170.9z"/>
	<path class="st0" d="M128,2.4C58.7,2.4,2.4,58.7,2.4,128S58.7,253.6,128,253.6S253.6,197.3,253.6,128S197.3,2.4,128,2.4z
		 M207.2,72.8c-4,15.3-13.3,26.8-26.3,35c-16.8,10.6-35.4,14.4-55.1,11.7c-6.1-0.8-11.5-3.7-15.7-8.3c-1.5-1.6-2.4-3.7-3.3-5.7
		c-0.3-0.6,0.4-1.6,0.6-2.4c0.7,0.2,1.6,0.2,2.1,0.6c8.6,8.7,19.2,8.9,30.1,7.1c19.4-3.1,36-11.4,48-27.4c4.1-5.4,6.9-11.5,6.8-18.5
		c-0.1-5.3-2.4-9.3-7-12c-6.1-3.6-12.8-4.7-19.7-4.8c-19.3-0.3-36.9,5.9-53.8,14.7c-12.4,6.4-24.4,13.6-34.1,23.8
		c-3.2,3.4-6.2,7.2-8.6,11.2c-6.6,11.1-5.6,22.5,3.2,31.9c5.1,5.4,11.1,10,16.8,14.8c4.7,4,9.6,7.8,14.1,12c1.7,1.6,3.1,1.8,5.2,1.3
		c10.6-2.3,21.4-3.2,31.9,0.6c10.3,3.7,17.6,10.4,19.9,21.5c1.7,8.1-2.2,15.8-9.7,19.2c-1.2,0.5-2.6,0.5-3.9,0.8
		c-0.2-0.4-0.3-0.9-0.5-1.3c1-0.8,1.9-1.6,2.9-2.3c6.6-5,7.9-12,3.4-19.1c-5-7.7-12.9-10.5-21.3-11.9c-6.7-1.1-13.5-1.4-19.3,0.7
		c0.3,7.2,1.2,13.8,0.7,20.4c-1.8,22.8-23.8,40-46.1,36.4c-6.8-1.1-11.4-6.3-12.2-13.9c-0.9-8.6,1.8-16.1,7.6-22.4
		c8.6-9.3,19.3-15.7,30.3-21.7c0.9-0.5,1.8-1,3.2-1.9c-4.9-3.5-9.7-6.6-14-10.1c-8.9-7.1-18.3-13.8-26.1-22
		c-11.4-11.9-12.4-22.6-4.4-37c3.6-6.5,8.2-12.6,13.4-17.9c15.2-15.7,34-25.8,53.9-34.1c15.4-6.4,31.2-10.2,47.9-9.3
		c8.3,0.5,16.4,2,23.9,5.8C205.5,45.5,211.1,58,207.2,72.8z"/>
	<path class="st0" d="M79.5,210.3c-6,1-9.5-2-8-7.9c1-4.3,3.1-8.7,5.6-12.3c5.1-7.4,16.8-15.7,25.6-19.2
		C108.2,187.2,96.1,207.6,79.5,210.3z"/>
</g>
</svg>
