<?xml version="1.0" encoding="utf-8"?>
<!-- Generator: Adobe Illustrator 21.0.2, SVG Export Plug-In . SVG Version: 6.00 Build 0)  -->
<svg version="1.1" id="Layer_1" xmlns="http://www.w3.org/2000/svg" xmlns:xlink="http://www.w3.org/1999/xlink" x="0px" y="0px"
	 viewBox="0 0 280.2 280.2" style="enable-background:new 0 0 280.2 280.2;" xml:space="preserve">
<style type="text/css">
	.st0{fill:#0E9CF5;}
</style>
<g>
	<path class="st0" d="M158,0.5c4.6,1.7,9.6,1.3,14.3,2c13.1,2,26,4.6,38.1,10.3c4,1.9,7.8,4.2,11,7.4c5.8,5.9,5.8,12.1,0.1,18
		c-4,4.1-8.9,6.7-14.1,8.9c-12.7,5.4-26.2,7.8-39.8,9.5c-0.7,0.1-1.3,0.2-2.3,0.3c1.3,6.8,0.5,13.2-3,19.6c5.1,0.7,9.9,1.3,14.7,2
		c11.5,1.8,22.8,4.5,33.4,9.5c3.5,1.7,6.8,3.6,9.8,6.2c7.4,6.5,7.4,13.9,0.1,20.4c-4.2,3.8-9.2,6.3-14.4,8.3
		c-10.7,4.3-21.8,6.6-33.1,8.2c-0.8,0.1-1.5,0.3-2.5,0.5c-0.7,7.1-1.6,14.1-4.9,20.7c11.7,1.5,23,3.4,33.8,7
		c6.7,2.3,13.3,5,18.8,9.5c8.6,7,8.7,15,0,22c-8.3,6.7-18.2,9.7-28.4,12.2c-17.3,4.3-34.9,5.7-52.6,5.6c-1.8,0-3.6,0-5.7,0
		c0,4.5,0,8.8,0,13c-5,0.8-10.2,0.2-15.2,1.6c0,9.1,0,18,0,26.9c16.4,0,32.5,0,48.6,0c0-4.3,0-8.4,0-12.8c-11.2,0-22.2,0-33.4,0
		c0-5.5,0-10.6,0-15.7c11.8,0,23.5,0.1,35.2,1.4c14.1,1.6,28,4.1,41.1,9.6c3.4,1.4,6.6,3.1,9.6,5.2c11.5,8,11.4,17.3-0.1,25.3
		c-3,2.1-6.3,3.7-9.6,5.2c-12.7,5.3-26.2,7.9-39.8,9.5c-21.1,2.4-42.2,2-63.1-1.3c-11.5-1.8-22.8-4.5-33.4-9.6
		c-4.1-2-8-4.4-11.2-7.7c-5.3-5.6-5.4-11.7-0.1-17.3c4-4.2,9-6.9,14.3-9.2c12.7-5.4,26.2-7.8,39.8-9.5c0.4-0.1,0.9-0.1,1.6-0.2
		c0-5.1,0-10.1,0-15.3c-10.7-1.2-21.2-2.8-31.3-5.8c-7.2-2.1-14.3-4.7-20.6-8.9c-12.1-8.1-12.1-17.8,0.1-25.8
		c10.8-7.1,23.1-10,35.6-12.4c3.4-0.6,6.7-1.1,10.6-1.8c-2.5-7.1-3.6-14.3-3.8-21.9c-8.4-1.6-16.6-3.1-24.6-5.8
		c-7-2.4-13.9-5.2-19.7-10.1c-7.8-6.7-7.9-14.2-0.1-20.8c8.4-7.1,18.7-10.3,29.2-12.8c6.2-1.5,12.5-2.6,18.9-3.9
		c0.1-2.2,0.2-4.5,0.3-7c6.5,2,12.7,3.7,19.1,4.4c4,0.4,8,0.3,11.9-0.5c9.3-2,10.8-10.9,4.8-16.1c3.4-0.2,6.5-0.4,9.6-0.7
		c3-0.3,6.2,0.1,9.4-0.9c-1.9-6.2-6.2-9.9-11.6-12.8c-5.4-2.9-11.3-4.6-16.9-7c-2-0.8-3.9-1.7-5.8-2.9c-2.7-1.7-4.5-4-4-7.3
		c0.5-3.3,2.5-5.4,5.8-6.5c5.3-1.8,10.8-1.3,16.2-0.8c3.8,0.4,7.5,1.6,11.4,2.4c0-4.3,0-8.5,0-12.8c-11.6-2.9-23.1-4.3-34.7-0.2
		c-14.1,5-17.5,20.5-11.7,30.6c3,5.2,7.8,8.3,13.2,10.5c4.1,1.6,8.2,3.2,12.3,4.8c2,0.8,3.9,1.6,6.2,3.3c-4.9,0-9.2,0.2-13.4,0
		c-18.4-0.9-36.6-3-54-9.4c-5-1.9-9.9-4.1-14.2-7.3c-10.2-7.6-10.2-16.3,0.1-23.9c7.4-5.4,16-8.3,24.7-10.6
		c10.7-2.9,21.7-4.4,32.7-5.4c0.9-0.1,2.1,0.5,2.8-0.7C135.1,0.5,146.5,0.5,158,0.5z M163.6,155.8c-2.5,3.3-4.9,6.3-8.1,8.5
		c-3.3,2.3-7,3.6-10.7,4.9c0.7,4,2.1,7.2,5.7,8.9c5.7,2.6,10.8,0.9,15.6-2.8c2.3,3.5,4.5,6.8,6.6,10.1c-12.6,12.1-32.6,8.2-41.4-7.8
		c0,9.3,0,18.3,0,27.5c0.7,0.1,1.3,0.2,1.8,0.2c14.5,0.3,29-0.4,43.3-2.9c11.9-2,23.7-4.8,34.4-10.7c3.1-1.7,6-3.8,8.2-6.6
		c2.6-3.5,2.6-6.6,0-10.1c-1.9-2.5-4.3-4.4-7-6C197.1,160.5,180.4,158,163.6,155.8z M141.5,88c0.7,0.2,1.2,0.4,1.8,0.4
		c14.4,1.8,22,10.7,25.3,24.2c1.2,5,1.4,10.1,1.8,15.3c2.3,0.4,4.2-0.3,6.2-0.6c10.8-1.8,21.5-4.2,31.5-8.8c3.5-1.6,6.9-3.5,9.9-6.1
		c5.9-5.3,5.9-10,0.1-15.3c-1.8-1.6-3.8-2.9-5.9-4.1c-6.6-3.7-13.8-6.1-21.1-7.9c-10.5-2.7-21.2-4.3-31.9-5
		c-2.5,2.4-5.2,4.1-8.3,5.2C147.9,86.3,144.8,87,141.5,88z M130.4,171c0.2-0.4,0.4-0.7,0.6-1.1c-7.6-2.9-15.3-5.7-19.1-13.6
		c-16.2,2.2-31.8,4.9-45.8,13.3c-1.8,1.1-3.5,2.5-5,4.1c-4.1,4.2-4.1,8.3-0.1,12.6c2.8,3,6.2,5,9.8,6.8c9.3,4.5,19.2,7.1,29.3,8.9
		c5.1,0.9,10.2,1.9,15.8,2c0-11.1,0-21.9,0-33C120.9,171,125.6,171,130.4,171z M132,88.5c-7.4-0.5-14.9-0.9-22-3.1
		c-0.1-1.5-0.2-2.6-0.4-4c-11.8,1.6-23.2,4-34.1,8.6c-4.3,1.8-8.5,3.9-12,7.1c-5.7,5.2-5.7,9.9,0,15.1c1.6,1.4,3.4,2.7,5.3,3.8
		c11.5,6.5,24,9.3,37.1,11.4C107.4,109.3,112.2,93.9,132,88.5z M154.1,129.6c0.1-6.3-0.2-11.9-2.1-17.4c-2.4-6.8-6.4-10-12.9-10.3
		c-7-0.2-12,3-14.6,9.6c-2.2,5.6-2.6,11.5-2.5,17.7C132.7,130.1,143.2,130.3,154.1,129.6z M122.4,132.7c-0.5,7.5,1.7,15,5.1,18.5
		c7.2,0,14.3,0,21.6,0c3.8-5.4,4.8-11.4,4.8-17.9C143.3,133.4,132.9,133.7,122.4,132.7z M144.1,154.9c-4.2,0-7.7,0-11.2,0
		C136.4,156.4,139.9,156.4,144.1,154.9z"/>
</g>
</svg>
