<?xml version="1.0" encoding="utf-8"?>
<!-- Generator: Adobe Illustrator 21.0.2, SVG Export Plug-In . SVG Version: 6.00 Build 0)  -->
<svg version="1.1" id="Layer_1" xmlns="http://www.w3.org/2000/svg" xmlns:xlink="http://www.w3.org/1999/xlink" x="0px" y="0px"
	 viewBox="0 0 867 867" style="enable-background:new 0 0 867 867;" xml:space="preserve">
<style type="text/css">
	.st0{fill:#0D9BF5;}
</style>
<g>
	<path class="st0" d="M55.4,668.8c-16-8.2-32.3-16.5-48.3-24.6c0-139.6,0-278.3,0-418.3c16-8.2,32.5-16.6,48.9-25
		c78.4,59.7,156.2,119,234.9,179c1.5,0,4.3,0,8.1,0c12.6-12.7,25.5-25.9,38.7-39c15.8-15.7,31.4-31.7,47.9-46.8
		c14.4-13.2,27.4-27.8,41.9-40.9c13.1-11.9,24.9-25.2,38-37.1c19.8-18.1,37.7-38.1,57.4-56.3c26.3-24.3,50.9-50.2,76.8-74.7
		c27.8-26.3,54.8-53.5,82.1-80.4c0.8-0.8,1.7-1.5,2.6-2.3c29.8,11.9,59.6,23.5,89.3,35.6c29.6,12.1,59.7,23.1,88.3,36
		c0,241.1,0,480.7,0,719.7c-1.4,4.3-5,5.2-7.8,6.1c-9.5,2.8-18.4,7.2-27.6,10.7c-8,3.1-15.9,6.3-23.9,9.6
		c-9.4,3.8-18.8,7.7-28.3,11.4c-9.2,3.6-18.5,7-27.6,10.6c-9.1,3.7-18.2,7.6-27.3,11.3c-9.2,3.7-18.4,7.1-27.6,10.7
		c-2.6,1-4.8,2.8-9,1.6c-9.5-9.6-19.3-20.4-30.1-30.2c-12.5-11.4-23.7-24.1-36.2-35.3c-10.4-9.3-19.5-19.8-29.9-29
		c-14.6-13-27.5-27.7-41.9-40.8c-11.2-10.1-21.2-21.4-32.4-31.4c-11-9.8-20.7-20.9-31.7-30.7c-10.7-9.4-20-20.2-30.6-29.7
		c-14.9-13.4-28.1-28.5-43-41.9c-12.2-11-23-23.3-35.2-34.2c-12-10.7-22.5-22.9-34.5-33.5c-13.9-12.3-26.2-26.2-39.9-38.8
		c-2.4,0-4.9,0-7.2,0C212,549.6,134,608.9,55.4,668.8z M650.1,599.9c5.3-0.6,5-4.1,5-7.5c0-105,0-210,0-314.9c0-0.7,0-1.3,0-2
		c0.2-3.5-1.4-5.3-4.9-5.4c-7.8,5.6-15.7,11.1-23.3,16.8c-18.9,14.1-37.7,28.3-56.5,42.5c-23,17.3-45.9,34.7-69,51.9
		c-18.5,13.8-37.3,27.2-55.7,41.1c-3.8,2.9-8.4,5.2-11.2,8.9c0,2,0,3.7,0,6.1C506,491.4,578,545.7,650.1,599.9z M85.9,336.3
		c-5.2,0.5-4.9,3.7-4.9,6.7c0,33.5,0,67,0,100.4c0,27.8,0,55.6,0,83.4c0,3.1-0.3,6.2,4.5,6.7c7.3-5.6,14.1-12.3,21.1-18.7
		c16.4-15.1,33.1-29.9,49.7-44.8c9.3-8.3,18.7-16.4,27.8-24.9c3.9-3.7,9.4-6.9,7-14.8C156.4,399.4,121.1,367.8,85.9,336.3z"/>
</g>
</svg>
