<?xml version="1.0" encoding="utf-8"?>
<!-- Generator: Adobe Illustrator 21.0.2, SVG Export Plug-In . SVG Version: 6.00 Build 0)  -->
<svg version="1.1" id="Layer_1" xmlns="http://www.w3.org/2000/svg" xmlns:xlink="http://www.w3.org/1999/xlink" x="0px" y="0px"
	 viewBox="0 0 381 339" style="enable-background:new 0 0 381 339;" xml:space="preserve">
<style type="text/css">
	.st0{fill:#0E9CF5;}
</style>
<g>
	<path class="st0" d="M1,177c0-4.3,0-8.7,0-13c1.3-3,2.5-6.1,4.1-8.9c26.6-46.3,53.3-92.7,80-139C88.7,9.9,94,5.5,100.7,2.9
		c1.1-0.5,2.7-0.4,3.3-1.9c58,0,116,0,174,0c12.2,3.7,18.9,12.8,24.9,23.3c17.8,31.6,36.2,62.8,54.1,94.4
		c8.6,15.3,18.9,29.7,25.1,46.3c0,4,0,8,0,12c-2.3,4.7-4.4,9.5-7,14.1c-24.2,41.8-48.4,83.6-72.2,125.6c-6,10.5-12.7,19.6-24.8,23.3
		c-58,0-116,0-174,0c-13.3-4.7-19.7-15.7-26-27.2c-7.8-14.3-16.3-28.2-24.2-42.4C36.3,239.3,17.1,209,1,177z M191.5,171.2
		c16.4,29.3,32.6,58.1,48.6,86.6c11,0,21.1,0,30.9,0c3.1-2.4,2.1-4.8,0.7-7.3c-5.3-9.4-10.6-18.9-15.9-28.3
		c-9.7-17.2-19.3-34.5-28.9-51.7c0.9-1.7,1.7-3.2,2.5-4.6c13.9-24.8,27.7-49.6,41.6-74.5c1.5-2.8,3.7-5.5-0.2-8.2
		c-10.2,0-20.3,0-31,0c-16,28.6-32.1,57.3-48.4,86.4c-16.5-29.3-32.7-58.1-48.8-86.8c-11.4,0.7-22.1-0.8-33.2,1.9
		c14.7,29.3,30.9,57.2,46.5,85.7c-2.4,4.4-4.8,8.7-7.2,13.1c-12.4,22.2-24.9,44.4-37.3,66.6c-1.6,2.8-2.9,5.5,0.7,7.6
		c10.1,0,20,0,30.7,0C158.9,229.2,175,200.6,191.5,171.2z"/>
</g>
</svg>
