<?xml version="1.0" encoding="utf-8"?>
<!-- Generator: Adobe Illustrator 21.0.2, SVG Export Plug-In . SVG Version: 6.00 Build 0)  -->
<svg version="1.1" id="Layer_1" xmlns="http://www.w3.org/2000/svg" xmlns:xlink="http://www.w3.org/1999/xlink" x="0px" y="0px"
	 viewBox="0 0 272 248" style="enable-background:new 0 0 272 248;" xml:space="preserve">
<style type="text/css">
	.st0{fill:#0D9BF5;}
</style>
<g>
	<path class="st0" d="M108,1c12.3,0,24.7,0,37,0c1.5,2.2,4.1,0.1,5.6,1.4c1.2,2.2,2,4.4,4.5,5.7c3.4,0,7,0,11,0
		c6.8,12,13.7,24,20.5,36c20.6,35.6,41,71.3,61.8,106.8c8.2,14,15.6,28.5,24.5,42.1c0,0.3,0,0.7,0,1c-7.8,13-15.5,25.9-23.4,39.2
		c-30.3,0-60.6,0-91.4,0c3.1,5.6,6,10.7,8.8,15.8c-2.3,0-4.7,0-7,0c-2.3-5.8-5.8-10.9-9.1-16c-38.6,0-76.9,0-115.3,0
		c-2.1-3.3-4.1-6.7-6.2-10.1c-2.4,0-4.7,0-7,0C15.2,210.8,8.1,198.9,1,187c0-1,0-2,0-3c7.1-10,12.7-21,18.7-31.6
		c4.9-8.7,9.7-16.9,19.7-20.8c10.4-4.1,17.7-11.5,22-21.9c1-2.4,2.7-4.5,4-6.8c10-17.3,19.9-34.6,29.7-51.7
		c-2.9-5.2-5.7-10-8.3-14.6c2.8-4.9,5.1-9.4,7.8-13.7C99.2,15.7,102.5,7.7,108,1z M153.3,16.6c-3.6,6.3-6.9,12.1-10.3,17.9
		c-8.2,14.2-16.4,28.5-24.7,42.7c-1.4,2.5-1.7,4.8-0.2,7.4c7.3,12.5,14.6,25.1,21.9,37.6c4,6.9,8.1,13.8,12.3,21
		c12.6-22,24.9-43.4,36.9-64.3C177.1,57.7,165.4,37.4,153.3,16.6z M192.5,84.3c-15.9,27.4-31.3,54.1-47.1,81.4c31.7,0,62.5,0,94.1,0
		C223.8,138.4,208.3,111.7,192.5,84.3z M135.1,193.7c40.2,0,79.9,0,120.4,0c-4.4-7.9-8.6-15.2-12.5-22.3c-40.5,0-80.6,0-121.1,0
		C126.4,179.1,130.7,186.4,135.1,193.7z M105.8,153.7c-11.9,20.7-23.4,40.6-35.2,60.9c23.8,0,46.7,0,70.2,0
		C129.1,194.2,117.6,174.2,105.8,153.7z M38.9,214.8c8.8,0,16.7,0,25.4,0c15.9-27.5,32-55.3,48.4-83.6c-9.1,0-17.2,0-25.5,0
		C71.2,158.9,55.2,186.6,38.9,214.8z M137.4,165.9c5-4,7.4-10,10.3-15.6c0.5-1,0.5-2.8-0.1-3.9c-2.8-5.5-5.2-11.4-10.3-15.4
		c-5.5,0-11,0-16.8,0c-5.2,3.9-7.5,10-10.4,15.6c-0.5,1-0.5,2.8,0.1,3.9c2.8,5.5,5.2,11.4,10.3,15.4
		C126.1,165.9,131.6,165.9,137.4,165.9z M90.3,125.7c15.9,0,30.6,0,45.8,0c-7.6-13.1-15-25.9-23-39.5
		C105.4,99.6,98.1,112.3,90.3,125.7z"/>
</g>
</svg>
