<?xml version="1.0" encoding="utf-8"?>
<!-- Generator: Adobe Illustrator 21.1.0, SVG Export Plug-In . SVG Version: 6.00 Build 0)  -->
<svg version="1.1" id="Layer_1" xmlns="http://www.w3.org/2000/svg" xmlns:xlink="http://www.w3.org/1999/xlink" x="0px" y="0px"
	 viewBox="0 0 1024 1024" style="enable-background:new 0 0 1024 1024;" xml:space="preserve">
<style type="text/css">
	.st0{fill:none;stroke:#0D9CF6;stroke-width:40;stroke-miterlimit:10;}
	.st1{fill:none;stroke:#0D9CF6;stroke-width:20;stroke-miterlimit:10;}
	.st2{fill:#0D9CF6;}
</style>
<g>
	<path class="st0" d="M715.1,435.2L621.5,248c-1.2-2.5-3.8-4-6.5-4c-2.8,0-5.3,1.6-6.5,4l-93.6,187.2c-0.5,1-0.8,2.1-0.8,3.3
		c0,15.4,11.2,29.5,31.4,39.6c18.7,9.3,43.3,14.5,69.5,14.5c26.1,0,50.8-5.1,69.5-14.5c20.3-10.1,31.4-24.2,31.4-39.6
		C715.8,437.4,715.6,436.3,715.1,435.2z"/>
	<path class="st1" d="M667.6,424.6c0-7.3-23.5-13.2-52.7-13.2c-29.1,0-52.7,5.9-52.7,13.2"/>
</g>
<path class="st2" d="M512,8C233.6,8,8,233.6,8,512s225.6,504,504,504s504-225.6,504-504S790.4,8,512,8z M601,683
	c-159.6,0-289-129.4-289-289s129.4-289,289-289s289,129.4,289,289C890,553.6,760.6,683,601,683z"/>
</svg>
