<?xml version="1.0" encoding="utf-8"?>
<!-- Generator: Adobe Illustrator 21.0.2, SVG Export Plug-In . SVG Version: 6.00 Build 0)  -->
<svg version="1.1" id="Layer_1" xmlns="http://www.w3.org/2000/svg" xmlns:xlink="http://www.w3.org/1999/xlink" x="0px" y="0px"
	 viewBox="0 0 98.2 98.2" style="enable-background:new 0 0 98.2 98.2;" xml:space="preserve">
<style type="text/css">
	.st0{fill:#0D9BF5;}
</style>
<g>
	<path class="st0" d="M98.5,14.2c0,23.5,0,47,0,70.6c-0.3,0.1-0.2,0.4-0.3,0.6c-1.8,8.2-9.1,13.2-16.5,13.1c-21.6-0.1-43.3,0-64.9,0
		c-1,0-2.1-0.1-3.1-0.2C6.3,97.1,0.3,90.1,0.3,82.7c0-22.2,0-44.3,0-66.5c0-1,0.1-2,0.3-3c1.3-7.2,8.2-13,15.6-13
		c22,0,44.1,0.1,66.1,0c6.6,0,13.1,4.4,15.3,10.8C97.9,12.1,98.2,13.2,98.5,14.2z M49.4,89.6c1.9,0,3.8,0,5.6-0.3
		c9.8-1.6,17.9-6.2,23.9-14.2c1.4-1.8,1.7-3.8,0.8-6c-7.5-18.1-15-36.1-22.6-54.2c-0.4-1.1-1-2.1-1.8-3c-2-2.3-4.4-3.4-7.4-2.8
		c-3.3,0.6-5.1,2.9-6.3,5.8c-7.5,18-15,36.1-22.5,54.1c-0.9,2.3-0.6,4.3,0.9,6.3C27.4,84.8,37.3,89.5,49.4,89.6z"/>
	<path class="st0" d="M70.7,71C59.6,84.5,38.6,84,28,71c7.1-17,14.2-34,21.4-51.3C56.6,36.9,63.6,54,70.7,71z M33.8,66.7
		c8.7-5.8,17.7-6.6,27.2-2.3c1.4,0.6,2.7,1.5,4.3,2.4c-1.7-4-3.2-7.7-4.8-11.5c-7.5-2.4-14.9-2.5-22.4,0c-1.5,3.8-3,7.5-4.5,11.1
		c-0.2,0.1-0.3,0.2-0.2,0.5C33.6,66.9,33.7,66.8,33.8,66.7z"/>
</g>
</svg>
