<?xml version="1.0" encoding="utf-8"?>
<!-- Generator: Adobe Illustrator 21.0.2, SVG Export Plug-In . SVG Version: 6.00 Build 0)  -->
<svg version="1.1" id="Layer_1" xmlns="http://www.w3.org/2000/svg" xmlns:xlink="http://www.w3.org/1999/xlink" x="0px" y="0px"
	 viewBox="0 0 65.3 48.2" style="enable-background:new 0 0 65.3 48.2;" xml:space="preserve">
<style type="text/css">
	.st0{fill:#0E9CF5;}
</style>
<g>
	<path class="st0" d="M0.2,31c0-2,0-4,0-6c0.4-0.2,0.3-0.7,0.4-1.1C1.5,19,4.1,15.1,7.8,12c4.3-3.6,9.4-5,15-4.4
		c0.8,0.1,1.3-0.1,1.9-0.7c3.5-3.3,7.6-5.5,12.4-6.3c0.4-0.1,0.9,0.1,1.2-0.4c1.9,0,3.8,0,5.8,0c0.2,0.4,0.6,0.2,0.8,0.3
		c12.8,1.8,21.7,13.8,20.4,26.3c-1.2,10.6-9.1,19.3-19.6,21.2c-0.4,0.1-1,0-1.3,0.4c-8.9,0-17.8,0-26.6,0c-0.2-0.4-0.6-0.3-0.9-0.4
		c-5-0.9-8.9-3.6-12.1-7.3c-2.1-2.5-3.4-5.4-4.1-8.6C0.5,31.7,0.6,31.2,0.2,31z M29,9.4c1.1,0.7,2.2,1.3,3.2,2
		c0.5,0.4,0.9,0.4,1.5,0.1c1.9-1.2,4-1.9,6.2-2c7.1-0.6,13.6,3.7,15.8,10.4c2.1,6.5-0.7,14-6.7,17.7C43.2,41,35.6,40,30.6,35
		c-2.9-2.9-5.7-5.8-8.6-8.7c-1.2-1.2-2.5-1.3-3.5-0.3c-1,1-0.9,2.2,0.3,3.5c3.2,3.2,6.5,6.4,9.7,9.6c1.6,1.6,3.5,2.8,5.6,3.6
		c9.2,3.5,19.5-0.3,24.3-8.9c4.7-8.5,2.4-19.1-5.5-25.1C45.9,3.4,35.3,3.6,29,9.4z M27.1,43.7c-1.4-1.3-2.8-2.7-4.2-4
		c-0.4-0.4-0.9-0.3-1.4-0.3c-1.3,0-2.6,0-3.9-0.4c-4.6-1.3-8-5.3-8.4-10c-0.4-4.9,2.1-9.3,6.6-11.4c4.3-2,9.5-1.1,12.9,2.2
		c2.1,2.1,4.2,4.3,6.3,6.4c0.9,0.9,2.2,0.9,3.1,0.1c0.9-0.8,0.9-2.1,0-3.1c-2.4-2.4-4.7-4.9-7.2-7.2c-6.8-6.3-17.9-4.6-23,2.5
		C1.3,27.7,6,40.8,17,43.5C20.3,44.3,23.6,43.8,27.1,43.7z"/>
</g>
</svg>
