<?xml version="1.0" encoding="utf-8"?>
<!-- Generator: Adobe Illustrator 21.0.2, SVG Export Plug-In . SVG Version: 6.00 Build 0)  -->
<svg version="1.1" id="Layer_1" xmlns="http://www.w3.org/2000/svg" xmlns:xlink="http://www.w3.org/1999/xlink" x="0px" y="0px"
	 viewBox="0 0 221.9 215.7" style="enable-background:new 0 0 221.9 215.7;" xml:space="preserve">
<style type="text/css">
	.st0{fill:#0E9CF5;}
</style>
<g>
	<path class="st0" d="M0,0c74.1,0,147.8,0,221.9,0c0,71.9,0,143.6,0,215.7c-73.9,0-147.7,0-221.9,0C0,144,0,72.3,0,0z M9.9,205.8
		c67.5,0,134.7,0,202.2,0c0-65.3,0-130.4,0-195.8c-67.5,0-134.7,0-202.2,0C9.9,75.4,9.9,140.5,9.9,205.8z"/>
	<path class="st0" d="M132,150.6c-6.3,0-11.8,0-17.6,0c-2.6-9.4-5.2-18.8-7.9-28.1c-10.1,0-19.7,0-29.5,0
		c-2.6,9.5-5.1,18.7-7.6,28.2c-5.2,0-10.2,0-16,0C63,116.8,72.4,83.3,82,49.2c6,0,12.8,0,20.1,0C112.1,82.8,122,116.5,132,150.6z
		 M102.5,106.9c-3.6-13.8-7-27-10.8-41.7c-3.7,14.6-7.1,28-10.5,41.7C88.5,106.9,95.1,106.9,102.5,106.9z"/>
	<path class="st0" d="M145.2,76c6.1,0,11.2,0,16.7,0c0,24.8,0,49.4,0,74.7c-5.6,0.3-11.3,0.5-16.7-0.2
		C145.2,125.6,145.2,101.1,145.2,76z"/>
	<path class="st0" d="M153.9,46.5c5.6,0.1,9.6,4.3,9.5,9.9c-0.1,5.4-4.1,9.1-9.8,9.1c-5.6,0-9.3-3.9-9.2-9.8
		C144.5,50.1,148.3,46.4,153.9,46.5z"/>
</g>
</svg>
