<?xml version="1.0" encoding="utf-8"?>
<!-- Generator: Adobe Illustrator 21.0.2, SVG Export Plug-In . SVG Version: 6.00 Build 0)  -->
<svg version="1.1" id="Layer_1" xmlns="http://www.w3.org/2000/svg" xmlns:xlink="http://www.w3.org/1999/xlink" x="0px" y="0px"
	 viewBox="0 0 256 256" style="enable-background:new 0 0 256 256;" xml:space="preserve">
<style type="text/css">
	.st0{fill:#0E9CF5;}
</style>
<g>
	<path class="st0" d="M32.4,72.8c30.9-17.4,61.9-34.9,93.4-52.6c31.3,17.7,62.6,35.4,93.9,53c0,39.4,0.2,78.5-0.6,117.9
		c-13.3,0-26.2,0-39.8,0c-5-16-10.2-32.5-15.7-49.7c-13.3,14.8-25,30-37.7,45.2c-13-15.7-25.7-31-38.9-46.9
		C80,157,75.2,174.3,69.2,191.4c-12.3,0-24.4,0-36.8,0C32.4,152,32.4,112.8,32.4,72.8z"/>
	<path class="st0" d="M143.5,237.7c3.1-8.4,5.9-15.8,8.7-23.3c2.5-0.6,4.9-0.6,7.6,0c0,9.7,0,19.3,0,29c-1.2,1.2-2.7,0.5-4.6,0.4
		c0-7.3,0-14.7,0-22.1c-0.3-0.1-0.6-0.1-0.9-0.2c-2.7,7.3-5.4,14.7-8,21.8c-1.7,0.9-3.2,0.6-5.2,0.4c-2.7-7.2-5.5-14.7-8.4-22.1
		c-0.2,0-0.4,0.1-0.6,0.1c0,7.2,0,14.4,0,21.3c-1.3,1.3-2.4,0.9-3.9,0.7c0-9.7,0-19.4,0-29.2c2-0.9,3.9-0.4,6.4-0.4
		C137.4,221.6,140.3,229.2,143.5,237.7z"/>
	<path class="st0" d="M192.1,243.4c-1.9,0.9-3.6,0.5-5.5,0.4c-1-2.5-1.9-5-3-7.7c-4,0-8,0-12,0c-2,2.1-2.1,5.2-3.6,7.5
		c-1.5,0.5-3,0.5-5.1,0c3.9-9.9,7.7-19.8,11.5-29.5c2.3,0,4.1,0,6.4,0C184.5,223.9,188.3,233.6,192.1,243.4z M177.4,218.3
		c-2,5.3-3.7,9.8-5.5,14.4c3.8,0,7.2,0,10.7,0C181,228,179.4,223.6,177.4,218.3z"/>
	<path class="st0" d="M225.3,214.2c2.3,0,3.9,0,5.8,0c3.9,9.7,7.8,19.4,11.8,29.1c-1.2,1.3-2.7,0.5-4.4,0.6
		c-1.1-2.4-2.2-4.9-3.3-7.6c-4.2,0-8.3,0-12.6,0c-1.5,2.1-3.1,4.4-3.7,7.2c-1.4,0.9-2.9,0.3-4.9,0.5
		C217.8,233.8,221.5,224,225.3,214.2z M228.5,218.3c-2,5.4-3.7,9.8-5.4,14.6c3.8,0,7.1,0,10.8,0
		C232.1,228.2,230.5,223.7,228.5,218.3z"/>
	<path class="st0" d="M205.8,243.7c-2.6,0-4,0-6.2,0c3.4-12-5.4-19.8-9.9-28.9c1.8-1.2,3.3-0.8,5.3-0.6c2.4,4.1,5,8.4,7.9,13.3
		c2.9-4.8,5.5-9.1,8-13.2c1.9,0,3.4,0,5,0C212.1,224,202.1,231.2,205.8,243.7z"/>
</g>
</svg>
