<?xml version="1.0" encoding="utf-8"?>
<!-- Generator: Adobe Illustrator 21.1.0, SVG Export Plug-In . SVG Version: 6.00 Build 0)  -->
<svg version="1.1" id="Layer_1" xmlns="http://www.w3.org/2000/svg" xmlns:xlink="http://www.w3.org/1999/xlink" x="0px" y="0px"
	 viewBox="0 0 256 256" style="enable-background:new 0 0 256 256;" xml:space="preserve">
<style type="text/css">
	.st0{fill:#7D7FC2;}
	.st1{fill:#0D9CF6;}
</style>
<path class="st0" d="M61.4,22.3h-9.8C54.9,22.1,58.2,22.2,61.4,22.3z"/>
<path class="st1" d="M129.7,233c-2-6.6-3.9-13.1-5.8-19.6c-0.2,0-0.5,0-0.7,0.1c0,6.5,0,12.9,0,19.3c-1.9,0.8-3.3,0.8-4.9,0.1
	c0-9.9,0-19.9,0-30.1c2-0.9,4.1-0.3,6.4-0.4c3.6,8,4.2,16.9,8,25.1c3.4-8.1,5.2-16.6,7.9-24.9c1.9,0,3.9,0,6.2,0c0,10,0,20.1,0,30.3
	c-1.2,0.9-2.7,0.5-4.5,0.2c0-6.4,0-12.7,0-19.1c-0.3-0.1-0.7-0.1-1-0.2c-1.9,6.3-3.8,12.6-5.7,19.1
	C133.6,233.6,131.7,233.4,129.7,233z"/>
<path class="st1" d="M208.7,206.9c-5.2-6.4-12.5-4.3-19.4-4.5v30.4c11.4,1.4,16.4,0,20-5.5C212,223.2,211.9,210.9,208.7,206.9z
	 M203.1,227c-2.5,2.3-5.5,2.7-8.9,2v-22.5c2.8-0.3,5-0.3,7.2,0.6c1,0.4,1.8,0.8,2.4,1.6C206.4,211.5,205.9,224.4,203.1,227z"/>
<path class="st1" d="M174,226.5c0-7.8,0-15.6,0-23.4c1.4-1.4,2.9-0.7,4.3-0.7c0.2,0.3,0.6,0.6,0.6,0.8c0,9.8,0,19.6,0,29.4
	c-2.2,1.5-3.5,0.1-4.9-1.4c-0.9,0.6-1.7,1.2-2.5,1.6c-7.6,4-15.1-0.3-15.4-8.9c-0.2-7,0-14,0-20.8c1.4-1.4,2.9-0.7,4.5-0.8
	c0.1,0.6,0.4,1.2,0.4,1.8c0,5.8,0.1,11.7,0,17.5c-0.1,3.5,0.3,6.8,4.1,8.1C168.8,231.2,171.7,229.6,174,226.5z"/>
<path class="st1" d="M179,190.2C179,190.2,179,190.2,179,190.2c-1-0.1-1.9-0.2-2.8-0.3c-3.4-3.4-6.8-6.8-10.3-10.2
	c1-23.2,4.3-46.5-1.2-70.5c-2.5,2-4.7,4-6.8,6.1c-10.1,13.6-19.7,27.5-29.5,42.3c-0.1-0.1-0.1-0.2-0.2-0.3
	c-5.6-8.4-10.8-16.6-16.3-24.5c-3.7-5.4-7.4-10.9-12.1-16c-2.4-2.6-5-5.1-8-7.4c-5.5,24-2.2,47.3-1.2,70.5
	c-3.4,3.4-6.8,6.8-10.3,10.2c-5.5,0.6-11,0.2-16.4-0.3c-3-0.3-5.9-0.5-8.9-0.6h-0.1c-2-0.1-4-0.2-6-0.2c-1.4,0-2.8,0-4.1,0.1V22.3
	h39.5h1.8l0.5,1c4.9,10.1,9.5,19.9,14.5,29.5c5.5,10.5,11.8,20.6,20.6,29c1.8,1.7,3.6,2.9,5.8,3.4c2.7-0.2,4.9-1.6,7-3.6
	c8.8-8.3,15-18.4,20.6-28.9c5.1-9.6,9.6-19.5,14.5-29.5l0.3-0.7l0.8,0l1.2,0h39.4v166.7"/>
<path class="st0" d="M55.2,189.2c2.9,0.1,5.9,0.4,8.9,0.6C61.1,189.6,58.2,189.4,55.2,189.2z"/>
<path class="st0" d="M112,132.8c5.5,8,10.7,16.1,16.3,24.5c0,0,0,0.1-0.1,0.1c-9.4-14.1-18.6-27.6-28.3-40.6
	C104.6,121.9,108.2,127.4,112,132.8z"/>
<path class="st0" d="M209.1,22.5h-19.8C195.9,22,202.5,21.7,209.1,22.5z"/>
</svg>
