<?xml version="1.0" encoding="utf-8"?>
<!-- Generator: Adobe Illustrator 21.0.2, SVG Export Plug-In . SVG Version: 6.00 Build 0)  -->
<svg version="1.1" id="Layer_1" xmlns="http://www.w3.org/2000/svg" xmlns:xlink="http://www.w3.org/1999/xlink" x="0px" y="0px"
	 viewBox="0 0 194.7 190.2" style="enable-background:new 0 0 194.7 190.2;" xml:space="preserve">
<style type="text/css">
	.st0{fill:#0E9CF5;}
</style>
<g>
	<path class="st0" d="M194.7,190.2c-65,0-129.7,0-194.7,0C0,126.7,0,63.5,0,0c65,0,129.7,0,194.7,0
		C194.7,63.5,194.7,126.7,194.7,190.2z M8.2,8.4c0,58,0,115.7,0,173.4c59.7,0,118.9,0,178.3,0c0-58,0-115.7,0-173.4
		C126.9,8.4,67.7,8.4,8.2,8.4z"/>
	<path class="st0" d="M47.1,43.6c10.9,0,21.6-0.9,32,0.2c12.3,1.3,20.5,10.5,21.7,22C102.5,81.2,97.2,93,85,97.4
		c-7.2,2.6-15.1,3.1-23.7,4.8c0,4.2,0,9.4,0,14.7c0,5.1,0,10.2,0,15.6c-5,0-9.4,0-14.2,0C47.1,103,47.1,73.6,47.1,43.6z M62.2,56.7
		c0,10.6,0,20.6,0,30.9c8.2,0.1,16.5,1.2,21.6-6.7c3.7-5.7,3.7-12.3,0.1-18C78.7,54.9,70.4,56.4,62.2,56.7z"/>
	<path class="st0" d="M109.1,130.8c0-5,0-9.4,0-13.8c4.3,1.4,8.2,3.2,12.4,4c3,0.6,6.4,0.4,9.3-0.3c4.8-1.3,5.9-6.3,2.3-9.7
		c-2.3-2.1-5.2-3.6-7.9-5.3c-2.4-1.5-5-2.7-7.4-4.2c-7.6-4.7-10.6-11.6-8.7-20.3c1.8-8.4,7.4-13.1,15.7-14.9
		c7.3-1.6,14.5-0.8,21.8,1.7c0,4.6,0,8.9,0,13.2c-4.5-1-8.8-2.1-13.2-2.8c-1.9-0.3-4-0.1-5.9,0.4c-4.9,1.4-6.1,6.3-2.1,9.5
		c3.2,2.5,7.1,4.3,10.6,6.4c6.9,4.1,13.1,8.6,13.8,17.6c0.7,10.2-4.4,17.9-14.2,20.7C126.5,135.6,117.8,134.6,109.1,130.8z"/>
</g>
</svg>
