<?xml version="1.0" encoding="utf-8"?>
<!-- Generator: Adobe Illustrator 21.0.2, SVG Export Plug-In . SVG Version: 6.00 Build 0)  -->
<svg version="1.1" id="Layer_1" xmlns="http://www.w3.org/2000/svg" xmlns:xlink="http://www.w3.org/1999/xlink" x="0px" y="0px"
	 viewBox="0 0 214.3 200.2" style="enable-background:new 0 0 214.3 200.2;" xml:space="preserve">
<style type="text/css">
	.st0{fill:#0D9BF5;}
</style>
<g>
	<path class="st0" d="M98.4,94.7c1.8,0.1,3.3-0.1,4.9-0.1c5.3,0.1,10.5,1,15.6,2.3c10.9,2.7,21.1,7.1,30.7,12.9
		c5.6,3.4,10.8,7.2,15.8,11.4c4.9,4.2,9.4,8.7,13.3,13.8c5.7,7.3,10.6,15,14.5,23.5c1,2.2,1.8,4.5,2.3,6.9c0.4,2.2-1.4,3.9-3.6,3.3
		c-2.5-0.7-4.8-2-7-3.4c-6-3.9-11.6-8.2-17.1-12.9c-2.3-2-4.5-4.1-5.3-7.3c-0.4-1.7,0.1-3.2,0.7-4.6c1.6-4.4,0-7.7-3-10.8
		c-3.3-3.4-7.6-5.1-11.8-6.9c-6.1-2.6-12.4-4.3-18.8-5.5c-3.5-0.6-7.1-1-10.6-1.5c-2.9-0.4-5.8-0.8-8.7-1.2
		c-2.1-0.2-4.2-0.4-6.3-0.5c-3.1-0.2-6.1-0.4-9.2-0.4c-3.7,0-7.5,0.3-11.2,0.4c-0.7,0-1,0.5-1.3,0.9c-4.1,5.3-9.2,9.8-13.9,14.6
		C60,138,50.8,145,40.5,150.8c-6.8,3.8-13.8,7.2-21.6,8.9c-3.6,0.8-7.2,1.1-10.9,0.7c-2.4-0.3-3.2-1.8-2.9-4.4
		c0.4-4.4,2.6-8.1,5.1-11.6c2.9-3.9,6-7.7,9.6-11.1c3.8-3.7,7.9-7,12.1-10.3c8-6.2,16.9-10.9,25.8-15.6c8.8-4.7,18.1-8.3,27.8-10.8
		c0.6-0.1,1-0.4,1.3-0.9c3.1-4.2,6.4-8.3,9.8-12.2c3.7-4.3,7.7-8.4,11.8-12.4c1.9-1.8,3.9-3.5,5.8-5.4c-1-0.9-2.2-1.5-3.3-2.2
		c-4.8-3-9.3-6.4-14.2-9.3c-4.6-2.7-9.4-5.1-14.7-6.4c-4.1-1-8-0.6-11.9,1c-4.6,1.8-8.9,4.2-12.9,7.2c-3.3,2.5-5.2,5.8-5.6,9.9
		c-0.1,1.2,0.1,2.4,0,3.6c-0.2,2.2-1.5,3.6-3.3,4.7C42.5,77.9,36,80.5,29.1,82c-0.3,0.1-0.6,0-1,0c-1.5,0.2-2.8-1-2.1-2.9
		c0.8-2.3,2.3-4.3,3.7-6.3c2.3-3.4,4.9-6.5,7.6-9.6c1.8-2,3.6-4.1,5.6-6c4.6-4.4,9.5-8.3,15-11.4c4.5-2.5,9.1-4.9,14.1-6.4
		c3-0.9,6.1-1.4,9.2-1.9c3.4-0.5,6.7-0.5,10.1-0.4c5.3,0.1,10.5,1.1,15.6,2.5c7.1,1.9,13.8,5,20.7,7.6c1.9,0.7,3.8,1.5,5.7,2.3
		c0.7,0.3,1.3,0.2,2-0.2c3.3-2.3,6.6-4.6,10.2-6.5c3.8-2.1,7.7-3.3,12.1-2.8c3,0.4,6,1.2,8.2,3.6c2.6,2.8,2.8,6.2,1.3,9.6
		c-1.3,3.1-3.5,5.5-5.8,7.8c-3.3,3.3-6.8,6.3-10.8,8.8c-3.6,2.2-7.5,3.6-11.7,4.1c-5.1,0.6-9.7-0.9-14.2-2.8
		c-0.4-0.2-0.8-0.4-1.2-0.6c-2.3-1.1-2.3-1.1-4,0.7c-3.6,3.6-7.3,7.2-10.7,11.2c-2.8,3.3-5.6,6.7-8.4,10.1
		C99.7,93.1,99.1,93.8,98.4,94.7z M70.5,115.8c-3.3,0.5-6.3,1.2-9.4,2c-8.7,2.2-16.9,5.6-24.8,9.7c-4.6,2.4-9,5.1-12.7,8.7
		c-3.8,3.7-6.5,8-7.6,13.1c-0.3,1.4,0.5,2.7,1.9,3.2c2,0.6,3.9-0.1,5.8-0.7c4.7-1.4,9-3.9,13.1-6.5c7-4.2,13.4-9.2,19.4-14.6
		c3.2-2.9,6.3-5.9,9.1-9.2C67,119.7,69,118.1,70.5,115.8z M142.1,52.4c0.2,0.1,0.2,0.3,0.3,0.3c4.4,1.2,8.8,2,13.3,1.2
		c2.5-0.4,4.9-1.4,6.7-3.2c1.6-1.6,1.3-2.8-0.9-3.5c-3.1-1-6.2-0.4-9.2,0.4C148.7,48.6,145.4,50.5,142.1,52.4z"/>
	<path class="st0" d="M72.5,180.7c2.6,0.6,4.7,1.7,6.1,3.6c2,2.8,1.6,6.2-0.9,8.9c-2.4,2.5-5.4,3.5-8.7,3.7
		c-8.1,0.5-16.2,0.2-24.3,0.3c-1,0-1.4-0.2-1.3-1.3c0-9.5,0-19,0-28.4c0-0.4,0-0.7,0-1c0.3-0.4,0.7-0.3,1-0.3c7.3,0,14.6-0.1,21.9,0
		c3.3,0,6.4,0.8,9,3c3.4,2.9,3.3,7.3-0.6,10.1C74.1,179.8,73.4,180.2,72.5,180.7z M52.8,184.1c0,2.4,0,4.8,0,7.3c3.3,0,6.4,0,9.6,0
		c1.6,0,3.2,0.1,4.8-0.3c1.8-0.4,3.1-1.6,3.3-3.2c0.1-1.5-1-3-2.8-3.5c-1.1-0.3-2.2-0.5-3.4-0.5c-3.5,0-7,0-10.4,0
		C53.5,184,53.1,183.9,52.8,184.1z M52.8,178.2c4.1,0,8.1,0.1,12.2,0c1.3,0,2.6-0.6,3.5-1.8c1.2-1.7-0.1-4-2.6-4.4
		c-1.8-0.3-3.6-0.2-5.4-0.2c-2.5,0-5.1,0-7.7,0C52.8,174,52.8,176.1,52.8,178.2z"/>
	<path class="st0" d="M118.6,31.8c-3.3,0.1-6.5-0.4-9.3-2c-4.5-2.6-7.4-6.4-7.1-11.9c0.2-2.9,1.4-5.5,3.1-8c1.7-2.6,3.8-4.8,6.6-6.2
		c4.6-2.3,9-1.7,13.1,1.2c2.9,2.1,5.1,4.7,6.9,7.8c1.6,2.9,3.2,5.8,3.8,9.1c0.3,1.5,0.4,3,0.1,4.5c-0.4,1.6-1.4,2.7-2.9,3.3
		c-2.8,1-5.6,1.3-8.5,1.7C122.4,31.6,120.5,31.9,118.6,31.8z"/>
	<path class="st0" d="M25.3,171.8c-6.7,0-13,0-19.5,0c0-1.9,0-3.6,0-5.5c10.5,0,21,0,31.7,0c0,1.6,0,3.2,0,4.8
		c0,0.4-0.4,0.6-0.6,0.8c-2.8,2.5-5.5,4.9-8.3,7.4c-3.5,3.1-7.1,6.2-10.6,9.3c-1,0.9-2.1,1.8-3.3,2.9c8.1,0,15.8,0,23.7,0
		c0,1.9,0,3.7,0,5.6c-11.6,0-23.2,0-34.9,0c0-1.9-0.2-3.9,0.1-5.8c0.1-0.7,1.2-1.4,1.9-2c3.8-3.3,7.5-6.6,11.3-9.9
		c2.5-2.1,4.9-4.3,7.4-6.4C24.4,172.7,24.8,172.3,25.3,171.8z"/>
	<path class="st0" d="M112.2,197.2c-2.7,0-4.9,0-7.2,0c-0.5,0-0.8-0.3-1.1-0.6c-1.7-1.8-3.6-3.5-5.2-5.5c-1.9-2.2-4.1-2.9-7-2.5
		c0,2.8,0,5.6,0,8.5c-2.2,0-4.3,0-6.5,0c0-7,0-13.9,0-20.9c0.2-0.3,0.6-0.1,0.9-0.1c5,0,10-0.1,15,0c1.9,0,3.8,0.3,5.6,1.4
		c2.3,1.4,3.5,4.1,2.5,6.5c-0.8,2-2.6,3.1-4.6,3.6c-0.6,0.2-1.2,0.4-1.9,0.3C106.7,189.9,108.9,193.9,112.2,197.2z M91.7,184.8
		c3.2-0.3,6.2,0.3,9.2-0.3c1.3-0.2,2-1,2.1-2.1c0-1.1-0.7-2-1.9-2.2c-3.1-0.5-6.2-0.2-9.3-0.3c0,0.4,0,0.6,0,0.8
		C91.7,182,91.7,183.3,91.7,184.8z"/>
	<path class="st0" d="M142.4,190.1c1.8-0.5,3.7-0.2,5.5-0.5c0.4-0.1,0.6,0.2,0.7,0.5c0.7,3.1,4.6,3.7,7.1,3.4
		c1.1-0.1,2.2-0.2,3.2-0.9c0.7-0.4,1.2-0.9,1.3-1.8c0-1-0.8-1.3-1.5-1.6c-1.9-0.6-4-0.9-6-1.3c-2.6-0.5-5.2-0.9-7.4-2.7
		c-2.7-2.4-2.4-6,0.8-7.8c3.1-1.8,6.5-2.1,10.1-1.8c2.1,0.2,4.2,0.4,6.1,1.5c1.7,1,2.9,2.3,3.4,4.2c0.1,0.6,0,1-0.7,1
		c-1.8,0-3.7,0-5.6,0c-0.6-2.2-2.3-2.9-4.4-2.8c-1.4,0-2.8-0.2-4.1,0.5c-0.6,0.3-1.2,0.4-1.2,1.3c0,0.9,0.7,1.1,1.3,1.3
		c1.9,0.7,3.9,0.9,5.9,1.3c2.4,0.5,4.9,0.9,7,2.3c3.5,2.2,3.5,6.9-0.1,9.3c-1.8,1.2-3.9,1.7-5.9,1.8c-2.9,0.2-5.9,0.2-8.8-0.4
		C145.3,196.2,142.6,193.4,142.4,190.1z"/>
	<path class="st0" d="M170.7,176.2c2.1,0,4.2,0,6.4,0c0,2.6,0,5.2,0,8c3.7,0,7.3,0,11,0c0-2.7,0-5.3,0-8c2.1,0,4.1,0,6.2,0
		c0,7,0,13.9,0,21c-2,0-4,0-6.2,0c0-1.9,0-3.9,0-5.9c0-3.1,0-3.1-3.1-3.1c-2.6,0-5.2,0-7.9,0c0,3.1,0,6,0,9.1c-2,0-4,0-5.9,0
		c-0.3,0-0.5-0.1-0.5-0.5C170.7,189.9,170.7,183.1,170.7,176.2z"/>
	<path class="st0" d="M131.8,176.1c0.5,0,0.9,0,1.2,0c1.6,0,3.3,0,4.8,0c0.4,0.3,0.2,0.7,0.2,1c0,4.2-0.1,8.4,0,12.6
		c0.1,4.4-2.5,6.4-5.5,7.1c-4.4,1-8.8,1.2-13.1-0.3c-2.9-0.9-4.4-2.9-4.7-6c-0.4-4.8,0-9.5-0.3-14.3c2.2,0,4.3,0,6.4,0
		c0.3,0.4,0.2,0.9,0.2,1.3c0,4,0,8.1,0,12.1c0,1.8,0.6,2.7,2.3,3.4c2.1,0.8,4.2,0.8,6.2,0.1c1.8-0.6,2.2-1.2,2.2-3.7
		c0.1-3.9,0-7.8,0-11.8C131.8,177.1,131.8,176.7,131.8,176.1z"/>
	<path class="st0" d="M211.9,161.5c0.4,2.9-2.6,5.6-5.4,5.6c-3.1,0-5.7-2.9-5.6-5.5c0.1-3.2,2.3-5.7,5.6-5.7
		C209.7,155.8,212.2,158.4,211.9,161.5z M209.3,164.3c1.1-0.5,1.3-1.6,1.4-2.6c0.2-2.4-1.3-4-3.8-4.4c-1.9-0.3-4.1,1.2-4.5,3.2
		c-0.5,2.1,0.8,4.2,2.9,5C206.7,165.9,208.5,165.4,209.3,164.3L209.3,164.3z"/>
	<path class="st0" d="M209.3,164.3c-1.3,0.6-1.7,0.4-2.4-0.8c-0.3-0.6-0.4-1.4-1.4-1.3c-0.6,0.7,0.7,2.6-1.5,2.3
		c-0.2-2-0.1-4-0.1-6.2c1.3,0,2.6-0.2,3.9,0.2c1.4,0.5,1.4,2,0,3.4C208.3,162.7,208.8,163.5,209.3,164.3
		C209.3,164.3,209.3,164.3,209.3,164.3z M205.5,159.8c-0.2,0.5-0.2,0.8,0,1.1c0.7,0.1,1.5,0.2,1.8-0.7
		C206.8,159.5,206.2,159.9,205.5,159.8z"/>
</g>
</svg>
